<svg xmlns="http://www.w3.org/2000/svg" width="2000px" height="2800px" viewBox="0 0 2000 2800">
<metadata>10_linea_suplementos_back_qr / editable / 2000x2800 px</metadata>
<g id="fondo_editable">
<rect x="0" y="0" width="2000" height="2800" rx="0" fill="#F6EFE3"/>
<circle cx="300" cy="300" r="380" fill="#173F2F" opacity=".16"/>
<circle cx="1700" cy="200" r="330" fill="#315EE8" opacity=".08"/>
<circle cx="1900" cy="2650" r="410" fill="none" stroke="#173F2F" stroke-width="90" opacity=".14"/>
<circle cx="-40" cy="2400" r="230" fill="#173F2F" opacity=".10"/>
</g>
<g id="marco_y_decoracion_editable">
<rect x="70" y="70" width="1860" height="2660" rx="70" fill="none" stroke="#CFC2B2" stroke-width="4" opacity=".7"/>
<rect x="1600" y="210" width="210" height="92" rx="46" fill="#173F2F" stroke="#161513" stroke-width="6" transform="rotate(-14 1705 256)" opacity=".92"/>
<rect x="1435" y="315" width="158" height="76" rx="38" fill="#F5C54D" stroke="#161513" stroke-width="5" transform="rotate(18 1514 353)" opacity=".86"/>
</g>
<g id="header_marca">
<rect x="120" y="105" width="74" height="74" rx="24" fill="#173F2F"/>
<text class="txt" x="136" y="153" fill="#FFFFFF" font-family="DejaVu Sans, Arial, Helvetica, sans-serif" font-size="34" font-weight="700">RD</text>
<text class="txt" x="215" y="161" fill="#161513" font-family="DejaVu Sans, Arial, Helvetica, sans-serif" font-size="42" font-weight="700">Reduciendo Daño</text>
<rect x="1480" y="116" width="400" height="60" rx="30" fill="#FFFFFF" stroke="#D9CEC0" stroke-width="2" opacity=".7"/>
<text class="txt" x="1515" y="148" fill="#173F2F" font-family="DejaVu Sans, Arial, Helvetica, sans-serif" font-size="24" font-weight="700">INFORMACIÓN GENERAL</text>
</g>
<g id="titulo">
<text class="txt" x="120" y="287" fill="#173F2F" font-family="DejaVu Sans, Arial, Helvetica, sans-serif" font-size="27" font-weight="700">LÍNEA</text>
<text class="txt" x="120" y="390" fill="#161513" font-family="DejaVu Sans, Arial, Helvetica, sans-serif" font-size="76" font-weight="700">Línea de Suplementos RD</text>
</g>
<g id="cajas_editables">
<rect x="120" y="620" width="1760" height="560" rx="44" fill="#FFFFFF" stroke="#D9CEC0" stroke-width="3" opacity=".64"/>
<rect x="120" y="1240" width="1760" height="940" rx="44" fill="#FFFFFF" stroke="#D9CEC0" stroke-width="3" opacity=".64"/>
<rect x="120" y="2230" width="1760" height="380" rx="44" fill="#FFFFFF" stroke="#D9CEC0" stroke-width="3" opacity=".85"/>
</g>
<g id="contenido_texto">
<text class="txt" x="185" y="723" fill="#173F2F" font-family="DejaVu Sans, Arial, Helvetica, sans-serif" font-size="48" font-weight="700">Descripción</text>
<text class="txt" x="185" y="795" fill="#161513" font-family="DejaVu Sans, Arial, Helvetica, sans-serif" font-size="44" font-weight="400">Suplementos alimenticios desarrollados por Reduciendo Daño</text>
<text class="txt" x="185" y="857" fill="#161513" font-family="DejaVu Sans, Arial, Helvetica, sans-serif" font-size="44" font-weight="400">para acompañar al organismo desde una perspectiva de reducción</text>
<text class="txt" x="185" y="919" fill="#161513" font-family="DejaVu Sans, Arial, Helvetica, sans-serif" font-size="44" font-weight="400">de daños.</text>
<text class="txt" x="185" y="1013" fill="#161513" font-family="DejaVu Sans, Arial, Helvetica, sans-serif" font-size="44" font-weight="400">Cada producto tiene un perfil diferenciado de nutrientes,</text>
<text class="txt" x="185" y="1075" fill="#161513" font-family="DejaVu Sans, Arial, Helvetica, sans-serif" font-size="44" font-weight="400">pensado para contextos concretos de la vida cotidiana.</text>
<text class="txt" x="185" y="1343" fill="#173F2F" font-family="DejaVu Sans, Arial, Helvetica, sans-serif" font-size="48" font-weight="700">Productos</text>
<text x="185" y="1407" fill="#161513" font-family="DejaVu Sans, Arial, Helvetica, sans-serif" font-size="33" font-weight="700">•</text>
<text class="txt" x="235" y="1407" fill="#161513" font-family="DejaVu Sans, Arial, Helvetica, sans-serif" font-size="33" font-weight="400">Pre Fiesta: apoya el metabolismo energético y la respuesta al estrés antes de</text>
<text class="txt" x="235" y="1453" fill="#161513" font-family="DejaVu Sans, Arial, Helvetica, sans-serif" font-size="33" font-weight="400">situaciones de alta demanda.</text>
<text x="185" y="1513" fill="#161513" font-family="DejaVu Sans, Arial, Helvetica, sans-serif" font-size="33" font-weight="700">•</text>
<text class="txt" x="235" y="1513" fill="#161513" font-family="DejaVu Sans, Arial, Helvetica, sans-serif" font-size="33" font-weight="400">Post Fiesta: complementa la recuperación nutricional tras contextos de alta exigencia</text>
<text class="txt" x="235" y="1559" fill="#161513" font-family="DejaVu Sans, Arial, Helvetica, sans-serif" font-size="33" font-weight="400">fisiológica.</text>
<text x="185" y="1619" fill="#161513" font-family="DejaVu Sans, Arial, Helvetica, sans-serif" font-size="33" font-weight="700">•</text>
<text class="txt" x="235" y="1619" fill="#161513" font-family="DejaVu Sans, Arial, Helvetica, sans-serif" font-size="33" font-weight="400">Impulso: contribuye al estado de alerta y la concentración en actividades que requieren</text>
<text class="txt" x="235" y="1665" fill="#161513" font-family="DejaVu Sans, Arial, Helvetica, sans-serif" font-size="33" font-weight="400">foco sostenido.</text>
<text x="185" y="1725" fill="#161513" font-family="DejaVu Sans, Arial, Helvetica, sans-serif" font-size="33" font-weight="700">•</text>
<text class="txt" x="235" y="1725" fill="#161513" font-family="DejaVu Sans, Arial, Helvetica, sans-serif" font-size="33" font-weight="400">Hongos Adaptógenos: acompaña procesos de regulación y bienestar en rutinas exigentes.</text>
<text x="185" y="1785" fill="#161513" font-family="DejaVu Sans, Arial, Helvetica, sans-serif" font-size="33" font-weight="700">•</text>
<text class="txt" x="235" y="1785" fill="#161513" font-family="DejaVu Sans, Arial, Helvetica, sans-serif" font-size="33" font-weight="400">Citrato y Bisglicinato de Magnesio: complementa la ingesta diaria de magnesio, mineral</text>
<text class="txt" x="235" y="1831" fill="#161513" font-family="DejaVu Sans, Arial, Helvetica, sans-serif" font-size="33" font-weight="400">esencial.</text>
<text x="185" y="1891" fill="#161513" font-family="DejaVu Sans, Arial, Helvetica, sans-serif" font-size="33" font-weight="700">•</text>
<text class="txt" x="235" y="1891" fill="#161513" font-family="DejaVu Sans, Arial, Helvetica, sans-serif" font-size="33" font-weight="400">Creatina: la molécula más estudiada en suplementación nutricional. En polvo (1 kg) y en</text>
<text class="txt" x="235" y="1937" fill="#161513" font-family="DejaVu Sans, Arial, Helvetica, sans-serif" font-size="33" font-weight="400">gomitas.</text>
<text x="185" y="1997" fill="#161513" font-family="DejaVu Sans, Arial, Helvetica, sans-serif" font-size="33" font-weight="700">•</text>
<text class="txt" x="235" y="1997" fill="#161513" font-family="DejaVu Sans, Arial, Helvetica, sans-serif" font-size="33" font-weight="400">Proteína: proteína de suero de leche para apoyar la recuperación muscular y el aporte</text>
<text class="txt" x="235" y="2043" fill="#161513" font-family="DejaVu Sans, Arial, Helvetica, sans-serif" font-size="33" font-weight="400">proteico diario.</text>
</g>
<g id="bloque_qr">
<rect x="157" y="2227" width="386" height="386" fill="#FFFFFF"/>
<rect x="205.0" y="2275.0" width="11.60" height="11.60" fill="#161513"/>
<rect x="216.6" y="2275.0" width="11.60" height="11.60" fill="#161513"/>
<rect x="228.2" y="2275.0" width="11.60" height="11.60" fill="#161513"/>
<rect x="239.8" y="2275.0" width="11.60" height="11.60" fill="#161513"/>
<rect x="251.4" y="2275.0" width="11.60" height="11.60" fill="#161513"/>
<rect x="263.0" y="2275.0" width="11.60" height="11.60" fill="#161513"/>
<rect x="274.6" y="2275.0" width="11.60" height="11.60" fill="#161513"/>
<rect x="344.2" y="2275.0" width="11.60" height="11.60" fill="#161513"/>
<rect x="367.4" y="2275.0" width="11.60" height="11.60" fill="#161513"/>
<rect x="413.8" y="2275.0" width="11.60" height="11.60" fill="#161513"/>
<rect x="425.4" y="2275.0" width="11.60" height="11.60" fill="#161513"/>
<rect x="437.0" y="2275.0" width="11.60" height="11.60" fill="#161513"/>
<rect x="448.6" y="2275.0" width="11.60" height="11.60" fill="#161513"/>
<rect x="460.2" y="2275.0" width="11.60" height="11.60" fill="#161513"/>
<rect x="471.8" y="2275.0" width="11.60" height="11.60" fill="#161513"/>
<rect x="483.4" y="2275.0" width="11.60" height="11.60" fill="#161513"/>
<rect x="205.0" y="2286.6" width="11.60" height="11.60" fill="#161513"/>
<rect x="274.6" y="2286.6" width="11.60" height="11.60" fill="#161513"/>
<rect x="297.8" y="2286.6" width="11.60" height="11.60" fill="#161513"/>
<rect x="309.4" y="2286.6" width="11.60" height="11.60" fill="#161513"/>
<rect x="355.8" y="2286.6" width="11.60" height="11.60" fill="#161513"/>
<rect x="367.4" y="2286.6" width="11.60" height="11.60" fill="#161513"/>
<rect x="413.8" y="2286.6" width="11.60" height="11.60" fill="#161513"/>
<rect x="483.4" y="2286.6" width="11.60" height="11.60" fill="#161513"/>
<rect x="205.0" y="2298.2" width="11.60" height="11.60" fill="#161513"/>
<rect x="228.2" y="2298.2" width="11.60" height="11.60" fill="#161513"/>
<rect x="239.8" y="2298.2" width="11.60" height="11.60" fill="#161513"/>
<rect x="251.4" y="2298.2" width="11.60" height="11.60" fill="#161513"/>
<rect x="274.6" y="2298.2" width="11.60" height="11.60" fill="#161513"/>
<rect x="297.8" y="2298.2" width="11.60" height="11.60" fill="#161513"/>
<rect x="309.4" y="2298.2" width="11.60" height="11.60" fill="#161513"/>
<rect x="321.0" y="2298.2" width="11.60" height="11.60" fill="#161513"/>
<rect x="332.6" y="2298.2" width="11.60" height="11.60" fill="#161513"/>
<rect x="344.2" y="2298.2" width="11.60" height="11.60" fill="#161513"/>
<rect x="367.4" y="2298.2" width="11.60" height="11.60" fill="#161513"/>
<rect x="379.0" y="2298.2" width="11.60" height="11.60" fill="#161513"/>
<rect x="390.6" y="2298.2" width="11.60" height="11.60" fill="#161513"/>
<rect x="413.8" y="2298.2" width="11.60" height="11.60" fill="#161513"/>
<rect x="437.0" y="2298.2" width="11.60" height="11.60" fill="#161513"/>
<rect x="448.6" y="2298.2" width="11.60" height="11.60" fill="#161513"/>
<rect x="460.2" y="2298.2" width="11.60" height="11.60" fill="#161513"/>
<rect x="483.4" y="2298.2" width="11.60" height="11.60" fill="#161513"/>
<rect x="205.0" y="2309.8" width="11.60" height="11.60" fill="#161513"/>
<rect x="228.2" y="2309.8" width="11.60" height="11.60" fill="#161513"/>
<rect x="239.8" y="2309.8" width="11.60" height="11.60" fill="#161513"/>
<rect x="251.4" y="2309.8" width="11.60" height="11.60" fill="#161513"/>
<rect x="274.6" y="2309.8" width="11.60" height="11.60" fill="#161513"/>
<rect x="297.8" y="2309.8" width="11.60" height="11.60" fill="#161513"/>
<rect x="309.4" y="2309.8" width="11.60" height="11.60" fill="#161513"/>
<rect x="332.6" y="2309.8" width="11.60" height="11.60" fill="#161513"/>
<rect x="344.2" y="2309.8" width="11.60" height="11.60" fill="#161513"/>
<rect x="355.8" y="2309.8" width="11.60" height="11.60" fill="#161513"/>
<rect x="390.6" y="2309.8" width="11.60" height="11.60" fill="#161513"/>
<rect x="413.8" y="2309.8" width="11.60" height="11.60" fill="#161513"/>
<rect x="437.0" y="2309.8" width="11.60" height="11.60" fill="#161513"/>
<rect x="448.6" y="2309.8" width="11.60" height="11.60" fill="#161513"/>
<rect x="460.2" y="2309.8" width="11.60" height="11.60" fill="#161513"/>
<rect x="483.4" y="2309.8" width="11.60" height="11.60" fill="#161513"/>
<rect x="205.0" y="2321.4" width="11.60" height="11.60" fill="#161513"/>
<rect x="228.2" y="2321.4" width="11.60" height="11.60" fill="#161513"/>
<rect x="239.8" y="2321.4" width="11.60" height="11.60" fill="#161513"/>
<rect x="251.4" y="2321.4" width="11.60" height="11.60" fill="#161513"/>
<rect x="274.6" y="2321.4" width="11.60" height="11.60" fill="#161513"/>
<rect x="309.4" y="2321.4" width="11.60" height="11.60" fill="#161513"/>
<rect x="332.6" y="2321.4" width="11.60" height="11.60" fill="#161513"/>
<rect x="344.2" y="2321.4" width="11.60" height="11.60" fill="#161513"/>
<rect x="390.6" y="2321.4" width="11.60" height="11.60" fill="#161513"/>
<rect x="413.8" y="2321.4" width="11.60" height="11.60" fill="#161513"/>
<rect x="437.0" y="2321.4" width="11.60" height="11.60" fill="#161513"/>
<rect x="448.6" y="2321.4" width="11.60" height="11.60" fill="#161513"/>
<rect x="460.2" y="2321.4" width="11.60" height="11.60" fill="#161513"/>
<rect x="483.4" y="2321.4" width="11.60" height="11.60" fill="#161513"/>
<rect x="205.0" y="2333.0" width="11.60" height="11.60" fill="#161513"/>
<rect x="274.6" y="2333.0" width="11.60" height="11.60" fill="#161513"/>
<rect x="309.4" y="2333.0" width="11.60" height="11.60" fill="#161513"/>
<rect x="321.0" y="2333.0" width="11.60" height="11.60" fill="#161513"/>
<rect x="367.4" y="2333.0" width="11.60" height="11.60" fill="#161513"/>
<rect x="413.8" y="2333.0" width="11.60" height="11.60" fill="#161513"/>
<rect x="483.4" y="2333.0" width="11.60" height="11.60" fill="#161513"/>
<rect x="205.0" y="2344.6" width="11.60" height="11.60" fill="#161513"/>
<rect x="216.6" y="2344.6" width="11.60" height="11.60" fill="#161513"/>
<rect x="228.2" y="2344.6" width="11.60" height="11.60" fill="#161513"/>
<rect x="239.8" y="2344.6" width="11.60" height="11.60" fill="#161513"/>
<rect x="251.4" y="2344.6" width="11.60" height="11.60" fill="#161513"/>
<rect x="263.0" y="2344.6" width="11.60" height="11.60" fill="#161513"/>
<rect x="274.6" y="2344.6" width="11.60" height="11.60" fill="#161513"/>
<rect x="297.8" y="2344.6" width="11.60" height="11.60" fill="#161513"/>
<rect x="321.0" y="2344.6" width="11.60" height="11.60" fill="#161513"/>
<rect x="344.2" y="2344.6" width="11.60" height="11.60" fill="#161513"/>
<rect x="367.4" y="2344.6" width="11.60" height="11.60" fill="#161513"/>
<rect x="390.6" y="2344.6" width="11.60" height="11.60" fill="#161513"/>
<rect x="413.8" y="2344.6" width="11.60" height="11.60" fill="#161513"/>
<rect x="425.4" y="2344.6" width="11.60" height="11.60" fill="#161513"/>
<rect x="437.0" y="2344.6" width="11.60" height="11.60" fill="#161513"/>
<rect x="448.6" y="2344.6" width="11.60" height="11.60" fill="#161513"/>
<rect x="460.2" y="2344.6" width="11.60" height="11.60" fill="#161513"/>
<rect x="471.8" y="2344.6" width="11.60" height="11.60" fill="#161513"/>
<rect x="483.4" y="2344.6" width="11.60" height="11.60" fill="#161513"/>
<rect x="297.8" y="2356.2" width="11.60" height="11.60" fill="#161513"/>
<rect x="309.4" y="2356.2" width="11.60" height="11.60" fill="#161513"/>
<rect x="321.0" y="2356.2" width="11.60" height="11.60" fill="#161513"/>
<rect x="332.6" y="2356.2" width="11.60" height="11.60" fill="#161513"/>
<rect x="344.2" y="2356.2" width="11.60" height="11.60" fill="#161513"/>
<rect x="379.0" y="2356.2" width="11.60" height="11.60" fill="#161513"/>
<rect x="390.6" y="2356.2" width="11.60" height="11.60" fill="#161513"/>
<rect x="205.0" y="2367.8" width="11.60" height="11.60" fill="#161513"/>
<rect x="274.6" y="2367.8" width="11.60" height="11.60" fill="#161513"/>
<rect x="297.8" y="2367.8" width="11.60" height="11.60" fill="#161513"/>
<rect x="309.4" y="2367.8" width="11.60" height="11.60" fill="#161513"/>
<rect x="321.0" y="2367.8" width="11.60" height="11.60" fill="#161513"/>
<rect x="355.8" y="2367.8" width="11.60" height="11.60" fill="#161513"/>
<rect x="367.4" y="2367.8" width="11.60" height="11.60" fill="#161513"/>
<rect x="402.2" y="2367.8" width="11.60" height="11.60" fill="#161513"/>
<rect x="413.8" y="2367.8" width="11.60" height="11.60" fill="#161513"/>
<rect x="448.6" y="2367.8" width="11.60" height="11.60" fill="#161513"/>
<rect x="460.2" y="2367.8" width="11.60" height="11.60" fill="#161513"/>
<rect x="471.8" y="2367.8" width="11.60" height="11.60" fill="#161513"/>
<rect x="239.8" y="2379.4" width="11.60" height="11.60" fill="#161513"/>
<rect x="251.4" y="2379.4" width="11.60" height="11.60" fill="#161513"/>
<rect x="297.8" y="2379.4" width="11.60" height="11.60" fill="#161513"/>
<rect x="321.0" y="2379.4" width="11.60" height="11.60" fill="#161513"/>
<rect x="367.4" y="2379.4" width="11.60" height="11.60" fill="#161513"/>
<rect x="379.0" y="2379.4" width="11.60" height="11.60" fill="#161513"/>
<rect x="425.4" y="2379.4" width="11.60" height="11.60" fill="#161513"/>
<rect x="437.0" y="2379.4" width="11.60" height="11.60" fill="#161513"/>
<rect x="448.6" y="2379.4" width="11.60" height="11.60" fill="#161513"/>
<rect x="460.2" y="2379.4" width="11.60" height="11.60" fill="#161513"/>
<rect x="471.8" y="2379.4" width="11.60" height="11.60" fill="#161513"/>
<rect x="228.2" y="2391.0" width="11.60" height="11.60" fill="#161513"/>
<rect x="239.8" y="2391.0" width="11.60" height="11.60" fill="#161513"/>
<rect x="274.6" y="2391.0" width="11.60" height="11.60" fill="#161513"/>
<rect x="286.2" y="2391.0" width="11.60" height="11.60" fill="#161513"/>
<rect x="297.8" y="2391.0" width="11.60" height="11.60" fill="#161513"/>
<rect x="321.0" y="2391.0" width="11.60" height="11.60" fill="#161513"/>
<rect x="379.0" y="2391.0" width="11.60" height="11.60" fill="#161513"/>
<rect x="390.6" y="2391.0" width="11.60" height="11.60" fill="#161513"/>
<rect x="402.2" y="2391.0" width="11.60" height="11.60" fill="#161513"/>
<rect x="413.8" y="2391.0" width="11.60" height="11.60" fill="#161513"/>
<rect x="437.0" y="2391.0" width="11.60" height="11.60" fill="#161513"/>
<rect x="448.6" y="2391.0" width="11.60" height="11.60" fill="#161513"/>
<rect x="471.8" y="2391.0" width="11.60" height="11.60" fill="#161513"/>
<rect x="483.4" y="2391.0" width="11.60" height="11.60" fill="#161513"/>
<rect x="205.0" y="2402.6" width="11.60" height="11.60" fill="#161513"/>
<rect x="239.8" y="2402.6" width="11.60" height="11.60" fill="#161513"/>
<rect x="251.4" y="2402.6" width="11.60" height="11.60" fill="#161513"/>
<rect x="263.0" y="2402.6" width="11.60" height="11.60" fill="#161513"/>
<rect x="286.2" y="2402.6" width="11.60" height="11.60" fill="#161513"/>
<rect x="297.8" y="2402.6" width="11.60" height="11.60" fill="#161513"/>
<rect x="309.4" y="2402.6" width="11.60" height="11.60" fill="#161513"/>
<rect x="321.0" y="2402.6" width="11.60" height="11.60" fill="#161513"/>
<rect x="344.2" y="2402.6" width="11.60" height="11.60" fill="#161513"/>
<rect x="367.4" y="2402.6" width="11.60" height="11.60" fill="#161513"/>
<rect x="390.6" y="2402.6" width="11.60" height="11.60" fill="#161513"/>
<rect x="402.2" y="2402.6" width="11.60" height="11.60" fill="#161513"/>
<rect x="413.8" y="2402.6" width="11.60" height="11.60" fill="#161513"/>
<rect x="448.6" y="2402.6" width="11.60" height="11.60" fill="#161513"/>
<rect x="483.4" y="2402.6" width="11.60" height="11.60" fill="#161513"/>
<rect x="205.0" y="2414.2" width="11.60" height="11.60" fill="#161513"/>
<rect x="251.4" y="2414.2" width="11.60" height="11.60" fill="#161513"/>
<rect x="274.6" y="2414.2" width="11.60" height="11.60" fill="#161513"/>
<rect x="321.0" y="2414.2" width="11.60" height="11.60" fill="#161513"/>
<rect x="344.2" y="2414.2" width="11.60" height="11.60" fill="#161513"/>
<rect x="379.0" y="2414.2" width="11.60" height="11.60" fill="#161513"/>
<rect x="390.6" y="2414.2" width="11.60" height="11.60" fill="#161513"/>
<rect x="413.8" y="2414.2" width="11.60" height="11.60" fill="#161513"/>
<rect x="483.4" y="2414.2" width="11.60" height="11.60" fill="#161513"/>
<rect x="205.0" y="2425.8" width="11.60" height="11.60" fill="#161513"/>
<rect x="263.0" y="2425.8" width="11.60" height="11.60" fill="#161513"/>
<rect x="286.2" y="2425.8" width="11.60" height="11.60" fill="#161513"/>
<rect x="355.8" y="2425.8" width="11.60" height="11.60" fill="#161513"/>
<rect x="379.0" y="2425.8" width="11.60" height="11.60" fill="#161513"/>
<rect x="390.6" y="2425.8" width="11.60" height="11.60" fill="#161513"/>
<rect x="425.4" y="2425.8" width="11.60" height="11.60" fill="#161513"/>
<rect x="471.8" y="2425.8" width="11.60" height="11.60" fill="#161513"/>
<rect x="205.0" y="2437.4" width="11.60" height="11.60" fill="#161513"/>
<rect x="228.2" y="2437.4" width="11.60" height="11.60" fill="#161513"/>
<rect x="239.8" y="2437.4" width="11.60" height="11.60" fill="#161513"/>
<rect x="251.4" y="2437.4" width="11.60" height="11.60" fill="#161513"/>
<rect x="263.0" y="2437.4" width="11.60" height="11.60" fill="#161513"/>
<rect x="274.6" y="2437.4" width="11.60" height="11.60" fill="#161513"/>
<rect x="297.8" y="2437.4" width="11.60" height="11.60" fill="#161513"/>
<rect x="332.6" y="2437.4" width="11.60" height="11.60" fill="#161513"/>
<rect x="344.2" y="2437.4" width="11.60" height="11.60" fill="#161513"/>
<rect x="355.8" y="2437.4" width="11.60" height="11.60" fill="#161513"/>
<rect x="367.4" y="2437.4" width="11.60" height="11.60" fill="#161513"/>
<rect x="379.0" y="2437.4" width="11.60" height="11.60" fill="#161513"/>
<rect x="390.6" y="2437.4" width="11.60" height="11.60" fill="#161513"/>
<rect x="402.2" y="2437.4" width="11.60" height="11.60" fill="#161513"/>
<rect x="413.8" y="2437.4" width="11.60" height="11.60" fill="#161513"/>
<rect x="425.4" y="2437.4" width="11.60" height="11.60" fill="#161513"/>
<rect x="437.0" y="2437.4" width="11.60" height="11.60" fill="#161513"/>
<rect x="448.6" y="2437.4" width="11.60" height="11.60" fill="#161513"/>
<rect x="471.8" y="2437.4" width="11.60" height="11.60" fill="#161513"/>
<rect x="483.4" y="2437.4" width="11.60" height="11.60" fill="#161513"/>
<rect x="205.0" y="2449.0" width="11.60" height="11.60" fill="#161513"/>
<rect x="239.8" y="2449.0" width="11.60" height="11.60" fill="#161513"/>
<rect x="286.2" y="2449.0" width="11.60" height="11.60" fill="#161513"/>
<rect x="309.4" y="2449.0" width="11.60" height="11.60" fill="#161513"/>
<rect x="321.0" y="2449.0" width="11.60" height="11.60" fill="#161513"/>
<rect x="332.6" y="2449.0" width="11.60" height="11.60" fill="#161513"/>
<rect x="367.4" y="2449.0" width="11.60" height="11.60" fill="#161513"/>
<rect x="390.6" y="2449.0" width="11.60" height="11.60" fill="#161513"/>
<rect x="413.8" y="2449.0" width="11.60" height="11.60" fill="#161513"/>
<rect x="425.4" y="2449.0" width="11.60" height="11.60" fill="#161513"/>
<rect x="448.6" y="2449.0" width="11.60" height="11.60" fill="#161513"/>
<rect x="460.2" y="2449.0" width="11.60" height="11.60" fill="#161513"/>
<rect x="483.4" y="2449.0" width="11.60" height="11.60" fill="#161513"/>
<rect x="205.0" y="2460.6" width="11.60" height="11.60" fill="#161513"/>
<rect x="228.2" y="2460.6" width="11.60" height="11.60" fill="#161513"/>
<rect x="239.8" y="2460.6" width="11.60" height="11.60" fill="#161513"/>
<rect x="251.4" y="2460.6" width="11.60" height="11.60" fill="#161513"/>
<rect x="274.6" y="2460.6" width="11.60" height="11.60" fill="#161513"/>
<rect x="286.2" y="2460.6" width="11.60" height="11.60" fill="#161513"/>
<rect x="297.8" y="2460.6" width="11.60" height="11.60" fill="#161513"/>
<rect x="332.6" y="2460.6" width="11.60" height="11.60" fill="#161513"/>
<rect x="344.2" y="2460.6" width="11.60" height="11.60" fill="#161513"/>
<rect x="355.8" y="2460.6" width="11.60" height="11.60" fill="#161513"/>
<rect x="367.4" y="2460.6" width="11.60" height="11.60" fill="#161513"/>
<rect x="390.6" y="2460.6" width="11.60" height="11.60" fill="#161513"/>
<rect x="402.2" y="2460.6" width="11.60" height="11.60" fill="#161513"/>
<rect x="413.8" y="2460.6" width="11.60" height="11.60" fill="#161513"/>
<rect x="425.4" y="2460.6" width="11.60" height="11.60" fill="#161513"/>
<rect x="437.0" y="2460.6" width="11.60" height="11.60" fill="#161513"/>
<rect x="460.2" y="2460.6" width="11.60" height="11.60" fill="#161513"/>
<rect x="297.8" y="2472.2" width="11.60" height="11.60" fill="#161513"/>
<rect x="309.4" y="2472.2" width="11.60" height="11.60" fill="#161513"/>
<rect x="344.2" y="2472.2" width="11.60" height="11.60" fill="#161513"/>
<rect x="355.8" y="2472.2" width="11.60" height="11.60" fill="#161513"/>
<rect x="390.6" y="2472.2" width="11.60" height="11.60" fill="#161513"/>
<rect x="437.0" y="2472.2" width="11.60" height="11.60" fill="#161513"/>
<rect x="205.0" y="2483.8" width="11.60" height="11.60" fill="#161513"/>
<rect x="216.6" y="2483.8" width="11.60" height="11.60" fill="#161513"/>
<rect x="228.2" y="2483.8" width="11.60" height="11.60" fill="#161513"/>
<rect x="239.8" y="2483.8" width="11.60" height="11.60" fill="#161513"/>
<rect x="251.4" y="2483.8" width="11.60" height="11.60" fill="#161513"/>
<rect x="263.0" y="2483.8" width="11.60" height="11.60" fill="#161513"/>
<rect x="274.6" y="2483.8" width="11.60" height="11.60" fill="#161513"/>
<rect x="309.4" y="2483.8" width="11.60" height="11.60" fill="#161513"/>
<rect x="332.6" y="2483.8" width="11.60" height="11.60" fill="#161513"/>
<rect x="344.2" y="2483.8" width="11.60" height="11.60" fill="#161513"/>
<rect x="390.6" y="2483.8" width="11.60" height="11.60" fill="#161513"/>
<rect x="413.8" y="2483.8" width="11.60" height="11.60" fill="#161513"/>
<rect x="437.0" y="2483.8" width="11.60" height="11.60" fill="#161513"/>
<rect x="483.4" y="2483.8" width="11.60" height="11.60" fill="#161513"/>
<rect x="205.0" y="2495.4" width="11.60" height="11.60" fill="#161513"/>
<rect x="274.6" y="2495.4" width="11.60" height="11.60" fill="#161513"/>
<rect x="321.0" y="2495.4" width="11.60" height="11.60" fill="#161513"/>
<rect x="367.4" y="2495.4" width="11.60" height="11.60" fill="#161513"/>
<rect x="379.0" y="2495.4" width="11.60" height="11.60" fill="#161513"/>
<rect x="390.6" y="2495.4" width="11.60" height="11.60" fill="#161513"/>
<rect x="437.0" y="2495.4" width="11.60" height="11.60" fill="#161513"/>
<rect x="471.8" y="2495.4" width="11.60" height="11.60" fill="#161513"/>
<rect x="483.4" y="2495.4" width="11.60" height="11.60" fill="#161513"/>
<rect x="205.0" y="2507.0" width="11.60" height="11.60" fill="#161513"/>
<rect x="228.2" y="2507.0" width="11.60" height="11.60" fill="#161513"/>
<rect x="239.8" y="2507.0" width="11.60" height="11.60" fill="#161513"/>
<rect x="251.4" y="2507.0" width="11.60" height="11.60" fill="#161513"/>
<rect x="274.6" y="2507.0" width="11.60" height="11.60" fill="#161513"/>
<rect x="332.6" y="2507.0" width="11.60" height="11.60" fill="#161513"/>
<rect x="344.2" y="2507.0" width="11.60" height="11.60" fill="#161513"/>
<rect x="355.8" y="2507.0" width="11.60" height="11.60" fill="#161513"/>
<rect x="379.0" y="2507.0" width="11.60" height="11.60" fill="#161513"/>
<rect x="390.6" y="2507.0" width="11.60" height="11.60" fill="#161513"/>
<rect x="402.2" y="2507.0" width="11.60" height="11.60" fill="#161513"/>
<rect x="413.8" y="2507.0" width="11.60" height="11.60" fill="#161513"/>
<rect x="425.4" y="2507.0" width="11.60" height="11.60" fill="#161513"/>
<rect x="437.0" y="2507.0" width="11.60" height="11.60" fill="#161513"/>
<rect x="460.2" y="2507.0" width="11.60" height="11.60" fill="#161513"/>
<rect x="205.0" y="2518.6" width="11.60" height="11.60" fill="#161513"/>
<rect x="228.2" y="2518.6" width="11.60" height="11.60" fill="#161513"/>
<rect x="239.8" y="2518.6" width="11.60" height="11.60" fill="#161513"/>
<rect x="251.4" y="2518.6" width="11.60" height="11.60" fill="#161513"/>
<rect x="274.6" y="2518.6" width="11.60" height="11.60" fill="#161513"/>
<rect x="321.0" y="2518.6" width="11.60" height="11.60" fill="#161513"/>
<rect x="332.6" y="2518.6" width="11.60" height="11.60" fill="#161513"/>
<rect x="355.8" y="2518.6" width="11.60" height="11.60" fill="#161513"/>
<rect x="367.4" y="2518.6" width="11.60" height="11.60" fill="#161513"/>
<rect x="379.0" y="2518.6" width="11.60" height="11.60" fill="#161513"/>
<rect x="402.2" y="2518.6" width="11.60" height="11.60" fill="#161513"/>
<rect x="413.8" y="2518.6" width="11.60" height="11.60" fill="#161513"/>
<rect x="471.8" y="2518.6" width="11.60" height="11.60" fill="#161513"/>
<rect x="483.4" y="2518.6" width="11.60" height="11.60" fill="#161513"/>
<rect x="205.0" y="2530.2" width="11.60" height="11.60" fill="#161513"/>
<rect x="228.2" y="2530.2" width="11.60" height="11.60" fill="#161513"/>
<rect x="239.8" y="2530.2" width="11.60" height="11.60" fill="#161513"/>
<rect x="251.4" y="2530.2" width="11.60" height="11.60" fill="#161513"/>
<rect x="274.6" y="2530.2" width="11.60" height="11.60" fill="#161513"/>
<rect x="309.4" y="2530.2" width="11.60" height="11.60" fill="#161513"/>
<rect x="355.8" y="2530.2" width="11.60" height="11.60" fill="#161513"/>
<rect x="367.4" y="2530.2" width="11.60" height="11.60" fill="#161513"/>
<rect x="379.0" y="2530.2" width="11.60" height="11.60" fill="#161513"/>
<rect x="402.2" y="2530.2" width="11.60" height="11.60" fill="#161513"/>
<rect x="448.6" y="2530.2" width="11.60" height="11.60" fill="#161513"/>
<rect x="460.2" y="2530.2" width="11.60" height="11.60" fill="#161513"/>
<rect x="483.4" y="2530.2" width="11.60" height="11.60" fill="#161513"/>
<rect x="205.0" y="2541.8" width="11.60" height="11.60" fill="#161513"/>
<rect x="274.6" y="2541.8" width="11.60" height="11.60" fill="#161513"/>
<rect x="309.4" y="2541.8" width="11.60" height="11.60" fill="#161513"/>
<rect x="321.0" y="2541.8" width="11.60" height="11.60" fill="#161513"/>
<rect x="332.6" y="2541.8" width="11.60" height="11.60" fill="#161513"/>
<rect x="344.2" y="2541.8" width="11.60" height="11.60" fill="#161513"/>
<rect x="390.6" y="2541.8" width="11.60" height="11.60" fill="#161513"/>
<rect x="402.2" y="2541.8" width="11.60" height="11.60" fill="#161513"/>
<rect x="413.8" y="2541.8" width="11.60" height="11.60" fill="#161513"/>
<rect x="425.4" y="2541.8" width="11.60" height="11.60" fill="#161513"/>
<rect x="437.0" y="2541.8" width="11.60" height="11.60" fill="#161513"/>
<rect x="483.4" y="2541.8" width="11.60" height="11.60" fill="#161513"/>
<rect x="205.0" y="2553.4" width="11.60" height="11.60" fill="#161513"/>
<rect x="216.6" y="2553.4" width="11.60" height="11.60" fill="#161513"/>
<rect x="228.2" y="2553.4" width="11.60" height="11.60" fill="#161513"/>
<rect x="239.8" y="2553.4" width="11.60" height="11.60" fill="#161513"/>
<rect x="251.4" y="2553.4" width="11.60" height="11.60" fill="#161513"/>
<rect x="263.0" y="2553.4" width="11.60" height="11.60" fill="#161513"/>
<rect x="274.6" y="2553.4" width="11.60" height="11.60" fill="#161513"/>
<rect x="297.8" y="2553.4" width="11.60" height="11.60" fill="#161513"/>
<rect x="309.4" y="2553.4" width="11.60" height="11.60" fill="#161513"/>
<rect x="321.0" y="2553.4" width="11.60" height="11.60" fill="#161513"/>
<rect x="332.6" y="2553.4" width="11.60" height="11.60" fill="#161513"/>
<rect x="344.2" y="2553.4" width="11.60" height="11.60" fill="#161513"/>
<rect x="390.6" y="2553.4" width="11.60" height="11.60" fill="#161513"/>
<rect x="413.8" y="2553.4" width="11.60" height="11.60" fill="#161513"/>
<rect x="448.6" y="2553.4" width="11.60" height="11.60" fill="#161513"/>
<rect x="483.4" y="2553.4" width="11.60" height="11.60" fill="#161513"/>
<text class="txt" x="590" y="2360" fill="#173F2F" font-family="DejaVu Sans, Arial, Helvetica, sans-serif" font-size="46" font-weight="700">Escanea el código</text>
<text class="txt" x="590" y="2432" fill="#161513" font-family="DejaVu Sans, Arial, Helvetica, sans-serif" font-size="40" font-weight="400">y visita reduciendodano.cl</text>
<text class="txt" x="590" y="2510" fill="#675F55" font-family="DejaVu Sans, Arial, Helvetica, sans-serif" font-size="28" font-weight="400">Síguenos en nuestras redes sociales · @reduciendodano.cl</text>
</g>
<g id="footer">
<line x1="120" y1="2640" x2="1880" y2="2640" stroke="#D9CEC0" stroke-width="5"/>
<text class="txt" x="120" y="2716" fill="#173F2F" font-family="DejaVu Sans, Arial, Helvetica, sans-serif" font-size="46" font-weight="700">@ REDUCIENDODANO.CL</text>
<text class="txt" x="1060" y="2698" fill="#675F55" font-family="DejaVu Sans, Arial, Helvetica, sans-serif" font-size="22" font-weight="700">VISITA NUESTRA WEB Y SÍGUENOS EN NUESTRAS REDES</text>
<text class="txt" x="1060" y="2726" fill="#675F55" font-family="DejaVu Sans, Arial, Helvetica, sans-serif" font-size="22" font-weight="700">SOCIALES</text>
</g>
</svg>
