<svg xmlns="http://www.w3.org/2000/svg" xmlns:xlink="http://www.w3.org/1999/xlink" width="2000px" height="2800px" viewBox="0 0 2000 2800">
<metadata>11_post_fiesta_back_qr_dark / editable dark-neon / 2000x2800 px</metadata>
<g id="fondo_editable">
<rect x="0" y="0" width="2000" height="2800" rx="0" fill="#0A0A0A"/>
<circle cx="280" cy="320" r="330" fill="none" stroke="#E67E22" stroke-width="34" opacity=".05"/><circle cx="280" cy="320" r="330" fill="none" stroke="#E67E22" stroke-width="18" opacity=".12"/><circle cx="280" cy="320" r="330" fill="none" stroke="#E67E22" stroke-width="6" opacity=".55"/>
<circle cx="1780" cy="180" r="260" fill="none" stroke="#8B4DFF" stroke-width="34" opacity=".05"/><circle cx="1780" cy="180" r="260" fill="none" stroke="#8B4DFF" stroke-width="18" opacity=".12"/><circle cx="1780" cy="180" r="260" fill="none" stroke="#8B4DFF" stroke-width="6" opacity=".55"/>
<circle cx="1920" cy="2620" r="380" fill="none" stroke="#C800C8" stroke-width="34" opacity=".05"/><circle cx="1920" cy="2620" r="380" fill="none" stroke="#C800C8" stroke-width="18" opacity=".12"/><circle cx="1920" cy="2620" r="380" fill="none" stroke="#C800C8" stroke-width="6" opacity=".55"/>
<circle cx="-40" cy="2400" r="230" fill="#E67E22" opacity=".07"/>
</g>
<g id="marco_y_decoracion_editable">
<rect x="70" y="70" width="1860" height="2660" rx="70" fill="none" stroke="#C800C8" stroke-width="10" opacity=".16"/>
<rect x="70" y="70" width="1860" height="2660" rx="70" fill="none" stroke="#C800C8" stroke-width="4" opacity=".55"/>
<rect x="1600" y="210" width="210" height="92" rx="46" fill="none" stroke="#FFD21F" stroke-width="6" transform="rotate(-14 1705 256)" opacity=".8"/>
<rect x="1435" y="315" width="158" height="76" rx="38" fill="none" stroke="#C800C8" stroke-width="5" transform="rotate(18 1514 353)" opacity=".8"/>
</g>
<g id="header_marca">
<svg x="112" y="86" width="176" height="135.8" id="Capa_1" data-name="Capa 1" xmlns="http://www.w3.org/2000/svg" viewBox="0 0 1060 817.61">
  <defs>
    <style>
      .cls-1, .cls-2 {
        fill: #000;
      }

      .cls-3 {
        fill: none;
        stroke: #000;
        stroke-miterlimit: 10;
        stroke-width: .6165px;
      }

      .cls-3, .cls-2 {
        font-family: Helvetica-Bold, Helvetica;
        font-size: 53.4255px;
        font-weight: 700;
        isolation: isolate;
      }
    </style>
  </defs>
  <g id="Capa_2" data-name="Capa 2">
    <g id="Layer_1" data-name="Layer 1">
      <path id="Gota" fill="#ffffff" d="M942.9872,428.0881c-12.0906,10.5536-44.5076,38.1705-71.9355,61.7681-188.5593,162.0849-300.3913,231.7189-402.8204,250.6891-23.5894,4.2165-76.1519,2.8768-103.5634-3.0658-120.0842-25.4799-216.168-110.295-253.9768-223.664-14.0139-41.8034-16.3153-57.1489-16.3153-106.2511,0-47.7624,2.4658-64.834,14.5811-101.6647,34.143-104.1552,113.558-184.5318,214.8364-217.7132,38.9349-12.4687,56.9105-17.1866,100.9989-17.1866,34.9157,0,41.6884,2.4165,57.7982,6.4439,30.6909,7.6686,55.0694,16.8825,91.1193,34.7184,83.6891,41.0308,159.0437,95.5249,307.8955,222.6777,30.1156,25.7018,61.3819,52.3652,69.6258,59.2695,8.055,6.7152,14.5811,13.044,14.3838,13.8167-.3781.6-10.5453,9.8057-22.6278,20.162Z"/>
      <path class="cls-1" d="M395.0795,304.5929c4.1012,6.408,6.9463,13.5375,8.3837,21.0086,1.5288,7.6714,1.2767,16.4222-.7562,26.2525-2.6028,11.8632-8.1097,23.5236-16.5208,34.9814-8.4111,11.4578-20.014,19.5592-34.8088,24.3045,10.5043,4.6247,17.2524,11.2002,20.2442,19.7264,2.9918,8.5262,2.6329,21.5428-1.0767,39.0499l-3.559,16.7674c-2.3672,11.4084-3.5507,19.1428-3.5507,23.2031,0,6.444,2.1452,11.1892,6.4357,14.2359l-1.1918,6.2631h-57.4448c-.4493-5.5343-.674-9.9947-.674-13.3811.1356-7.2269.9279-14.4265,2.3672-21.5099l4.5782-23.2113c3.1562-15.9235,2.5069-26.5374-1.948-31.8416-4.4549-5.3042-14.3646-7.959-29.7293-7.9645h-53.8612l-20.6716,97.9085h-50.9597l53.0228-249.6699h122.4678c17.3921.3343,30.3786,2.4795,38.9595,6.4357,8.3078,3.7306,15.3565,9.7888,20.2935,17.4414ZM254.9978,324.0727l-14.2276,67.0778h59.0887c11.7426,0,20.8332-1.3562,27.2717-4.0686,11.4084-4.7398,18.6359-14.1098,21.6826-28.1101,3.1672-15.1345.2877-25.299-8.6385-30.4937-5.0795-2.937-13.266-4.4055-24.5593-4.4055h-60.6174Z"/>
      <path class="cls-1" d="M607.6639,286.1323c16.2578,5.759,28.1703,16.3181,35.7376,31.6772,6.1223,12.5402,9.2804,26.3198,9.2303,40.2746.1109,13.879-1.2223,27.7319-3.9782,41.3349-7.1234,33.1951-19.7729,61.3133-37.9486,84.3548-24.6196,31.0525-55.7845,46.5788-93.4947,46.5788h-107.5579l53.0146-249.6699h107.558c15.3756.2411,27.8553,2.0576,37.439,5.4494ZM503.9937,324.0727l-34.5211,162.9479h48.1077c24.6141,0,44.3761-12.1372,59.2859-36.4116,8.1317-13.3262,14.1153-29.1923,17.951-47.5981,5.4247-25.4141,5.5946-44.9213.5096-58.5215-5.085-13.6002-19.4935-20.4058-43.2254-20.4168h-48.1077Z"/>
      <path class="cls-1" d="M690.2762,504.2976l2.4658,4.4795c6.4933,11.729,8.9426,18.3948,8.8275,24.0168-.173,1.8634-.6103,3.6927-1.2987,5.433-2.5736,5.9863-8.1306,10.1572-14.5975,10.9564-1.9183.2954-3.877.1918-5.7535-.3041-1.8432-.2815-3.6135-.9209-5.2111-1.8822-5.0601-2.8598-8.4524-7.962-9.1316-13.7345-.2936-1.8365-.2266-3.7125.1973-5.5234.1597-1.0378.4873-2.0428.9699-2.9754.7706-1.5815,1.7222-3.0682,2.8357-4.4302,3.0822-3.9699,6.7892-7.3481,15.1317-13.8167l3.8959-3.0247c.2671-.2381.5625-.4424.8795-.6082,0,0,.3371.6658.7891,1.4137Z"/>
      <path class="cls-1" d="M685.6159,456.2804c-1.2607,6.5342,3.0143,12.8533,9.5485,14.1141,6.5343,1.2608,12.8534-3.0142,14.1141-9.5485.0345-.1787.0649-.3581.0913-.5381l8.5891-50.6721-23.762-4.0275-8.581,50.6721Z"/>
      <path class="cls-1" d="M704.4545,500.9112l-27.5594-4.6603,2.2028-13.0112c-2.6544-1.9405-4.9752-4.3002-6.8713-6.9864-4.7869-6.6947-6.6959-15.0264-5.3015-23.1374l19.825-117.1417,61.1353,10.3728-19.8004,117.117c-1.9373,11.5292-10.2032,20.9841-21.3702,24.4442l-2.2603,13.003ZM686.372,489.5028l11.3016,1.9069,1.7343-10.2741,2.7535-.5754c9.1501-1.9216,16.1908-9.2493,17.7455-18.4688l18.4441-109.0292-44.8774-7.5864-18.4195,109.021c-1.5611,9.2177,2.6776,18.4518,10.6851,23.2771l2.4,1.4466-1.7671,10.2823Z"/>
      <path class="cls-1" d="M764.1843,357.4267l-96.4783-16.3236,4.3645-25.7922,17.6715,2.9918,5.0713-29.9512c2.8507-16.8798,18.8455-28.2526,35.7253-25.4018,16.8798,2.8507,28.2525,18.8455,25.4018,35.7253h0l-5.0631,29.9512,17.6715,2.9918-4.3645,25.8086ZM677.2075,334.3551l80.2205,13.5783,1.6439-9.5508-17.6715-2.9918,6.4111-38.0718c2.0972-12.3948-6.2507-24.1429-18.6455-26.2402s-24.1429,6.2507-26.2402,18.6455h0l-6.444,38.0719-17.6715-2.9836-1.6028,9.5426Z"/>
      <path class="cls-1" d="M714.589,309.7547l-8.1207-1.3726,2.9672-17.5564c.7077-4.2321,3.0744-8.0071,6.5755-10.4878h0c3.4947-2.4954,7.8422-3.4897,12.0742-2.7617l-1.3726,8.1289c-2.0709-.3601-4.1998.1255-5.9097,1.348h0c-1.7198,1.212-2.883,3.0619-3.2302,5.1371l-2.9836,17.5647Z"/>
      <text class="cls-2" transform="translate(603.998 532.374)"><tspan x="0" y="0">®</tspan></text>
      <text class="cls-3" transform="translate(603.998 532.374)"><tspan x="0" y="0">®</tspan></text>
    </g>
  </g>
</svg>
<text class="txt" x="310" y="175" fill="#F2F2F2" font-family="Arial, Helvetica, sans-serif" font-size="42" font-weight="700">Reduciendo Daño</text>
<rect x="1520" y="116" width="360" height="60" rx="30" fill="#161318" stroke="#E67E22" stroke-width="3" opacity=".95"/>
<text class="txt" x="1555" y="148" fill="#E67E22" font-family="Arial, Helvetica, sans-serif" font-size="24" font-weight="700">RECUPERACIÓN POST</text>
</g>
<g id="titulo">
<text class="txt" x="1000" y="300" text-anchor="middle" fill="#FFD21F" font-family="Arial, Helvetica, sans-serif" font-size="27" font-weight="700">PRODUCTO</text>
<text x="1004" y="407" text-anchor="middle" fill="#E67E22" font-family="Arial, Helvetica, sans-serif" font-size="85" font-weight="700">POST FIESTA</text>
<text class="txt" x="1000" y="403" text-anchor="middle" fill="#F2F2F2" font-family="Arial, Helvetica, sans-serif" font-size="85" font-weight="700">POST FIESTA</text>
</g>
<g id="cajas_editables">
<rect x="120" y="620" width="1760" height="800" rx="44" fill="#161318" stroke="#3A2F3D" stroke-width="3"/>
<rect x="120" y="620" width="1760" height="800" rx="44" fill="none" stroke="#E67E22" stroke-width="2" opacity=".45"/>
<rect x="120" y="1480" width="1760" height="700" rx="44" fill="#161318" stroke="#3A2F3D" stroke-width="3"/>
<rect x="120" y="1480" width="1760" height="700" rx="44" fill="none" stroke="#E67E22" stroke-width="2" opacity=".45"/>
<rect x="120" y="2230" width="1760" height="380" rx="44" fill="#161318" stroke="#C800C8" stroke-width="3" opacity=".95"/>
</g>
<g id="contenido_texto">
<text class="txt" x="185" y="723" fill="#FFD21F" font-family="Arial, Helvetica, sans-serif" font-size="48" font-weight="700">Descripción</text>
<text class="txt" x="185" y="795" fill="#F2F2F2" font-family="Arial, Helvetica, sans-serif" font-size="46" font-weight="400"><tspan x="185.0" dy="0">Suplemento alimenticio diseñado para complementar la</tspan><tspan x="185.0" dy="66.0">alimentación en contextos de alta exigencia fisiológica,</tspan><tspan x="185.0" dy="66.0">donde el organismo puede requerir apoyo en su equilibrio y</tspan><tspan x="185.0" dy="66.0">funcionamiento normal.</tspan><tspan x="185.0" dy="98.0">Una alternativa práctica dentro de un enfoque de</tspan><tspan x="185.0" dy="66.0">autocuidado, orientado a acompañar al organismo en momentos</tspan><tspan x="185.0" dy="66.0">de mayor demanda.</tspan></text>
<text class="txt" x="185" y="1583" fill="#FFD21F" font-family="Arial, Helvetica, sans-serif" font-size="48" font-weight="700">Nutrientes</text>
<text x="185" y="1647" fill="#E67E22" font-family="Arial, Helvetica, sans-serif" font-size="36" font-weight="700">•</text>
<text class="txt" x="235" y="1647" fill="#F2F2F2" font-family="Arial, Helvetica, sans-serif" font-size="36" font-weight="400">Electrolitos (sodio, potasio, magnesio y calcio): reponen minerales esenciales.</text>
<text x="185" y="1725" fill="#E67E22" font-family="Arial, Helvetica, sans-serif" font-size="36" font-weight="700">•</text>
<text class="txt" x="235" y="1725" fill="#F2F2F2" font-family="Arial, Helvetica, sans-serif" font-size="36" font-weight="400">Vitamina C: apoya la función inmune y tiene efecto antioxidante.</text>
<text x="185" y="1803" fill="#E67E22" font-family="Arial, Helvetica, sans-serif" font-size="36" font-weight="700">•</text>
<text class="txt" x="235" y="1803" fill="#F2F2F2" font-family="Arial, Helvetica, sans-serif" font-size="36" font-weight="400">Vitaminas del complejo B (B1, B6, B12): contribuyen al metabolismo energético.</text>
<text x="185" y="1881" fill="#E67E22" font-family="Arial, Helvetica, sans-serif" font-size="36" font-weight="700">•</text>
<text class="txt" x="235" y="1881" fill="#F2F2F2" font-family="Arial, Helvetica, sans-serif" font-size="36" font-weight="400">N-acetilcisteína (NAC): precursor del glutatión para la detoxificación.</text>
<text x="185" y="1959" fill="#E67E22" font-family="Arial, Helvetica, sans-serif" font-size="36" font-weight="700">•</text>
<text class="txt" x="235" y="1959" fill="#F2F2F2" font-family="Arial, Helvetica, sans-serif" font-size="36" font-weight="400">Cardo mariano (silimarina): tradicionalmente asociado a la salud hepática.</text>
<text x="185" y="2037" fill="#E67E22" font-family="Arial, Helvetica, sans-serif" font-size="36" font-weight="700">•</text>
<text class="txt" x="235" y="2037" fill="#F2F2F2" font-family="Arial, Helvetica, sans-serif" font-size="36" font-weight="400">Coenzima Q10: antioxidante clave en la producción de energía celular.</text>
</g>
<g id="bloque_qr">
<rect x="157" y="2227" width="386" height="386" rx="18" fill="#FFFFFF"/>
<rect x="205.0" y="2275.0" width="11.60" height="11.60" fill="#161513"/>
<rect x="216.6" y="2275.0" width="11.60" height="11.60" fill="#161513"/>
<rect x="228.2" y="2275.0" width="11.60" height="11.60" fill="#161513"/>
<rect x="239.8" y="2275.0" width="11.60" height="11.60" fill="#161513"/>
<rect x="251.4" y="2275.0" width="11.60" height="11.60" fill="#161513"/>
<rect x="263.0" y="2275.0" width="11.60" height="11.60" fill="#161513"/>
<rect x="274.6" y="2275.0" width="11.60" height="11.60" fill="#161513"/>
<rect x="344.2" y="2275.0" width="11.60" height="11.60" fill="#161513"/>
<rect x="367.4" y="2275.0" width="11.60" height="11.60" fill="#161513"/>
<rect x="413.8" y="2275.0" width="11.60" height="11.60" fill="#161513"/>
<rect x="425.4" y="2275.0" width="11.60" height="11.60" fill="#161513"/>
<rect x="437.0" y="2275.0" width="11.60" height="11.60" fill="#161513"/>
<rect x="448.6" y="2275.0" width="11.60" height="11.60" fill="#161513"/>
<rect x="460.2" y="2275.0" width="11.60" height="11.60" fill="#161513"/>
<rect x="471.8" y="2275.0" width="11.60" height="11.60" fill="#161513"/>
<rect x="483.4" y="2275.0" width="11.60" height="11.60" fill="#161513"/>
<rect x="205.0" y="2286.6" width="11.60" height="11.60" fill="#161513"/>
<rect x="274.6" y="2286.6" width="11.60" height="11.60" fill="#161513"/>
<rect x="297.8" y="2286.6" width="11.60" height="11.60" fill="#161513"/>
<rect x="309.4" y="2286.6" width="11.60" height="11.60" fill="#161513"/>
<rect x="355.8" y="2286.6" width="11.60" height="11.60" fill="#161513"/>
<rect x="367.4" y="2286.6" width="11.60" height="11.60" fill="#161513"/>
<rect x="413.8" y="2286.6" width="11.60" height="11.60" fill="#161513"/>
<rect x="483.4" y="2286.6" width="11.60" height="11.60" fill="#161513"/>
<rect x="205.0" y="2298.2" width="11.60" height="11.60" fill="#161513"/>
<rect x="228.2" y="2298.2" width="11.60" height="11.60" fill="#161513"/>
<rect x="239.8" y="2298.2" width="11.60" height="11.60" fill="#161513"/>
<rect x="251.4" y="2298.2" width="11.60" height="11.60" fill="#161513"/>
<rect x="274.6" y="2298.2" width="11.60" height="11.60" fill="#161513"/>
<rect x="297.8" y="2298.2" width="11.60" height="11.60" fill="#161513"/>
<rect x="309.4" y="2298.2" width="11.60" height="11.60" fill="#161513"/>
<rect x="321.0" y="2298.2" width="11.60" height="11.60" fill="#161513"/>
<rect x="332.6" y="2298.2" width="11.60" height="11.60" fill="#161513"/>
<rect x="344.2" y="2298.2" width="11.60" height="11.60" fill="#161513"/>
<rect x="367.4" y="2298.2" width="11.60" height="11.60" fill="#161513"/>
<rect x="379.0" y="2298.2" width="11.60" height="11.60" fill="#161513"/>
<rect x="390.6" y="2298.2" width="11.60" height="11.60" fill="#161513"/>
<rect x="413.8" y="2298.2" width="11.60" height="11.60" fill="#161513"/>
<rect x="437.0" y="2298.2" width="11.60" height="11.60" fill="#161513"/>
<rect x="448.6" y="2298.2" width="11.60" height="11.60" fill="#161513"/>
<rect x="460.2" y="2298.2" width="11.60" height="11.60" fill="#161513"/>
<rect x="483.4" y="2298.2" width="11.60" height="11.60" fill="#161513"/>
<rect x="205.0" y="2309.8" width="11.60" height="11.60" fill="#161513"/>
<rect x="228.2" y="2309.8" width="11.60" height="11.60" fill="#161513"/>
<rect x="239.8" y="2309.8" width="11.60" height="11.60" fill="#161513"/>
<rect x="251.4" y="2309.8" width="11.60" height="11.60" fill="#161513"/>
<rect x="274.6" y="2309.8" width="11.60" height="11.60" fill="#161513"/>
<rect x="297.8" y="2309.8" width="11.60" height="11.60" fill="#161513"/>
<rect x="309.4" y="2309.8" width="11.60" height="11.60" fill="#161513"/>
<rect x="332.6" y="2309.8" width="11.60" height="11.60" fill="#161513"/>
<rect x="344.2" y="2309.8" width="11.60" height="11.60" fill="#161513"/>
<rect x="355.8" y="2309.8" width="11.60" height="11.60" fill="#161513"/>
<rect x="390.6" y="2309.8" width="11.60" height="11.60" fill="#161513"/>
<rect x="413.8" y="2309.8" width="11.60" height="11.60" fill="#161513"/>
<rect x="437.0" y="2309.8" width="11.60" height="11.60" fill="#161513"/>
<rect x="448.6" y="2309.8" width="11.60" height="11.60" fill="#161513"/>
<rect x="460.2" y="2309.8" width="11.60" height="11.60" fill="#161513"/>
<rect x="483.4" y="2309.8" width="11.60" height="11.60" fill="#161513"/>
<rect x="205.0" y="2321.4" width="11.60" height="11.60" fill="#161513"/>
<rect x="228.2" y="2321.4" width="11.60" height="11.60" fill="#161513"/>
<rect x="239.8" y="2321.4" width="11.60" height="11.60" fill="#161513"/>
<rect x="251.4" y="2321.4" width="11.60" height="11.60" fill="#161513"/>
<rect x="274.6" y="2321.4" width="11.60" height="11.60" fill="#161513"/>
<rect x="309.4" y="2321.4" width="11.60" height="11.60" fill="#161513"/>
<rect x="332.6" y="2321.4" width="11.60" height="11.60" fill="#161513"/>
<rect x="344.2" y="2321.4" width="11.60" height="11.60" fill="#161513"/>
<rect x="390.6" y="2321.4" width="11.60" height="11.60" fill="#161513"/>
<rect x="413.8" y="2321.4" width="11.60" height="11.60" fill="#161513"/>
<rect x="437.0" y="2321.4" width="11.60" height="11.60" fill="#161513"/>
<rect x="448.6" y="2321.4" width="11.60" height="11.60" fill="#161513"/>
<rect x="460.2" y="2321.4" width="11.60" height="11.60" fill="#161513"/>
<rect x="483.4" y="2321.4" width="11.60" height="11.60" fill="#161513"/>
<rect x="205.0" y="2333.0" width="11.60" height="11.60" fill="#161513"/>
<rect x="274.6" y="2333.0" width="11.60" height="11.60" fill="#161513"/>
<rect x="309.4" y="2333.0" width="11.60" height="11.60" fill="#161513"/>
<rect x="321.0" y="2333.0" width="11.60" height="11.60" fill="#161513"/>
<rect x="367.4" y="2333.0" width="11.60" height="11.60" fill="#161513"/>
<rect x="413.8" y="2333.0" width="11.60" height="11.60" fill="#161513"/>
<rect x="483.4" y="2333.0" width="11.60" height="11.60" fill="#161513"/>
<rect x="205.0" y="2344.6" width="11.60" height="11.60" fill="#161513"/>
<rect x="216.6" y="2344.6" width="11.60" height="11.60" fill="#161513"/>
<rect x="228.2" y="2344.6" width="11.60" height="11.60" fill="#161513"/>
<rect x="239.8" y="2344.6" width="11.60" height="11.60" fill="#161513"/>
<rect x="251.4" y="2344.6" width="11.60" height="11.60" fill="#161513"/>
<rect x="263.0" y="2344.6" width="11.60" height="11.60" fill="#161513"/>
<rect x="274.6" y="2344.6" width="11.60" height="11.60" fill="#161513"/>
<rect x="297.8" y="2344.6" width="11.60" height="11.60" fill="#161513"/>
<rect x="321.0" y="2344.6" width="11.60" height="11.60" fill="#161513"/>
<rect x="344.2" y="2344.6" width="11.60" height="11.60" fill="#161513"/>
<rect x="367.4" y="2344.6" width="11.60" height="11.60" fill="#161513"/>
<rect x="390.6" y="2344.6" width="11.60" height="11.60" fill="#161513"/>
<rect x="413.8" y="2344.6" width="11.60" height="11.60" fill="#161513"/>
<rect x="425.4" y="2344.6" width="11.60" height="11.60" fill="#161513"/>
<rect x="437.0" y="2344.6" width="11.60" height="11.60" fill="#161513"/>
<rect x="448.6" y="2344.6" width="11.60" height="11.60" fill="#161513"/>
<rect x="460.2" y="2344.6" width="11.60" height="11.60" fill="#161513"/>
<rect x="471.8" y="2344.6" width="11.60" height="11.60" fill="#161513"/>
<rect x="483.4" y="2344.6" width="11.60" height="11.60" fill="#161513"/>
<rect x="297.8" y="2356.2" width="11.60" height="11.60" fill="#161513"/>
<rect x="309.4" y="2356.2" width="11.60" height="11.60" fill="#161513"/>
<rect x="321.0" y="2356.2" width="11.60" height="11.60" fill="#161513"/>
<rect x="332.6" y="2356.2" width="11.60" height="11.60" fill="#161513"/>
<rect x="344.2" y="2356.2" width="11.60" height="11.60" fill="#161513"/>
<rect x="379.0" y="2356.2" width="11.60" height="11.60" fill="#161513"/>
<rect x="390.6" y="2356.2" width="11.60" height="11.60" fill="#161513"/>
<rect x="205.0" y="2367.8" width="11.60" height="11.60" fill="#161513"/>
<rect x="274.6" y="2367.8" width="11.60" height="11.60" fill="#161513"/>
<rect x="297.8" y="2367.8" width="11.60" height="11.60" fill="#161513"/>
<rect x="309.4" y="2367.8" width="11.60" height="11.60" fill="#161513"/>
<rect x="321.0" y="2367.8" width="11.60" height="11.60" fill="#161513"/>
<rect x="355.8" y="2367.8" width="11.60" height="11.60" fill="#161513"/>
<rect x="367.4" y="2367.8" width="11.60" height="11.60" fill="#161513"/>
<rect x="402.2" y="2367.8" width="11.60" height="11.60" fill="#161513"/>
<rect x="413.8" y="2367.8" width="11.60" height="11.60" fill="#161513"/>
<rect x="448.6" y="2367.8" width="11.60" height="11.60" fill="#161513"/>
<rect x="460.2" y="2367.8" width="11.60" height="11.60" fill="#161513"/>
<rect x="471.8" y="2367.8" width="11.60" height="11.60" fill="#161513"/>
<rect x="239.8" y="2379.4" width="11.60" height="11.60" fill="#161513"/>
<rect x="251.4" y="2379.4" width="11.60" height="11.60" fill="#161513"/>
<rect x="297.8" y="2379.4" width="11.60" height="11.60" fill="#161513"/>
<rect x="321.0" y="2379.4" width="11.60" height="11.60" fill="#161513"/>
<rect x="367.4" y="2379.4" width="11.60" height="11.60" fill="#161513"/>
<rect x="379.0" y="2379.4" width="11.60" height="11.60" fill="#161513"/>
<rect x="425.4" y="2379.4" width="11.60" height="11.60" fill="#161513"/>
<rect x="437.0" y="2379.4" width="11.60" height="11.60" fill="#161513"/>
<rect x="448.6" y="2379.4" width="11.60" height="11.60" fill="#161513"/>
<rect x="460.2" y="2379.4" width="11.60" height="11.60" fill="#161513"/>
<rect x="471.8" y="2379.4" width="11.60" height="11.60" fill="#161513"/>
<rect x="228.2" y="2391.0" width="11.60" height="11.60" fill="#161513"/>
<rect x="239.8" y="2391.0" width="11.60" height="11.60" fill="#161513"/>
<rect x="274.6" y="2391.0" width="11.60" height="11.60" fill="#161513"/>
<rect x="286.2" y="2391.0" width="11.60" height="11.60" fill="#161513"/>
<rect x="297.8" y="2391.0" width="11.60" height="11.60" fill="#161513"/>
<rect x="321.0" y="2391.0" width="11.60" height="11.60" fill="#161513"/>
<rect x="379.0" y="2391.0" width="11.60" height="11.60" fill="#161513"/>
<rect x="390.6" y="2391.0" width="11.60" height="11.60" fill="#161513"/>
<rect x="402.2" y="2391.0" width="11.60" height="11.60" fill="#161513"/>
<rect x="413.8" y="2391.0" width="11.60" height="11.60" fill="#161513"/>
<rect x="437.0" y="2391.0" width="11.60" height="11.60" fill="#161513"/>
<rect x="448.6" y="2391.0" width="11.60" height="11.60" fill="#161513"/>
<rect x="471.8" y="2391.0" width="11.60" height="11.60" fill="#161513"/>
<rect x="483.4" y="2391.0" width="11.60" height="11.60" fill="#161513"/>
<rect x="205.0" y="2402.6" width="11.60" height="11.60" fill="#161513"/>
<rect x="239.8" y="2402.6" width="11.60" height="11.60" fill="#161513"/>
<rect x="251.4" y="2402.6" width="11.60" height="11.60" fill="#161513"/>
<rect x="263.0" y="2402.6" width="11.60" height="11.60" fill="#161513"/>
<rect x="286.2" y="2402.6" width="11.60" height="11.60" fill="#161513"/>
<rect x="297.8" y="2402.6" width="11.60" height="11.60" fill="#161513"/>
<rect x="309.4" y="2402.6" width="11.60" height="11.60" fill="#161513"/>
<rect x="321.0" y="2402.6" width="11.60" height="11.60" fill="#161513"/>
<rect x="344.2" y="2402.6" width="11.60" height="11.60" fill="#161513"/>
<rect x="367.4" y="2402.6" width="11.60" height="11.60" fill="#161513"/>
<rect x="390.6" y="2402.6" width="11.60" height="11.60" fill="#161513"/>
<rect x="402.2" y="2402.6" width="11.60" height="11.60" fill="#161513"/>
<rect x="413.8" y="2402.6" width="11.60" height="11.60" fill="#161513"/>
<rect x="448.6" y="2402.6" width="11.60" height="11.60" fill="#161513"/>
<rect x="483.4" y="2402.6" width="11.60" height="11.60" fill="#161513"/>
<rect x="205.0" y="2414.2" width="11.60" height="11.60" fill="#161513"/>
<rect x="251.4" y="2414.2" width="11.60" height="11.60" fill="#161513"/>
<rect x="274.6" y="2414.2" width="11.60" height="11.60" fill="#161513"/>
<rect x="321.0" y="2414.2" width="11.60" height="11.60" fill="#161513"/>
<rect x="344.2" y="2414.2" width="11.60" height="11.60" fill="#161513"/>
<rect x="379.0" y="2414.2" width="11.60" height="11.60" fill="#161513"/>
<rect x="390.6" y="2414.2" width="11.60" height="11.60" fill="#161513"/>
<rect x="413.8" y="2414.2" width="11.60" height="11.60" fill="#161513"/>
<rect x="483.4" y="2414.2" width="11.60" height="11.60" fill="#161513"/>
<rect x="205.0" y="2425.8" width="11.60" height="11.60" fill="#161513"/>
<rect x="263.0" y="2425.8" width="11.60" height="11.60" fill="#161513"/>
<rect x="286.2" y="2425.8" width="11.60" height="11.60" fill="#161513"/>
<rect x="355.8" y="2425.8" width="11.60" height="11.60" fill="#161513"/>
<rect x="379.0" y="2425.8" width="11.60" height="11.60" fill="#161513"/>
<rect x="390.6" y="2425.8" width="11.60" height="11.60" fill="#161513"/>
<rect x="425.4" y="2425.8" width="11.60" height="11.60" fill="#161513"/>
<rect x="471.8" y="2425.8" width="11.60" height="11.60" fill="#161513"/>
<rect x="205.0" y="2437.4" width="11.60" height="11.60" fill="#161513"/>
<rect x="228.2" y="2437.4" width="11.60" height="11.60" fill="#161513"/>
<rect x="239.8" y="2437.4" width="11.60" height="11.60" fill="#161513"/>
<rect x="251.4" y="2437.4" width="11.60" height="11.60" fill="#161513"/>
<rect x="263.0" y="2437.4" width="11.60" height="11.60" fill="#161513"/>
<rect x="274.6" y="2437.4" width="11.60" height="11.60" fill="#161513"/>
<rect x="297.8" y="2437.4" width="11.60" height="11.60" fill="#161513"/>
<rect x="332.6" y="2437.4" width="11.60" height="11.60" fill="#161513"/>
<rect x="344.2" y="2437.4" width="11.60" height="11.60" fill="#161513"/>
<rect x="355.8" y="2437.4" width="11.60" height="11.60" fill="#161513"/>
<rect x="367.4" y="2437.4" width="11.60" height="11.60" fill="#161513"/>
<rect x="379.0" y="2437.4" width="11.60" height="11.60" fill="#161513"/>
<rect x="390.6" y="2437.4" width="11.60" height="11.60" fill="#161513"/>
<rect x="402.2" y="2437.4" width="11.60" height="11.60" fill="#161513"/>
<rect x="413.8" y="2437.4" width="11.60" height="11.60" fill="#161513"/>
<rect x="425.4" y="2437.4" width="11.60" height="11.60" fill="#161513"/>
<rect x="437.0" y="2437.4" width="11.60" height="11.60" fill="#161513"/>
<rect x="448.6" y="2437.4" width="11.60" height="11.60" fill="#161513"/>
<rect x="471.8" y="2437.4" width="11.60" height="11.60" fill="#161513"/>
<rect x="483.4" y="2437.4" width="11.60" height="11.60" fill="#161513"/>
<rect x="205.0" y="2449.0" width="11.60" height="11.60" fill="#161513"/>
<rect x="239.8" y="2449.0" width="11.60" height="11.60" fill="#161513"/>
<rect x="286.2" y="2449.0" width="11.60" height="11.60" fill="#161513"/>
<rect x="309.4" y="2449.0" width="11.60" height="11.60" fill="#161513"/>
<rect x="321.0" y="2449.0" width="11.60" height="11.60" fill="#161513"/>
<rect x="332.6" y="2449.0" width="11.60" height="11.60" fill="#161513"/>
<rect x="367.4" y="2449.0" width="11.60" height="11.60" fill="#161513"/>
<rect x="390.6" y="2449.0" width="11.60" height="11.60" fill="#161513"/>
<rect x="413.8" y="2449.0" width="11.60" height="11.60" fill="#161513"/>
<rect x="425.4" y="2449.0" width="11.60" height="11.60" fill="#161513"/>
<rect x="448.6" y="2449.0" width="11.60" height="11.60" fill="#161513"/>
<rect x="460.2" y="2449.0" width="11.60" height="11.60" fill="#161513"/>
<rect x="483.4" y="2449.0" width="11.60" height="11.60" fill="#161513"/>
<rect x="205.0" y="2460.6" width="11.60" height="11.60" fill="#161513"/>
<rect x="228.2" y="2460.6" width="11.60" height="11.60" fill="#161513"/>
<rect x="239.8" y="2460.6" width="11.60" height="11.60" fill="#161513"/>
<rect x="251.4" y="2460.6" width="11.60" height="11.60" fill="#161513"/>
<rect x="274.6" y="2460.6" width="11.60" height="11.60" fill="#161513"/>
<rect x="286.2" y="2460.6" width="11.60" height="11.60" fill="#161513"/>
<rect x="297.8" y="2460.6" width="11.60" height="11.60" fill="#161513"/>
<rect x="332.6" y="2460.6" width="11.60" height="11.60" fill="#161513"/>
<rect x="344.2" y="2460.6" width="11.60" height="11.60" fill="#161513"/>
<rect x="355.8" y="2460.6" width="11.60" height="11.60" fill="#161513"/>
<rect x="367.4" y="2460.6" width="11.60" height="11.60" fill="#161513"/>
<rect x="390.6" y="2460.6" width="11.60" height="11.60" fill="#161513"/>
<rect x="402.2" y="2460.6" width="11.60" height="11.60" fill="#161513"/>
<rect x="413.8" y="2460.6" width="11.60" height="11.60" fill="#161513"/>
<rect x="425.4" y="2460.6" width="11.60" height="11.60" fill="#161513"/>
<rect x="437.0" y="2460.6" width="11.60" height="11.60" fill="#161513"/>
<rect x="460.2" y="2460.6" width="11.60" height="11.60" fill="#161513"/>
<rect x="297.8" y="2472.2" width="11.60" height="11.60" fill="#161513"/>
<rect x="309.4" y="2472.2" width="11.60" height="11.60" fill="#161513"/>
<rect x="344.2" y="2472.2" width="11.60" height="11.60" fill="#161513"/>
<rect x="355.8" y="2472.2" width="11.60" height="11.60" fill="#161513"/>
<rect x="390.6" y="2472.2" width="11.60" height="11.60" fill="#161513"/>
<rect x="437.0" y="2472.2" width="11.60" height="11.60" fill="#161513"/>
<rect x="205.0" y="2483.8" width="11.60" height="11.60" fill="#161513"/>
<rect x="216.6" y="2483.8" width="11.60" height="11.60" fill="#161513"/>
<rect x="228.2" y="2483.8" width="11.60" height="11.60" fill="#161513"/>
<rect x="239.8" y="2483.8" width="11.60" height="11.60" fill="#161513"/>
<rect x="251.4" y="2483.8" width="11.60" height="11.60" fill="#161513"/>
<rect x="263.0" y="2483.8" width="11.60" height="11.60" fill="#161513"/>
<rect x="274.6" y="2483.8" width="11.60" height="11.60" fill="#161513"/>
<rect x="309.4" y="2483.8" width="11.60" height="11.60" fill="#161513"/>
<rect x="332.6" y="2483.8" width="11.60" height="11.60" fill="#161513"/>
<rect x="344.2" y="2483.8" width="11.60" height="11.60" fill="#161513"/>
<rect x="390.6" y="2483.8" width="11.60" height="11.60" fill="#161513"/>
<rect x="413.8" y="2483.8" width="11.60" height="11.60" fill="#161513"/>
<rect x="437.0" y="2483.8" width="11.60" height="11.60" fill="#161513"/>
<rect x="483.4" y="2483.8" width="11.60" height="11.60" fill="#161513"/>
<rect x="205.0" y="2495.4" width="11.60" height="11.60" fill="#161513"/>
<rect x="274.6" y="2495.4" width="11.60" height="11.60" fill="#161513"/>
<rect x="321.0" y="2495.4" width="11.60" height="11.60" fill="#161513"/>
<rect x="367.4" y="2495.4" width="11.60" height="11.60" fill="#161513"/>
<rect x="379.0" y="2495.4" width="11.60" height="11.60" fill="#161513"/>
<rect x="390.6" y="2495.4" width="11.60" height="11.60" fill="#161513"/>
<rect x="437.0" y="2495.4" width="11.60" height="11.60" fill="#161513"/>
<rect x="471.8" y="2495.4" width="11.60" height="11.60" fill="#161513"/>
<rect x="483.4" y="2495.4" width="11.60" height="11.60" fill="#161513"/>
<rect x="205.0" y="2507.0" width="11.60" height="11.60" fill="#161513"/>
<rect x="228.2" y="2507.0" width="11.60" height="11.60" fill="#161513"/>
<rect x="239.8" y="2507.0" width="11.60" height="11.60" fill="#161513"/>
<rect x="251.4" y="2507.0" width="11.60" height="11.60" fill="#161513"/>
<rect x="274.6" y="2507.0" width="11.60" height="11.60" fill="#161513"/>
<rect x="332.6" y="2507.0" width="11.60" height="11.60" fill="#161513"/>
<rect x="344.2" y="2507.0" width="11.60" height="11.60" fill="#161513"/>
<rect x="355.8" y="2507.0" width="11.60" height="11.60" fill="#161513"/>
<rect x="379.0" y="2507.0" width="11.60" height="11.60" fill="#161513"/>
<rect x="390.6" y="2507.0" width="11.60" height="11.60" fill="#161513"/>
<rect x="402.2" y="2507.0" width="11.60" height="11.60" fill="#161513"/>
<rect x="413.8" y="2507.0" width="11.60" height="11.60" fill="#161513"/>
<rect x="425.4" y="2507.0" width="11.60" height="11.60" fill="#161513"/>
<rect x="437.0" y="2507.0" width="11.60" height="11.60" fill="#161513"/>
<rect x="460.2" y="2507.0" width="11.60" height="11.60" fill="#161513"/>
<rect x="205.0" y="2518.6" width="11.60" height="11.60" fill="#161513"/>
<rect x="228.2" y="2518.6" width="11.60" height="11.60" fill="#161513"/>
<rect x="239.8" y="2518.6" width="11.60" height="11.60" fill="#161513"/>
<rect x="251.4" y="2518.6" width="11.60" height="11.60" fill="#161513"/>
<rect x="274.6" y="2518.6" width="11.60" height="11.60" fill="#161513"/>
<rect x="321.0" y="2518.6" width="11.60" height="11.60" fill="#161513"/>
<rect x="332.6" y="2518.6" width="11.60" height="11.60" fill="#161513"/>
<rect x="355.8" y="2518.6" width="11.60" height="11.60" fill="#161513"/>
<rect x="367.4" y="2518.6" width="11.60" height="11.60" fill="#161513"/>
<rect x="379.0" y="2518.6" width="11.60" height="11.60" fill="#161513"/>
<rect x="402.2" y="2518.6" width="11.60" height="11.60" fill="#161513"/>
<rect x="413.8" y="2518.6" width="11.60" height="11.60" fill="#161513"/>
<rect x="471.8" y="2518.6" width="11.60" height="11.60" fill="#161513"/>
<rect x="483.4" y="2518.6" width="11.60" height="11.60" fill="#161513"/>
<rect x="205.0" y="2530.2" width="11.60" height="11.60" fill="#161513"/>
<rect x="228.2" y="2530.2" width="11.60" height="11.60" fill="#161513"/>
<rect x="239.8" y="2530.2" width="11.60" height="11.60" fill="#161513"/>
<rect x="251.4" y="2530.2" width="11.60" height="11.60" fill="#161513"/>
<rect x="274.6" y="2530.2" width="11.60" height="11.60" fill="#161513"/>
<rect x="309.4" y="2530.2" width="11.60" height="11.60" fill="#161513"/>
<rect x="355.8" y="2530.2" width="11.60" height="11.60" fill="#161513"/>
<rect x="367.4" y="2530.2" width="11.60" height="11.60" fill="#161513"/>
<rect x="379.0" y="2530.2" width="11.60" height="11.60" fill="#161513"/>
<rect x="402.2" y="2530.2" width="11.60" height="11.60" fill="#161513"/>
<rect x="448.6" y="2530.2" width="11.60" height="11.60" fill="#161513"/>
<rect x="460.2" y="2530.2" width="11.60" height="11.60" fill="#161513"/>
<rect x="483.4" y="2530.2" width="11.60" height="11.60" fill="#161513"/>
<rect x="205.0" y="2541.8" width="11.60" height="11.60" fill="#161513"/>
<rect x="274.6" y="2541.8" width="11.60" height="11.60" fill="#161513"/>
<rect x="309.4" y="2541.8" width="11.60" height="11.60" fill="#161513"/>
<rect x="321.0" y="2541.8" width="11.60" height="11.60" fill="#161513"/>
<rect x="332.6" y="2541.8" width="11.60" height="11.60" fill="#161513"/>
<rect x="344.2" y="2541.8" width="11.60" height="11.60" fill="#161513"/>
<rect x="390.6" y="2541.8" width="11.60" height="11.60" fill="#161513"/>
<rect x="402.2" y="2541.8" width="11.60" height="11.60" fill="#161513"/>
<rect x="413.8" y="2541.8" width="11.60" height="11.60" fill="#161513"/>
<rect x="425.4" y="2541.8" width="11.60" height="11.60" fill="#161513"/>
<rect x="437.0" y="2541.8" width="11.60" height="11.60" fill="#161513"/>
<rect x="483.4" y="2541.8" width="11.60" height="11.60" fill="#161513"/>
<rect x="205.0" y="2553.4" width="11.60" height="11.60" fill="#161513"/>
<rect x="216.6" y="2553.4" width="11.60" height="11.60" fill="#161513"/>
<rect x="228.2" y="2553.4" width="11.60" height="11.60" fill="#161513"/>
<rect x="239.8" y="2553.4" width="11.60" height="11.60" fill="#161513"/>
<rect x="251.4" y="2553.4" width="11.60" height="11.60" fill="#161513"/>
<rect x="263.0" y="2553.4" width="11.60" height="11.60" fill="#161513"/>
<rect x="274.6" y="2553.4" width="11.60" height="11.60" fill="#161513"/>
<rect x="297.8" y="2553.4" width="11.60" height="11.60" fill="#161513"/>
<rect x="309.4" y="2553.4" width="11.60" height="11.60" fill="#161513"/>
<rect x="321.0" y="2553.4" width="11.60" height="11.60" fill="#161513"/>
<rect x="332.6" y="2553.4" width="11.60" height="11.60" fill="#161513"/>
<rect x="344.2" y="2553.4" width="11.60" height="11.60" fill="#161513"/>
<rect x="390.6" y="2553.4" width="11.60" height="11.60" fill="#161513"/>
<rect x="413.8" y="2553.4" width="11.60" height="11.60" fill="#161513"/>
<rect x="448.6" y="2553.4" width="11.60" height="11.60" fill="#161513"/>
<rect x="483.4" y="2553.4" width="11.60" height="11.60" fill="#161513"/>
<text class="txt" x="590" y="2360" fill="#FFD21F" font-family="Arial, Helvetica, sans-serif" font-size="46" font-weight="700">Escanea el código</text>
<text class="txt" x="590" y="2432" fill="#F2F2F2" font-family="Arial, Helvetica, sans-serif" font-size="40" font-weight="400">y visita reduciendodano.cl</text>
<text class="txt" x="590" y="2510" fill="#A79FA8" font-family="Arial, Helvetica, sans-serif" font-size="28" font-weight="400">Síguenos en nuestras redes sociales · @reduciendodano.cl</text>
</g>
<g id="footer">
<line x1="120" y1="2640" x2="1880" y2="2640" stroke="#C800C8" stroke-width="5" opacity=".7"/>
<text class="txt" x="120" y="2716" fill="#FFD21F" font-family="Arial, Helvetica, sans-serif" font-size="46" font-weight="700">@ REDUCIENDODANO.CL</text>
<text class="txt" x="1060" y="2698" fill="#A79FA8" font-family="Arial, Helvetica, sans-serif" font-size="22" font-weight="700"><tspan x="1060.0" dy="0">VISITA NUESTRA WEB Y SÍGUENOS EN NUESTRAS REDES</tspan><tspan x="1060.0" dy="28.0">SOCIALES</tspan></text>
</g>
</svg>
