<?xml version="1.0" encoding="UTF-8"?>
<!-- Generator: visioncortex VTracer 0.6.12 -->
<svg version="1.1" xmlns="http://www.w3.org/2000/svg" width="720" height="720">
<path d="M0 0 C237.6 0 475.2 0 720 0 C720 237.6 720 475.2 720 720 C482.4 720 244.8 720 0 720 C0 482.4 0 244.8 0 0 Z " fill="#004AAD" transform="translate(0,0)"/>
<path d="M0 0 C2.75 -0.054 5.499 -0.094 8.25 -0.125 C9.027 -0.142 9.805 -0.159 10.605 -0.176 C18.005 -0.239 18.005 -0.239 21 2 C23.549 5.823 23.297 8.962 23.309 13.395 C23.334 15.089 23.359 16.784 23.385 18.479 C23.413 21.145 23.437 23.811 23.456 26.477 C23.478 29.054 23.517 31.63 23.559 34.207 C23.559 34.602 23.559 34.602 23.559 36.603 C23.645 41.469 24.431 44.725 27 49 C33.379 49.491 33.379 49.491 36.375 47.125 C39.583 42.93 39.128 39.148 39.098 34.055 C39.096 33.17 39.095 32.285 39.093 31.373 C39.088 28.54 39.075 25.708 39.062 22.875 C39.057 20.957 39.053 19.039 39.049 17.121 C39.038 12.414 39.021 7.707 39 3 C37.35 2.67 35.7 2.34 34 2 C34 1.34 34 0.68 34 0 C43.57 0 53.14 0 63 0 C63 0.66 63 1.32 63 2 C61.02 2.33 59.04 2.66 57 3 C57.33 12.57 57.66 22.14 58 32 C58.66 31.175 58.66 31.175 62 27 C65 25 65 25 67.625 25.25 C68.409 25.498 69.192 25.745 70 26 C73.888 33.777 69.875 44.184 67.375 51.812 C67.01 52.96 66.646 54.107 66.27 55.289 C63.998 62.31 61.496 69.087 58.422 75.797 C56.807 79.435 55.469 83.131 54.125 86.875 C51.554 93.944 48.382 100.603 44.93 107.281 C44.617 107.893 44.304 108.504 43.981 109.134 C43.31 110.41 42.611 111.67 41.888 112.917 C38.981 118.137 38.333 122.438 38.438 128.375 C38.448 129.273 38.458 130.171 38.469 131.095 C38.94 146.748 42.419 162.33 47.438 177.125 C47.701 177.911 47.965 178.698 48.237 179.508 C50.207 184.901 52.86 189.942 57 194 C60.375 194.5 60.375 194.5 63 194 C63.33 193.34 63.66 192.68 64 192 C65.65 192 67.3 192 69 192 C67.558 196.566 67.558 196.566 65.312 198.312 C60.76 199.666 57.28 199.575 52.938 197.625 C37.375 183.718 34.299 158.416 32 139 C31.802 137.411 31.603 135.823 31.402 134.234 C31.27 133.167 31.137 132.1 31 131 C30.432 131.785 29.863 132.57 29.277 133.379 C17.653 149.195 17.653 149.195 11 152 C5.741 152.537 5.741 152.537 3.188 150.688 C0.547 146.936 0.689 142.724 0.438 138.312 C0.394 137.611 0.351 136.909 0.307 136.186 C0.201 134.457 0.1 132.729 0 131 C-0.617 131.834 -1.235 132.668 -1.871 133.527 C-18.412 155.616 -18.412 155.616 -28.035 157.371 C-31.411 157.579 -33.761 157.125 -36.75 155.562 C-43.585 147.778 -43.738 138.938 -44 129 C-44.387 129.531 -44.387 129.531 -46.344 132.219 C-63.401 155.445 -63.401 155.445 -73.004 157.41 C-76.913 157.699 -79 157 -82.312 154.938 C-87.852 148.882 -88.435 143.437 -88.188 135.562 C-88.181 135.149 -88.181 135.149 -88.146 133.057 C-88.111 131.037 -88.058 129.019 -88 127 C-88.568 127.361 -89.137 127.722 -89.723 128.094 C-94.576 131.011 -98.184 133.097 -104 132 C-108.803 129.229 -110.27 126.975 -111.875 121.688 C-112.271 120.13 -112.653 118.569 -113 117 C-115.384 120.576 -115.683 123.695 -116.184 127.852 C-116.391 129.441 -116.599 131.031 -116.807 132.621 C-117.123 135.115 -117.436 137.61 -117.747 140.105 C-119.912 157.275 -119.912 157.275 -123 165 C-124.65 165.33 -126.3 165.66 -128 166 C-131.663 160.266 -132.125 156.417 -132.098 149.609 C-132.096 148.905 -132.095 148.2 -132.093 147.474 C-132.088 145.233 -132.075 142.991 -132.062 140.75 C-132.057 139.227 -132.053 137.703 -132.049 136.18 C-132.038 132.453 -132.021 128.727 -132 125 C-143.733 133.243 -155.393 141.58 -167 150 C-166.238 150.593 -165.476 151.186 -164.691 151.797 C-154.157 160.42 -150.823 170.823 -149 184 C-148.283 191.779 -148.932 198.989 -150.688 206.562 C-150.836 207.23 -150.984 207.897 -151.137 208.584 C-152.366 213.306 -154.351 215.834 -158 219 C-158.33 219.33 -158.66 219.66 -159 220 C-161.187 220.5 -161.187 220.5 -164 220 C-171.873 213.705 -173.326 203.696 -174.625 194.25 C-174.75 193.374 -174.875 192.498 -175.003 191.595 C-176.654 179.69 -177.149 168.002 -177 156 C-177.736 156.361 -178.472 156.722 -179.23 157.094 C-180.206 157.558 -181.182 158.022 -182.188 158.5 C-183.15 158.964 -184.113 159.428 -185.105 159.906 C-187.989 160.996 -189.954 161.223 -193 161 C-192.526 156.447 -192.526 156.447 -190.18 154.453 C-185.364 151.939 -181.442 150.347 -176 150 C-176.015 149.425 -176.029 148.849 -176.044 148.256 C-176.141 141.219 -175.554 134.362 -174.75 127.375 C-174.616 126.2 -174.482 125.025 -174.343 123.814 C-171.741 101.777 -168.338 79.691 -160 59 C-159.755 58.374 -159.51 57.748 -159.258 57.104 C-147.857 27.964 -147.857 27.964 -139 21 C-135.75 20.312 -135.75 20.312 -133 21 C-131.316 22.156 -131.316 22.156 -130 24 C-129.855 26.855 -129.855 26.855 -130.188 30.188 C-130.284 31.274 -130.381 32.361 -130.48 33.48 C-133.391 53.2 -143.691 70.974 -152.862 88.351 C-153.705 89.952 -154.543 91.556 -155.376 93.162 C-157.237 96.737 -159.12 100.244 -161.266 103.656 C-169.129 116.727 -169.621 132.119 -171 147 C-161.015 140.282 -151.069 133.579 -141.684 126.035 C-139.409 124.31 -137.351 123.178 -134.812 121.938 C-130.746 118.397 -130.889 113.403 -130.529 108.318 C-130.482 107.596 -130.435 106.873 -130.387 106.129 C-130.136 102.508 -129.32 99.4 -128 96 C-127.34 96.165 -127.34 96.165 -124 97 C-123.972 98.646 -123.953 100.292 -123.938 101.938 C-123.926 102.854 -123.914 103.771 -123.902 104.715 C-123.978 107.258 -124.181 109.631 -124.5 112.145 C-125.026 116.772 -125.129 121.32 -125.098 125.973 C-125.096 126.781 -125.095 127.59 -125.093 128.423 C-125.088 130.969 -125.075 133.516 -125.062 136.062 C-125.057 137.804 -125.053 139.546 -125.049 141.287 C-125.038 145.525 -125.021 149.762 -125 154 C-123.053 152.053 -123.408 148.486 -123.133 145.816 C-122.968 144.316 -122.802 142.815 -122.637 141.314 C-122.381 138.952 -122.128 136.589 -121.88 134.226 C-119.778 114.298 -119.778 114.298 -117 109 C-114 108 -114 108 -111.449 108.648 C-108.436 110.311 -107.948 111.422 -106.812 114.625 C-106.494 115.512 -106.176 116.399 -105.848 117.312 C-104.731 120.852 -103.805 124.377 -103 128 C-97.857 126.071 -93.974 123.658 -89.699 120.207 C-88 119 -88 119 -86 119 C-85.773 117.701 -85.546 116.401 -85.312 115.062 C-83.699 107.888 -80.166 101.09 -74.742 96.031 C-71.32 94.005 -67.804 94.293 -64 95 C-61.438 96.062 -61.438 96.062 -60 98 C-59.082 103.851 -60.745 108.233 -64 113 C-67.091 116.354 -70.578 118.784 -75 120 C-78.312 120.125 -78.312 120.125 -81 120 C-84.161 129.877 -84.82 141.537 -80 151 C-78 153 -78 153 -75.375 153.438 C-64.574 152.037 -57.917 141.779 -51.68 133.77 C-46.047 126.362 -41.238 119.729 -38.812 110.621 C-36.923 104.527 -32.65 98.094 -27 95 C-23.276 94.358 -20.047 94.581 -16.5 96 C-14.592 98.544 -14.385 100.666 -14.547 103.809 C-15.617 108.982 -18.746 112.809 -22.5 116.375 C-27.766 119.798 -30.756 120.224 -37 119 C-38.757 129.982 -39.251 141.16 -34.938 151.562 C-32.655 153.256 -31.741 153.332 -28.938 153.312 C-18.697 151.606 -12.028 140.927 -6.254 133.059 C-4.95 131.289 -3.618 129.539 -2.215 127.848 C1.771 123.026 3.602 117.979 5.723 112.125 C7.499 107.779 9.827 104.432 13 101 C13.242 100.737 13.242 100.737 14.469 99.406 C17.101 96.886 18.967 96.006 22.562 95.375 C26 96 26 96 28.938 97.875 C31.865 102.31 31.732 105.828 31 111 C30.198 114.091 29.2 117.042 28 120 C27.175 120.165 27.175 120.165 23 121 C22.856 117.9 22.756 115.564 24 112.688 C25.444 108.808 25.161 105.096 25 101 C21.74 101.279 20.111 101.914 17.5 103.938 C6.756 117.099 5.336 132.739 6 149 C13.697 146.646 17.417 141.843 22.094 135.535 C24 133 24 133 26.156 130.559 C32.194 123.044 32.782 116.792 33.283 107.409 C34.236 91.03 38.522 74.773 44.259 59.428 C46.039 54.566 46.039 54.566 45.848 51.773 C44.815 49.613 43.517 47.847 42 46 C41.446 46.494 40.891 46.987 40.32 47.496 C39.596 48.137 38.871 48.777 38.125 49.438 C37.406 50.076 36.686 50.714 35.945 51.371 C31.302 55.259 25.785 54.501 20 54 C14.148 52.479 10.737 49.066 7.262 44.27 C5.152 40.474 5.148 36.953 5.195 32.688 C5.188 32.26 5.188 32.26 5.154 30.099 C5.117 27.399 5.12 24.7 5.125 22 C5.107 20.158 5.086 18.315 5.062 16.473 C5.011 11.981 4.996 7.491 5 3 C3.35 2.34 1.7 1.68 0 1 C0 0.67 0 0.34 0 0 Z " fill="#E88B53" transform="translate(354,231)"/>
<path d="M0 0 C3.049 0.762 3.947 1.163 5.75 3.688 C5.895 6.543 5.895 6.543 5.562 9.875 C5.466 10.962 5.369 12.048 5.27 13.168 C2.359 32.887 -7.941 50.661 -17.112 68.039 C-17.955 69.64 -18.793 71.244 -19.626 72.85 C-21.487 76.424 -23.37 79.932 -25.516 83.344 C-33.379 96.415 -33.871 111.806 -35.25 126.688 C-25.265 119.969 -15.319 113.267 -5.934 105.723 C-3.659 103.997 -1.601 102.866 0.938 101.625 C5.004 98.084 4.861 93.09 5.221 88.006 C5.268 87.283 5.315 86.561 5.363 85.816 C5.614 82.196 6.43 79.087 7.75 75.688 C8.41 75.852 8.41 75.852 11.75 76.688 C11.778 78.333 11.797 79.979 11.812 81.625 C11.824 82.542 11.836 83.458 11.848 84.402 C11.772 86.945 11.571 89.322 11.254 91.836 C10.732 96.434 10.589 100.966 10.582 105.59 C10.579 106.394 10.575 107.197 10.572 108.026 C10.567 109.705 10.565 111.385 10.565 113.065 C10.562 115.643 10.544 118.221 10.525 120.799 C10.522 122.437 10.52 124.076 10.52 125.715 C10.516 126.1 10.516 126.1 10.498 128.051 C10.521 133.459 10.521 133.459 12.75 135.688 C13.315 138.343 13.488 140.979 13.75 143.688 C10.75 145.688 10.75 145.688 8.671 145.502 C6.75 144.688 6.75 144.688 5.012 141.656 C2.755 134.811 3.438 127.308 3.562 120.188 C3.578 118.682 3.591 117.177 3.604 115.672 C3.636 112.01 3.688 108.349 3.75 104.688 C-7.983 112.93 -19.643 121.268 -31.25 129.688 C-30.488 130.28 -29.726 130.873 -28.941 131.484 C-18.407 140.108 -15.073 150.51 -13.25 163.688 C-12.533 171.467 -13.182 178.676 -14.938 186.25 C-15.086 186.917 -15.234 187.584 -15.387 188.271 C-16.616 192.993 -18.601 195.522 -22.25 198.688 C-22.58 199.018 -22.91 199.347 -23.25 199.688 C-25.437 200.188 -25.437 200.188 -28.25 199.688 C-36.123 193.393 -37.576 183.383 -38.875 173.938 C-39 173.061 -39.125 172.185 -39.253 171.282 C-40.904 159.377 -41.399 147.689 -41.25 135.688 C-41.986 136.048 -42.722 136.409 -43.48 136.781 C-44.456 137.245 -45.432 137.709 -46.438 138.188 C-47.4 138.652 -48.363 139.116 -49.355 139.594 C-52.239 140.683 -54.204 140.91 -57.25 140.688 C-56.776 136.135 -56.776 136.135 -54.43 134.141 C-49.614 131.626 -45.692 130.035 -40.25 129.688 C-40.265 129.112 -40.279 128.537 -40.294 127.944 C-40.391 120.907 -39.804 114.049 -39 107.062 C-38.866 105.888 -38.732 104.713 -38.593 103.502 C-35.991 81.465 -32.588 59.378 -24.25 38.688 C-24.005 38.062 -23.76 37.436 -23.508 36.791 C-9.936 2.102 -9.936 2.102 0 0 Z " fill="#E88B52" transform="translate(218.25,251.3125)"/>
<path d="M0 0 C3.083 -0.116 6.165 -0.187 9.25 -0.25 C10.123 -0.284 10.995 -0.317 11.895 -0.352 C18.393 -0.451 18.393 -0.451 21.547 1.891 C24.346 5.954 24.116 9.331 24.062 14.125 C24.058 14.879 24.053 15.633 24.049 16.41 C24.037 18.273 24.019 20.137 24 22 C24.882 21.515 25.763 21.031 26.672 20.531 C32.337 17.925 37.769 18.04 43.723 19.809 C50.201 22.632 54.017 26.612 57 33 C60.28 42.647 60.681 53.504 56.266 62.848 C52.98 68.435 49.34 72.967 43 75 C35.834 75.869 30.828 75.34 25 71 C24.34 70.01 23.68 69.02 23 68 C22.34 68 21.68 68 21 68 C20.319 68.804 19.639 69.609 18.938 70.438 C16 73 16 73 7 74 C6.67 50.57 6.34 27.14 6 3 C4.02 2.34 2.04 1.68 0 1 C0 0.67 0 0.34 0 0 Z " fill="#F9FBFD" transform="translate(432,210)"/>
<path d="M0 0 C1.675 0.286 3.344 0.618 5 1 C4.041 3.42 3.073 5.831 2.035 8.219 C-4.619 23.825 -6.133 40.877 -6.25 57.688 C-6.259 58.513 -6.269 59.338 -6.278 60.188 C-6.252 65.164 -5.592 69.281 -4 74 C-0.461 66.915 1.513 59.736 3.375 52.062 C10.852 22.353 10.852 22.353 18 11 C20.875 10.812 20.875 10.812 24 11 C26.526 14.788 26.254 17.785 26.195 22.168 C26.192 22.963 26.19 23.758 26.187 24.576 C26.176 27.114 26.15 29.65 26.125 32.188 C26.115 33.908 26.106 35.629 26.098 37.35 C26.076 41.567 26.041 45.783 26 50 C26.66 50 27.32 50 28 50 C28.107 49.196 28.214 48.391 28.324 47.562 C29.145 43.235 30.424 39.174 31.812 35 C32.061 34.219 32.309 33.438 32.564 32.633 C34.142 27.865 35.861 23.946 39 20 C42 19 42 19 44.625 19.812 C47 21 47 21 48 23 C48.281 26.732 48.447 30.464 48.621 34.203 C48.977 37.774 49.72 40.663 51 44 C54.948 43.474 56.983 42.531 59.875 39.812 C60.556 39.189 61.236 38.565 61.938 37.922 C62.618 37.288 63.299 36.653 64 36 C65.284 34.846 66.576 33.7 67.875 32.562 C68.429 32.069 68.984 31.575 69.555 31.066 C71 30 71 30 73 30 C73 30.66 73 31.32 73 32 C73.99 31.67 74.98 31.34 76 31 C75.37 36.582 72.755 38.579 68.605 42.062 C63.471 45.88 58.532 48.585 52.188 49.625 C47.847 48.774 46.539 47.627 44 44 C41.915 37.766 41.79 31.511 42 25 C41.34 25 40.68 25 40 25 C39.921 25.304 39.921 25.304 39.52 26.844 C37.945 32.758 36.264 38.64 34.5 44.5 C34.299 45.194 34.097 45.888 33.89 46.604 C31.967 52.892 31.967 52.892 29 55 C26.312 55.688 26.312 55.688 24 56 C17.19 48.311 18.617 38.699 19.103 28.938 C19.346 24.954 19.657 20.976 20 17 C16.292 24.433 14.131 32.121 12 40.125 C11.646 41.428 11.292 42.731 10.936 44.034 C9.503 49.305 8.091 54.579 6.77 59.879 C2.925 75.179 2.925 75.179 -1 80 C-4.812 81.125 -4.812 81.125 -8 81 C-13.191 73.45 -13.3 65.587 -13.188 56.75 C-13.187 55.77 -13.186 54.791 -13.186 53.781 C-13.137 45.932 -13.137 45.932 -12 42 C-14.635 43.041 -17.256 44.106 -19.875 45.188 C-20.621 45.479 -21.368 45.771 -22.137 46.072 C-27.663 48.387 -27.663 48.387 -29.508 51.738 C-29.67 52.485 -29.833 53.231 -30 54 C-31.32 54 -32.64 54 -34 54 C-34 52.68 -34 51.36 -34 50 C-38.29 50 -42.58 50 -47 50 C-47 49.01 -47 48.02 -47 47 C-46.18 46.939 -45.36 46.879 -44.516 46.816 C-43.438 46.733 -42.36 46.649 -41.25 46.562 C-40.183 46.481 -39.115 46.4 -38.016 46.316 C-35.563 46.059 -33.361 45.682 -31 45 C-29.099 39.374 -28.664 34.357 -28.688 28.438 C-28.671 27.613 -28.655 26.789 -28.639 25.939 C-28.635 20.82 -29.327 17.5 -32 13 C-32.33 12.01 -32.66 11.02 -33 10 C-36.062 8.812 -36.062 8.812 -39 8 C-38.67 6.68 -38.34 5.36 -38 4 C-32.043 5.662 -27.975 7.995 -24.688 13.312 C-20.849 21.596 -22.183 32.55 -25 41 C-25.33 41.66 -25.66 42.32 -26 43 C-24.414 42.234 -22.831 41.462 -21.25 40.688 C-20.368 40.258 -19.487 39.829 -18.578 39.387 C-12.401 36.064 -12.401 36.064 -11.182 32.83 C-11.032 32.001 -10.881 31.171 -10.727 30.316 C-10.544 29.394 -10.362 28.471 -10.175 27.52 C-10.084 27.032 -10.084 27.032 -9.625 24.562 C-5.792 5.792 -5.792 5.792 0 0 Z " fill="#EF8D50" transform="translate(471,315)"/>
<path d="M0 0 C2.75 -0.054 5.499 -0.094 8.25 -0.125 C9.027 -0.142 9.805 -0.159 10.605 -0.176 C18.005 -0.239 18.005 -0.239 21 2 C23.549 5.823 23.297 8.962 23.309 13.395 C23.334 15.089 23.359 16.784 23.385 18.479 C23.413 21.145 23.437 23.811 23.456 26.477 C23.478 29.054 23.517 31.63 23.559 34.207 C23.559 34.998 23.559 35.789 23.559 36.603 C23.645 41.469 24.431 44.725 27 49 C33.379 49.491 33.379 49.491 36.375 47.125 C39.583 42.93 39.128 39.148 39.098 34.055 C39.096 33.17 39.095 32.285 39.093 31.373 C39.088 28.54 39.075 25.708 39.062 22.875 C39.057 20.957 39.053 19.039 39.049 17.121 C39.038 12.414 39.021 7.707 39 3 C38.175 2.835 38.175 2.835 34 2 C34 1.34 34 0.68 34 0 C43.57 0 53.14 0 63 0 C63 0.66 63 1.32 63 2 C61.02 2.33 59.04 2.66 57 3 C57.031 3.917 57.063 4.834 57.095 5.779 C57.198 9.227 57.273 12.673 57.33 16.123 C57.36 17.607 57.4 19.09 57.453 20.574 C57.786 30.272 57.049 37.014 51 45 C49.915 46.97 48.963 48.967 48 51 C44.839 49.63 44.007 49.011 42 46 C41.446 46.494 40.891 46.987 40.32 47.496 C39.596 48.137 38.871 48.777 38.125 49.438 C37.406 50.076 36.686 50.714 35.945 51.371 C31.302 55.259 25.785 54.501 20 54 C14.148 52.479 10.737 49.066 7.262 44.27 C5.152 40.474 5.148 36.953 5.195 32.688 C5.182 31.833 5.168 30.979 5.154 30.099 C5.117 27.399 5.12 24.7 5.125 22 C5.107 20.158 5.086 18.315 5.062 16.473 C5.011 11.981 4.996 7.491 5 3 C4.175 2.67 4.175 2.67 0 1 C0 0.67 0 0.34 0 0 Z " fill="#F9FAFC" transform="translate(354,231)"/>
<path d="M0 0 C2.562 1.062 2.562 1.062 4 3 C4.918 8.851 3.255 13.233 0 18 C-3.091 21.354 -6.578 23.784 -11 25 C-14.312 25.125 -14.312 25.125 -17 25 C-20.161 34.877 -20.82 46.537 -16 56 C-14 58 -14 58 -11.375 58.438 C-0.574 57.037 6.083 46.779 12.32 38.77 C17.953 31.362 22.762 24.729 25.188 15.621 C27.077 9.527 31.35 3.094 37 0 C40.724 -0.642 43.953 -0.419 47.5 1 C49.408 3.544 49.615 5.666 49.453 8.809 C48.383 13.982 45.254 17.809 41.5 21.375 C35.804 25.078 34.259 25.037 27 24 C26.34 32.58 25.68 41.16 25 50 C24.34 49.835 24.34 49.835 21 49 C20.835 46.525 20.835 46.525 20 34 C19.227 35.062 18.453 36.124 17.656 37.219 C0.599 60.445 0.599 60.445 -9.004 62.41 C-12.913 62.699 -15 62 -18.312 59.938 C-23.852 53.882 -24.435 48.437 -24.188 40.562 C-24.181 40.149 -24.181 40.149 -24.146 38.057 C-24.111 36.037 -24.058 34.019 -24 32 C-24.568 32.361 -25.137 32.722 -25.723 33.094 C-30.576 36.011 -34.184 38.097 -40 37 C-44.803 34.229 -46.27 31.975 -47.875 26.688 C-48.271 25.13 -48.653 23.569 -49 22 C-51.402 25.603 -51.723 28.803 -52.254 32.992 C-52.36 33.775 -52.465 34.558 -52.574 35.365 C-52.911 37.867 -53.237 40.371 -53.562 42.875 C-53.894 45.372 -54.227 47.868 -54.561 50.364 C-54.769 51.916 -54.973 53.469 -55.176 55.022 C-55.662 58.713 -56.211 62.361 -57 66 C-57.66 66 -58.32 66 -59 66 C-59.844 60.539 -60.01 55.632 -59.328 50.133 C-59.245 49.413 -59.162 48.694 -59.076 47.952 C-58.899 46.441 -58.718 44.93 -58.531 43.419 C-58.252 41.139 -57.992 38.857 -57.734 36.574 C-55.707 19.236 -55.707 19.236 -53 14 C-50 13 -50 13 -47.449 13.648 C-44.436 15.311 -43.948 16.422 -42.812 19.625 C-42.494 20.512 -42.176 21.399 -41.848 22.312 C-40.731 25.852 -39.805 29.377 -39 33 C-33.857 31.071 -29.974 28.658 -25.699 25.207 C-24 24 -24 24 -22 24 C-21.773 22.701 -21.546 21.401 -21.312 20.062 C-19.699 12.888 -16.166 6.09 -10.742 1.031 C-7.32 -0.995 -3.804 -0.707 0 0 Z " fill="#ED8D51" transform="translate(290,326)"/>
<path d="M0 0 C2.121 0.996 2.121 0.996 4.301 0.746 C6.121 -0.004 6.121 -0.004 7.684 -1.566 C8.158 -2.041 8.632 -2.515 9.121 -3.004 C10.111 -3.004 11.101 -3.004 12.121 -3.004 C12.121 3.596 12.121 10.196 12.121 16.996 C10.801 16.996 9.481 16.996 8.121 16.996 C7.841 16.344 7.562 15.692 7.273 15.02 C4.209 8.339 0.825 3.348 -5.879 -0.004 C-9.792 -0.634 -13.362 -0.816 -16.922 1.09 C-23.233 6.149 -25.256 12.752 -26.531 20.512 C-27.977 35.005 -29.088 52.829 -19.879 64.996 C-16.207 68.581 -13.359 69.258 -8.379 69.434 C-3.148 69.214 0.731 68.44 4.52 64.566 C8.676 59.737 10.406 56.312 11.121 49.996 C12.111 49.996 13.101 49.996 14.121 49.996 C13.584 57.651 11.84 62.338 6.309 67.746 C-1.885 73.53 -10.1 74.224 -19.879 72.996 C-28.208 70.945 -34.796 66.95 -39.879 59.996 C-46.478 48.53 -47.492 34.905 -45.383 21.949 C-42.518 11.526 -36.204 3.493 -26.977 -2.172 C-18.023 -6.204 -8.153 -5.073 0 0 Z " fill="#F9FBFD" transform="translate(275.87890625,212.00390625)"/>
<path d="M0 0 C0 0.99 0 1.98 0 3 C0.371 3.217 0.371 3.217 2.25 4.312 C6.451 6.89 8.461 10.382 10 15 C10.251 18.079 10.231 21.162 10.25 24.25 C10.271 25.084 10.291 25.918 10.312 26.777 C10.347 32.277 9.764 36.195 7 41 C3.85 43.506 0.666 43.21 -3.25 43.125 C-4.328 43.107 -5.405 43.089 -6.516 43.07 C-6.926 43.059 -6.926 43.059 -9 43 C-9 43.99 -9 44.98 -9 46 C-8.542 45.983 -8.542 45.983 -6.227 45.895 C-5.038 45.867 -3.85 45.84 -2.625 45.812 C-1.442 45.778 -0.258 45.743 0.961 45.707 C1.462 45.755 1.462 45.755 4 46 C6 49 6 49 7 52 C5.926 54.156 5.926 54.156 4.312 56.5 C3.793 57.273 3.274 58.047 2.738 58.844 C-0.098 62.362 -1.982 63.855 -6.5 64.5 C-10 64 -10 64 -12.312 61.938 C-15.207 56.899 -16.012 52.286 -16.312 46.562 C-16.59 42.607 -17.069 40.505 -19.562 37.438 C-22.588 33.208 -22.525 29.03 -22.562 24 C-22.577 23.24 -22.591 22.48 -22.606 21.697 C-22.488 14.947 -20.318 9.996 -16.211 4.688 C-10.959 -0.14 -7.03 -0.908 0 0 Z " fill="#EE8D51" transform="translate(433,319)"/>
<path d="M0 0 C2.897 -0.135 5.788 -0.234 8.688 -0.312 C9.504 -0.354 10.321 -0.396 11.162 -0.439 C11.56 -0.448 11.56 -0.448 13.574 -0.488 C14.302 -0.514 15.03 -0.541 15.78 -0.568 C19.256 0.321 20.736 2.281 23 5 C23.601 8.107 23.601 8.107 23.568 11.626 C23.568 12.271 23.569 12.915 23.57 13.579 C23.566 15.696 23.528 17.81 23.488 19.926 C23.479 21.398 23.472 22.871 23.467 24.344 C23.448 28.209 23.399 32.073 23.343 35.938 C23.292 39.887 23.269 43.835 23.244 47.783 C23.191 55.523 23.105 63.261 23 71 C24.98 71.33 26.96 71.66 29 72 C29 72.66 29 73.32 29 74 C19.1 74 9.2 74 -1 74 C-1 73.34 -1 72.68 -1 72 C0.155 71.835 0.155 71.835 6 71 C5.67 48.56 5.34 26.12 5 3 C4.175 2.67 4.175 2.67 0 1 C0 0.67 0 0.34 0 0 Z " fill="#F7F9FC" transform="translate(309,210)"/>
<path d="M0 0 C3.083 -0.116 6.165 -0.187 9.25 -0.25 C10.123 -0.284 10.995 -0.317 11.895 -0.352 C15.66 -0.409 18.246 -0.409 21.594 1.406 C23.779 5.437 23.423 9.249 23.25 13.75 C23.232 14.638 23.214 15.526 23.195 16.441 C23.148 18.629 23.083 20.814 23 23 C23.99 23 24.98 23 26 23 C25.67 23.99 25.34 24.98 25 26 C24.34 26 23.68 26 23 26 C23.094 31.339 23.2 36.677 23.317 42.016 C23.356 43.831 23.391 45.647 23.422 47.463 C23.468 50.074 23.526 52.686 23.586 55.297 C23.597 56.107 23.609 56.918 23.621 57.753 C23.722 61.613 23.811 64.728 26 68 C25.278 67.897 24.556 67.794 23.812 67.688 C21 68 21 68 18.75 70.438 C16 73 16 73 7 74 C6.67 50.57 6.34 27.14 6 3 C4.02 2.34 2.04 1.68 0 1 C0 0.67 0 0.34 0 0 Z " fill="#FCFDFE" transform="translate(432,210)"/>
<path d="M0 0 C4.83 0.855 6.498 1.92 9.516 5.723 C17.875 18.547 19.778 34.542 17.465 49.449 C16.257 54.816 15.075 59.066 11 63 C8 62 8 62 6.719 59.762 C-0.921 40.491 -0.414 20.406 0 0 Z " fill="#054AAB" transform="translate(183,385)"/>
<path d="M0 0 C4.156 3.718 5.743 8.43 6.291 13.909 C6.34 17.19 6.371 20.469 6.375 23.75 C6.399 24.879 6.424 26.008 6.449 27.172 C6.475 34.553 5.464 40.432 2 47 C1 48 1 48 -2.188 48.5 C-6.894 47.883 -7.886 46.648 -10.749 43.091 C-12.887 39.517 -12.822 36.187 -12.727 32.109 C-12.728 31.283 -12.729 30.457 -12.73 29.605 C-12.725 27.87 -12.706 26.136 -12.672 24.401 C-12.625 21.743 -12.631 19.088 -12.645 16.43 C-12.633 14.74 -12.619 13.049 -12.602 11.359 C-12.603 10.566 -12.605 9.772 -12.607 8.954 C-12.466 3.485 -12.466 3.485 -10.087 1.007 C-6.679 -0.637 -3.688 -0.804 0 0 Z " fill="#0A50AF" transform="translate(467,233)"/>
<path d="M0 0 C4.5 1.22 6.475 4.406 8.828 8.188 C10.626 12.602 10.66 16.323 10.594 21.039 C10.605 21.86 10.617 22.68 10.629 23.525 C10.603 28.945 9.805 32.814 7.219 37.602 C4.153 39.134 0.951 38.704 -2.406 38.664 C-3.113 38.66 -3.819 38.655 -4.547 38.65 C-6.292 38.639 -8.036 38.621 -9.781 38.602 C-10.457 28.384 -8.683 22.806 -2.031 15.102 C-0.956 13.927 0.124 12.758 1.219 11.602 C-5.048 11.12 -5.048 11.12 -7.969 13.039 C-11.451 17.962 -14.005 23.584 -14.781 29.602 C-15.441 29.602 -16.101 29.602 -16.781 29.602 C-18.733 21.796 -18.175 14.859 -14.781 7.602 C-10.747 1.478 -7.25 -1.012 0 0 Z " fill="#084BAA" transform="translate(432.78125,322.3984375)"/>
<path d="M0 0 C4.146 2.573 7.128 5.452 9 10 C9.486 15.247 8.885 18.576 6 23 C3.159 26.267 1.643 27.719 -2.625 28.449 C-7.227 28.631 -10.316 28.33 -14.5 26.312 C-18.689 22.438 -20.173 19.762 -20.438 14.062 C-20.267 9.295 -19.321 6.577 -16 3 C-11.065 -1.207 -6.17 -2.078 0 0 Z " fill="#0E4CA8" transform="translate(546,299)"/>
<path d="M0 0 C0.99 0 1.98 0 3 0 C3.643 19.606 -8.231 40.061 -16.75 57.188 C-18.046 59.809 -19.341 62.432 -20.633 65.056 C-21.43 66.671 -22.229 68.285 -23.03 69.898 C-24.84 73.551 -26.563 77.179 -28 81 C-29.105 77.632 -28.884 75.233 -28.215 71.773 C-28.017 70.75 -27.819 69.727 -27.615 68.673 C-27.392 67.585 -27.168 66.496 -26.938 65.375 C-26.71 64.256 -26.482 63.137 -26.248 61.983 C-24.358 53.034 -21.885 44.463 -18.697 35.896 C-18.062 34.168 -17.475 32.423 -16.895 30.676 C-13.358 20.502 -7.724 7.724 0 0 Z " fill="#084BAA" transform="translate(217,255)"/>
<path d="M0 0 C1.32 0.33 2.64 0.66 4 1 C4.028 2.646 4.047 4.292 4.062 5.938 C4.074 6.854 4.086 7.771 4.098 8.715 C4.022 11.258 3.821 13.635 3.504 16.149 C2.982 20.746 2.839 25.279 2.832 29.902 C2.829 30.706 2.825 31.51 2.822 32.338 C2.817 34.018 2.815 35.697 2.815 37.377 C2.812 39.955 2.794 42.533 2.775 45.111 C2.772 46.75 2.77 48.389 2.77 50.027 C2.762 50.798 2.755 51.569 2.748 52.363 C2.771 57.771 2.771 57.771 5 60 C5.565 62.655 5.738 65.291 6 68 C3 70 3 70 0.921 69.814 C-1 69 -1 69 -2.738 65.969 C-4.995 59.124 -4.312 51.621 -4.188 44.5 C-4.172 42.995 -4.159 41.49 -4.146 39.984 C-4.114 36.323 -4.062 32.661 -4 29 C-14.758 36.545 -25.434 44.187 -36 52 C-37.32 51.34 -38.64 50.68 -40 50 C-36.484 46.157 -32.444 43.382 -28.188 40.438 C-27.816 40.173 -27.816 40.173 -25.935 38.833 C-22.234 36.201 -18.526 33.682 -14.617 31.367 C-4.947 25.414 -4.947 25.414 -3.2 20.96 C-2.361 17.273 -2.134 13.69 -2.105 9.918 C-2.004 6.154 -1.38 3.474 0 0 Z " fill="#EF8D50" transform="translate(226,327)"/>
<path d="M0 0 C0.66 0 1.32 0 2 0 C2.499 7.826 0.773 13.899 -1.812 21.25 C-2.212 22.413 -2.611 23.576 -3.023 24.774 C-4.325 28.525 -5.654 32.265 -7 36 C-7.229 36.636 -7.458 37.272 -7.694 37.927 C-18.07 66.63 -18.07 66.63 -25 79 C-25.33 79 -25.66 79 -26 79 C-26.201 72.63 -25.479 66.757 -24.312 60.5 C-24.135 59.537 -23.957 58.573 -23.773 57.581 C-21.466 45.603 -17.824 34.21 -13 23 C-11.35 23 -9.7 23 -8 23 C-8.081 22.25 -8.162 21.5 -8.246 20.727 C-8.78 12.069 -6.66 7.474 -1 1 C-0.67 0.67 -0.34 0.34 0 0 Z " fill="#094CAA" transform="translate(419,261)"/>
<path d="M0 0 C2.5 1 2.5 1 4 3 C4.904 8.927 3.826 12.358 0.426 17.242 C-2.687 21.08 -6.203 23.744 -11 25 C-13.31 24.67 -15.62 24.34 -18 24 C-18.66 32.58 -19.32 41.16 -20 50 C-21.32 49.67 -22.64 49.34 -24 49 C-24 43.72 -24 38.44 -24 33 C-24.66 33.165 -24.66 33.165 -28 34 C-27.076 31.441 -26.253 29.315 -24.539 27.184 C-22.734 24.622 -22.048 22.32 -21.188 19.312 C-17.76 8.598 -12.395 -1.377 0 0 Z " fill="#EA8C52" transform="translate(335,326)"/>
<path d="M0 0 C2.875 -0.188 2.875 -0.188 6 0 C8.031 3.047 8.247 3.601 8.195 7.012 C8.189 7.769 8.182 8.526 8.176 9.307 C8.159 10.092 8.142 10.878 8.125 11.688 C8.116 12.485 8.107 13.282 8.098 14.104 C8.074 16.069 8.038 18.035 8 20 C7.67 20 7.34 20 7 20 C7 16.37 7 12.74 7 9 C6.01 9 5.02 9 4 9 C3.34 8.01 2.68 7.02 2 6 C-1.708 13.433 -3.869 21.121 -6 29.125 C-6.354 30.428 -6.708 31.731 -7.064 33.034 C-8.497 38.305 -9.909 43.579 -11.23 48.879 C-15.075 64.179 -15.075 64.179 -19 69 C-22.812 70.125 -22.812 70.125 -26 70 C-31.259 62.351 -31.278 54.444 -31.125 45.5 C-31.116 44.487 -31.107 43.474 -31.098 42.43 C-31.074 39.953 -31.042 37.477 -31 35 C-30.67 35 -30.34 35 -30 35 C-29.67 40.61 -29.34 46.22 -29 52 C-28.01 52.33 -27.02 52.66 -26 53 C-23.81 56.285 -23.002 59.207 -22 63 C-18.461 55.915 -16.487 48.736 -14.625 41.062 C-7.148 11.353 -7.148 11.353 0 0 Z " fill="#E88B53" transform="translate(489,326)"/>
<path d="M0 0 C0.33 0 0.66 0 1 0 C1.015 0.774 1.029 1.548 1.044 2.345 C1.928 44.516 1.928 44.516 10 62 C13 61 13 61 14.133 59.145 C15.997 54.763 17.509 50.787 18 46 C18.33 46 18.66 46 19 46 C21.056 34.694 19.741 22.155 14.707 11.785 C14.474 11.196 14.24 10.607 14 10 C14.33 9.34 14.66 8.68 15 8 C18.529 11.041 19.692 13.35 20.688 17.875 C20.918 18.883 21.149 19.891 21.387 20.93 C23.539 31.704 23.846 41.831 21.312 52.562 C21.238 52.896 21.238 52.896 20.863 54.582 C19.636 59.305 17.65 61.834 14 65 C13.67 65.33 13.34 65.66 13 66 C10.812 66.5 10.812 66.5 8 66 C0.127 59.705 -1.326 49.696 -2.625 40.25 C-2.75 39.374 -2.875 38.498 -3.003 37.595 C-4.654 25.69 -5.149 14.002 -5 2 C-4.67 2 -4.34 2 -4 2 C-3.67 5.63 -3.34 9.26 -3 13 C-0.411 10.411 -0.626 8.973 -0.375 5.375 C-0.338 4.874 -0.338 4.874 -0.148 2.336 C-0.099 1.565 -0.05 0.794 0 0 Z " fill="#E28A55" transform="translate(182,385)"/>
<path d="M0 0 C2.31 0 4.62 0 7 0 C7 21.12 7 42.24 7 64 C4.69 64 2.38 64 0 64 C0 42.88 0 21.76 0 0 Z " fill="#F3F6FA" transform="translate(351,584)"/>
<path d="M0 0 C21.12 0 42.24 0 64 0 C64 2.31 64 4.62 64 7 C42.88 7 21.76 7 0 7 C0 4.69 0 2.38 0 0 Z " fill="#EEF3F9" transform="translate(66,357)"/>
<path d="M0 0 C2.31 0 4.62 0 7 0 C7 21.12 7 42.24 7 64 C4.69 64 2.38 64 0 64 C0 42.88 0 21.76 0 0 Z " fill="#F3F6FB" transform="translate(351,72)"/>
<path d="M0 0 C2.169 0.506 4 1 6 2 C5.516 7.246 2.754 10.903 -0.062 15.188 C-1.147 16.87 -2.231 18.554 -3.312 20.238 C-3.9 21.152 -4.488 22.065 -5.094 23.006 C-8.648 28.589 -12.101 34.234 -15.562 39.875 C-16.253 40.998 -16.943 42.121 -17.655 43.278 C-20.457 47.84 -23.252 52.405 -26 57 C-29.317 56.428 -30.726 55.43 -33 53 C-32.614 52.383 -32.227 51.766 -31.829 51.13 C-24.292 39.089 -16.769 27.039 -9.302 14.954 C-6.216 9.96 -3.117 4.975 0 0 Z " fill="#F3F6FB" transform="translate(232,549)"/>
<path d="M0 0 C3.614 1.34 6.746 2.96 10 5.02 C10.48 5.322 10.48 5.322 12.909 6.851 C13.929 7.498 14.949 8.145 16 8.812 C18.151 10.168 20.302 11.524 22.453 12.879 C23.54 13.565 24.628 14.251 25.748 14.958 C31.606 18.637 37.501 22.258 43.398 25.874 C44.211 26.375 45.023 26.875 45.859 27.391 C46.565 27.824 47.272 28.258 47.999 28.704 C50.075 30.048 52.039 31.494 54 33 C53.494 35.169 53 37 52 39 C46.008 37.453 41.36 34.227 36.25 30.875 C29.818 26.696 23.362 22.583 16.773 18.656 C15.571 17.935 14.369 17.214 13.167 16.493 C11.402 15.434 9.634 14.38 7.857 13.342 C6.202 12.374 4.558 11.386 2.914 10.398 C1.965 9.838 1.016 9.278 0.038 8.701 C-0.635 8.139 -1.307 7.578 -2 7 C-2 3 -2 3 0 0 Z " fill="#F3F6FB" transform="translate(546,476)"/>
<path d="M0 0 C0.66 1.98 1.32 3.96 2 6 C-5.221 10.401 -12.545 14.583 -19.938 18.688 C-28.8 23.621 -37.615 28.622 -46.338 33.8 C-51.786 37 -51.786 37 -54 37 C-54.99 35.02 -55.98 33.04 -57 31 C-42.938 22.534 -28.576 14.629 -14.18 6.751 C-10.657 4.811 -7.158 2.83 -3.672 0.823 C-2 0 -2 0 0 0 Z " fill="#F3F6FB" transform="translate(158,467)"/>
<path d="M0 0 C3.571 1.327 6.677 2.915 9.895 4.949 C10.839 5.543 11.784 6.137 12.757 6.75 C13.766 7.389 14.774 8.029 15.812 8.688 C17.957 10.038 20.102 11.388 22.246 12.738 C23.352 13.436 24.458 14.135 25.597 14.854 C31.18 18.377 36.778 21.875 42.375 25.375 C43.409 26.023 44.442 26.671 45.507 27.339 C46.461 27.936 47.415 28.533 48.398 29.148 C49.241 29.676 50.083 30.204 50.951 30.748 C53 32 53 32 55 33 C54.188 35.438 54.188 35.438 53 38 C50 39 50 39 48.125 38.202 C47.424 37.771 46.722 37.339 46 36.895 C45.602 36.653 45.602 36.653 43.59 35.431 C42.736 34.897 41.881 34.363 41 33.812 C40.113 33.269 39.226 32.725 38.312 32.165 C35.533 30.456 32.765 28.73 30 27 C29.151 26.47 28.302 25.94 27.427 25.395 C17.227 19.02 7.103 12.526 -3 6 C-2.01 4.02 -1.02 2.04 0 0 Z " fill="#F3F6FB" transform="translate(111,205)"/>
<path d="M0 0 C2.438 0.812 2.438 0.812 5 2 C6 5 6 5 4.835 7.426 C4.236 8.378 3.637 9.331 3.02 10.312 C2.355 11.379 1.691 12.446 1.007 13.546 C0.276 14.697 -0.456 15.849 -1.188 17 C-1.924 18.175 -2.661 19.351 -3.396 20.527 C-4.88 22.897 -6.371 25.264 -7.867 27.627 C-9.776 30.645 -11.672 33.67 -13.562 36.699 C-14.604 38.362 -15.645 40.025 -16.688 41.688 C-17.155 42.433 -17.623 43.179 -18.104 43.947 C-20.927 48.411 -23.893 52.729 -27 57 C-31.875 55.25 -31.875 55.25 -33 53 C-31.835 50.688 -31.835 50.688 -30.02 47.785 C-29.355 46.715 -28.691 45.645 -28.007 44.542 C-27.276 43.382 -26.544 42.222 -25.812 41.062 C-25.076 39.882 -24.34 38.701 -23.604 37.52 C-21.758 34.56 -19.903 31.606 -18.042 28.654 C-17.074 27.117 -16.107 25.58 -15.141 24.042 C-12.619 20.03 -10.091 16.023 -7.551 12.023 C-5.013 8.028 -2.503 4.017 0 0 Z " fill="#F3F7FB" transform="translate(503,114)"/>
<path d="M0 0 C2.96 2.748 4.936 5.333 6.812 8.902 C7.069 9.384 7.069 9.384 8.366 11.821 C8.905 12.849 9.444 13.878 10 14.938 C11.152 17.1 12.305 19.261 13.461 21.422 C14.046 22.516 14.631 23.609 15.233 24.736 C17.955 29.764 20.779 34.73 23.625 39.688 C24.121 40.553 24.618 41.419 25.129 42.31 C25.594 43.119 26.06 43.928 26.539 44.762 C26.966 45.506 27.393 46.25 27.833 47.017 C28.807 48.672 29.845 50.289 30.898 51.895 C31.262 52.589 31.625 53.284 32 54 C31.67 54.99 31.34 55.98 31 57 C28.438 58.188 28.438 58.188 26 59 C19.586 47.863 13.237 36.691 6.987 25.462 C6.019 23.721 5.048 21.981 4.078 20.241 C0.919 14.552 -2.15 8.85 -5 3 C-3.35 2.01 -1.7 1.02 0 0 Z " fill="#F3F7FB" transform="translate(466,554)"/>
<path d="M0 0 C0.417 0.758 0.833 1.516 1.262 2.297 C2.873 5.226 4.485 8.155 6.097 11.083 C6.823 12.4 7.548 13.717 8.273 15.035 C13.79 25.056 19.376 35.035 25.1 44.94 C25.602 45.817 26.104 46.694 26.621 47.598 C27.059 48.356 27.496 49.114 27.947 49.895 C28.967 51.933 29.547 53.774 30 56 C26.25 59 26.25 59 24 59 C23.583 58.242 23.167 57.484 22.738 56.703 C21.127 53.774 19.515 50.845 17.903 47.917 C17.177 46.6 16.452 45.283 15.727 43.965 C10.21 33.944 4.624 23.965 -1.1 14.06 C-1.602 13.183 -2.104 12.306 -2.621 11.402 C-2.84 11.023 -2.84 11.023 -3.947 9.105 C-4.967 7.067 -5.547 5.226 -6 3 C-2.25 0 -2.25 0 0 0 Z " fill="#F3F6FB" transform="translate(217,107)"/>
<path d="M0 0 C0.66 1.98 1.32 3.96 2 6 C1.691 6.165 1.691 6.165 0.13 7.003 C-12.803 13.949 -25.653 21.01 -38.371 28.344 C-39.135 28.781 -39.9 29.218 -40.687 29.668 C-42.296 30.594 -43.896 31.536 -45.489 32.488 C-46.288 32.956 -47.087 33.424 -47.91 33.906 C-48.624 34.332 -49.339 34.758 -50.074 35.197 C-52 36 -52 36 -55 35 C-55.33 33.35 -55.66 31.7 -56 30 C-47.347 24.449 -38.452 19.462 -29.4 14.592 C-22.572 10.903 -15.869 7.046 -9.278 2.946 C-5.812 0.84 -4.162 0 0 0 Z " fill="#F4F7FB" transform="translate(605,217)"/>
<path d="M0 0 C0.784 0.248 1.567 0.495 2.375 0.75 C6.263 8.527 2.25 18.934 -0.25 26.562 C-0.615 27.71 -0.979 28.857 -1.355 30.039 C-3.627 37.06 -6.129 43.837 -9.203 50.547 C-10.818 54.185 -12.156 57.881 -13.5 61.625 C-16.305 69.338 -19.854 76.576 -23.642 83.848 C-25.339 87.13 -26.978 90.442 -28.625 93.75 C-29.838 89.742 -29.117 87.676 -27.625 83.75 C-27.324 82.809 -27.024 81.867 -26.714 80.897 C-25.669 77.879 -24.422 75.138 -23.016 72.273 C-18.922 63.516 -15.714 54.446 -12.446 45.355 C-11.369 42.358 -10.283 39.364 -9.195 36.371 C-8.499 34.448 -7.804 32.525 -7.109 30.602 C-6.949 30.159 -6.949 30.159 -6.137 27.918 C-1.595 15.258 -1.595 15.258 -1 8.812 C-0.925 8.04 -0.85 7.268 -0.773 6.473 C-0.724 5.904 -0.675 5.336 -0.625 4.75 C-4.261 8.184 -6.986 11.547 -9.625 15.75 C-10.312 14 -10.312 14 -10.625 11.75 C-9.188 9.5 -9.188 9.5 -7.625 7.75 C-8.285 7.42 -8.945 7.09 -9.625 6.75 C-4.171 -0.397 -4.171 -0.397 0 0 Z " fill="#CE845C" transform="translate(421.625,256.25)"/>
<path d="M0 0 C20.79 0 41.58 0 63 0 C63 1.98 63 3.96 63 6 C42.21 6 21.42 6 0 6 C0 4.02 0 2.04 0 0 Z " fill="#FDFEFE" transform="translate(579,357)"/>
<path d="M0 0 C2.91 0.336 4.534 0.536 7 2 C9.747 6.443 10.931 11.521 12.125 16.562 C12.414 17.697 12.702 18.831 13 20 C13.66 20.33 14.32 20.66 15 21 C14.67 21.33 14.34 21.66 14 22 C15.65 22.33 17.3 22.66 19 23 C19 23.33 19 23.66 19 24 C14.741 24.426 12.499 24.288 8.75 22.125 C4.968 18.636 4.078 13.868 3 9 C0.598 12.603 0.277 15.803 -0.254 19.992 C-0.36 20.775 -0.465 21.558 -0.574 22.365 C-0.911 24.867 -1.237 27.371 -1.562 29.875 C-1.894 32.372 -2.227 34.868 -2.561 37.364 C-2.769 38.916 -2.973 40.469 -3.176 42.022 C-3.662 45.713 -4.211 49.361 -5 53 C-5.66 53 -6.32 53 -7 53 C-7.844 47.539 -8.01 42.632 -7.328 37.133 C-7.245 36.413 -7.162 35.694 -7.076 34.952 C-6.899 33.441 -6.718 31.93 -6.531 30.419 C-6.252 28.139 -5.992 25.857 -5.734 23.574 C-3.367 3.367 -3.367 3.367 0 0 Z " fill="#E58A54" transform="translate(238,339)"/>
<path d="M0 0 C2.938 1.875 2.938 1.875 5 5 C6.232 11.734 4.524 17.779 2 24 C0.35 24.33 -1.3 24.66 -3 25 C-3.144 21.9 -3.244 19.564 -2 16.688 C-0.556 12.808 -0.839 9.096 -1 5 C-4.26 5.279 -5.889 5.914 -8.5 7.938 C-12.794 13.197 -15.45 19.1 -17.438 25.562 C-17.695 26.13 -17.695 26.13 -19 29 C-22.188 30 -22.188 30 -25 30 C-22.925 20.807 -19.441 11.967 -13 5 C-12.515 4.474 -12.031 3.948 -11.531 3.406 C-7.828 -0.139 -5.002 -0.909 0 0 Z " fill="#ED8C51" transform="translate(380,327)"/>
<path d="M0 0 C2.573 2.173 4.49 3.98 6 7 C6.041 11.252 5.667 14.905 3.438 18.562 C-0.068 20.63 -3.037 20.901 -7 20 C-9.91 17.818 -10.795 16.189 -11.41 12.617 C-11.674 8.081 -11.474 5.698 -8.875 1.875 C-5.453 -0.357 -4 -0.833 0 0 Z " fill="#4075C0" transform="translate(453,512)"/>
<path d="M0 0 C0.99 0 1.98 0 3 0 C2.683 0.49 2.366 0.98 2.039 1.484 C0.586 5.002 0.534 8.497 0.375 12.25 C0.336 12.995 0.298 13.74 0.258 14.508 C0.164 16.338 0.081 18.169 0 20 C-1.65 20.33 -3.3 20.66 -5 21 C-5.941 23.77 -6.879 26.54 -7.812 29.312 C-8.089 30.13 -8.365 30.948 -8.65 31.791 C-10.452 37.185 -12.019 42.575 -13.262 48.129 C-13.505 48.746 -13.749 49.364 -14 50 C-14.495 50.165 -14.495 50.165 -17 51 C-17.66 50.67 -18.32 50.34 -19 50 C-18.418 43.121 -16.63 36.969 -14.438 30.438 C-14.085 29.383 -13.733 28.328 -13.371 27.241 C-10.004 17.473 -5.74 8.611 0 0 Z " fill="#E28B55" transform="translate(411,264)"/>
<path d="M0 0 C2.5 1 2.5 1 4 3 C4.904 8.925 3.826 12.354 0.43 17.238 C-2.48 20.824 -5.357 23.312 -10 24 C-10.33 23.34 -10.66 22.68 -11 22 C-10.801 21.788 -10.801 21.788 -9.793 20.715 C-5.132 15.555 -2 11.206 -2 4 C-7.715 5.633 -10.339 9.541 -13.562 14.312 C-15.276 16.324 -16.423 16.645 -19 17 C-18.702 11.039 -15.897 7.28 -12 3 C-8.063 -0.463 -5.071 -0.727 0 0 Z " fill="#F28E4F" transform="translate(335,326)"/>
<path d="M0 0 C0.33 0 0.66 0 1 0 C1.026 1.212 1.052 2.423 1.078 3.672 C1.44 15.463 2.964 26.543 5.649 38.027 C6 40 6 40 6 44 C5.34 44.165 5.34 44.165 2 45 C2 44.01 2 43.02 2 42 C1.34 42 0.68 42 0 42 C-0.33 42.99 -0.66 43.98 -1 45 C-1.65 40.876 -2.294 36.75 -2.938 32.625 C-3.12 31.469 -3.302 30.312 -3.49 29.121 C-4.53 22.426 -5.422 15.752 -6 9 C-5.01 9.33 -4.02 9.66 -3 10 C-2.876 9.092 -2.752 8.185 -2.625 7.25 C-2.079 4.41 -1.427 2.474 0 0 Z " fill="#D2845C" transform="translate(391,351)"/>
<path d="M0 0 C0.66 0.33 1.32 0.66 2 1 C4.125 0.562 4.125 0.562 6 0 C6 3.38 5.125 5.835 4 9 C3.34 8.01 2.68 7.02 2 6 C-1.266 9.062 -4.055 12.282 -6.812 15.812 C-19.49 31.803 -19.49 31.803 -28.039 33.375 C-31.543 33.585 -33.779 33.128 -36.812 31.375 C-39.556 28.397 -42 25.19 -42 21 C-41.01 21 -40.02 21 -39 21 C-38.67 19.68 -38.34 18.36 -38 17 C-37.732 18.238 -37.464 19.475 -37.188 20.75 C-35.508 27.139 -35.508 27.139 -33 29 C-28.598 29.783 -25.236 28.818 -21.539 26.371 C-12.857 18.935 -6.24 9.502 0 0 Z " fill="#D98758" transform="translate(354,355)"/>
<path d="M0 0 C8.093 -0.571 13.892 -0.344 20.879 4.004 C23 5 23 5 25.18 4.75 C27 4 27 4 28.562 2.438 C29.037 1.963 29.511 1.489 30 1 C30.99 1 31.98 1 33 1 C33 7.6 33 14.2 33 21 C31.68 21 30.36 21 29 21 C28.72 20.348 28.441 19.695 28.152 19.023 C25.452 13.136 22.834 8.184 17 5 C13.692 4.004 10.429 3.4 7 3 C7 2.34 7 1.68 7 1 C4.69 1 2.38 1 0 1 C0 0.67 0 0.34 0 0 Z " fill="#F5F8FB" transform="translate(255,208)"/>
<path d="M0 0 C-0.368 0.353 -0.368 0.353 -2.23 2.137 C-4.898 4.895 -7.08 7.698 -9.312 10.812 C-21.693 27.504 -21.693 27.504 -31.004 29.41 C-34.969 29.704 -37.024 28.985 -40.375 26.875 C-43.078 23.914 -44.101 21.867 -45 18 C-44.01 17.67 -43.02 17.34 -42 17 C-41.67 16.01 -41.34 15.02 -41 14 C-40.903 14.313 -40.903 14.313 -40.414 15.898 C-40.154 16.716 -39.893 17.533 -39.625 18.375 C-39.37 19.187 -39.115 19.999 -38.852 20.836 C-38 23 -38 23 -36 25 C-31.106 25.816 -28.089 24.414 -24.141 21.738 C-17.359 16.231 -12.217 9.225 -7.508 1.934 C-5.107 -1.146 -3.628 -1.209 0 0 Z " fill="#D3855B" transform="translate(312,359)"/>
<path d="M0 0 C0.33 0 0.66 0 1 0 C1 6.6 1 13.2 1 20 C-0.32 20.165 -0.32 20.165 -7 21 C-10.077 18.462 -10.875 16.873 -11.438 12.938 C-10.944 9.627 -10.535 8.197 -8 6 C-4.874 5.681 -2.829 5.586 0 7 C0 4.69 0 2.38 0 0 Z " fill="#5987C8" transform="translate(431,474)"/>
<path d="M0 0 C3.405 0.681 4.525 1.648 6.5 4.5 C7.068 8.475 7.123 10.565 4.875 13.938 C1.801 15.96 0.111 16.115 -3.5 15.5 C-6.295 13.171 -6.485 11.62 -6.938 8 C-6.5 4.5 -6.5 4.5 -4.812 2.062 C-2.5 0.5 -2.5 0.5 0 0 Z " fill="#5080C5" transform="translate(217.5,516.5)"/>
<path d="M0 0 C3.056 2.091 3.865 3.293 4.562 6.938 C3.805 11.06 2.348 12.545 -1 15 C-3.883 15 -5.355 14.378 -7.812 12.938 C-9.743 9.788 -9.538 6.586 -9 3 C-6.895 -0.742 -4.003 -0.572 0 0 Z " fill="#5080C5" transform="translate(264,480)"/>
<path d="M0 0 C2.91 0.483 4.312 0.946 6.094 3.348 C6.469 6.91 6.469 6.91 6.094 10.348 C5.434 11.008 4.774 11.668 4.094 12.348 C4.094 11.688 4.094 11.028 4.094 10.348 C2.774 10.348 1.454 10.348 0.094 10.348 C0.094 8.368 0.094 6.388 0.094 4.348 C-6.155 6.002 -9.487 10.965 -12.656 16.285 C-12.863 16.625 -12.863 16.625 -13.906 18.348 C-14.566 18.348 -15.226 18.348 -15.906 18.348 C-16.719 16.348 -16.719 16.348 -16.906 13.348 C-13.461 5.684 -8.906 -0.579 0 0 Z " fill="#F28E4F" transform="translate(287.90625,325.65234375)"/>
<path d="M0 0 C4.146 2.573 7.128 5.452 9 10 C9.486 15.247 8.885 18.576 6 23 C3.159 26.267 1.643 27.719 -2.625 28.449 C-7.227 28.631 -10.316 28.33 -14.5 26.312 C-18.689 22.438 -20.173 19.762 -20.438 14.062 C-20.267 9.295 -19.321 6.577 -16 3 C-11.065 -1.207 -6.17 -2.078 0 0 Z M-16.375 6.062 C-18.755 10.364 -18.9 14.194 -18 19 C-15.99 22.884 -13.05 25.392 -9 27 C-4.533 27.24 -0.905 26.539 2.938 24.25 C6.116 20.782 6.868 18.212 7.375 13.562 C6.919 9.227 5.839 7.287 3 4 C-4.38 -0.711 -9.844 0.391 -16.375 6.062 Z " fill="#DE8A54" transform="translate(546,299)"/>
<path d="M0 0 C1.32 0 2.64 0 4 0 C3.858 2.063 3.711 4.125 3.562 6.188 C3.481 7.336 3.4 8.485 3.316 9.668 C3 13 3 13 2.469 15.625 C1.983 18.086 1.9 20.308 1.938 22.812 C1.942 23.208 1.942 23.208 1.965 25.207 C1.976 25.799 1.988 26.39 2 27 C1.01 27 0.02 27 -1 27 C-1 28.65 -1 30.3 -1 32 C-2.32 31.67 -3.64 31.34 -5 31 C-3.982 3.982 -3.982 3.982 0 0 Z " fill="#EA8C51" transform="translate(392,314)"/>
<path d="M0 0 C0.99 0.33 1.98 0.66 3 1 C2.623 7.025 0.772 11.258 -3 16 C-6.435 18.29 -7.985 18.178 -12 18 C-11.64 10.802 -7.317 6.209 -2.312 1.438 C-1.931 1.2 -1.931 1.2 0 0 Z " fill="#0E4CA8" transform="translate(331,329)"/>
<path d="M0 0 C0.99 0.33 1.98 0.66 3 1 C2.15 8.142 -0.278 13.476 -6 18 C-9.312 18.312 -9.312 18.312 -12 18 C-11.64 10.802 -7.317 6.209 -2.312 1.438 C-1.931 1.2 -1.931 1.2 0 0 Z " fill="#0C4CA9" transform="translate(286,329)"/>
<path d="M0 0 C2.31 0.165 2.31 0.165 14 1 C11.725 7.825 11.725 7.825 8.562 11.375 C7.966 12.063 7.369 12.752 6.754 13.461 C5 15 5 15 2 15 C0.443 9.453 0 6.028 0 0 Z " fill="#084BAA" transform="translate(423,364)"/>
<path d="M0 0 C1.65 0 3.3 0 5 0 C4.547 3.938 4.087 7.875 3.625 11.812 C3.499 12.913 3.372 14.013 3.242 15.146 C2.415 22.155 1.356 29.074 0 36 C-0.66 36 -1.32 36 -2 36 C-3.458 28.353 -2.48 21.18 -1.562 13.5 C-1.415 12.201 -1.267 10.901 -1.115 9.562 C-0.752 6.374 -0.38 3.187 0 0 Z " fill="#C7815F" transform="translate(233,356)"/>
<path d="M0 0 C0.99 0.33 1.98 0.66 3 1 C3 6.94 3 12.88 3 19 C3.66 19.33 4.32 19.66 5 20 C3.68 20.33 2.36 20.66 1 21 C-2.752 17.436 -4.382 15.196 -4.562 9.938 C-4.355 5.508 -3.309 3.102 0 0 Z " fill="#0549AC" transform="translate(532,303)"/>
<path d="M0 0 C0 3 0 3 -0.938 6.5 C-2.279 11.601 -2.633 16.753 -3 22 C-3.66 21.67 -4.32 21.34 -5 21 C-5.33 23.31 -5.66 25.62 -6 28 C-6.33 28 -6.66 28 -7 28 C-7 25.36 -7 22.72 -7 20 C-7.66 20 -8.32 20 -9 20 C-9.33 20.99 -9.66 21.98 -10 23 C-10.66 22.34 -11.32 21.68 -12 21 C-11.738 18.464 -10.993 16.99 -9.562 14.875 C-7.341 10.788 -6.752 6.556 -6 2 C-5.67 3.32 -5.34 4.64 -5 6 C-4.34 6 -3.68 6 -3 6 C-3 4.35 -3 2.7 -3 1 C-2.01 0.67 -1.02 0.34 0 0 Z " fill="#FA904C" transform="translate(394,340)"/>
<path d="M0 0 C2.343 0.256 4.678 0.593 7 1 C8.382 3.765 8.095 6.046 8.062 9.125 C8.053 10.221 8.044 11.316 8.035 12.445 C8.024 13.288 8.012 14.131 8 15 C6.542 15.054 5.084 15.093 3.625 15.125 C2.813 15.148 2.001 15.171 1.164 15.195 C-1 15 -1 15 -3 13 C-2.812 10.5 -2.812 10.5 -2 8 C1.228 5.848 2.284 5.799 6 6 C5.67 5.01 5.34 4.02 5 3 C4.01 2.835 4.01 2.835 -1 2 C-0.67 1.34 -0.34 0.68 0 0 Z " fill="#B4C9E6" transform="translate(289,517)"/>
<path d="M0 0 C6 0 6 0 9 2 C9.291 5.416 9.087 7.738 8 11 C8.951 12.695 9.951 14.364 11 16 C11 16.66 11 17.32 11 18 C7.246 16.749 6.759 15.435 5 12 C5 11.34 5 10.68 5 10 C3.68 10 2.36 10 1 10 C1 12.31 1 14.62 1 17 C0.67 17 0.34 17 0 17 C0 11.39 0 5.78 0 0 Z " fill="#EB904C" transform="translate(536,304)"/>
<path d="M0 0 C0.33 0 0.66 0 1 0 C1.33 2.97 1.66 5.94 2 9 C3.32 9 4.64 9 6 9 C7.703 11.188 7.703 11.188 9.25 14 C9.771 14.928 10.292 15.856 10.828 16.812 C11.021 17.173 11.021 17.173 12 19 C8.47 20.933 6.048 21.264 2 21 C1.34 20.67 0.68 20.34 0 20 C0 13.4 0 6.8 0 0 Z " fill="#2D559C" transform="translate(535,305)"/>
<path d="M0 0 C0.99 0 1.98 0 3 0 C2.683 0.49 2.366 0.98 2.039 1.484 C0.586 5.002 0.534 8.497 0.375 12.25 C0.356 12.623 0.356 12.623 0.258 14.508 C0.164 16.338 0.081 18.169 0 20 C-1.98 20 -3.96 20 -6 20 C-7.172 17.883 -7.172 17.883 -8 15 C-6.953 11.992 -6.953 11.992 -5.25 8.875 C-4.974 8.358 -4.974 8.358 -3.578 5.742 C-2.453 3.788 -1.251 1.876 0 0 Z " fill="#FD9656" transform="translate(411,264)"/>
<path d="M0 0 C2.875 0.938 2.875 0.938 4.875 3.938 C4.875 5.258 4.875 6.577 4.875 7.938 C1.575 7.938 -1.725 7.938 -5.125 7.938 C-4.795 9.258 -4.465 10.577 -4.125 11.938 C-2.991 12.061 -1.856 12.185 -0.688 12.312 C0.488 12.519 1.664 12.725 2.875 12.938 C3.205 13.597 3.535 14.258 3.875 14.938 C-3.506 15.421 -3.506 15.421 -6.125 13.375 C-7.514 9.99 -7.578 7.562 -7.125 3.938 C-4.939 0.574 -4.043 -0.081 0 0 Z " fill="#C2D2EA" transform="translate(363.125,517.0625)"/>
<path d="M0 0 C0.66 0 1.32 0 2 0 C3.032 2.6 4.051 5.204 5.062 7.812 C5.357 8.55 5.652 9.288 5.955 10.049 C8.113 15.66 8.113 15.66 7 19 C6.34 17.02 5.68 15.04 5 13 C2.03 13 -0.94 13 -4 13 C-4.124 13.804 -4.248 14.609 -4.375 15.438 C-4.478 15.86 -4.478 15.86 -5 18 C-5.66 18.33 -6.32 18.66 -7 19 C-5.178 12.388 -2.948 6.195 0 0 Z " fill="#C6D6EC" transform="translate(410,475)"/>
<path d="M0 0 C3 0.438 3 0.438 4.875 1.688 C6 3.438 6 3.438 6 7.438 C2.7 7.438 -0.6 7.438 -4 7.438 C-3.34 9.087 -2.68 10.738 -2 12.438 C0.31 12.767 2.62 13.098 5 13.438 C3 15.438 3 15.438 0.625 15.812 C-2 15.438 -2 15.438 -4.312 13.875 C-6.628 10.531 -6.499 8.426 -6 4.438 C-4.437 1.051 -3.719 0.542 0 0 Z " fill="#C2D3EB" transform="translate(225,479.5625)"/>
<path d="M0 0 C2.5 0.375 2.5 0.375 4.312 1.562 C5.5 3.375 5.5 3.375 5.5 8.375 C2.2 8.375 -1.1 8.375 -4.5 8.375 C-3.438 10.875 -3.438 10.875 -1.5 13.375 C2.188 13.688 2.188 13.688 5.5 13.375 C5.17 14.035 4.84 14.695 4.5 15.375 C-1.99 15.742 -1.99 15.742 -4.207 14.145 C-5.836 11.916 -5.902 10.615 -5.875 7.875 C-5.883 7.102 -5.89 6.328 -5.898 5.531 C-5.23 1.916 -3.572 0.536 0 0 Z " fill="#B5CAE7" transform="translate(315.5,516.625)"/>
<path d="M0 0 C2.812 0.812 2.812 0.812 3.812 1.812 C3.853 3.812 3.855 5.813 3.812 7.812 C0.512 7.812 -2.788 7.812 -6.188 7.812 C-5.125 10.312 -5.125 10.312 -3.188 12.812 C0.5 13.125 0.5 13.125 3.812 12.812 C3.483 13.472 3.152 14.133 2.812 14.812 C-3.588 15.296 -3.588 15.296 -6.125 13.25 C-7.6 9.865 -7.644 7.466 -7.188 3.812 C-4.965 0.393 -4.114 -0.242 0 0 Z " fill="#CAD9ED" transform="translate(485.1875,517.1875)"/>
<path d="M0 0 C2.5 0.375 2.5 0.375 4.312 1.562 C5.5 3.375 5.5 3.375 5.5 8.375 C2.2 8.375 -1.1 8.375 -4.5 8.375 C-3.438 10.875 -3.438 10.875 -1.5 13.375 C2.188 13.688 2.188 13.688 5.5 13.375 C5.17 14.035 4.84 14.695 4.5 15.375 C-1.99 15.742 -1.99 15.742 -4.207 14.145 C-5.836 11.916 -5.902 10.615 -5.875 7.875 C-5.883 7.102 -5.89 6.328 -5.898 5.531 C-5.23 1.916 -3.572 0.536 0 0 Z " fill="#C9D8ED" transform="translate(277.5,516.625)"/>
<path d="M0 0 C0.66 0 1.32 0 2 0 C2 0.99 2 1.98 2 3 C3.32 2.67 4.64 2.34 6 2 C6.535 3.244 7.052 4.496 7.562 5.75 C7.853 6.446 8.143 7.142 8.441 7.859 C9.092 10.352 8.724 11.563 8 14 C8 18 8 18 9 21 C8.01 21 7.02 21 6 21 C4.99 18.441 3.992 15.879 3 13.312 C2.714 12.591 2.428 11.87 2.133 11.127 C0.661 7.29 -0.396 4.184 0 0 Z " fill="#EE8D50" transform="translate(391,393)"/>
<path d="M0 0 C2 2 2 2 2 7 C-1.3 7 -4.6 7 -8 7 C-7.34 8.65 -6.68 10.3 -6 12 C-3.36 12.33 -0.72 12.66 2 13 C1.34 13.66 0.68 14.32 0 15 C-3.5 14.812 -3.5 14.812 -7 14 C-9.54 10.19 -9.586 7.465 -9 3 C-6.888 -0.755 -4.011 -0.427 0 0 Z " fill="#CBDAEE" transform="translate(458,480)"/>
<path d="M0 0 C2 3 2 3 2 7 C-1.3 7 -4.6 7 -8 7 C-7.34 8.65 -6.68 10.3 -6 12 C-3.69 12.33 -1.38 12.66 1 13 C0.34 13.66 -0.32 14.32 -1 15 C-6.455 14.545 -6.455 14.545 -9 12 C-9.301 9.941 -9.301 9.941 -9.312 7.562 C-9.329 6.78 -9.346 5.998 -9.363 5.191 C-8.478 -0.146 -4.822 -0.616 0 0 Z " fill="#D0DDEF" transform="translate(367,480)"/>
<path d="M0 0 C0.33 0 0.66 0 1 0 C1.058 3.937 1.094 7.875 1.125 11.812 C1.142 12.932 1.159 14.052 1.176 15.205 C1.182 16.278 1.189 17.351 1.195 18.457 C1.206 19.447 1.216 20.437 1.227 21.456 C1 24 1 24 -1 27 C-1.33 26.67 -1.66 26.34 -2 26 C-2.66 27.32 -3.32 28.64 -4 30 C-4.885 20.629 -5.117 11.402 -5 2 C-4.67 2 -4.34 2 -4 2 C-3.67 5.63 -3.34 9.26 -3 13 C-0.411 10.411 -0.626 8.973 -0.375 5.375 C-0.338 4.874 -0.338 4.874 -0.148 2.336 C-0.099 1.565 -0.05 0.794 0 0 Z " fill="#C07F63" transform="translate(182,385)"/>
<path d="M0 0 C2 3 2 3 2 7 C-1.3 7 -4.6 7 -8 7 C-7.34 8.65 -6.68 10.3 -6 12 C-3.69 12.33 -1.38 12.66 1 13 C0.34 13.66 -0.32 14.32 -1 15 C-6.455 14.545 -6.455 14.545 -9 12 C-9.301 9.941 -9.301 9.941 -9.312 7.562 C-9.329 6.78 -9.346 5.998 -9.363 5.191 C-8.478 -0.146 -4.822 -0.616 0 0 Z " fill="#D1DEF0" transform="translate(524,480)"/>
<path d="M0 0 C1.812 0.5 1.812 0.5 4 2 C9.144 12.683 9.31 24.357 9 36 C8.01 35.34 7.02 34.68 6 34 C5.688 31.482 5.54 29.149 5.5 26.625 C5.146 17.3 3.174 8.788 0 0 Z " fill="#8C7176" transform="translate(196,393)"/>
<path d="M0 0 C2 3 2 3 1.768 5.397 C0.991 8.032 0.014 10.227 -1.285 12.645 C-1.733 13.486 -2.181 14.327 -2.643 15.193 C-3.111 16.058 -3.58 16.922 -4.062 17.812 C-4.535 18.696 -5.007 19.58 -5.494 20.49 C-6.657 22.663 -7.826 24.833 -9 27 C-10.213 22.992 -9.492 20.926 -8 17 C-7.752 16.113 -7.505 15.226 -7.25 14.312 C-5.348 9.272 -2.649 4.681 0 0 Z " fill="#D88659" transform="translate(402,323)"/>
<path d="M0 0 C2.438 0.562 2.438 0.562 4.25 2.312 C5.438 4.562 5.438 4.562 5.438 8.562 C2.137 8.562 -1.163 8.562 -4.562 8.562 C-4.892 9.883 -5.223 11.202 -5.562 12.562 C-6.562 11.562 -6.562 11.562 -6.875 8.812 C-6.426 4.138 -4.783 1.05 0 0 Z " fill="#C2D3EB" transform="translate(403.5625,516.4375)"/>
<path d="M0 0 C0.99 0 1.98 0 3 0 C2.479 7.428 0.775 12.741 -4.875 17.812 C-11.134 22.194 -15.727 22.196 -23 21 C-23 20.67 -23 20.34 -23 20 C-22.215 19.925 -21.43 19.85 -20.621 19.773 C-13.404 18.87 -8.772 17.626 -4 12 C-1.045 8.159 -0.469 4.788 0 0 Z " fill="#D4E0F1" transform="translate(287,262)"/>
<path d="M0 0 C0.784 0.248 1.567 0.495 2.375 0.75 C3.982 3.965 3.432 7.186 3.375 10.75 C2.385 10.75 1.395 10.75 0.375 10.75 C0.375 8.44 0.375 6.13 0.375 3.75 C-4.366 7.001 -6.834 10.856 -9.625 15.75 C-10.215 13.891 -10.215 13.891 -10.625 11.75 C-9.188 9.5 -9.188 9.5 -7.625 7.75 C-8.285 7.42 -8.945 7.09 -9.625 6.75 C-4.171 -0.397 -4.171 -0.397 0 0 Z " fill="#EE8D50" transform="translate(421.625,256.25)"/>
<path d="M0 0 C0.66 0.66 1.32 1.32 2 2 C2.66 2 3.32 2 4 2 C4 5.63 4 9.26 4 13 C2.68 13.33 1.36 13.66 0 14 C-3 10.25 -3 10.25 -3 8 C-3.66 8 -4.32 8 -5 8 C-5 7.01 -5 6.02 -5 5 C-4.34 5 -3.68 5 -3 5 C-2.845 4.68 -2.845 4.68 -2.062 3.062 C-1 1 -1 1 0 0 Z " fill="#467AC2" transform="translate(421,518)"/>
<path d="M0 0 C1.125 1.562 1.125 1.562 2 4 C1.125 7.75 1.125 7.75 0 11 C-0.33 11 -0.66 11 -1 11 C-1 8.36 -1 5.72 -1 3 C-3.486 4.066 -5.037 5.038 -6.938 7 C-9.18 9.175 -11.062 10.021 -14 11 C-7.7 -0.7 -7.7 -0.7 0 0 Z " fill="#E38A55" transform="translate(221,252)"/>
<path d="M0 0 C0.66 0 1.32 0 2 0 C2 2.31 2 4.62 2 7 C3.114 6.794 4.228 6.587 5.375 6.375 C6.571 6.251 7.767 6.128 9 6 C11 8 11 8 11.195 11.039 C11.172 12.222 11.149 13.406 11.125 14.625 C11.107 15.814 11.089 17.002 11.07 18.227 C11.047 19.142 11.024 20.057 11 21 C10.67 21 10.34 21 10 21 C9.67 17.04 9.34 13.08 9 9 C7.02 9 5.04 9 3 9 C2.67 12.96 2.34 16.92 2 21 C1.34 21 0.68 21 0 21 C0 14.07 0 7.14 0 0 Z " fill="#B9CCE7" transform="translate(341,511)"/>
<path d="M0 0 C0 0.33 0 0.66 0 1 C-1.65 1 -3.3 1 -5 1 C-5 1.66 -5 2.32 -5 3 C-5.928 3.413 -6.856 3.825 -7.812 4.25 C-11.012 6.006 -12.155 6.951 -14 10 C-14.886 14.84 -14.784 19.463 -12 23.625 C-11.34 24.409 -10.68 25.192 -10 26 C-10.99 26 -11.98 26 -13 26 C-16.274 22.445 -17.303 19.837 -17.5 15 C-17.28 10.282 -16.284 7.536 -13 4 C-8.879 0.807 -5.259 -0.513 0 0 Z " fill="#D38659" transform="translate(543,298)"/>
<path d="M0 0 C1.65 0.33 3.3 0.66 5 1 C4.688 2.417 4.376 3.833 4.062 5.25 C3.888 6.039 3.714 6.828 3.535 7.641 C3.359 8.419 3.182 9.198 3 10 C2.875 10.737 2.75 11.475 2.621 12.234 C2.416 12.817 2.211 13.4 2 14 C1.01 14.33 0.02 14.66 -1 15 C-1.66 14.67 -2.32 14.34 -3 14 C-2.486 9.031 -1.766 4.71 0 0 Z " fill="#CF845C" transform="translate(395,300)"/>
<path d="M0 0 C4.21 1.403 5.474 4.45 7.688 8.062 C8.103 8.726 8.519 9.389 8.947 10.072 C9.972 11.71 10.987 13.354 12 15 C12.33 10.05 12.66 5.1 13 0 C13.33 0 13.66 0 14 0 C14 6.27 14 12.54 14 19 C13.34 19 12.68 19 12 19 C10.855 17.623 10.855 17.623 9.617 15.719 C9.172 15.042 8.728 14.365 8.27 13.668 C8.039 13.31 8.039 13.31 6.875 11.5 C6.407 10.785 5.939 10.069 5.457 9.332 C4.298 7.559 3.148 5.78 2 4 C1.835 6.475 1.835 6.475 1 19 C0.67 19 0.34 19 0 19 C0 12.73 0 6.46 0 0 Z " fill="#DEE7F4" transform="translate(379,513)"/>
<path d="M0 0 C0.33 0 0.66 0 1 0 C0.67 6.6 0.34 13.2 0 20 C-0.99 20.33 -1.98 20.66 -3 21 C-5.043 18.957 -4.185 14.863 -4.188 12.062 C-4.2 11.321 -4.212 10.579 -4.225 9.814 C-4.23 7.875 -4.122 5.936 -4 4 C-3.34 3.34 -2.68 2.68 -2 2 C-1.67 2.33 -1.34 2.66 -1 3 C-0.67 2.01 -0.34 1.02 0 0 Z " fill="#FC914A" transform="translate(359,357)"/>
<path d="M0 0 C0.33 0 0.66 0 1 0 C0.582 7.221 0.045 14.046 -2 21 C-2.33 20.34 -2.66 19.68 -3 19 C-3.66 19 -4.32 19 -5 19 C-6.37 14.48 -5.575 11.395 -4 7 C-3.34 6.34 -2.68 5.68 -2 5 C-1.293 3.35 -0.621 1.684 0 0 Z " fill="#C28061" transform="translate(223,255)"/>
<path d="M0 0 C0.66 0 1.32 0 2 0 C2.33 3.96 2.66 7.92 3 12 C4.65 12 6.3 12 8 12 C9.74 10.26 9.372 7.806 9.562 5.438 C9.646 4.426 9.73 3.414 9.816 2.371 C9.877 1.589 9.938 0.806 10 0 C10.66 0 11.32 0 12 0 C12 4.62 12 9.24 12 14 C10.577 14.227 9.154 14.454 7.688 14.688 C6.887 14.815 6.086 14.943 5.262 15.074 C3 15 3 15 1.219 13.906 C-0.534 11.164 -0.291 9.032 -0.188 5.812 C-0.16 4.726 -0.133 3.639 -0.105 2.52 C-0.071 1.688 -0.036 0.857 0 0 Z " fill="#B2C7E5" transform="translate(271,480)"/>
<path d="M0 0 C0.66 0 1.32 0 2 0 C2.33 3.96 2.66 7.92 3 12 C4.65 12 6.3 12 8 12 C9.74 10.26 9.372 7.806 9.562 5.438 C9.646 4.426 9.73 3.414 9.816 2.371 C9.877 1.589 9.938 0.806 10 0 C10.66 0 11.32 0 12 0 C12 4.62 12 9.24 12 14 C10.577 14.227 9.154 14.454 7.688 14.688 C6.887 14.815 6.086 14.943 5.262 15.074 C3 15 3 15 1.219 13.906 C-0.534 11.164 -0.291 9.032 -0.188 5.812 C-0.16 4.726 -0.133 3.639 -0.105 2.52 C-0.071 1.688 -0.036 0.857 0 0 Z " fill="#B2C7E5" transform="translate(321,480)"/>
<path d="M0 0 C1.609 -0.062 3.217 -0.124 4.875 -0.188 C5.78 -0.222 6.685 -0.257 7.617 -0.293 C8.01 -0.245 8.01 -0.245 10 0 C12.281 3.421 12.219 4.682 12.125 8.688 C12.107 9.681 12.089 10.675 12.07 11.699 C12.059 12.079 12.059 12.079 12 14 C11.34 14 10.68 14 10 14 C10 10.04 10 6.08 10 2 C8.02 2 6.04 2 4 2 C2.26 3.74 2.628 6.194 2.438 8.562 C2.354 9.574 2.27 10.586 2.184 11.629 C2.123 12.411 2.062 13.194 2 14 C1.34 14 0.68 14 0 14 C0 9.38 0 4.76 0 0 Z " fill="#B8CCE7" transform="translate(464,480)"/>
<path d="M0 0 C0.33 0 0.66 0 1 0 C1.268 1.238 1.536 2.475 1.812 3.75 C2.665 7.093 3.402 9.594 6 12 C7.66 12.364 9.327 12.7 11 13 C11.33 13.495 11.33 13.495 13 16 C5.84 16.485 5.84 16.485 2.188 14.375 C-0.556 11.397 -3 8.19 -3 4 C-2.01 4 -1.02 4 0 4 C0 2.68 0 1.36 0 0 Z " fill="#D3855B" transform="translate(315,372)"/>
<path d="M0 0 C0.66 0 1.32 0 2 0 C4 2 4 2 4.195 5.477 C4.182 6.86 4.158 8.242 4.125 9.625 C4.116 10.331 4.107 11.038 4.098 11.766 C4.074 13.511 4.038 15.255 4 17 C2.68 16.67 1.36 16.34 0 16 C0 10.72 0 5.44 0 0 Z " fill="#FD9249" transform="translate(311,359)"/>
<path d="M0 0 C0.33 0 0.66 0 1 0 C1.99 3.63 2.98 7.26 4 11 C4 10.01 4 9.02 4 8 C4.33 7.34 4.66 6.68 5 6 C5.392 6.804 5.784 7.609 6.188 8.438 C8 11 8 11 10.688 11.812 C11.451 11.874 12.214 11.936 13 12 C11 15 11 15 8.75 15.625 C5.009 14.775 3.57 12.972 1.23 10.02 C-0.567 7.07 -0.932 4.415 -1 1 C-0.67 0.67 -0.34 0.34 0 0 Z " fill="#ED8D50" transform="translate(184,436)"/>
<path d="M0 0 C2.016 1.547 2.016 1.547 4 4 C4.172 7.453 4.172 7.453 3.75 11.25 C3.621 12.513 3.492 13.777 3.359 15.078 C3.241 16.042 3.122 17.007 3 18 C1 15 1 15 0 13 C-0.33 13.165 -0.33 13.165 -2 14 C-2.18 8.78 -1.971 4.927 0 0 Z " fill="#DE8856" transform="translate(181,353)"/>
<path d="M0 0 C0.33 0.99 0.66 1.98 1 3 C1.66 3 2.32 3 3 3 C1.849 8.398 0.576 13.71 -1 19 C-2.062 17.188 -2.062 17.188 -3 15 C-2.67 14.01 -2.34 13.02 -2 12 C-2.33 11.67 -2.66 11.34 -3 11 C-2.404 3.606 -2.404 3.606 0 0 Z " fill="#EA8C51" transform="translate(193,295)"/>
<path d="M0 0 C0.66 0.33 1.32 0.66 2 1 C4.125 0.562 4.125 0.562 6 0 C6 3.38 5.125 5.835 4 9 C3.34 8.01 2.68 7.02 2 6 C1.237 6.825 0.474 7.65 -0.312 8.5 C-3 11 -3 11 -6 11 C-4.347 6.907 -2.865 3.41 0 0 Z " fill="#D2855B" transform="translate(354,355)"/>
<path d="M0 0 C0.66 0.99 1.32 1.98 2 3 C2.66 2.67 3.32 2.34 4 2 C3.858 3.896 3.711 5.792 3.562 7.688 C3.481 8.743 3.4 9.799 3.316 10.887 C3.035 13.651 2.598 16.289 2 19 C1.34 19 0.68 19 0 19 C-1.109 12.468 -0.784 6.565 0 0 Z " fill="#876F79" transform="translate(231,373)"/>
<path d="M0 0 C0.66 0.33 1.32 0.66 2 1 C2.99 0.67 3.98 0.34 5 0 C4.578 1.983 4.137 3.961 3.688 5.938 C3.444 7.04 3.2 8.142 2.949 9.277 C2.636 10.176 2.323 11.074 2 12 C1.01 12.33 0.02 12.66 -1 13 C-1.66 12.67 -2.32 12.34 -3 12 C-2.01 8.04 -1.02 4.08 0 0 Z " fill="#D3855B" transform="translate(481,343)"/>
<path d="M0 0 C0.33 0 0.66 0 1 0 C1.33 1.98 1.66 3.96 2 6 C2.66 5.34 3.32 4.68 4 4 C4.071 8.266 4.098 11.881 3 16 C3.021 17.031 3.041 18.062 3.062 19.125 C3 22 3 22 1 24 C0.095 18.635 -0.123 13.497 -0.062 8.062 C-0.058 7.283 -0.053 6.504 -0.049 5.701 C-0.037 3.801 -0.019 1.9 0 0 Z " fill="#F28E4E" transform="translate(179,405)"/>
<path d="M0 0 C0.66 0 1.32 0 2 0 C2 0.99 2 1.98 2 3 C3.32 3 4.64 3 6 3 C6 3.66 6 4.32 6 5 C4.68 5 3.36 5 2 5 C2.087 6.793 2.195 8.584 2.312 10.375 C2.371 11.373 2.429 12.37 2.488 13.398 C2.657 14.257 2.826 15.115 3 16 C3.99 16.66 4.98 17.32 6 18 C4.35 18 2.7 18 1 18 C-0.322 15.355 -0.097 13.322 -0.062 10.375 C-0.053 9.372 -0.044 8.369 -0.035 7.336 C-0.029 6.951 -0.029 6.951 0 5 C-0.66 4.67 -1.32 4.34 -2 4 C-1.34 2.68 -0.68 1.36 0 0 Z " fill="#ACC3E4" transform="translate(332,514)"/>
<path d="M0 0 C0.66 0 1.32 0 2 0 C2 0.99 2 1.98 2 3 C3.32 3 4.64 3 6 3 C6 3.66 6 4.32 6 5 C4.68 5 3.36 5 2 5 C2.087 6.793 2.195 8.584 2.312 10.375 C2.371 11.373 2.429 12.37 2.488 13.398 C2.657 14.257 2.826 15.115 3 16 C3.99 16.66 4.98 17.32 6 18 C1.125 17.125 1.125 17.125 0 16 C-0.072 14.147 -0.084 12.292 -0.062 10.438 C-0.053 9.426 -0.044 8.414 -0.035 7.371 C-0.024 6.589 -0.012 5.806 0 5 C-0.66 4.67 -1.32 4.34 -2 4 C-1.34 2.68 -0.68 1.36 0 0 Z " fill="#B2C8E6" transform="translate(426,514)"/>
<path d="M0 0 C1.65 0 3.3 0 5 0 C4.577 1.962 4.136 3.919 3.688 5.875 C3.444 6.966 3.2 8.056 2.949 9.18 C2 12 2 12 -1 14 C-1.934 8.583 -2.208 5.195 0 0 Z " fill="#DB8758" transform="translate(504,346)"/>
<path d="M0 0 C-0.33 6.27 -0.66 12.54 -1 19 C-5 15 -5 15 -5.023 11.582 C-4.809 10.338 -4.595 9.094 -4.375 7.812 C-4.176 6.561 -3.978 5.309 -3.773 4.02 C-3.518 3.023 -3.263 2.027 -3 1 C-1 0 -1 0 0 0 Z " fill="#1C4FA3" transform="translate(388,333)"/>
<path d="M0 0 C0.33 0.99 0.66 1.98 1 3 C2.32 3 3.64 3 5 3 C5 3.66 5 4.32 5 5 C3.68 5 2.36 5 1 5 C1.087 6.793 1.195 8.584 1.312 10.375 C1.371 11.373 1.429 12.37 1.488 13.398 C1.657 14.257 1.826 15.115 2 16 C2.99 16.66 3.98 17.32 5 18 C0.125 17.125 0.125 17.125 -1 16 C-1.072 14.147 -1.084 12.292 -1.062 10.438 C-1.053 9.426 -1.044 8.414 -1.035 7.371 C-1.024 6.589 -1.012 5.806 -1 5 C-1.66 4.67 -2.32 4.34 -3 4 C-2.01 2.68 -1.02 1.36 0 0 Z " fill="#BCCEE8" transform="translate(302,514)"/>
<path d="M0 0 C0.66 0 1.32 0 2 0 C2 0.99 2 1.98 2 3 C3.32 3.33 4.64 3.66 6 4 C4.68 4 3.36 4 2 4 C2 7.96 2 11.92 2 16 C3.32 16 4.64 16 6 16 C6 16.66 6 17.32 6 18 C1.125 17.125 1.125 17.125 0 16 C-0.072 13.98 -0.084 11.958 -0.062 9.938 C-0.053 8.833 -0.044 7.728 -0.035 6.59 C-0.024 5.735 -0.012 4.881 0 4 C-0.66 3.67 -1.32 3.34 -2 3 C-1.34 3 -0.68 3 0 3 C0 2.01 0 1.02 0 0 Z " fill="#A9C2E3" transform="translate(480,477)"/>
<path d="M0 0 C0.33 0 0.66 0 1 0 C1.33 5.61 1.66 11.22 2 17 C2.99 17.33 3.98 17.66 5 18 C5 20.64 5 23.28 5 26 C4.34 25.34 3.68 24.68 3 24 C2.34 24.66 1.68 25.32 1 26 C0.074 22.861 -0.117 20.063 -0.098 16.797 C-0.094 15.817 -0.091 14.837 -0.088 13.828 C-0.08 12.812 -0.071 11.797 -0.062 10.75 C-0.058 9.719 -0.053 8.688 -0.049 7.625 C-0.037 5.083 -0.021 2.542 0 0 Z " fill="#C78161" transform="translate(458,361)"/>
<path d="M0 0 C0.66 0.33 1.32 0.66 2 1 C2 4.112 1.544 6.942 1 10 C-0.65 10.33 -2.3 10.66 -4 11 C-4.366 7.062 -4.302 5.435 -2 2.125 C-1.34 1.424 -0.68 0.723 0 0 Z " fill="#F18E4F" transform="translate(381,341)"/>
<path d="M0 0 C0.66 0 1.32 0 2 0 C1.546 1.585 1.087 3.168 0.625 4.75 C0.37 5.632 0.115 6.513 -0.148 7.422 C-0.921 9.761 -1.836 11.834 -3 14 C-3.66 14 -4.32 14 -5 14 C-6.263 9.707 -5.63 7.122 -4 3 C-3.34 3.33 -2.68 3.66 -2 4 C-1.34 2.68 -0.68 1.36 0 0 Z " fill="#CD845C" transform="translate(408,312)"/>
<path d="M0 0 C0.33 0 0.66 0 1 0 C1 5.28 1 10.56 1 16 C2.98 15.01 4.96 14.02 7 13 C9.992 12.707 9.992 12.707 12.875 12.812 C13.358 12.826 13.358 12.826 15.805 12.895 C16.529 12.929 17.254 12.964 18 13 C18 13.33 18 13.66 18 14 C14.7 14.33 11.4 14.66 8 15 C8.99 15.66 9.98 16.32 11 17 C9.742 17.186 8.484 17.371 7.188 17.562 C6.48 17.667 5.772 17.771 5.043 17.879 C3 18 3 18 0 17 C0 11.39 0 5.78 0 0 Z " fill="#98B4DD" transform="translate(455,216)"/>
<path d="M0 0 C0.66 0.33 1.32 0.66 2 1 C0.734 2.151 -0.538 3.296 -1.812 4.438 C-2.52 5.076 -3.228 5.714 -3.957 6.371 C-6.979 8.781 -9.448 9.124 -13.188 9.062 C-13.817 9.052 -13.817 9.052 -17 9 C-17 8.67 -17 8.34 -17 8 C-16.704 7.915 -16.704 7.915 -15.207 7.484 C-10.314 5.984 -6.892 4.434 -3 1 C-2.01 0.67 -1.02 0.34 0 0 Z " fill="#EC8D50" transform="translate(338,378)"/>
<path d="M0 0 C3.81 2.771 4.068 6.629 5 11 C5.66 11 6.32 11 7 11 C7.124 10.299 7.248 9.598 7.375 8.875 C8.038 5.823 8.972 2.947 10 0 C10.66 0 11.32 0 12 0 C11.546 1.585 11.087 3.168 10.625 4.75 C10.37 5.632 10.115 6.513 9.852 7.422 C9.079 9.761 8.164 11.834 7 14 C6.01 13.67 5.02 13.34 4 13 C2.832 10.566 2.832 10.566 1.812 7.562 C1.468 6.574 1.124 5.585 0.77 4.566 C0 2 0 2 0 0 Z " fill="#C3D4EB" transform="translate(435,480)"/>
<path d="M0 0 C8.75 -0.125 8.75 -0.125 11 1 C11 5.29 11 9.58 11 14 C10.67 14 10.34 14 10 14 C9.67 10.37 9.34 6.74 9 3 C7.35 2.67 5.7 2.34 4 2 C1.505 4.495 1.641 5.673 1.375 9.125 C1.3 10.035 1.225 10.945 1.148 11.883 C1.099 12.581 1.05 13.28 1 14 C0.67 14 0.34 14 0 14 C0 9.38 0 4.76 0 0 Z " fill="#DAE4F2" transform="translate(373,480)"/>
<path d="M0 0 C0.33 0.66 0.66 1.32 1 2 C1.66 2 2.32 2 3 2 C4.073 5.272 3.893 7.429 3.062 10.75 C2.868 11.549 2.673 12.348 2.473 13.172 C2.317 13.775 2.161 14.378 2 15 C0.136 12.203 -1.121 10.224 -2 7 C-1.125 3.188 -1.125 3.188 0 0 Z " fill="#CC835E" transform="translate(475,364)"/>
<path d="M0 0 C1.32 0.66 2.64 1.32 4 2 C3.409 3.485 2.802 4.963 2.188 6.438 C1.851 7.261 1.515 8.085 1.168 8.934 C0 11 0 11 -3 12 C-2.492 7.682 -1.803 3.967 0 0 Z " fill="#E38955" transform="translate(485,333)"/>
<path d="M0 0 C0.66 0 1.32 0 2 0 C3.625 2 3.625 2 5 4 C5.66 2.68 6.32 1.36 7 0 C7.66 0 8.32 0 9 0 C9 2.97 9 5.94 9 9 C8.34 7.68 7.68 6.36 7 5 C6.34 6.32 5.68 7.64 5 9 C4.34 8.67 3.68 8.34 3 8 C2.67 7.01 2.34 6.02 2 5 C1.34 6.32 0.68 7.64 0 9 C0 6.03 0 3.06 0 0 Z " fill="#CAD9ED" transform="translate(499,513)"/>
<path d="M0 0 C0.33 0 0.66 0 1 0 C1 6.93 1 13.86 1 21 C0.67 21 0.34 21 0 21 C0 19.02 0 17.04 0 15 C-0.99 15 -1.98 15 -3 15 C-2.885 13.249 -2.758 11.499 -2.625 9.75 C-2.555 8.775 -2.486 7.801 -2.414 6.797 C-2.015 4.104 -1.365 2.33 0 0 Z " fill="#C9825F" transform="translate(391,351)"/>
<path d="M0 0 C0.33 0 0.66 0 1 0 C1.33 2.64 1.66 5.28 2 8 C2.66 8 3.32 8 4 8 C4.66 9.32 5.32 10.64 6 12 C5.01 12 4.02 12 3 12 C3 13.65 3 15.3 3 17 C1.68 16.67 0.36 16.34 -1 16 C-0.67 10.72 -0.34 5.44 0 0 Z " fill="#CA825F" transform="translate(388,329)"/>
<path d="M0 0 C0.66 0 1.32 0 2 0 C2.061 0.713 2.121 1.426 2.184 2.16 C2.648 7.47 3.181 12.733 4 18 C3.01 17.67 2.02 17.34 1 17 C-0.225 11.334 -0.092 5.763 0 0 Z " fill="#F48F4E" transform="translate(388,374)"/>
<path d="M0 0 C0.33 0 0.66 0 1 0 C2.324 6.43 3.248 12.429 3 19 C2.34 18.67 1.68 18.34 1 18 C0.332 15.234 0.332 15.234 -0.188 11.75 C-0.277 11.18 -0.277 11.18 -0.73 8.297 C-0.982 5.226 -0.784 2.958 0 0 Z " fill="#E98C51" transform="translate(392,371)"/>
<path d="M0 0 C0.66 0.99 1.32 1.98 2 3 C1.25 6.125 1.25 6.125 0 9 C-0.33 9.165 -0.33 9.165 -2 10 C-3.125 12.062 -3.125 12.062 -4 14 C-4.911 11.479 -5.085 10.267 -4.258 7.676 C-3.884 6.896 -3.51 6.116 -3.125 5.312 C-2.756 4.525 -2.388 3.737 -2.008 2.926 C-1 1 -1 1 0 0 Z " fill="#DF8A54" transform="translate(410,303)"/>
<path d="M0 0 C1.666 -0.043 3.334 -0.041 5 0 C6 1 6 1 6.125 3.5 C6 6 6 6 5 7 C3.334 7.041 1.666 7.043 0 7 C0 4.69 0 2.38 0 0 Z " fill="#2251A1" transform="translate(537,306)"/>
<path d="M0 0 C13.633 -0.554 13.633 -0.554 20 3 C19.67 3.66 19.34 4.32 19 5 C17.02 4.67 17.02 4.67 7 3 C7 2.34 7 1.68 7 1 C4.69 1 2.38 1 0 1 C0 0.67 0 0.34 0 0 Z " fill="#CEDCEF" transform="translate(255,208)"/>
<path d="M0 0 C0.949 0.041 1.897 0.082 2.875 0.125 C2.545 1.775 2.215 3.425 1.875 5.125 C0.225 5.455 -1.425 5.785 -3.125 6.125 C-3.785 4.805 -4.445 3.485 -5.125 2.125 C-3.125 0.125 -3.125 0.125 0 0 Z " fill="#0549AC" transform="translate(292.125,524.875)"/>
<path d="M0 0 C2.375 -0.125 2.375 -0.125 5 0 C7 2 7 2 7 5 C4.03 5 1.06 5 -2 5 C-1.34 3.35 -0.68 1.7 0 0 Z " fill="#3166B9" transform="translate(481,519)"/>
<path d="M0 0 C1.738 3.228 3.002 6.47 4 10 C3.67 10.66 3.34 11.32 3 12 C1.125 11.375 1.125 11.375 -1 10 C-2.25 6.875 -2.25 6.875 -3 4 C-2.01 3.67 -1.02 3.34 0 3 C0 2.01 0 1.02 0 0 Z " fill="#DD8856" transform="translate(270,373)"/>
<path d="M0 0 C0.33 0 0.66 0 1 0 C2.748 5.244 3.194 9.473 3 15 C2.34 14.34 1.68 13.68 1 13 C0.67 14.98 0.34 16.96 0 19 C-0.33 19 -0.66 19 -1 19 C-1.027 16.958 -1.047 14.917 -1.062 12.875 C-1.074 11.738 -1.086 10.601 -1.098 9.43 C-1.005 6.187 -0.614 3.181 0 0 Z " fill="#FB924A" transform="translate(180,361)"/>
<path d="M0 0 C1.65 0 3.3 0 5 0 C5.66 1.65 6.32 3.3 7 5 C4.03 5 1.06 5 -2 5 C-1.34 3.35 -0.68 1.7 0 0 Z " fill="#1B57B3" transform="translate(275,519)"/>
<path d="M0 0 C2 3 2 3 1.812 5.5 C0.948 8.161 0.21 9.32 -2 11 C-2.66 11 -3.32 11 -4 11 C-3.49 6.611 -2.478 3.663 0 0 Z " fill="#E28955" transform="translate(402,323)"/>
<path d="M0 0 C0.402 0.01 0.402 0.01 2.438 0.062 C2.767 1.712 3.098 3.362 3.438 5.062 C0.798 5.062 -1.842 5.062 -4.562 5.062 C-3.438 0.084 -3.438 0.084 0 0 Z " fill="#1754B1" transform="translate(403.5625,518.9375)"/>
<path d="M0 0 C0.402 0.01 0.402 0.01 2.438 0.062 C2.767 1.712 3.098 3.362 3.438 5.062 C0.798 5.062 -1.842 5.062 -4.562 5.062 C-3.438 0.084 -3.438 0.084 0 0 Z " fill="#1855B1" transform="translate(362.5625,518.9375)"/>
<path d="M0 0 C0.33 1.32 0.66 2.64 1 4 C-1.97 4 -4.94 4 -8 4 C-7.67 2.68 -7.34 1.36 -7 0 C-4.333 -1.333 -2.833 -0.671 0 0 Z " fill="#1051B0" transform="translate(524,482)"/>
<path d="M0 0 C0.33 1.32 0.66 2.64 1 4 C-1.97 4 -4.94 4 -8 4 C-7.67 2.68 -7.34 1.36 -7 0 C-4.333 -1.333 -2.833 -0.671 0 0 Z " fill="#1051B0" transform="translate(367,482)"/>
<path d="M0 0 C2.64 0 5.28 0 8 0 C7.361 0.309 6.721 0.619 6.062 0.938 C4 2 4 2 3 3 C2.766 4.849 2.587 6.705 2.438 8.562 C2.354 9.574 2.27 10.586 2.184 11.629 C2.123 12.411 2.062 13.194 2 14 C1.34 14 0.68 14 0 14 C0 9.38 0 4.76 0 0 Z " fill="#B9CCE7" transform="translate(337,480)"/>
<path d="M0 0 C2.64 0 5.28 0 8 0 C7.361 0.309 6.721 0.619 6.062 0.938 C4 2 4 2 3 3 C2.766 4.849 2.587 6.705 2.438 8.562 C2.354 9.574 2.27 10.586 2.184 11.629 C2.123 12.411 2.062 13.194 2 14 C1.34 14 0.68 14 0 14 C0 9.38 0 4.76 0 0 Z " fill="#B9CCE7" transform="translate(287,480)"/>
<path d="M0 0 C1.675 0.286 3.344 0.618 5 1 C5.33 2.32 5.66 3.64 6 5 C3.03 5 0.06 5 -3 5 C-1 1 -1 1 0 0 Z " fill="#0D4FAF" transform="translate(453,481)"/>
<path d="M0 0 C0.99 0 1.98 0 3 0 C4.098 4.321 5.178 8.617 6 13 C5.34 13 4.68 13 4 13 C2.68 9.7 1.36 6.4 0 3 C-0.33 3.165 -0.33 3.165 -2 4 C-1.34 2.68 -0.68 1.36 0 0 Z " fill="#CC835D" transform="translate(184,434)"/>
<path d="M0 0 C2.376 3.704 2.205 6.93 2.125 11.25 C2.107 12.513 2.089 13.777 2.07 15.078 C2.059 15.56 2.059 15.56 2 18 C1.01 17.34 0.02 16.68 -1 16 C-1.328 14.082 -1.328 14.082 -1.25 11.812 C-1.224 11.016 -1.198 10.219 -1.172 9.398 C-0.944 6.224 -0.534 3.138 0 0 Z " fill="#8E7176" transform="translate(203,411)"/>
<path d="M0 0 C0.66 0 1.32 0 2 0 C2.99 3.3 3.98 6.6 5 10 C4.34 10.66 3.68 11.32 3 12 C1.35 8.7 -0.3 5.4 -2 2 C-1.34 1.34 -0.68 0.68 0 0 Z " fill="#D78758" transform="translate(399,406)"/>
<path d="M0 0 C0.66 0.33 1.32 0.66 2 1 C0.757 6.179 -0.855 9.702 -4 14 C-4.688 12.25 -4.688 12.25 -5 10 C-3.562 7.75 -3.562 7.75 -2 6 C-2.66 5.67 -3.32 5.34 -4 5 C-2.68 3.35 -1.36 1.7 0 0 Z " fill="#DB8858" transform="translate(416,258)"/>
<path d="M0 0 C1.675 0.286 3.344 0.618 5 1 C5.33 2.32 5.66 3.64 6 5 C3.36 5 0.72 5 -2 5 C-1.125 1.125 -1.125 1.125 0 0 Z " fill="#074BAD" transform="translate(223,481)"/>
<path d="M0 0 C0.33 0.66 0.66 1.32 1 2 C0.066 4.031 -0.932 6.035 -2 8 C-2.99 8 -3.98 8 -5 8 C-5.33 8.66 -5.66 9.32 -6 10 C-5.514 6.877 -5.001 4.004 -4 1 C-1.938 0.312 -1.938 0.312 0 0 Z " fill="#E98C52" transform="translate(204,274)"/>
<path d="M0 0 C1.32 0.66 2.64 1.32 4 2 C3.34 3.98 2.68 5.96 2 8 C1.34 7.34 0.68 6.68 0 6 C-1.32 7.32 -2.64 8.64 -4 10 C-4.66 9.67 -5.32 9.34 -6 9 C-5.691 8.629 -5.691 8.629 -4.125 6.75 C-2.396 4.512 -1.139 2.563 0 0 Z " fill="#DE8856" transform="translate(436,367)"/>
<path d="M0 0 C0.33 0.66 0.66 1.32 1 2 C3.062 2.625 3.062 2.625 5 3 C3.68 3 2.36 3 1 3 C1.33 6.63 1.66 10.26 2 14 C3.32 14.33 4.64 14.66 6 15 C6 15.66 6 16.32 6 17 C1.125 16.125 1.125 16.125 0 15 C-0.072 12.98 -0.084 10.958 -0.062 8.938 C-0.053 7.833 -0.044 6.728 -0.035 5.59 C-0.024 4.735 -0.012 3.881 0 3 C-0.66 2.67 -1.32 2.34 -2 2 C-1.34 2 -0.68 2 0 2 C0 1.34 0 0.68 0 0 Z " fill="#D2DFF0" transform="translate(389,478)"/>
<path d="M0 0 C0.33 0 0.66 0 1 0 C2.333 12.67 2.333 12.67 1 18 C0.67 18 0.34 18 0 18 C-1.042 13.903 -0.944 10.385 -0.562 6.188 C-0.461 5.026 -0.359 3.865 -0.254 2.668 C-0.17 1.788 -0.086 0.907 0 0 Z " fill="#134CA8" transform="translate(229,372)"/>
<path d="M0 0 C-1.583 4.274 -4.506 6.265 -8 9 C-8.33 8.34 -8.66 7.68 -9 7 C-7.653 4.165 -6.607 2.387 -3.938 0.688 C-2 0 -2 0 0 0 Z " fill="#F28E4F" transform="translate(377,371)"/>
<path d="M0 0 C1.32 0.33 2.64 0.66 4 1 C3.175 2.98 3.175 2.98 -1 13 C-1.967 9.132 -1.98 7.918 -1.062 4.25 C-0.868 3.451 -0.673 2.652 -0.473 1.828 C-0.317 1.225 -0.161 0.622 0 0 Z " fill="#29539F" transform="translate(190,323)"/>
<path d="M0 0 C0.33 0 0.66 0 1 0 C1 3.3 1 6.6 1 10 C-0.65 10 -2.3 10 -4 10 C-2.891 6.513 -1.737 3.225 0 0 Z " fill="#F6F3F3" transform="translate(410,274)"/>
<path d="M0 0 C0.33 0 0.66 0 1 0 C1.249 1.935 1.474 3.873 1.688 5.812 C1.751 6.352 1.751 6.352 2.074 9.082 C2 12 2 12 0.52 13.887 C0.018 14.254 -0.483 14.621 -1 15 C-1.185 4.442 -1.185 4.442 0 0 Z " fill="#F18E4E" transform="translate(233,363)"/>
<path d="M0 0 C1.335 2.67 0.779 4.038 0.188 6.938 C0.016 7.813 -0.155 8.688 -0.332 9.59 C-1 12 -1 12 -3 15 C-4.229 11.485 -3.753 9.316 -2.625 5.812 C-2.349 4.932 -2.073 4.052 -1.789 3.145 C-1 1 -1 1 0 0 Z " fill="#766A7F" transform="translate(418,284)"/>
<path d="M0 0 C0.66 0.33 1.32 0.66 2 1 C2.731 3.314 3.401 5.648 4 8 C2.02 8 0.04 8 -2 8 C-1.477 5.237 -0.891 2.674 0 0 Z " fill="#1251B0" transform="translate(410,478)"/>
<path d="M0 0 C0.99 0.33 1.98 0.66 3 1 C2.01 4.3 1.02 7.6 0 11 C-0.99 10.67 -1.98 10.34 -3 10 C-2.01 6.7 -1.02 3.4 0 0 Z " fill="#C38162" transform="translate(403,283)"/>
<path d="M0 0 C1.32 0 2.64 0 4 0 C3.67 4.29 3.34 8.58 3 13 C0.848 9.772 0.799 8.716 1 5 C0.67 5 0.34 5 0 5 C0 3.35 0 1.7 0 0 Z " fill="#E58B53" transform="translate(392,314)"/>
<path d="M0 0 C1.65 0 3.3 0 5 0 C5.33 1.32 5.66 2.64 6 4 C3.69 4 1.38 4 -1 4 C-0.67 2.68 -0.34 1.36 0 0 Z " fill="#0244AA" transform="translate(313,519)"/>
<path d="M0 0 C0.33 0.66 0.66 1.32 1 2 C1.99 2 2.98 2 4 2 C2.844 5.912 1.645 8.875 -1 12 C-1 10.35 -1 8.7 -1 7 C-0.34 7 0.32 7 1 7 C0.825 6.608 0.825 6.608 -0.062 4.625 C-0.372 3.759 -0.681 2.892 -1 2 C-0.67 1.34 -0.34 0.68 0 0 Z " fill="#D98758" transform="translate(203,304)"/>
<path d="M0 0 C0 0.33 0 0.66 0 1 C-1.65 1 -3.3 1 -5 1 C-5 1.66 -5 2.32 -5 3 C-10.625 6 -10.625 6 -14 6 C-9.28 1.025 -6.83 -0.152 0 0 Z " fill="#B97E63" transform="translate(543,298)"/>
<path d="M0 0 C0.66 0.33 1.32 0.66 2 1 C1.07 2.152 0.131 3.297 -0.812 4.438 C-1.074 4.757 -1.074 4.757 -2.395 6.371 C-4 8 -4 8 -7 9 C-6.824 6.621 -6.303 5.298 -4.598 3.621 C-3.094 2.379 -1.549 1.186 0 0 Z " fill="#E2EAF5" transform="translate(394,275)"/>
<path d="M0 0 C0.33 0 0.66 0 1 0 C1.33 1.98 1.66 3.96 2 6 C2.66 5.34 3.32 4.68 4 4 C4 6.64 4 9.28 4 12 C3.34 11.34 2.68 10.68 2 10 C1.67 10.165 1.67 10.165 0 11 C0 7.37 0 3.74 0 0 Z " fill="#FB924A" transform="translate(179,405)"/>
<path d="M0 0 C0.495 0.33 0.495 0.33 3 2 C3.188 5.125 3.188 5.125 3 8 C2.34 8 1.68 8 1 8 C0.34 8.66 -0.32 9.32 -1 10 C-1.125 2.25 -1.125 2.25 0 0 Z " fill="#FD914B" transform="translate(444,343)"/>
<path d="M0 0 C1.134 0.021 2.269 0.041 3.438 0.062 C3.438 1.053 3.438 2.043 3.438 3.062 C0.798 3.392 -1.842 3.723 -4.562 4.062 C-4.562 -0.283 -4.438 0.078 0 0 Z " fill="#FC914B" transform="translate(429.5625,318.9375)"/>
<path d="M0 0 C0.99 0.33 1.98 0.66 3 1 C1.35 4.3 -0.3 7.6 -2 11 C-2.66 10.67 -3.32 10.34 -4 10 C-2.891 6.513 -1.737 3.225 0 0 Z " fill="#FDA46C" transform="translate(408,273)"/>
<path d="M0 0 C0.825 0.165 0.825 0.165 5 1 C6.312 4.937 5.243 7.125 4 11 C3.67 11 3.34 11 3 11 C3 8.03 3 5.06 3 2 C2.01 1.67 1.02 1.34 0 1 C0 0.67 0 0.34 0 0 Z " fill="#F18F4D" transform="translate(217,252)"/>
<path d="M0 0 C0 0.99 0 1.98 0 3 C-2.633 5.419 -4.594 6.865 -8 8 C-8 7.34 -8 6.68 -8 6 C-7.34 6 -6.68 6 -6 6 C-5.752 5.381 -5.505 4.762 -5.25 4.125 C-3.794 1.649 -2.622 1.049 0 0 Z " fill="#EE8D4F" transform="translate(293,378)"/>
<path d="M0 0 C0.66 0 1.32 0 2 0 C2.33 2.64 2.66 5.28 3 8 C2.67 8.165 2.67 8.165 1 9 C0.34 8.67 -0.32 8.34 -1 8 C-0.67 5.36 -0.34 2.72 0 0 Z " fill="#BE8062" transform="translate(393,306)"/>
<path d="M0 0 C0.66 0 1.32 0 2 0 C2.33 2.31 2.66 4.62 3 7 C2.34 7 1.68 7 1 7 C0.34 5.02 -0.32 3.04 -1 1 C-0.67 0.67 -0.34 0.34 0 0 Z M0 7 C0.33 8.32 0.66 9.64 1 11 C0.34 11 -0.32 11 -1 11 C-0.67 9.68 -0.34 8.36 0 7 Z " fill="#F7904C" transform="translate(395,395)"/>
<path d="M0 0 C0.66 0 1.32 0 2 0 C1.55 1.627 1.089 3.252 0.625 4.875 C0.37 5.78 0.115 6.685 -0.148 7.617 C-1 10 -1 10 -3 12 C-2.143 3.429 -2.143 3.429 0 0 Z " fill="#957373" transform="translate(408,312)"/>
<path d="M0 0 C0.33 0.66 0.66 1.32 1 2 C1.99 2 2.98 2 4 2 C3.01 5.63 2.02 9.26 1 13 C0.183 9.731 -0.111 7.53 -0.062 4.25 C-0.053 3.451 -0.044 2.652 -0.035 1.828 C-0.024 1.225 -0.012 0.622 0 0 Z " fill="#BD7E64" transform="translate(418,277)"/>
<path d="M0 0 C0.33 0 0.66 0 1 0 C1 2.31 1 4.62 1 7 C0.34 7 -0.32 7 -1 7 C-1 7.99 -1 8.98 -1 10 C-1.99 10 -2.98 10 -4 10 C-2.854 6.562 -1.442 3.324 0 0 Z " fill="#B57D66" transform="translate(223,255)"/>
<path d="M0 0 C2.31 0 4.62 0 7 0 C7 0.66 7 1.32 7 2 C6.01 2 5.02 2 4 2 C4 4.64 4 7.28 4 10 C3.67 10 3.34 10 3 10 C3 7.36 3 4.72 3 2 C2.01 2 1.02 2 0 2 C0 1.34 0 0.68 0 0 Z " fill="#AFC5E5" transform="translate(491,512)"/>
<path d="M0 0 C0.66 0 1.32 0 2 0 C2 3.3 2 6.6 2 10 C1.01 10 0.02 10 -1 10 C-0.67 6.7 -0.34 3.4 0 0 Z " fill="#E18857" transform="translate(312,365)"/>
<path d="M0 0 C0.33 0 0.66 0 1 0 C1 3.96 1 7.92 1 12 C0.67 12 0.34 12 0 12 C-0.33 10.02 -0.66 8.04 -1 6 C-1.99 5.67 -2.98 5.34 -4 5 C-2.693 3.313 -1.358 1.646 0 0 Z " fill="#385799" transform="translate(310,359)"/>
<path d="M0 0 C1.98 0.66 3.96 1.32 6 2 C6 2.66 6 3.32 6 4 C5.34 4 4.68 4 4 4 C3.67 4.66 3.34 5.32 3 6 C1.68 5.01 0.36 4.02 -1 3 C-0.67 2.01 -0.34 1.02 0 0 Z " fill="#E08956" transform="translate(433,319)"/>
<path d="M0 0 C0.495 0.33 0.495 0.33 3 2 C2.67 4.64 2.34 7.28 2 10 C1.01 9.34 0.02 8.68 -1 8 C-0.67 5.36 -0.34 2.72 0 0 Z " fill="#BE7F62" transform="translate(391,315)"/>
<path d="M0 0 C3.41 0.787 6.689 1.871 10 3 C9.01 3.33 8.02 3.66 7 4 C7 4.66 7 5.32 7 6 C4.125 4.711 2.075 3.386 0 1 C0 0.67 0 0.34 0 0 Z " fill="#D8E3F2" transform="translate(456,278)"/>
<path d="M0 0 C0.66 0.33 1.32 0.66 2 1 C2 1.66 2 2.32 2 3 C1.34 3 0.68 3 0 3 C0 4.98 0 6.96 0 9 C-0.99 8.67 -1.98 8.34 -3 8 C-2.453 4.625 -1.945 2.918 0 0 Z " fill="#F58F4D" transform="translate(202,308)"/>
<path d="M0 0 C1.65 0 3.3 0 5 0 C4.188 2.438 4.188 2.438 3 5 C2.01 5.33 1.02 5.66 0 6 C0 4.02 0 2.04 0 0 Z " fill="#CF845C" transform="translate(418,423)"/>
<path d="M0 0 C0.99 0.33 1.98 0.66 3 1 C1.667 3.667 0.333 6.333 -1 9 C-1.33 6.36 -1.66 3.72 -2 1 C-1.34 0.67 -0.68 0.34 0 0 Z " fill="#E58A55" transform="translate(358,355)"/>
<path d="M0 0 C0.825 0.165 0.825 0.165 5 1 C4.188 2.938 4.188 2.938 3 5 C2.01 5.33 1.02 5.66 0 6 C0 4.02 0 2.04 0 0 Z " fill="#F28E4F" transform="translate(244,352)"/>
<path d="M0 0 C0.99 1.32 1.98 2.64 3 4 C2.01 5.32 1.02 6.64 0 8 C-1.125 6.25 -1.125 6.25 -2 4 C-1.125 1.75 -1.125 1.75 0 0 Z " fill="#E18955" transform="translate(192,327)"/>
<path d="M0 0 C0.66 0.99 1.32 1.98 2 3 C1.125 5.688 1.125 5.688 0 8 C-0.66 8 -1.32 8 -2 8 C-2.125 5.125 -2.125 5.125 -2 2 C-1.34 1.34 -0.68 0.68 0 0 Z " fill="#EF8E50" transform="translate(410,303)"/>
<path d="M0 0 C1.125 3.75 1.125 3.75 0 6 C-0.99 6 -1.98 6 -3 6 C-3.33 4.35 -3.66 2.7 -4 1 C-2 0 -2 0 0 0 Z " fill="#C8825E" transform="translate(197,292)"/>
<path d="M0 0 C0.33 0 0.66 0 1 0 C0.886 1.647 0.759 3.292 0.625 4.938 C0.59 5.396 0.59 5.396 0.414 7.715 C0.277 8.469 0.141 9.223 0 10 C-0.33 10.165 -0.33 10.165 -2 11 C-1.979 10.237 -1.959 9.474 -1.938 8.688 C-2 6 -2 6 -3 3 C-2.01 3 -1.02 3 0 3 C0 2.01 0 1.02 0 0 Z " fill="#EE8E4E" transform="translate(222,262)"/>
<path d="M0 0 C0.33 0.99 0.66 1.98 1 3 C2.32 3 3.64 3 5 3 C5 3.66 5 4.32 5 5 C2.36 5 -0.28 5 -3 5 C-2.01 3.35 -1.02 1.7 0 0 Z " fill="#A8C0E2" transform="translate(302,514)"/>
<path d="M0 0 C0.99 0 1.98 0 3 0 C3 2.31 3 4.62 3 7 C2.01 7 1.02 7 0 7 C0 4.69 0 2.38 0 0 Z " fill="#CB835E" transform="translate(181,414)"/>
<path d="M0 0 C0.66 0 1.32 0 2 0 C1.67 2.31 1.34 4.62 1 7 C0.67 6.34 0.34 5.68 0 5 C-0.66 5 -1.32 5 -2 5 C-1.125 1.125 -1.125 1.125 0 0 Z " fill="#F68F4D" transform="translate(478,361)"/>
<path d="M0 0 C0.825 0.165 0.825 0.165 5 1 C4.67 2.65 4.34 4.3 4 6 C5.32 6.33 6.64 6.66 8 7 C6.35 7 4.7 7 3 7 C2.67 5.68 2.34 4.36 2 3 C1.34 3 0.68 3 0 3 C0 2.01 0 1.02 0 0 Z " fill="#D7865A" transform="translate(315,341)"/>
<path d="M0 0 C0.66 0 1.32 0 2 0 C2.33 1.65 2.66 3.3 3 5 C2.34 5.33 2.34 5.33 -1 7 C-0.67 4.69 -0.34 2.38 0 0 Z " fill="#EE8D50" transform="translate(483,338)"/>
<path d="M0 0 C0.66 0 1.32 0 2 0 C1.67 0.99 1.34 1.98 1 3 C1.99 3.66 2.98 4.32 4 5 C2.68 5.33 1.36 5.66 0 6 C-0.66 4.68 -1.32 3.36 -2 2 C-1.34 1.34 -0.68 0.68 0 0 Z " fill="#1854B1" transform="translate(289,525)"/>
<path d="M0 0 C0.66 0.66 1.32 1.32 2 2 C1.625 4.125 1.625 4.125 1 6 C0.01 5.67 -0.98 5.34 -2 5 C-2 3.68 -2 2.36 -2 1 C-1.34 0.67 -0.68 0.34 0 0 Z " fill="#E28955" transform="translate(398,401)"/>
<path d="M0 0 C0.66 0 1.32 0 2 0 C2 2.31 2 4.62 2 7 C1.34 7 0.68 7 0 7 C-0.33 7.66 -0.66 8.32 -1 9 C-0.67 6.03 -0.34 3.06 0 0 Z " fill="#E78A54" transform="translate(356,368)"/>
<path d="M0 0 C0.33 0.66 0.66 1.32 1 2 C1.66 2 2.32 2 3 2 C3.33 3.32 3.66 4.64 4 6 C3.34 6 2.68 6 2 6 C1.67 6.66 1.34 7.32 1 8 C-0.354 5.291 -0.065 2.991 0 0 Z " fill="#E18956" transform="translate(475,364)"/>
<path d="M0 0 C-0.33 0.99 -0.66 1.98 -1 3 C-2.65 3 -4.3 3 -6 3 C-6 2.01 -6 1.02 -6 0 C-2.25 -1.125 -2.25 -1.125 0 0 Z " fill="#E48B53" transform="translate(325,348)"/>
<path d="M0 0 C5.625 -0.25 5.625 -0.25 9 2 C8.67 3.65 8.34 5.3 8 7 C7.794 6.381 7.587 5.762 7.375 5.125 C5.452 2.153 3.334 1.87 0 1 C0 0.67 0 0.34 0 0 Z " fill="#B67D65" transform="translate(536,304)"/>
<path d="M0 0 C0.99 0 1.98 0 3 0 C2.812 1.875 2.812 1.875 2 4 C-0.562 5.25 -0.562 5.25 -3 6 C-2.01 4.02 -1.02 2.04 0 0 Z " fill="#EF8D4F" transform="translate(210,257)"/>
<path d="M0 0 C1.65 0 3.3 0 5 0 C5 0.99 5 1.98 5 3 C3.02 3 1.04 3 -1 3 C-0.67 2.01 -0.34 1.02 0 0 Z " fill="#094BAD" transform="translate(481,519)"/>
<path d="M0 0 C0.66 0 1.32 0 2 0 C2 0.99 2 1.98 2 3 C3.32 3.33 4.64 3.66 6 4 C4.35 4 2.7 4 1 4 C0.67 4.99 0.34 5.98 0 7 C0 6.01 0 5.02 0 4 C-0.66 3.67 -1.32 3.34 -2 3 C-1.34 3 -0.68 3 0 3 C0 2.01 0 1.02 0 0 Z " fill="#C4D5EC" transform="translate(480,477)"/>
<path d="M0 0 C0.33 1.32 0.66 2.64 1 4 C1.66 4 2.32 4 3 4 C2.67 6.97 2.34 9.94 2 13 C1.67 13 1.34 13 1 13 C0.67 8.71 0.34 4.42 0 0 Z " fill="#57618C" transform="translate(201,405)"/>
<path d="M0 0 C0 2.64 0 5.28 0 8 C-2.5 5.826 -3.436 4.27 -4 1 C-2 0 -2 0 0 0 Z " fill="#CB835E" transform="translate(401,406)"/>
<path d="M0 0 C0.66 0 1.32 0 2 0 C3.765 3.088 4 4.233 4 8 C3.34 8 2.68 8 2 8 C1.34 5.36 0.68 2.72 0 0 Z " fill="#F4904C" transform="translate(196,397)"/>
</svg>
