<?xml version="1.0" encoding="UTF-8"?>
<!-- Generator: visioncortex VTracer 0.6.12 -->
<svg version="1.1" xmlns="http://www.w3.org/2000/svg" width="317" height="62">
<path d="M0 0 C2.36 1.475 4.013 3.013 6 5 C6.33 3.35 6.66 1.7 7 0 C10.063 -0.081 13.124 -0.141 16.188 -0.188 C16.62 -0.2 16.62 -0.2 18.807 -0.264 C23.691 -0.32 27.08 -0.266 31 3 C33.065 6.098 33.295 6.954 33.312 10.5 C33.329 11.273 33.346 12.047 33.363 12.844 C32.916 15.501 32.123 16.389 30 18 C29.34 18 28.68 18 28 18 C28.433 18.771 28.866 19.542 29.312 20.336 C29.869 21.339 30.426 22.342 31 23.375 C31.557 24.373 32.114 25.37 32.688 26.398 C34 29 34 29 34 31 C30.815 31.637 28.153 31.872 25 31 C23.001 28.557 21.724 26.139 20.387 23.285 C19 21 19 21 15 20 C15 23.63 15 27.26 15 31 C12.36 31 9.72 31 7 31 C6.835 30.175 6.835 30.175 6 26 C5.093 26.804 4.185 27.609 3.25 28.438 C0.642 30.749 -0.357 31.089 -4 32 C-2.845 32.825 -2.845 32.825 3 37 C3.33 35.68 3.66 34.36 4 33 C6.64 33 9.28 33 12 33 C12 36.3 12 39.6 12 43 C14.97 43 17.94 43 21 43 C21 39.7 21 36.4 21 33 C23.31 33 25.62 33 28 33 C28 41.91 28 50.82 28 60 C25.69 60 23.38 60 21 60 C21 56.37 21 52.74 21 49 C18.03 49 15.06 49 12 49 C12 52.63 12 56.26 12 60 C9.36 60 6.72 60 4 60 C3.67 58.68 3.34 57.36 3 56 C2.402 56.639 1.804 57.279 1.188 57.938 C-2.352 61.275 -5.972 61.452 -10.641 61.422 C-14.726 60.691 -17.424 58.151 -20 55 C-21.833 49.5 -22.073 43.345 -19.438 38.062 C-16.454 34.314 -14.48 33.465 -10 32 C-10.908 31.608 -11.815 31.216 -12.75 30.812 C-17.148 28.36 -19.409 25.773 -21 21 C-21.746 14.405 -21.551 9.065 -17.543 3.598 C-12.669 -1.449 -6.413 -1.963 0 0 Z M-9.562 7.562 C-12.712 10.712 -12.923 12.598 -13 17 C-12.083 20.173 -11.337 21.663 -9 24 C-3.704 24.563 -3.704 24.563 -1.125 22.5 C-0.754 22.005 -0.383 21.51 0 21 C2.31 21.66 4.62 22.32 7 23 C7 18.05 7 13.1 7 8 C4.69 8.66 2.38 9.32 0 10 C-2.812 8.125 -2.812 8.125 -5 6 C-7 6 -7 6 -9.562 7.562 Z M15 7 C15 9.31 15 11.62 15 14 C21.625 14.25 21.625 14.25 25 12 C24.67 10.35 24.34 8.7 24 7 C21.03 7 18.06 7 15 7 Z M-11.75 40.125 C-13.542 42.813 -13.873 44.773 -14 48 C-12.057 53.42 -12.057 53.42 -9.062 55.062 C-7 55 -7 55 -5.188 53.5 C-3 52 -3 52 0.75 52.312 C1.286 52.426 1.286 52.426 4 53 C4 48.71 4 44.42 4 40 C2.845 40.495 2.845 40.495 -3 43 C-3.66 41.68 -4.32 40.36 -5 39 C-9.44 38.64 -9.44 38.64 -11.75 40.125 Z " fill="#FFFFFF" transform="translate(21,1)"/>
<path d="M0 0 C-1.019 2.778 -1.764 3.853 -4.312 5.438 C-7.917 6.192 -8.987 4.959 -12 3 C-14.812 2.812 -14.812 2.812 -17 3 C-16.835 3.495 -16.835 3.495 -16 6 C-13.164 6.844 -13.164 6.844 -9.625 7.5 C-3.518 8.637 -3.518 8.637 -1.113 10.32 C1.048 13.581 0.603 17.261 0 21 C-2.114 24.499 -3.117 25.706 -7 27 C-9.122 27.146 -11.249 27.221 -13.375 27.25 C-14.496 27.276 -15.618 27.302 -16.773 27.328 C-20.333 26.966 -22.156 26.127 -25 24 C-26.312 21.813 -26.312 21.813 -27 20 C-25.25 18.438 -25.25 18.438 -23 17 C-21.188 17.188 -21.188 17.188 -19 18 C-12.324 20.108 -12.324 20.108 -9 19 C-9 18.34 -9 17.68 -9 17 C-9.987 16.734 -10.975 16.469 -11.992 16.195 C-13.287 15.839 -14.581 15.482 -15.875 15.125 C-16.2 15.038 -16.2 15.038 -17.848 14.598 C-22.773 13.227 -22.773 13.227 -25 11 C-25.147 11.664 -25.294 12.328 -25.445 13.012 C-27.042 19.297 -28.387 22.588 -34 26 C-38.667 27.064 -43.261 27.132 -48.023 27.098 C-48.77 27.096 -49.516 27.095 -50.285 27.093 C-52.648 27.088 -55.012 27.075 -57.375 27.062 C-58.986 27.057 -60.596 27.053 -62.207 27.049 C-66.138 27.039 -70.069 27.019 -74 27 C-74 16.77 -74 6.54 -74 -4 C-71.36 -4 -68.72 -4 -66 -4 C-66 3.59 -66 11.18 -66 19 C-62.04 19 -58.08 19 -54 19 C-54 11.41 -54 3.82 -54 -4 C-51.504 -4.062 -49.009 -4.124 -46.438 -4.188 C-45.666 -4.215 -44.894 -4.242 -44.099 -4.27 C-38.991 -4.331 -35.527 -3.399 -31 -1 C-28.562 1.687 -28.562 1.687 -27 4 C-26.402 3.051 -25.804 2.103 -25.188 1.125 C-22.931 -2.099 -21.425 -3.597 -17.625 -4.672 C-11.443 -5.445 -5.007 -3.672 0 0 Z M-45 3 C-45 8.61 -45 14.22 -45 20 C-38 19 -38 19 -36.062 17.375 C-34.578 14.056 -34.615 11.597 -35 8 C-36.062 5.625 -36.062 5.625 -38 4 C-40.31 3.67 -42.62 3.34 -45 3 Z " fill="#FFFFFF" transform="translate(279,5)"/>
<path d="M0 0 C2.97 0 5.94 0 9 0 C12.686 8.565 15.921 17.203 19 26 C19.33 17.42 19.66 8.84 20 0 C24.29 0 28.58 0 33 0 C33.277 1.071 33.554 2.142 33.84 3.246 C34.206 4.643 34.571 6.04 34.938 7.438 C35.029 7.791 35.029 7.791 35.49 9.58 C36.887 14.887 36.887 14.887 38 16 C39.32 10.72 40.64 5.44 42 0 C45.96 0 49.92 0 54 0 C54 10.23 54 20.46 54 31 C51.36 31 48.72 31 46 31 C45.835 29.02 45.835 29.02 45 19 C44.01 22.96 43.02 26.92 42 31 C39.03 31 36.06 31 33 31 C32.01 27.37 31.02 23.74 30 20 C29.67 23.63 29.34 27.26 29 31 C23.06 31 17.12 31 11 31 C10.835 30.175 10.835 30.175 10 26 C8.374 26.06 6.749 26.149 5.125 26.25 C4.22 26.296 3.315 26.343 2.383 26.391 C0 27 0 27 -1.32 29.047 C-1.432 29.369 -1.432 29.369 -2 31 C-4.64 31 -7.28 31 -10 31 C-9.453 24.071 -6.933 18.003 -4.438 11.562 C-4.013 10.449 -3.588 9.336 -3.15 8.189 C-2.107 5.457 -1.056 2.727 0 0 Z M4 11 C3.34 13.64 2.68 16.28 2 19 C3.65 19 5.3 19 7 19 C6.744 16.657 6.407 14.322 6 12 C5.34 11.67 4.68 11.34 4 11 Z " fill="#FFFFFF" transform="translate(91,1)"/>
<path d="M0 0 C2.335 1.455 4.012 3.06 6 5 C6.639 4.175 7.279 3.35 7.938 2.5 C11.545 -0.445 13.323 -0.737 17.844 -0.504 C21.262 0.295 22.897 2.306 25 5 C25.165 5.165 25.165 5.165 26 6 C26.351 5.598 26.351 5.598 28.125 3.562 C31.327 0.709 32.766 0.088 37 0 C40.846 1.049 41.737 1.605 44 5 C43.625 7.187 43.625 7.187 43 9 C41.02 9 39.04 9 37 9 C36.835 8.67 36.835 8.67 36 7 C35.34 7 34.68 7 34 7 C34 7.99 34 8.98 34 10 C34.907 9.938 35.815 9.876 36.75 9.812 C40 10 40 10 42.312 11 C44.846 14.003 45.193 17.192 45 21 C43.776 23.962 42.769 25.443 40.188 27.312 C36.066 28.608 33.188 28.608 29.312 26.625 C26.011 22.877 25.126 18.795 24 14 C19 19.875 19 19.875 19 21 C20.98 21 22.96 21 25 21 C25 22.98 25 24.96 25 27 C18.73 27 12.46 27 6 27 C6 22 6 22 7.934 19.832 C8.76 19.166 9.586 18.499 10.438 17.812 C14.934 14.132 14.934 14.132 16 12 C16.04 10 16.043 8 16 6 C15.67 6.165 15.67 6.165 14 7 C13.375 9.062 13.375 9.062 13 11 C10.69 11 8.38 11 6 11 C6.017 11.29 6.017 11.29 6.105 12.758 C6.285 17.947 6.029 21.564 3 26 C0.65 27.783 -1.008 28.001 -3.938 28.438 C-8.041 27.851 -9.396 26.125 -12 23 C-14.321 18.358 -13.43 12.051 -13 7 C-10.6 0.528 -6.567 -0.657 0 0 Z M-5 6 C-7.321 11.324 -6.915 15.438 -6 21 C-5.34 21.165 -5.34 21.165 -2 22 C-0.635 19.269 -0.868 17.044 -0.875 14 C-0.874 13.464 -0.874 13.464 -0.867 10.75 C-1 8 -1 8 -2 6 C-2.99 6 -3.98 6 -5 6 Z M35 15 C34.34 15.66 33.68 16.32 33 17 C33.375 19.625 33.375 19.625 34 22 C35.32 21.67 36.64 21.34 38 21 C37.625 18.562 37.625 18.562 37 16 C36.34 15.67 35.68 15.34 35 15 Z " fill="#FFFFFF" transform="translate(139,34)"/>
<path d="M0 0 C7.92 0 15.84 0 24 0 C24 2.31 24 4.62 24 7 C18.72 7 13.44 7 8 7 C8 8.65 8 10.3 8 12 C12.62 12 17.24 12 22 12 C22 14.31 22 16.62 22 19 C17.38 19 12.76 19 8 19 C8 20.65 8 22.3 8 24 C13.28 24 18.56 24 24 24 C24 26.31 24 28.62 24 31 C16.08 31 8.16 31 0 31 C0 20.77 0 10.54 0 0 Z " fill="#FFFFFF" transform="translate(180,1)"/>
<path d="M0 0 C7.92 0 15.84 0 24 0 C24 2.31 24 4.62 24 7 C18.72 7 13.44 7 8 7 C8 8.65 8 10.3 8 12 C12.29 12 16.58 12 21 12 C21 14.31 21 16.62 21 19 C16.71 19 12.42 19 8 19 C8 20.65 8 22.3 8 24 C13.28 24 18.56 24 24 24 C24 26.31 24 28.62 24 31 C16.08 31 8.16 31 0 31 C0 20.77 0 10.54 0 0 Z " fill="#FFFFFF" transform="translate(56,1)"/>
<path d="M0 0 C2.375 0.875 2.375 0.875 4.375 2.875 C4.268 5.64 3.857 8.312 3.469 11.051 C3.361 14.309 3.718 16.066 5.375 18.875 C7.723 20.203 7.723 20.203 10.438 21.125 C15.342 22.842 15.342 22.842 16.375 23.875 C15.655 30.595 15.655 30.595 14.375 31.875 C11.156 32.425 9.128 32.402 6.41 30.5 C6.074 30.222 6.074 30.222 4.375 28.812 C0.748 25.897 0.748 25.897 -2.812 25.688 C-5.625 26.875 -5.625 26.875 -8.062 29.5 C-8.908 30.284 -9.754 31.067 -10.625 31.875 C-14.438 31.688 -14.438 31.688 -17.625 30.875 C-17.955 28.565 -18.285 26.255 -18.625 23.875 C-15.256 21.045 -11.65 19.589 -7.625 17.875 C-5.625 15.875 -5.625 15.875 -5.438 13.125 C-5.625 9.875 -5.625 9.875 -6.375 6.75 C-6.625 3.875 -6.625 3.875 -5 1.438 C-2.625 -0.125 -2.625 -0.125 0 0 Z M-3.188 18.375 C-3.992 19.2 -4.796 20.025 -5.625 20.875 C-3.315 21.535 -1.005 22.195 1.375 22.875 C1.045 20.565 0.715 18.255 0.375 15.875 C-0.625 15.875 -0.625 15.875 -3.188 18.375 Z " fill="#FFFFFF" transform="translate(300.625,1.125)"/>
<path d="M0 0 C7.92 0 15.84 0 24 0 C24 2.31 24 4.62 24 7 C18.72 7 13.44 7 8 7 C8 8.65 8 10.3 8 12 C12.62 12 17.24 12 22 12 C22 14.31 22 16.62 22 19 C17.38 19 12.76 19 8 19 C8 22.96 8 26.92 8 31 C5.36 31 2.72 31 0 31 C0 20.77 0 10.54 0 0 Z " fill="#FFFFFF" transform="translate(146,1)"/>
<path d="M0 0 C6.93 0 13.86 0 21 0 C21 1.98 21 3.96 21 6 C16.71 6 12.42 6 8 6 C8 7.32 8 8.64 8 10 C11.96 10 15.92 10 20 10 C20 11.98 20 13.96 20 16 C16.04 16 12.08 16 8 16 C8 17.65 8 19.3 8 21 C12.62 21 17.24 21 22 21 C22 22.98 22 24.96 22 27 C14.74 27 7.48 27 0 27 C0 18.09 0 9.18 0 0 Z " fill="#FFFFFF" transform="translate(83,34)"/>
<path d="M0 0 C3 1.438 3 1.438 5 4 C5.881 7.204 5.858 9.791 5 13 C2.982 16.023 0.649 18.52 -2 21 C0.31 21 2.62 21 5 21 C5 22.98 5 24.96 5 27 C-1.27 27 -7.54 27 -14 27 C-14 22 -14 22 -11.848 19.754 C-9.994 18.295 -8.14 16.837 -6.285 15.379 C-3.586 12.569 -3.259 10.826 -3 7 C-3.99 7 -4.98 7 -6 7 C-6.33 8.32 -6.66 9.64 -7 11 C-9.31 11 -11.62 11 -14 11 C-13.387 4.505 -13.387 4.505 -11.562 2.125 C-7.933 -0.489 -4.334 -0.563 0 0 Z " fill="#FFFFFF" transform="translate(120,34)"/>
<path d="M0 0 C2.31 0 4.62 0 7 0 C7 6.93 7 13.86 7 21 C10.3 21 13.6 21 17 21 C17 22.98 17 24.96 17 27 C11.39 27 5.78 27 0 27 C0 18.09 0 9.18 0 0 Z " fill="#FFFFFF" transform="translate(65,34)"/>
<path d="M0 0 C2.64 0 5.28 0 8 0 C8 10.23 8 20.46 8 31 C5.36 31 2.72 31 0 31 C0 20.77 0 10.54 0 0 Z " fill="#FFFFFF" transform="translate(171,1)"/>
<path d="M0 0 C2.64 0 5.28 0 8 0 C8 8.91 8 17.82 8 27 C5.36 27 2.72 27 0 27 C0 18.09 0 9.18 0 0 Z " fill="#FFFFFF" transform="translate(53,34)"/>
</svg>
