<?xml version="1.0" encoding="UTF-8"?>
<svg id="Layer_2" data-name="Layer 2" xmlns="http://www.w3.org/2000/svg" viewBox="0 0 221.94 36.19">
  <defs>
    <style>
      .cls-1 {
        fill: #ff0100;
      }
    </style>
  </defs>
  <g id="Capa_1" data-name="Capa 1">
    <g>
      <path class="cls-1" d="M17.55,15.01c0,1.47-1.61,2.58-3.73,2.58H3.73C1.61,17.59,0,16.48,0,15.01v-4.24c0-1.52.58-2.32,1.9-3.28C5.56,4.91,13.75.97,24.28.16c3.44-.25,5.19.81,5.19,2.48v4.5c0,1.41-1.17,2.27-3.66,2.73-2.85.51-5.12,1.26-6.65,1.97-1.1.51-1.61,1.31-1.61,2.43v.76ZM17.55,21.93c0,1.11.51,1.92,1.61,2.43,1.54.71,3.8,1.47,6.65,1.97,2.49.45,3.66,1.31,3.66,2.73v4.5c0,1.67-1.76,2.73-5.19,2.48-10.53-.81-18.72-4.75-22.38-7.33C.58,27.74,0,26.93,0,25.42v-4.24c0-1.47,1.61-2.58,3.73-2.58h10.09c2.12,0,3.73,1.11,3.73,2.58v.76ZM30.93,7.13V2.58c0-1.52,1.68-2.68,3.95-2.58,9.73.45,16.97,2.73,21.43,4.6,1.75.76,2.56,1.57,2.56,3.13v2.48c0,1.47-1.61,2.58-3.73,2.58h-9.73c-1.83,0-2.92-.4-4.17-.96-1.61-.76-3.88-1.47-6.58-1.97-2.41-.45-3.73-1.31-3.73-2.73ZM58.87,19.81c0,1.47-1.61,2.58-3.73,2.58h-20.48c-2.12,0-3.73-1.11-3.73-2.58v-3.44c0-1.47,1.61-2.58,3.73-2.58h20.48c2.12,0,3.73,1.11,3.73,2.58v3.44ZM41.24,24.36c1.24-.56,2.34-.96,4.17-.96h9.73c2.12,0,3.73,1.11,3.73,2.58v2.48c0,1.57-.8,2.37-2.56,3.13-4.46,1.87-11.7,4.14-21.43,4.6-2.27.1-3.95-1.06-3.95-2.58v-4.55c0-1.41,1.32-2.27,3.73-2.73,2.71-.51,4.97-1.21,6.58-1.97Z"/>
      <path class="cls-1" d="M77.88,33.2c0,1.47-1.61,2.58-3.73,2.58h-10.09c-2.12,0-3.73-1.11-3.73-2.58V2.99c0-1.47,1.61-2.58,3.73-2.58h10.09c2.12,0,3.73,1.11,3.73,2.58v30.21ZM83.07,10.01c-2.12,0-3.73-1.11-3.73-2.58V2.99c0-1.47,1.61-2.58,3.73-2.58h9.36c11.55,0,18.72,2.83,21.94,4.09,1.61.66,2.63,1.67,2.63,3.13v2.58c0,1.47-1.61,2.58-3.73,2.58h-9.8c-2.12,0-3.22-.56-4.17-1.21-1.1-.81-2.78-1.57-6.51-1.57h-9.73ZM108.23,22.03h-25.3c-2.12,0-3.58-1.01-3.58-2.37,0-1.36,1.46-2.37,3.58-2.37h9.87c3.73,0,5.63-.66,6.51-1.72.95-1.16,2.05-1.77,4.17-1.77h9.8c2.12,0,3.73,1.01,3.73,2.43v1.06c0,1.01-.66,1.92-1.83,2.58-.8.45-1.9,1.01-3,1.47-1.1.45-2.34.71-3.95.71ZM109.1,35.78c-2.19,0-3.51-.35-5.56-1.31l-11.7-5.61c-1.54-.71-2.92-1.06-4.9-1.06h-4.02c-2.12,0-3.58-1.01-3.58-2.37,0-1.36,1.46-2.37,3.58-2.37h25.16c1.76,0,2.93.3,4.1.86l2.56,1.21c1.32.66,2.27,1.52,2.27,3.03v5.05c0,1.47-1.61,2.58-3.73,2.58h-4.17Z"/>
      <path class="cls-1" d="M158.25.41c2.12,0,3.73,1.11,3.73,2.58v4.45c0,1.47-1.61,2.58-3.73,2.58h-6.65c-1.61,0-2.56.66-2.56,1.77v10.81c0,1.47-1.61,2.58-3.73,2.58h-10.09c-2.12,0-3.73-1.11-3.73-2.58v-10.81c0-1.11-.95-1.77-2.56-1.77h-6.73c-2.12,0-3.73-1.11-3.73-2.58V2.99c0-1.47,1.61-2.58,3.73-2.58h36.05ZM161.98,33.15c0,1.47-1.61,2.58-3.73,2.58h-36.05c-2.12,0-3.73-1.11-3.73-2.58v-4.45c0-1.47,1.61-2.58,3.73-2.58h36.05c2.12,0,3.73,1.11,3.73,2.58v4.45Z"/>
      <path class="cls-1" d="M163.44,2.99c0-1.47,1.61-2.58,3.73-2.58h20.48c2.12,0,3.73,1.11,3.73,2.58v4.45c0,1.47-1.61,2.58-3.73,2.58h-4.1c-1.61,0-2.56.66-2.56,1.77v12.63c0,1.11.95,1.77,2.56,1.77h4.1c2.12,0,3.73,1.11,3.73,2.58v4.45c0,1.47-1.61,2.58-3.73,2.58h-20.48c-2.12,0-3.73-1.11-3.73-2.58V2.99ZM192.83,7.63V3.14c0-1.62,1.68-2.78,4.75-2.58,11.55.71,18.87,4.34,22.45,6.92,1.32.96,1.9,1.87,1.9,3.49v4.04c0,1.47-1.61,2.58-3.73,2.58h-10.09c-2.12,0-3.73-1.11-3.73-2.58v-.76c0-1.01-.59-1.62-1.61-2.12-1.54-.71-3.88-1.36-6.29-1.77-2.34-.4-3.66-1.31-3.66-2.73ZM202.78,24.05c1.02-.51,1.61-1.11,1.61-2.12v-.76c0-1.47,1.61-2.58,3.73-2.58h10.09c2.12,0,3.73,1.11,3.73,2.58v4.04c0,1.62-.59,2.53-1.9,3.49-3.58,2.58-10.9,6.21-22.45,6.92-3.07.2-4.75-.96-4.75-2.58v-4.5c0-1.41,1.32-2.32,3.66-2.73,2.41-.4,4.75-1.06,6.29-1.77Z"/>
    </g>
  </g>
</svg>