<?xml version="1.0" encoding="UTF-8"?>
<!-- Generator: visioncortex VTracer 0.6.12 -->
<svg version="1.1" xmlns="http://www.w3.org/2000/svg" width="300" height="300">
<path d="M0 0 C99 0 198 0 300 0 C300 99 300 198 300 300 C201 300 102 300 0 300 C0 201 0 102 0 0 Z " fill="#000000" transform="translate(0,0)"/>
<path d="M0 0 C0.446 0.247 0.446 0.247 2.703 1.496 C12.493 7.287 21.533 15.908 24.609 27.246 C27.462 47.359 22.439 66.64 10.762 83.168 C8.597 85.878 6.352 88.452 4 91 C3.388 91.704 2.775 92.408 2.145 93.133 C-7.101 103.187 -19.931 109.31 -32.101 115.093 C-33.879 115.942 -35.645 116.816 -37.41 117.691 C-51.318 124.434 -65.644 128.982 -81 124.562 C-94.323 119.522 -106.645 110.724 -112.992 97.785 C-119.642 79.407 -116.285 61.366 -108.688 44 C-103.393 33.41 -95.495 21.031 -84.992 15.145 C-82.955 13.974 -81.5 12.687 -79.812 11.062 C-59.707 -6.445 -23.636 -13.414 0 0 Z " fill="#0A0A0A" transform="translate(190,34)"/>
<path d="M0 0 C0.446 0.247 0.446 0.247 2.703 1.496 C12.493 7.287 21.533 15.908 24.609 27.246 C27.462 47.359 22.439 66.64 10.762 83.168 C8.597 85.878 6.352 88.452 4 91 C3.388 91.704 2.775 92.408 2.145 93.133 C-7.101 103.187 -19.931 109.31 -32.101 115.093 C-33.879 115.942 -35.645 116.816 -37.41 117.691 C-51.318 124.434 -65.644 128.982 -81 124.562 C-94.323 119.522 -106.645 110.724 -112.992 97.785 C-119.642 79.407 -116.285 61.366 -108.688 44 C-103.393 33.41 -95.495 21.031 -84.992 15.145 C-82.955 13.974 -81.5 12.687 -79.812 11.062 C-59.707 -6.445 -23.636 -13.414 0 0 Z M-80.148 29.492 C-82 31 -82 31 -84.516 32.434 C-93.973 38.396 -99.363 53.467 -102.105 63.941 C-104.495 74.882 -106.023 84.644 -100.484 94.746 C-97.014 100.015 -93.597 103.218 -88.062 106.25 C-87.455 106.601 -86.847 106.951 -86.221 107.312 C-72.403 115.063 -54.818 110.73 -40.408 106.722 C-29.505 103.453 -21.829 96.923 -13.576 89.412 C-12.203 88.182 -10.784 87.002 -9.359 85.832 C0.25 77.906 8.88 64.436 11 52 C11.809 36.9 9.275 28.064 0.75 15.75 C-6.253 8.747 -14.844 4.842 -24.797 4.62 C-48.49 4.681 -62.868 13.734 -80.148 29.492 Z " fill="#090909" transform="translate(190,34)"/>
<path d="M0 0 C10.275 9.698 15.559 21.534 16.391 35.633 C16.611 52.909 11.014 67.484 2.188 82.188 C1.93 82.629 1.93 82.629 0.625 84.863 C-5.352 94.082 -14.002 99.904 -22.812 106.188 C-23.759 106.88 -24.705 107.572 -25.68 108.285 C-47.631 124.083 -73.806 135.512 -101.395 131.691 C-115.283 128.775 -124.798 122.649 -133.078 111 C-143.441 94.726 -148.223 76.413 -144.09 57.18 C-136.775 32.126 -115.225 12.113 -93.83 -1.517 C-92.565 -2.329 -91.312 -3.159 -90.076 -4.015 C-65.349 -20.962 -22.621 -18.819 0 0 Z M-87.812 2.188 C-88.729 2.577 -89.646 2.966 -90.59 3.367 C-96.524 6.086 -101.242 9.745 -106.172 14.004 C-108.812 16.187 -108.812 16.187 -111.738 17.949 C-115.792 20.901 -118.363 24.375 -121.25 28.438 C-121.534 28.834 -121.534 28.834 -122.97 30.842 C-128.069 38.181 -131.879 45.741 -134.812 54.188 C-134.949 54.571 -134.949 54.571 -135.642 56.514 C-137.667 62.623 -138.291 68.146 -138.188 74.562 C-138.182 75.021 -138.182 75.021 -138.157 77.341 C-137.902 88.514 -135.971 97.389 -128.812 106.188 C-128.345 106.779 -127.877 107.371 -127.395 107.98 C-119.142 117.252 -105.865 124.334 -93.582 125.492 C-79.729 126.015 -68.019 121.249 -55.812 115.188 C-54.485 114.547 -53.157 113.908 -51.828 113.27 C-27.91 101.675 -8.902 86.026 0.223 60.219 C3.79 49.01 6.048 33.5 1.359 22.266 C-5.984 9.243 -16.787 -0.885 -31.34 -5.223 C-52.046 -10.162 -68.749 -6.097 -87.812 2.188 Z " fill="#080808" transform="translate(211.8125,34.8125)"/>
<path d="M0 0 C0.659 0.294 1.317 0.588 1.996 0.891 C10.538 5.353 17.1 14.938 20 24 C22.336 36.067 21.29 45.916 16 57 C15.777 57.48 15.777 57.48 14.648 59.906 C8.879 71.381 -0.007 79.209 -10 87 C-10.786 87.652 -11.573 88.305 -12.383 88.977 C-12.753 89.279 -12.753 89.279 -14.625 90.812 C-15.257 91.335 -15.888 91.857 -16.539 92.395 C-30.806 101.702 -51.9 105.4 -68.594 102.559 C-77.832 99.973 -85.906 94.386 -90.879 86.211 C-96.339 75.443 -94.463 63.272 -91 52 C-86.496 39.396 -81.346 28.564 -70 21 C-68.349 19.633 -66.754 18.217 -65.157 16.787 C-48.471 1.871 -22.467 -11.257 0 0 Z M-56 16 C-56.442 16.322 -56.442 16.322 -58.676 17.949 C-64.864 22.579 -68.924 27.475 -73 34 C-73.682 35.013 -74.364 36.026 -75.066 37.07 C-80.952 46.067 -86.085 56.263 -85.578 67.324 C-83.899 75.097 -79.57 84.215 -72.961 88.891 C-72.314 89.257 -71.667 89.623 -71 90 C-70.291 90.407 -69.582 90.815 -68.852 91.234 C-58.805 95.862 -43.815 96.044 -33.312 92.625 C-31.513 91.811 -29.745 90.925 -28 90 C-27.329 89.661 -26.657 89.323 -25.966 88.974 C-9.153 80.459 3.285 70.082 12 53 C13.327 48.619 13.26 44.294 13.312 39.75 C13.342 38.929 13.371 38.108 13.4 37.262 C13.485 29.068 10.729 23.182 5 17.312 C-0.068 12.486 -5.414 10.161 -12 8 C-12.909 7.682 -13.818 7.363 -14.754 7.035 C-31.284 1.814 -42.897 5.743 -56 16 Z " fill="#090909" transform="translate(180,42)"/>
<path d="M0 0 C3.515 2.67 5.612 5.175 6.543 9.551 C6.97 17.707 4.421 24.162 -0.984 30.227 C-9.786 38.56 -19.113 42.482 -31.148 42.336 C-34 42 -34 42 -37.062 40 C-41.622 32.94 -43.058 26.418 -42 18 C-39.77 9.77 -34.425 3.915 -28.062 -1.5 C-20.348 -5.445 -7.259 -4.167 0 0 Z " fill="#0B0B0B" transform="translate(164,71)"/>
<path d="M0 0 C0.764 0.278 1.529 0.557 2.316 0.844 C17.902 7.132 28.787 18.875 35.312 34.125 C38.217 41.209 38.201 48.889 38.25 56.438 C38.26 56.835 38.26 56.835 38.312 58.846 C38.375 68.418 34.555 76.404 30.688 85 C30.505 85.419 30.505 85.419 29.58 87.539 C23.041 102.13 13.835 111.748 1 121 C0.281 121.519 -0.439 122.039 -1.18 122.574 C-9.561 128.573 -18.046 134.291 -27.125 139.188 C-27.787 139.55 -28.448 139.912 -29.13 140.285 C-33.339 142.471 -37.353 143.677 -42 144.595 C-44.212 145.043 -46.264 145.707 -48.375 146.5 C-63.268 151.585 -79.245 151.483 -94.012 145.852 C-107.127 139.378 -114.549 128.55 -121 116 C-121.42 115.282 -121.84 114.564 -122.273 113.824 C-128.952 102.099 -130.263 85.031 -127.156 71.977 C-122.672 57.282 -113.58 45.692 -104 34 C-103.58 33.474 -103.16 32.948 -102.728 32.407 C-87.101 13.089 -62.247 0.573 -38 -2 C-37.067 -2.129 -36.133 -2.258 -35.172 -2.391 C-23.452 -3.905 -11.161 -4.197 0 0 Z M-72 12 C-73.111 12.704 -74.222 13.408 -75.367 14.133 C-89.31 23.286 -102.006 34.328 -111.688 47.938 C-111.965 48.317 -111.965 48.317 -113.369 50.24 C-124.036 65.093 -126.716 79.877 -125 98 C-122.242 114.717 -112.501 129.895 -99 140 C-85.383 148.412 -69.34 148.801 -54.046 145.462 C-24.263 138.389 7.082 120.121 23.879 93.866 C33.825 77.31 38.879 59.316 34.75 40.062 C30.62 24.457 20.523 13.799 6.723 5.656 C-14.866 -4.957 -52.241 -1.642 -72 12 Z " fill="#CBCBCC" transform="translate(192,20)"/>
<path d="M0 0 C0.697 0.394 1.395 0.789 2.113 1.195 C2.78 1.569 3.446 1.943 4.133 2.328 C8.473 5.088 11.476 8.263 13.113 13.195 C14.858 22.676 10.739 31.57 5.613 39.383 C1.163 44.877 -4.912 48.566 -10.887 52.195 C-11.678 52.676 -12.47 53.157 -13.285 53.652 C-18.819 56.4 -24.438 56.622 -30.512 56.758 C-31.312 56.785 -32.112 56.812 -32.936 56.84 C-39.028 56.799 -43.188 55.083 -47.887 51.195 C-52.088 45.888 -54.351 41.153 -54.133 34.293 C-52.837 23.244 -45.442 14.116 -37.254 7.203 C-35.008 5.298 -32.959 3.285 -30.887 1.195 C-22.641 -5.551 -9.211 -4.427 0 0 Z M-33.887 10.195 C-34.469 10.748 -35.052 11.301 -35.652 11.871 C-40.909 17.421 -43.01 23.098 -43.262 30.695 C-43.054 37.213 -41.46 41.759 -37.949 47.195 C-33.098 50.363 -28.508 49.947 -22.887 49.195 C-12.946 46.609 -3.734 40.686 2.113 32.195 C5.43 26.446 6.271 20.704 5.113 14.195 C2.945 9.812 -0.08 7.658 -4.262 5.258 C-14.56 2.123 -25.95 2.513 -33.887 10.195 Z " fill="#0A0A0A" transform="translate(164.88671875,63.8046875)"/>
<path d="M0 0 C0.33 0.99 0.66 1.98 1 3 C1.66 3.33 2.32 3.66 3 4 C1.673 6.855 0.16 9.178 -1.812 11.625 C-7.423 19.097 -10.84 25.486 -10.434 35.031 C-9.748 39.727 -8.099 43.772 -6 48 C-5.673 48.73 -5.345 49.459 -5.008 50.211 C-3.531 52.833 -1.821 53.102 1 54 C1.896 54.342 2.792 54.683 3.715 55.035 C13.283 57.845 23.999 56.743 32.734 52.073 C36.876 49.803 40.948 47.426 45 45 C49 49.5 49 49.5 49 54 C45.208 55.979 41.417 57.959 37.625 59.938 C36.545 60.501 35.465 61.065 34.352 61.646 C33.836 61.916 33.836 61.916 31.227 63.277 C30.273 63.775 29.32 64.272 28.338 64.785 C23.015 67.551 18.469 67.222 12.5 67.25 C11.448 67.271 10.396 67.291 9.312 67.312 C1.468 67.351 -5.801 66.668 -12.551 62.379 C-18.139 56.617 -22.457 49.827 -23.219 41.652 C-23.05 39.321 -22.606 37.257 -22 35 C-21.805 34.134 -21.611 33.267 -21.41 32.375 C-19.567 25.626 -16.415 19.981 -12.688 14.125 C-12.238 13.412 -11.788 12.698 -11.325 11.963 C-8.137 7.142 -4.572 3.526 0 0 Z " fill="#070707" transform="translate(120,66)"/>
<path d="M0 0 C0.446 0.247 0.446 0.247 2.703 1.496 C12.493 7.287 21.533 15.908 24.609 27.246 C27.462 47.359 22.439 66.64 10.762 83.168 C8.597 85.878 6.352 88.452 4 91 C3.388 91.704 2.775 92.408 2.145 93.133 C-7.101 103.187 -19.931 109.31 -32.101 115.093 C-33.879 115.942 -35.645 116.816 -37.41 117.691 C-51.318 124.434 -65.644 128.982 -81 124.562 C-94.323 119.522 -106.645 110.724 -112.992 97.785 C-119.642 79.407 -116.285 61.366 -108.688 44 C-103.393 33.41 -95.495 21.031 -84.992 15.145 C-82.955 13.974 -81.5 12.687 -79.812 11.062 C-59.707 -6.445 -23.636 -13.414 0 0 Z M-58 3 C-58.709 3.305 -59.418 3.61 -60.149 3.924 C-69.574 8.067 -77.339 13.056 -85 20 C-86.08 20.906 -87.162 21.81 -88.246 22.711 C-100.244 32.913 -107.11 45.064 -112 60 C-112.245 60.679 -112.49 61.359 -112.742 62.059 C-116.361 73.583 -114.791 88.36 -109.812 99.25 C-103.917 110.008 -92.186 118.415 -80.5 122.062 C-57.76 126.876 -32.951 114.928 -14 103 C-10.871 100.806 -7.927 98.455 -5 96 C-4.26 95.417 -3.52 94.835 -2.758 94.234 C9.986 83.739 20.934 65.568 22.824 48.965 C23.639 35.221 23.361 24.657 14 14 C13.532 13.416 13.064 12.832 12.582 12.23 C8.885 8.02 4.548 5.356 -0.312 2.688 C-0.916 2.35 -1.52 2.012 -2.142 1.664 C-19.246 -7.276 -41.003 -4.437 -58 3 Z " fill="#CCCCCC" transform="translate(190,34)"/>
<path d="M0 0 C8.954 7.326 15.419 17.647 16.653 29.224 C17.956 45.261 13.353 58.497 3.445 71.273 C-13.266 90.325 -34.68 103.617 -60.371 105.562 C-72.983 106.155 -83.8 102.455 -93.555 94.273 C-99.064 87.987 -103.906 80.329 -104.055 71.773 C-103.929 69.937 -103.763 68.103 -103.555 66.273 C-103.493 65.387 -103.431 64.5 -103.367 63.586 C-101.483 46.626 -92.084 27.527 -78.754 16.828 C-77.463 15.85 -76.16 14.887 -74.848 13.938 C-73.124 12.686 -71.421 11.405 -69.73 10.109 C-66.7 7.789 -63.638 5.522 -60.555 3.273 C-60.165 2.981 -60.165 2.981 -58.195 1.504 C-42.154 -9.42 -16.15 -10.915 0 0 Z M-76.703 20.766 C-78.555 22.273 -78.555 22.273 -81.07 23.707 C-90.528 29.67 -95.917 44.74 -98.66 55.215 C-101.05 66.155 -102.577 75.917 -97.039 86.02 C-93.569 91.289 -90.151 94.491 -84.617 97.523 C-84.009 97.874 -83.402 98.225 -82.775 98.586 C-68.958 106.337 -51.373 102.004 -36.963 97.996 C-26.06 94.726 -18.384 88.196 -10.131 80.685 C-8.757 79.455 -7.339 78.275 -5.914 77.105 C3.695 69.179 12.325 55.709 14.445 43.273 C15.254 28.173 12.721 19.338 4.195 7.023 C-2.807 0.021 -11.399 -3.885 -21.351 -4.107 C-45.045 -4.046 -59.423 5.008 -76.703 20.766 Z " fill="#D3D3D3" transform="translate(186.5546875,42.7265625)"/>
<path d="M0 0 C2.31 0 4.62 0 7 0 C8.698 4.58 9.554 9.048 10.125 13.875 C10.414 16.226 10.702 18.577 11 21 C11.33 14.4 11.66 7.8 12 1 C13.98 1 15.96 1 18 1 C18 18.16 18 35.32 18 53 C15.36 53 12.72 53 10 53 C8.407 44.698 7.161 36.373 6 28 C5.67 36.25 5.34 44.5 5 53 C3.35 53 1.7 53 0 53 C0 35.51 0 18.02 0 0 Z " fill="#DCDCDD" transform="translate(142,182)"/>
<path d="M0 0 C6.103 5.125 11.696 10.446 12.999 18.685 C13.132 21.114 13.13 23.502 13.07 25.934 C13.077 26.745 13.084 27.557 13.092 28.393 C12.962 40.788 5.261 51.3 -2.969 60.062 C-8.883 65.755 -15.767 69.717 -22.93 73.621 C-23.23 73.786 -23.23 73.786 -24.75 74.62 C-32.981 78.965 -40.416 80.916 -49.742 80.809 C-50.203 80.805 -50.203 80.805 -52.538 80.786 C-59.402 80.62 -65.321 79.845 -71.367 76.371 C-72.014 76.005 -72.661 75.639 -73.328 75.262 C-79.937 70.586 -84.266 61.468 -85.945 53.695 C-86.451 42.662 -81.327 32.297 -75.367 23.371 C-74.746 22.368 -74.125 21.365 -73.484 20.332 C-69.421 13.911 -65.447 8.914 -59.367 4.371 C-58.848 3.971 -58.329 3.571 -57.794 3.159 C-40.392 -10.206 -19.07 -13.725 0 0 Z M-56.367 6.371 C-56.847 6.756 -56.847 6.756 -59.277 8.703 C-71.715 19.151 -81.444 33.969 -83.367 50.371 C-82.671 59.069 -79.013 66.984 -72.454 72.853 C-63.596 79.298 -49.941 78.772 -39.551 77.896 C-30.287 76.368 -22.147 71.409 -14.367 66.371 C-14.045 66.163 -14.045 66.163 -12.414 65.11 C-1.82 57.97 7.254 45.829 10.633 33.371 C11.579 25.369 11.937 17.14 7.23 10.258 C-0.581 1.033 -11.34 -4.204 -23.367 -5.629 C-37.586 -6.796 -45.834 -2.847 -56.367 6.371 Z " fill="#D4D4D4" transform="translate(180.3671875,55.62890625)"/>
<path d="M0 0 C4.148 1.455 7.045 2.981 9 7 C9.525 11.65 9.53 13.94 7.438 18.125 C2.085 24.438 -2.981 28.814 -11.438 29.562 C-15.048 29.448 -16.962 28.782 -19.562 26.25 C-22.583 22.067 -22.905 18.01 -22.664 12.949 C-20.079 1.47 -10.258 -0.882 0 0 Z " fill="#0C0C0C" transform="translate(153,74)"/>
<path d="M0 0 C4.29 0 8.58 0 13 0 C17 4 17 4 17.502 6.394 C17.5 7.263 17.498 8.132 17.496 9.027 C17.497 9.984 17.497 10.942 17.498 11.928 C17.478 12.921 17.458 13.914 17.438 14.938 C17.445 15.927 17.452 16.916 17.459 17.936 C17.424 21.965 17.241 25.308 15.91 29.129 C14 31 14 31 7 32 C7 38.93 7 45.86 7 53 C4.69 53 2.38 53 0 53 C0 35.51 0 18.02 0 0 Z " fill="#DDDDDF" transform="translate(103,183)"/>
<path d="M0 0 C0.485 0.01 0.485 0.01 2.938 0.062 C3.627 5.727 4.289 11.393 4.938 17.062 C5.034 17.891 5.13 18.719 5.229 19.573 C6.512 30.793 7.222 41.764 6.938 53.062 C5.287 53.062 3.637 53.062 1.938 53.062 C1.938 50.752 1.938 48.442 1.938 46.062 C0.618 46.062 -0.702 46.062 -2.062 46.062 C-2.062 48.373 -2.062 50.683 -2.062 53.062 C-4.042 53.062 -6.023 53.062 -8.062 53.062 C-8.251 45.42 -7.504 38.024 -6.625 30.438 C-5.614 21.446 -4.707 12.495 -4.273 3.457 C-3.956 -0.143 -3.701 0.076 0 0 Z " fill="#D6D6D8" transform="translate(172.0625,181.9375)"/>
<path d="M0 0 C2.31 0 4.62 0 7 0 C7.05 0.708 7.1 1.416 7.152 2.145 C8.087 15.266 9.049 28.376 10.39 41.462 C10.78 45.327 11.11 49.108 11 53 C9.02 53 7.04 53 5 53 C5 50.69 5 48.38 5 46 C3.68 46 2.36 46 1 46 C1 48.31 1 50.62 1 53 C-0.65 53 -2.3 53 -4 53 C-4.227 44.339 -3.909 36.022 -2.784 27.437 C-1.964 21.096 -1.563 14.775 -1.246 8.391 C-1.036 5.498 -0.651 2.821 0 0 Z " fill="#D6D6D7" transform="translate(126,182)"/>
<path d="M0 0 C5.824 3.309 10.77 7.475 12.789 14.086 C14.256 21.278 13.669 27.769 10.234 34.27 C9.968 34.904 9.701 35.538 9.426 36.191 C4.336 47.865 -6.602 54.162 -17.766 59.27 C-26.238 62.228 -36.444 63.083 -44.891 59.582 C-51.262 56.127 -54.593 51.832 -57.027 45.07 C-59.353 36.248 -58.144 29.196 -53.723 21.285 C-41.251 2.067 -22.839 -10.036 0 0 Z M-40.766 10.27 C-41.466 10.99 -42.166 11.711 -42.887 12.453 C-50.304 20.26 -56.26 28.82 -56.113 39.98 C-55.243 45.709 -52.304 50.769 -48.203 54.77 C-39.614 60.055 -29.023 59.661 -19.305 57.5 C-7.568 53.048 2.997 44.77 8.234 33.27 C8.57 32.591 8.905 31.913 9.25 31.215 C11.53 26.054 12.269 20.837 11.234 15.27 C8.22 8.077 3.305 4.204 -3.766 1.27 C-17.948 -4.296 -30.765 -1.013 -40.766 10.27 Z " fill="#D9D9D9" transform="translate(166.765625,61.73046875)"/>
<path d="M0 0 C-1.646 3.293 -5.293 3.92 -8.562 5.25 C-14.751 7.88 -19.914 10.549 -25 15 C-26.124 15.934 -27.249 16.866 -28.375 17.797 C-29.626 18.842 -30.876 19.889 -32.125 20.938 C-32.712 21.428 -33.298 21.918 -33.903 22.423 C-47.457 34.016 -57.209 51.158 -59.229 69.03 C-60.048 80.86 -58.728 92.986 -52 103 C-49.583 105.725 -46.93 107.847 -44 110 C-43.562 110.341 -43.562 110.341 -41.344 112.066 C-31.566 119.203 -21.013 122.019 -9 123 C-9 123.33 -9 123.66 -9 124 C-25.735 124.747 -36.155 120.927 -49.363 110.055 C-58.042 101.98 -61.676 91.811 -62.406 80.16 C-63.12 56.544 -53.653 36.501 -38 19 C-35.73 17.076 -33.579 15.595 -30.992 14.145 C-28.955 12.974 -27.5 11.687 -25.812 10.062 C-19.554 4.47 -8.36 -2.033 0 0 Z " fill="#D5D5D6" transform="translate(136,35)"/>
<path d="M0 0 C3.053 3.071 3.384 5.441 3.398 9.684 C3.402 10.776 3.406 11.869 3.41 12.994 C3.399 14.13 3.387 15.267 3.375 16.438 C3.387 17.57 3.398 18.702 3.41 19.869 C3.406 20.963 3.402 22.057 3.398 23.184 C3.395 24.179 3.392 25.175 3.388 26.201 C2.897 29.746 1.549 32.451 -1 35 C-3.375 35.312 -3.375 35.312 -6 35 C-8.329 32.7 -8.962 31.291 -9.388 28.023 C-9.392 26.89 -9.395 25.757 -9.398 24.59 C-9.402 23.353 -9.406 22.116 -9.41 20.842 C-9.399 19.553 -9.387 18.265 -9.375 16.938 C-9.387 15.645 -9.398 14.353 -9.41 13.021 C-9.406 11.786 -9.402 10.55 -9.398 9.277 C-9.397 8.711 -9.397 8.711 -9.388 5.847 C-9 3 -9 3 -7.663 1.135 C-5.033 -0.66 -3.086 -0.45 0 0 Z " fill="#CBCBCD" transform="translate(150,243)"/>
<path d="M0 0 C8 0 8 0 9.975 1.078 C11.525 3.985 11.389 6.471 11.398 9.75 C11.4 10.077 11.4 10.077 11.407 11.733 C11.409 13.115 11.404 14.497 11.391 15.879 C11.375 17.993 11.391 20.105 11.41 22.219 C11.408 23.563 11.404 24.906 11.398 26.25 C11.395 27.472 11.392 28.694 11.388 29.953 C11 33 11 33 9.975 34.922 C8 36 8 36 0 36 C0 24.12 0 12.24 0 0 Z " fill="#C6C6C7" transform="translate(171,242)"/>
<path d="M0 0 C3.515 2.67 5.612 5.175 6.543 9.551 C6.97 17.707 4.421 24.162 -0.984 30.227 C-9.786 38.56 -19.113 42.482 -31.148 42.336 C-34 42 -34 42 -37.062 40 C-41.622 32.94 -43.058 26.418 -42 18 C-39.77 9.77 -34.425 3.915 -28.062 -1.5 C-20.348 -5.445 -7.259 -4.167 0 0 Z M-28 3 C-28.866 3.639 -29.732 4.279 -30.625 4.938 C-35.774 9.409 -38.69 13.712 -39.336 20.559 C-39.349 21.839 -39.362 23.119 -39.375 24.438 C-39.403 25.715 -39.432 26.992 -39.461 28.309 C-38.929 32.568 -37.682 34.694 -35 38 C-30.139 40.43 -23.95 39.546 -18.887 38.129 C-9.788 34.603 -2.85 29.536 2 21 C3.054 17.838 3.234 15.385 3.312 12.062 C3.35 11.022 3.387 9.982 3.426 8.91 C2.892 5.26 1.9 4.215 -1 2 C-9.654 -2.134 -20.405 -3.51 -28 3 Z " fill="#BFBFBF" transform="translate(164,71)"/>
<path d="M0 0 C1.117 1.664 1.117 1.664 2 4 C1.32 6.461 1.32 6.461 0.125 9.375 C-5.266 25.732 -2.717 43.026 4.574 58.297 C11.018 70.133 20.028 80.676 33.188 84.812 C46.02 88.324 58.549 87.95 71.24 84.335 C75.535 83.148 78.664 82.926 83 84 C83 84.33 83 84.66 83 85 C63.788 90.778 44.246 94.876 25.25 85.5 C13.646 78.465 7.029 68.73 1 57 C0.58 56.282 0.16 55.564 -0.273 54.824 C-6.615 43.691 -8.245 27.269 -5.512 14.769 C-4.11 9.692 -2.358 4.717 0 0 Z " fill="#C9C9C9" transform="translate(70,79)"/>
<path d="M0 0 C1.98 0 3.96 0 6 0 C6 15.51 6 31.02 6 47 C8.31 47 10.62 47 13 47 C13 48.98 13 50.96 13 53 C8.71 53 4.42 53 0 53 C0 35.51 0 18.02 0 0 Z " fill="#DEDEDF" transform="translate(184,182)"/>
<path d="M0 0 C8 0 8 0 9.984 1.094 C11.497 3.932 11.322 6.308 11.25 9.5 C11.235 10.645 11.219 11.789 11.203 12.969 C11 16 11 16 10 19 C10.33 19.33 10.66 19.66 11 20 C11.073 22.697 11.092 25.367 11.062 28.062 C11.058 28.821 11.053 29.58 11.049 30.361 C11.037 32.241 11.019 34.12 11 36 C9.68 36 8.36 36 7 36 C7 31.05 7 26.1 7 21 C6.01 21 5.02 21 4 21 C4 25.95 4 30.9 4 36 C2.68 36 1.36 36 0 36 C0 24.12 0 12.24 0 0 Z " fill="#DADADB" transform="translate(157,242)"/>
<path d="M0 0 C0.99 0 1.98 0 3 0 C4.135 2.271 4.129 3.543 4.133 6.062 C4.133 6.461 4.133 6.461 4.137 8.477 C4.133 9.309 4.129 10.142 4.125 11 C4.129 11.833 4.133 12.665 4.137 13.523 C4.135 14.32 4.134 15.117 4.133 15.938 C4.132 16.668 4.131 17.399 4.129 18.152 C4 20 4 20 3 22 C3.66 22.66 4.32 23.32 5 24 C5 24.99 5 25.98 5 27 C3.35 27 1.7 27 0 27 C0 33.93 0 40.86 0 48 C-2.31 48 -4.62 48 -7 48 C-7 38.43 -7 28.86 -7 19 C-6.34 19 -5.68 19 -5 19 C-4.34 17.02 -3.68 15.04 -3 13 C-2.34 13.33 -1.68 13.66 -1 14 C-0.67 9.38 -0.34 4.76 0 0 Z " fill="#C2C2C3" transform="translate(110,188)"/>
<path d="M0 0 C2.64 0 5.28 0 8 0 C10.396 3.594 10.258 6.149 10.195 10.293 C10.192 10.999 10.19 11.705 10.187 12.432 C10.176 14.684 10.15 16.936 10.125 19.188 C10.115 20.715 10.106 22.243 10.098 23.771 C10.076 27.514 10.041 31.257 10 35 C9.01 35 8.02 35 7 35 C7 30.71 7 26.42 7 22 C6.01 22 5.02 22 4 22 C4 26.62 4 31.24 4 36 C2.68 36 1.36 36 0 36 C0 24.12 0 12.24 0 0 Z " fill="#D3D3D4" transform="translate(102,242)"/>
<path d="M0 0 C2 3 2 3 1.86 4.894 C1.682 5.598 1.504 6.302 1.32 7.027 C1.133 7.814 0.945 8.6 0.752 9.41 C0.545 10.244 0.338 11.078 0.125 11.938 C-2.31 22.711 -4.165 31.857 1.594 41.887 C6.973 49.971 15.675 54.824 25 57 C37.106 58.157 48.29 55.851 60 53 C60.33 53.99 60.66 54.98 61 56 C58.793 56.65 56.584 57.295 54.375 57.938 C53.76 58.117 53.76 58.117 50.648 59.027 C35.92 62.954 23.583 62.079 10.402 54.508 C2.096 49.294 -2.545 42.132 -6 33 C-6.611 29.219 -6.447 25.793 -6 22 C-5.892 21.009 -5.783 20.017 -5.672 18.996 C-4.735 12.207 -2.838 6.226 0 0 Z " fill="#CFCFCF" transform="translate(89,87)"/>
<path d="M0 0 C0 0.33 0 0.66 0 1 C-0.958 1.098 -1.916 1.196 -2.902 1.297 C-27.248 3.955 -41.846 10.803 -60.148 27.492 C-62 29 -62 29 -64.508 30.379 C-71.653 35.027 -75.46 45.479 -79 53 C-79.33 53 -79.66 53 -80 53 C-80.454 47.733 -78.998 44.139 -76.5 39.625 C-76.139 38.964 -75.778 38.303 -75.406 37.621 C-71.077 29.985 -65.332 24.719 -58.258 19.629 C-55.503 17.642 -52.822 15.565 -50.125 13.5 C-33.661 1.26 -20.163 -0.558 0 0 Z " fill="#D4D4D4" transform="translate(170,37)"/>
<path d="M0 0 C0 0.66 0 1.32 0 2 C-0.508 2.206 -0.508 2.206 -3.078 3.25 C-16.161 8.687 -27.162 15.849 -38 25 C-38.834 25.699 -39.668 26.397 -40.527 27.117 C-51.14 36.307 -59.008 47.57 -67 59 C-67.727 57.359 -67.727 57.359 -68 55 C-65.537 50.345 -62.184 46.189 -59 42 C-58.495 41.332 -57.991 40.665 -57.471 39.977 C-50.775 31.204 -44.071 23.426 -35 17 C-34.436 16.596 -33.871 16.192 -33.29 15.775 C-10.105 -0.699 -10.105 -0.699 0 0 Z " fill="#D4D4D4" transform="translate(139,22)"/>
<path d="M0 0 C0.557 0.134 0.557 0.134 3.375 0.812 C4.578 3.218 4.476 4.762 4.438 7.438 C4.428 8.255 4.419 9.072 4.41 9.914 C4.399 10.541 4.387 11.167 4.375 11.812 C3.055 11.812 1.735 11.812 0.375 11.812 C0.375 9.173 0.375 6.532 0.375 3.812 C0.045 3.977 0.045 3.977 -1.625 4.812 C-1.625 13.393 -1.625 21.973 -1.625 30.812 C-1.295 30.812 -0.965 30.812 -0.625 30.812 C-0.295 28.173 0.035 25.533 0.375 22.812 C1.695 22.812 3.015 22.812 4.375 22.812 C4.456 24.416 4.514 26.02 4.562 27.625 C4.597 28.518 4.632 29.412 4.668 30.332 C4.375 32.812 4.375 32.812 3.02 34.609 C1.375 35.812 1.375 35.812 -1.125 36.25 C-3.625 35.812 -3.625 35.812 -5.256 34.199 C-7.059 31.056 -7.013 28.797 -7.023 25.184 C-7.027 23.902 -7.031 22.62 -7.035 21.299 C-7.029 20.634 -7.023 19.97 -7.016 19.285 C-7 17.253 -7.016 15.222 -7.035 13.189 C-7.031 11.909 -7.027 10.628 -7.023 9.309 C-7.02 8.135 -7.017 6.961 -7.013 5.752 C-6.625 2.812 -6.625 2.812 -5.327 0.895 C-3.625 -0.188 -3.625 -0.188 0 0 Z " fill="#E1E1E2" transform="translate(133.625,242.1875)"/>
<path d="M0 0 C0.33 0 0.66 0 1 0 C1.043 1.666 1.041 3.334 1 5 C0.67 5.33 0.34 5.66 0 6 C-0.071 7.352 -0.084 8.708 -0.062 10.062 C-0.042 11.362 -0.021 12.661 0 14 C0.66 14.33 1.32 14.66 2 15 C2.66 13.68 3.32 12.36 4 11 C4.33 17.27 4.66 23.54 5 30 C3.02 30 1.04 30 -1 30 C-1 27.69 -1 25.38 -1 23 C-2.32 23 -3.64 23 -5 23 C-5 25.31 -5 27.62 -5 30 C-6.65 30 -8.3 30 -10 30 C-10.112 20.926 -9.942 12.037 -9 3 C-8.67 3 -8.34 3 -8 3 C-7.805 5.051 -7.609 7.102 -7.414 9.152 C-7.277 9.762 -7.141 10.372 -7 11 C-6.34 11.33 -5.68 11.66 -5 12 C-4.34 9.36 -3.68 6.72 -3 4 C-2.01 4 -1.02 4 0 4 C0 2.68 0 1.36 0 0 Z " fill="#B2B2B4" transform="translate(132,205)"/>
<path d="M0 0 C2.97 0 5.94 0 9 0 C9 1.65 9 3.3 9 5 C7.68 5 6.36 5 5 5 C5 7.31 5 9.62 5 12 C6.32 12 7.64 12 9 12 C9 13.65 9 15.3 9 17 C7.68 17 6.36 17 5 17 C5 21.62 5 26.24 5 31 C6.32 31 7.64 31 9 31 C9 32.65 9 34.3 9 36 C6.03 36 3.06 36 0 36 C0 24.12 0 12.24 0 0 Z " fill="#CBCBCC" transform="translate(115,242)"/>
<path d="M0 0 C2.438 0.375 2.438 0.375 4.438 2.375 C4.707 5.063 4.525 7.666 4.438 10.375 C3.447 10.375 2.458 10.375 1.438 10.375 C1.438 8.395 1.438 6.415 1.438 4.375 C1.107 4.54 1.107 4.54 -0.562 5.375 C-0.129 11.553 1.103 15.164 4.438 20.375 C6.036 23.572 5.948 26.905 5.438 30.375 C3.438 33.375 3.438 33.375 1.438 35.375 C-0.938 35.062 -0.938 35.062 -3.562 34.375 C-5.992 30.731 -5.724 28.663 -5.562 24.375 C-4.243 24.375 -2.923 24.375 -1.562 24.375 C-1.562 26.355 -1.562 28.335 -1.562 30.375 C-0.903 30.045 -0.243 29.715 0.438 29.375 C0.12 24.607 -1.021 21.183 -3.125 16.875 C-5.198 12.496 -6.366 9.295 -5.562 4.375 C-4.055 1.28 -3.433 0.502 0 0 Z " fill="#D5D5D5" transform="translate(191.5625,242.625)"/>
<path d="M0 0 C2 2 2 2 2.375 5.812 C2.284 9.984 1.031 12.059 -2 15 C-4.799 16.399 -6.905 16.253 -10 16 C-11.875 15 -11.875 15 -13 13 C-13.399 9.906 -13.635 7.96 -13 5 C-8.77 -0.232 -6.508 -1.492 0 0 Z " fill="#CDCDCD" transform="translate(151,79)"/>
<path d="M0 0 C1.32 0.33 2.64 0.66 4 1 C3.613 1.548 3.227 2.096 2.828 2.66 C-2.334 10.519 -6.445 20.075 -5.727 29.645 C-4.022 37.515 -0.344 43.313 5.645 48.625 C12.163 52.43 19.657 52.382 27 52.625 C27.966 52.664 28.931 52.702 29.926 52.742 C32.284 52.836 34.642 52.921 37 53 C37 53.33 37 53.66 37 54 C33.044 54.317 29.086 54.57 25.125 54.812 C24.016 54.902 22.908 54.992 21.766 55.084 C13.216 55.562 6.71 54.134 0.155 48.381 C-5.248 42.838 -9.197 34.884 -9.562 27.125 C-9.003 17.346 -5.17 8.2 0 0 Z " fill="#C7C7C7" transform="translate(104,80)"/>
<path d="M0 0 C4.148 1.455 7.045 2.981 9 7 C9.525 11.65 9.53 13.94 7.438 18.125 C2.085 24.438 -2.981 28.814 -11.438 29.562 C-15.048 29.448 -16.962 28.782 -19.562 26.25 C-22.583 22.067 -22.905 18.01 -22.664 12.949 C-20.079 1.47 -10.258 -0.882 0 0 Z M-17.875 8.062 C-20.251 12.155 -20.677 16.37 -20 21 C-18.206 23.81 -16.981 25.509 -14 27 C-6.966 27.07 -2.494 25.237 2.699 20.426 C5.616 17.401 6.89 15.58 7.688 11.375 C6.824 7.137 5.356 5.653 2 3 C-5.874 0.375 -12.265 1.891 -17.875 8.062 Z " fill="#DEDEDE" transform="translate(153,74)"/>
<path d="M0 0 C0.66 0 1.32 0 2 0 C2 2.64 2 5.28 2 8 C3.32 8 4.64 8 6 8 C6 5.69 6 3.38 6 1 C6.99 1.66 7.98 2.32 9 3 C9.341 5.43 9.341 5.43 9.293 8.445 C9.283 9.522 9.274 10.598 9.264 11.707 C9.239 12.835 9.213 13.963 9.188 15.125 C9.174 16.261 9.16 17.396 9.146 18.566 C9.111 21.378 9.062 24.189 9 27 C8.01 26.67 7.02 26.34 6 26 C6 23.69 6 21.38 6 19 C4.68 19 3.36 19 2 19 C2 21.64 2 24.28 2 27 C1.01 27 0.02 27 -1 27 C-1.029 22.688 -1.047 18.375 -1.062 14.062 C-1.071 12.831 -1.079 11.599 -1.088 10.33 C-1.091 9.16 -1.094 7.99 -1.098 6.785 C-1.103 5.701 -1.108 4.617 -1.114 3.5 C-1 1 -1 1 0 0 Z " fill="#141314" transform="translate(132,246)"/>
<path d="M0 0 C1.98 0 3.96 0 6 0 C6 17.16 6 34.32 6 52 C5.67 52 5.34 52 5 52 C4.67 43.75 4.34 35.5 4 27 C3.01 27 2.02 27 1 27 C0.046 23.792 -0.116 20.918 -0.098 17.578 C-0.094 16.553 -0.091 15.529 -0.088 14.473 C-0.08 13.409 -0.071 12.346 -0.062 11.25 C-0.058 10.171 -0.053 9.092 -0.049 7.98 C-0.037 5.32 -0.021 2.66 0 0 Z " fill="#D1D1D2" transform="translate(154,183)"/>
<path d="M0 0 C0.275 0.161 0.275 0.161 1.668 0.977 C1.234 0.989 1.234 0.989 -0.965 1.055 C-9.008 1.451 -13.345 1.989 -19.082 7.727 C-19.495 8.139 -19.907 8.552 -20.332 8.977 C-20.992 8.977 -21.652 8.977 -22.332 8.977 C-22.662 9.967 -22.992 10.957 -23.332 11.977 C-23.992 11.977 -24.652 11.977 -25.332 11.977 C-26.957 16.989 -27.628 21.278 -27.645 26.602 C-27.661 27.873 -27.678 29.144 -27.695 30.453 C-27.309 34.202 -26.661 36.046 -24.332 38.977 C-22.508 40.121 -22.508 40.121 -20.645 40.789 C-19.551 41.181 -18.458 41.573 -17.332 41.977 C-17.332 42.637 -17.332 43.297 -17.332 43.977 C-21.208 44.427 -22.838 44.344 -26.02 41.977 C-31.197 35.26 -32.387 28.366 -31.332 19.977 C-29.177 12.023 -23.869 5.115 -17.082 0.477 C-12.039 -2.108 -5.163 -2.266 0 0 Z " fill="#D7D7D7" transform="translate(153.33203125,69.0234375)"/>
<path d="M0 0 C0.66 0.33 1.32 0.66 2 1 C2.934 23.41 -2.02 42.505 -16.922 59.766 C-21.111 64.27 -21.111 64.27 -23 66 C-23.66 66 -24.32 66 -25 66 C-23.489 62.543 -21.437 60.121 -18.938 57.312 C-6.912 42.82 -1.412 26.703 -0.438 8.062 C-0.394 7.283 -0.351 6.504 -0.307 5.701 C-0.202 3.801 -0.1 1.9 0 0 Z " fill="#D1D1D1" transform="translate(213,63)"/>
<path d="M0 0 C13.09 -0.705 24.238 -0.078 34.875 8.625 C41.812 15.409 47.743 24.21 49 34 C48.936 38.706 48.559 43.329 48 48 C47.67 48 47.34 48 47 48 C46.914 46.817 46.827 45.633 46.738 44.414 C45.72 32.327 43.754 23.404 35.137 14.375 C34 13 34 13 34 11 C33.41 10.711 32.819 10.422 32.211 10.125 C30.309 9.157 28.46 8.088 26.625 7 C20.83 4.048 14.384 3.681 8 3 C8 2.67 8 2.34 8 2 C5.36 1.67 2.72 1.34 0 1 C0 0.67 0 0.34 0 0 Z " fill="#C2C2C2" transform="translate(154,36)"/>
<path d="M0 0 C1.778 3.047 2.217 5.081 2.012 8.59 C1.988 9.023 1.988 9.023 1.869 11.217 C1.809 12.115 1.749 13.012 1.688 13.938 C1.639 14.831 1.591 15.725 1.541 16.646 C1.295 20.841 1.001 24.904 0 29 C-0.33 29 -0.66 29 -1 29 C-1.33 21.08 -1.66 13.16 -2 5 C-2.99 5 -3.98 5 -5 5 C-5.33 12.92 -5.66 20.84 -6 29 C-6.99 29 -7.98 29 -9 29 C-9.087 24.729 -9.14 20.459 -9.188 16.188 C-9.213 14.973 -9.238 13.758 -9.264 12.506 C-9.273 11.342 -9.283 10.179 -9.293 8.98 C-9.309 7.907 -9.324 6.833 -9.341 5.727 C-9 3 -9 3 -7.681 1.138 C-5.166 -0.565 -2.952 -0.197 0 0 Z " fill="#E2E2E4" transform="translate(150,243)"/>
<path d="M0 0 C0.33 0 0.66 0 1 0 C1.33 4.62 1.66 9.24 2 14 C2.99 13.01 3.98 12.02 5 11 C5 20.9 5 30.8 5 41 C3.35 41 1.7 41 0 41 C0 27.47 0 13.94 0 0 Z " fill="#E4E4E6" transform="translate(142,194)"/>
<path d="M0 0 C0.99 0.33 1.98 0.66 3 1 C-2.26 5.732 -7.644 10.163 -13.375 14.312 C-14.141 14.867 -14.907 15.422 -15.696 15.993 C-23.737 21.7 -32.244 26.486 -41 31 C-41.669 31.367 -42.338 31.734 -43.028 32.113 C-45.727 33.327 -48.079 33.133 -51 33 C-51 32.34 -51 31.68 -51 31 C-50.201 30.72 -49.402 30.441 -48.578 30.152 C-31.216 23.815 -15.676 12.986 -1.664 1.012 C-1.115 0.678 -0.566 0.344 0 0 Z " fill="#D2D2D2" transform="translate(202,130)"/>
<path d="M0 0 C0.33 0 0.66 0 1 0 C1.33 2.64 1.66 5.28 2 8 C2.66 7.34 3.32 6.68 4 6 C6.334 14.671 6.199 23.105 6 32 C4.35 32 2.7 32 1 32 C1 29.69 1 27.38 1 25 C-0.98 24.67 -2.96 24.34 -5 24 C-4.34 23.34 -3.68 22.68 -3 22 C-2.67 21.34 -2.34 20.68 -2 20 C-1.01 20 -0.02 20 1 20 C0.836 19.336 0.673 18.672 0.504 17.988 C-0.106 14.371 -0.108 10.841 -0.062 7.188 C-0.058 6.495 -0.053 5.802 -0.049 5.088 C-0.037 3.392 -0.019 1.696 0 0 Z " fill="#E4E4E5" transform="translate(173,203)"/>
<path d="M0 0 C1.117 1.664 1.117 1.664 2 4 C1.32 6.461 1.32 6.461 0.125 9.375 C-4.351 22.819 -3.245 38.607 1 52 C0.67 52.165 0.67 52.165 -1 53 C-7.967 35.9 -8.128 19.015 -1 2 C-0.67 1.34 -0.34 0.68 0 0 Z " fill="#C6C6C6" transform="translate(70,79)"/>
<path d="M0 0 C0.848 0.003 1.695 0.006 2.568 0.01 C3.449 0.018 4.331 0.027 5.238 0.035 C5.685 0.037 5.685 0.037 7.943 0.049 C10.146 0.061 12.348 0.077 14.551 0.098 C14.716 0.428 14.716 0.428 15.551 2.098 C14.344 2.112 13.138 2.126 11.895 2.141 C-3.597 2.53 -3.597 2.53 -10.449 8.098 C-11.109 8.098 -11.769 8.098 -12.449 8.098 C-12.701 8.687 -12.952 9.276 -13.211 9.883 C-14.604 12.374 -16.07 13.721 -18.262 15.535 C-21.49 18.263 -24.508 21.065 -27.449 24.098 C-26.467 16.629 -21.194 11.383 -15.578 6.707 C-6.436 -0.043 -6.436 -0.043 0 0 Z " fill="#E4E4E4" transform="translate(143.44921875,58.90234375)"/>
<path d="M0 0 C1.113 1.75 1.113 1.75 2 4 C1.355 6 1.355 6 0.188 8 C-2.749 13.132 -3.873 18.061 -3 24 C-1.037 30.025 1.73 35.064 7.398 38.172 C13.055 39.973 19.107 39.916 25 40 C25 40.33 25 40.66 25 41 C24.397 41.061 23.793 41.121 23.172 41.184 C22.373 41.267 21.573 41.351 20.75 41.438 C19.961 41.519 19.172 41.6 18.359 41.684 C16 42 16 42 13.98 42.637 C9.983 43.37 6.409 40.906 3 39 C-2.908 34.536 -5.327 28.263 -6.457 21.105 C-6.922 12.855 -4.166 6.994 0 0 Z " fill="#CDCDCD" transform="translate(115,80)"/>
<path d="M0 0 C2.625 1.688 2.625 1.688 4.625 4.688 C5 8.125 5 8.125 4.625 11.688 C2.625 14.125 2.625 14.125 0.625 15.688 C-0.695 15.028 -2.015 14.368 -3.375 13.688 C-3.34 12.989 -3.305 12.29 -3.27 11.57 C-3.242 10.66 -3.215 9.75 -3.188 8.812 C-3.153 7.908 -3.118 7.003 -3.082 6.07 C-3.13 5.677 -3.13 5.677 -3.375 3.688 C-6.375 1.688 -6.375 1.688 -9.375 1.938 C-12.375 2.688 -12.375 2.688 -15.375 4.688 C-17.562 4.312 -17.562 4.312 -19.375 3.688 C-13.249 -1.445 -7.563 -2.941 0 0 Z " fill="#0F0F0F" transform="translate(155.375,77.3125)"/>
<path d="M0 0 C1.32 0.33 2.64 0.66 4 1 C4 7.93 4 14.86 4 22 C2.02 22 0.04 22 -2 22 C-2.058 18.896 -2.094 15.792 -2.125 12.688 C-2.142 11.806 -2.159 10.925 -2.176 10.018 C-2.182 9.17 -2.189 8.322 -2.195 7.449 C-2.206 6.669 -2.216 5.889 -2.227 5.085 C-2 3 -2 3 0 0 Z " fill="#E5E5E6" transform="translate(105,213)"/>
<path d="M0 0 C0.969 0.722 1.939 1.444 2.938 2.188 C1.947 2.847 0.958 3.508 -0.062 4.188 C-0.645 3.861 -1.228 3.535 -1.828 3.199 C-13.828 -3.197 -26.61 -5.885 -40.062 -2.812 C-40.062 -3.472 -40.062 -4.133 -40.062 -4.812 C-40.722 -5.142 -41.382 -5.472 -42.062 -5.812 C-28.586 -10.827 -12.053 -7.48 0 0 Z " fill="#C9C9C9" transform="translate(179.0625,54.8125)"/>
<path d="M0 0 C0.99 0.33 1.98 0.66 3 1 C3.024 1.338 3.024 1.338 3.148 3.047 C3.223 3.939 3.298 4.831 3.375 5.75 C3.445 6.632 3.514 7.513 3.586 8.422 C4.061 11.381 4.846 13.846 7 16 C7.073 18.697 7.092 21.367 7.062 24.062 C7.058 24.821 7.053 25.58 7.049 26.361 C7.037 28.241 7.019 30.12 7 32 C5.68 32 4.36 32 3 32 C3 27.05 3 22.1 3 17 C2.01 16.67 1.02 16.34 0 16 C0 10.667 0 5.333 0 0 Z " fill="#D7D7D8" transform="translate(161,246)"/>
<path d="M0 0 C0.33 0 0.66 0 1 0 C1.058 4.125 1.094 8.25 1.125 12.375 C1.133 12.963 1.133 12.963 1.176 15.938 C1.182 17.059 1.189 18.18 1.195 19.336 C1.206 20.373 1.216 21.41 1.227 22.478 C1 25 1 25 -1 27 C-1.825 26.67 -1.825 26.67 -6 25 C-6 20.38 -6 15.76 -6 11 C-4.68 11 -3.36 11 -2 11 C-0.986 7.379 -0.501 3.722 0 0 Z " fill="#111111" transform="translate(126,248)"/>
<path d="M0 0 C0.165 0.495 0.165 0.495 1 3 C-2.139 4.784 -5.287 6.549 -8.438 8.312 C-8.877 8.562 -8.877 8.562 -11.1 9.826 C-20.648 15.147 -28.094 17.485 -39.062 17.188 C-40.023 17.174 -40.984 17.16 -41.975 17.146 C-44.317 17.112 -46.658 17.062 -49 17 C-49 16.34 -49 15.68 -49 15 C-47.751 15.055 -46.502 15.111 -45.215 15.168 C-27.786 15.415 -14.67 8.887 0 0 Z " fill="#D6D6D6" transform="translate(169,119)"/>
<path d="M0 0 C0.33 0 0.66 0 1 0 C1.66 5.28 2.32 10.56 3 16 C2.01 16 1.02 16 0 16 C-0.99 16.33 -1.98 16.66 -3 17 C-2.34 17.66 -1.68 18.32 -1 19 C-1.375 22.625 -1.375 22.625 -2 26 C-3.98 26 -5.96 26 -8 26 C-8.12 20.222 -7.832 14.72 -7 9 C-6.732 9.639 -6.464 10.279 -6.188 10.938 C-5 13 -5 13 -2 14 C-1.939 13.325 -1.879 12.649 -1.816 11.953 C-1.733 11.061 -1.649 10.169 -1.562 9.25 C-1.481 8.368 -1.4 7.487 -1.316 6.578 C-1.038 4.306 -0.612 2.201 0 0 Z " fill="#A8A8A9" transform="translate(172,209)"/>
<path d="M0 0 C0.66 0 1.32 0 2 0 C-1.172 7.001 -7.576 10.516 -14 14.25 C-14.581 14.591 -15.162 14.933 -15.761 15.284 C-21.557 18.555 -27.088 20.288 -33.75 20.25 C-34.673 20.255 -35.596 20.26 -36.547 20.266 C-39 20 -39 20 -42 18 C-40.984 17.914 -39.968 17.827 -38.922 17.738 C-23.518 16.25 -11.08 11.08 0 0 Z " fill="#D5D5D5" transform="translate(170,103)"/>
<path d="M0 0 C0 9.57 0 19.14 0 29 C-0.66 29 -1.32 29 -2 29 C-2 29.99 -2 30.98 -2 32 C-3.65 32 -5.3 32 -7 32 C-7 27.38 -7 22.76 -7 18 C-6.67 18 -6.34 18 -6 18 C-6 22.29 -6 26.58 -6 31 C-5.01 31 -4.02 31 -3 31 C-3.084 30.007 -3.168 29.015 -3.254 27.992 C-3.951 19.01 -4.545 9.933 -3 1 C-1 0 -1 0 0 0 Z " fill="#212121" transform="translate(115,246)"/>
<path d="M0 0 C1.32 0.33 2.64 0.66 4 1 C4 8.92 4 16.84 4 25 C2.68 25.33 1.36 25.66 0 26 C0 17.42 0 8.84 0 0 Z " fill="#1C1C1D" transform="translate(145,247)"/>
<path d="M0 0 C1.32 0.33 2.64 0.66 4 1 C4 8.92 4 16.84 4 25 C2.68 25.33 1.36 25.66 0 26 C0 17.42 0 8.84 0 0 Z " fill="#1E1E1F" transform="translate(175,247)"/>
<path d="M0 0 C0.99 0 1.98 0 3 0 C3.074 4.236 3.129 8.471 3.165 12.708 C3.18 14.149 3.2 15.59 3.226 17.032 C3.263 19.102 3.28 21.172 3.293 23.242 C3.309 24.489 3.324 25.735 3.341 27.019 C3.228 28.003 3.116 28.986 3 30 C2.505 30.33 2.505 30.33 0 32 C-0.061 30.94 -0.121 29.881 -0.184 28.789 C-0.268 27.401 -0.353 26.013 -0.438 24.625 C-0.477 23.926 -0.516 23.228 -0.557 22.508 C-0.887 17.227 -0.887 17.227 -2 15 C-1.67 14.34 -1.34 13.68 -1 13 C-0.77 10.796 -0.589 8.586 -0.438 6.375 C-0.354 5.186 -0.27 3.998 -0.184 2.773 C-0.123 1.858 -0.062 0.943 0 0 Z " fill="#0E0E0F" transform="translate(168,245)"/>
<path d="M0 0 C3.188 1.5 3.188 1.5 5 3 C4.67 3.495 4.67 3.495 3 6 C2.01 5.67 1.02 5.34 0 5 C-5.896 4.397 -11.277 3.893 -16.25 7.5 C-16.704 7.912 -16.704 7.912 -19 10 C-19.99 9.34 -20.98 8.68 -22 8 C-20.543 6.852 -19.085 5.707 -17.625 4.562 C-17.219 4.243 -17.219 4.243 -15.164 2.629 C-10.476 -0.9 -5.7 -0.493 0 0 Z " fill="#232323" transform="translate(153,70)"/>
<path d="M0 0 C0.722 0.268 1.444 0.536 2.188 0.812 C2.511 4.367 2.643 6.188 0.5 9.125 C-2.048 10.984 -3.671 11.647 -6.812 11.812 C-7.472 11.153 -8.132 10.493 -8.812 9.812 C-8.716 6.238 -7.786 4.779 -5.562 1.938 C-2.812 -0.188 -2.812 -0.188 0 0 Z " fill="#0E0E0E" transform="translate(148.8125,81.1875)"/>
<path d="M0 0 C0.488 0.005 0.488 0.005 2.957 0.027 C3.325 0.033 3.325 0.033 5.188 0.062 C5.188 0.392 5.188 0.723 5.188 1.062 C1.887 1.392 -1.412 1.723 -4.812 2.062 C-0.523 2.392 3.767 2.723 8.188 3.062 C8.188 3.392 8.188 3.723 8.188 4.062 C7.607 4.075 7.607 4.075 4.672 4.141 C-3.923 4.424 -11.315 4.959 -19.332 8.418 C-22.483 9.237 -23.968 8.518 -26.812 7.062 C-23.667 4.966 -21.044 4.085 -17.438 3 C-16.316 2.658 -15.195 2.317 -14.039 1.965 C-9.219 0.617 -5.014 -0.06 0 0 Z " fill="#A9A9A9" transform="translate(159.8125,26.9375)"/>
<path d="M0 0 C0.275 0.161 0.275 0.161 1.668 0.977 C1.234 0.989 1.234 0.989 -0.965 1.055 C-9.008 1.451 -13.345 1.989 -19.082 7.727 C-19.495 8.139 -19.907 8.552 -20.332 8.977 C-20.992 8.977 -21.652 8.977 -22.332 8.977 C-22.662 9.967 -22.992 10.957 -23.332 11.977 C-23.992 11.977 -24.652 11.977 -25.332 11.977 C-25.992 13.297 -26.652 14.617 -27.332 15.977 C-28.051 14.258 -28.051 14.258 -28.332 11.977 C-22.229 2.348 -11.554 -5.071 0 0 Z " fill="#D8D8D9" transform="translate(153.33203125,69.0234375)"/>
<path d="M0 0 C0.33 0 0.66 0 1 0 C1 9.9 1 19.8 1 30 C0.34 30.33 -0.32 30.66 -1 31 C-3.094 27.584 -3.179 25.103 -2.977 21.141 C-2.925 20.026 -2.873 18.911 -2.82 17.762 C-2.788 17.182 -2.788 17.182 -2.625 14.25 C-2.568 13.076 -2.512 11.901 -2.453 10.691 C-2.312 7.794 -2.16 4.897 -2 2 C-1.34 2 -0.68 2 0 2 C0 1.34 0 0.68 0 0 Z " fill="#E5E5E6" transform="translate(181,245)"/>
<path d="M0 0 C22.435 -0.71 22.435 -0.71 31 5 C30.67 5.66 30.34 6.32 30 7 C22.41 5.68 14.82 4.36 7 3 C7 2.34 7 1.68 7 1 C4.69 1 2.38 1 0 1 C0 0.67 0 0.34 0 0 Z " fill="#CBCBCB" transform="translate(164,17)"/>
<path d="M0 0 C0.701 0.722 1.403 1.444 2.125 2.188 C10.923 10.862 18.021 12.228 30 12.625 C30.966 12.664 31.931 12.702 32.926 12.742 C35.284 12.836 37.642 12.921 40 13 C40 13.33 40 13.66 40 14 C36.044 14.317 32.086 14.57 28.125 14.812 C27.016 14.902 25.908 14.992 24.766 15.084 C16.994 15.518 11.451 14.498 5 10 C0.475 5.816 0.475 5.816 -1 3 C-0.67 2.01 -0.34 1.02 0 0 Z " fill="#BABABA" transform="translate(101,120)"/>
<path d="M0 0 C0.99 0 1.98 0 3 0 C4.148 2.297 4.116 3.583 4.098 6.133 C4.096 6.536 4.096 6.536 4.088 8.574 C4.08 9.416 4.071 10.258 4.062 11.125 C4.058 11.974 4.053 12.824 4.049 13.699 C4.037 15.8 4.019 17.9 4 20 C2.68 20.33 1.36 20.66 0 21 C0 14.07 0 7.14 0 0 Z " fill="#080809" transform="translate(110,188)"/>
<path d="M0 0 C20.795 -0.665 20.795 -0.665 29 3 C29.33 3.99 29.66 4.98 30 6 C27.916 5.69 25.833 5.377 23.75 5.062 C22.59 4.888 21.43 4.714 20.234 4.535 C17 4 17 4 15.031 3.469 C11.962 2.76 8.89 2.641 5.75 2.438 C4.487 2.354 3.223 2.27 1.922 2.184 C0.958 2.123 -0.007 2.062 -1 2 C-0.67 1.34 -0.34 0.68 0 0 Z " fill="#DEDEDE" transform="translate(155,28)"/>
<path d="M0 0 C9.92 1.02 17.504 8.905 24 16 C23.34 16.66 22.68 17.32 22 18 C21.501 17.515 21.002 17.031 20.488 16.531 C14.897 11.311 9.121 7.456 2.527 3.664 C1.693 3.115 0.859 2.566 0 2 C0 1.34 0 0.68 0 0 Z " fill="#D3D3D3" transform="translate(194,22)"/>
<path d="M0 0 C2 3 2 3 1.876 4.942 C1.79 5.303 1.79 5.303 1.355 7.133 C1.173 7.94 0.991 8.747 0.803 9.578 C0.6 10.419 0.397 11.259 0.188 12.125 C-1.288 18.426 -2.397 24.551 -3 31 C-3.33 31 -3.66 31 -4 31 C-5.433 19.281 -4.963 10.837 0 0 Z " fill="#C8C8C8" transform="translate(89,87)"/>
<path d="M0 0 C1.32 0 2.64 0 4 0 C4.081 1.603 4.139 3.208 4.188 4.812 C4.222 5.706 4.257 6.599 4.293 7.52 C4 10 4 10 2.645 11.793 C1 13 1 13 -1.5 13.5 C-4 13 -4 13 -5.812 10.5 C-6.204 9.675 -6.596 8.85 -7 8 C-5.02 8 -3.04 8 -1 8 C-0.67 5.36 -0.34 2.72 0 0 Z " fill="#D4D4D4" transform="translate(134,265)"/>
<path d="M0 0 C2.825 2.495 4.344 5.262 6.125 8.562 C9.221 14.002 12.771 18.423 17.082 22.941 C19 25 19 25 21 28 C17.144 28 16.534 27.024 13.812 24.375 C10.032 20.477 7.181 16.434 4.5 11.75 C4.331 11.455 4.331 11.455 3.476 9.962 C1.679 6.675 0.503 3.717 0 0 Z " fill="#CFCFCF" transform="translate(70,131)"/>
<path d="M0 0 C3.5 0.312 3.5 0.312 7 1 C8.203 3.405 8.101 4.95 8.062 7.625 C8.053 8.442 8.044 9.26 8.035 10.102 C8.024 10.728 8.012 11.355 8 12 C6.68 12 5.36 12 4 12 C4 9.36 4 6.72 4 4 C1.69 4.33 -0.62 4.66 -3 5 C-1.125 1.125 -1.125 1.125 0 0 Z " fill="#CBCBCC" transform="translate(130,242)"/>
<path d="M0 0 C2 2 2 2 2 6 C0.68 6.33 -0.64 6.66 -2 7 C-2.33 11.29 -2.66 15.58 -3 20 C-3.33 20 -3.66 20 -4 20 C-4.33 14.39 -4.66 8.78 -5 3 C-5.99 2.67 -6.98 2.34 -8 2 C-8 1.01 -8 0.02 -8 -1 C-4.594 -2.216 -3.043 -1.927 0 0 Z " fill="#D6D6D7" transform="translate(118,185)"/>
<path d="M0 0 C7.523 0.334 11.618 2.063 17.375 7.062 C19.861 11.556 19.317 15.974 19 21 C18.01 20.34 17.02 19.68 16 19 C15.594 16.723 15.594 16.723 15.5 14.062 C15.338 9.479 15.338 9.479 13.785 7.277 C10.893 5.208 7.688 4.685 4.277 3.844 C2 3 2 3 0 0 Z " fill="#CACACA" transform="translate(151,68)"/>
<path d="M0 0 C0.66 0 1.32 0 2 0 C7.013 6.731 12.802 15.963 11.75 24.625 C11.502 25.739 11.255 26.852 11 28 C10.67 28 10.34 28 10 28 C9.83 27.154 9.66 26.309 9.484 25.438 C7.463 15.974 4.509 8.87 -1 1 C-0.67 0.67 -0.34 0.34 0 0 Z " fill="#C4C4C4" transform="translate(217,39)"/>
<path d="M0 0 C1.98 0 3.96 0 6 0 C5.67 0.66 5.34 1.32 5 2 C4.34 2 3.68 2 3 2 C3 6.95 3 11.9 3 17 C2.67 17 2.34 17 2 17 C1.67 20.96 1.34 24.92 1 29 C0.67 29 0.34 29 0 29 C0 19.43 0 9.86 0 0 Z " fill="#E8E8EA" transform="translate(103,243)"/>
<path d="M0 0 C2.5 0.25 2.5 0.25 4.5 2.25 C4.77 4.938 4.587 7.541 4.5 10.25 C3.51 10.25 2.52 10.25 1.5 10.25 C1.5 8.27 1.5 6.29 1.5 4.25 C1.17 4.415 1.17 4.415 -0.5 5.25 C-1.125 8.312 -1.125 8.312 -1.5 11.25 C-4.299 8.451 -4.224 6.119 -4.5 2.25 C-2.5 0.25 -2.5 0.25 0 0 Z " fill="#E5E5E5" transform="translate(191.5,242.75)"/>
<path d="M0 0 C0.33 3.63 0.66 7.26 1 11 C-0.98 11 -2.96 11 -5 11 C-5 8.69 -5 6.38 -5 4 C-5.99 3.67 -6.98 3.34 -8 3 C-7.34 3 -6.68 3 -6 3 C-5.67 2.34 -5.34 1.68 -5 1 C-3.318 0.474 -1.773 0 0 0 Z " fill="#D5D5D6" transform="translate(136,224)"/>
<path d="M0 0 C0.99 0 1.98 0 3 0 C3.054 1.77 3.093 3.541 3.125 5.312 C3.148 6.299 3.171 7.285 3.195 8.301 C3 11 3 11 1 14 C0.67 13.01 0.34 12.02 0 11 C-0.33 12.65 -0.66 14.3 -1 16 C-1.33 16 -1.66 16 -2 16 C-2.054 13.709 -2.093 11.417 -2.125 9.125 C-2.148 7.849 -2.171 6.573 -2.195 5.258 C-2 2 -2 2 0 0 Z " fill="#E3E3E5" transform="translate(187,198)"/>
<path d="M0 0 C1.65 0 3.3 0 5 0 C5.136 1.581 5.232 3.165 5.312 4.75 C5.371 5.632 5.429 6.513 5.488 7.422 C5 10 5 10 0 14 C0 9.38 0 4.76 0 0 Z " fill="#E4E4E6" transform="translate(185,183)"/>
<path d="M0 0 C-9.22 4.798 -17.689 5.401 -28 5 C-24.537 1.824 -21.537 1.407 -16.938 0.875 C-3.977 -0.675 -3.977 -0.675 0 0 Z " fill="#B7B7B7" transform="translate(143,155)"/>
<path d="M0 0 C3.708 0.555 5.22 1.932 7.625 4.75 C8.215 5.425 8.806 6.101 9.414 6.797 C12.86 11.584 13.234 15.467 13.125 21.312 C13.107 22.567 13.089 23.821 13.07 25.113 C13.047 26.066 13.024 27.019 13 28 C12.67 28 12.34 28 12 28 C11.914 27.166 11.827 26.332 11.738 25.473 C10.411 14.842 7.092 7.903 0 0 Z " fill="#D7D7D7" transform="translate(180,58)"/>
<path d="M0 0 C-0.99 0.66 -1.98 1.32 -3 2 C-3.583 1.674 -4.165 1.348 -4.766 1.012 C-11.33 -2.487 -17.736 -4.465 -25 -6 C-25 -6.33 -25 -6.66 -25 -7 C-16.035 -9.665 -7.16 -5.19 0 0 Z " fill="#D0D0D0" transform="translate(182,57)"/>
<path d="M0 0 C0.99 0.33 1.98 0.66 3 1 C3 5.95 3 10.9 3 16 C1.667 16 0.333 16 -1 16 C-1.027 13.521 -1.047 11.042 -1.062 8.562 C-1.067 8.209 -1.067 8.209 -1.088 6.42 C-1.097 4.613 -1.052 2.806 -1 1 C-0.67 0.67 -0.34 0.34 0 0 Z " fill="#E1E1E3" transform="translate(125,202)"/>
<path d="M0 0 C1.98 0 3.96 0 6 0 C6 0.33 6 0.66 6 1 C4.35 1 2.7 1 1 1 C1.33 5.29 1.66 9.58 2 14 C2.66 13.01 3.32 12.02 4 11 C4.66 11 5.32 11 6 11 C6 12.65 6 14.3 6 16 C5.355 16.204 4.711 16.407 4.047 16.617 C2 18 2 18 1.391 20.82 C1.344 21.911 1.298 23.001 1.25 24.125 C1.193 25.221 1.137 26.316 1.078 27.445 C1.052 28.288 1.027 29.131 1 30 C0.67 30 0.34 30 0 30 C0 20.1 0 10.2 0 0 Z " fill="#CBCBCD" transform="translate(184,182)"/>
<path d="M0 0 C-6.081 3.213 -11.138 3.369 -17.938 3.188 C-18.908 3.174 -19.878 3.16 -20.877 3.146 C-23.252 3.111 -25.626 3.062 -28 3 C-28 2.34 -28 1.68 -28 1 C-27.38 0.975 -26.759 0.95 -26.12 0.924 C-23.309 0.808 -20.498 0.685 -17.688 0.562 C-17.199 0.543 -17.199 0.543 -14.729 0.443 C-13.791 0.401 -12.853 0.36 -11.887 0.316 C-11.455 0.298 -11.455 0.298 -9.268 0.205 C-1.581 -0.491 -1.581 -0.491 0 0 Z " fill="#DEDEDE" transform="translate(148,133)"/>
<path d="M0 0 C0.66 0 1.32 0 2 0 C1.835 0.825 1.67 1.65 1.5 2.5 C0.068 12.521 0.068 12.521 2.117 15.773 C3.367 17.221 4.681 18.615 6 20 C6 20.66 6 21.32 6 22 C2.096 20.466 0.055 18.67 -2 15 C-2.605 9.537 -3.11 4.665 0 0 Z " fill="#D4D4D4" transform="translate(133,81)"/>
<path d="M0 0 C0.33 0 0.66 0 1 0 C1.037 1.149 1.075 2.297 1.113 3.48 C1.493 13.013 2.409 21.778 5 31 C4.34 31.33 3.68 31.66 3 32 C-1.538 21.148 -0.991 11.567 0 0 Z " fill="#A9A9A9" transform="translate(66,100)"/>
<path d="M0 0 C0.52 -0.003 0.52 -0.003 3.152 -0.016 C5.993 0.244 7.65 0.785 10.062 2.25 C10.062 2.58 10.062 2.91 10.062 3.25 C9.205 3.204 8.348 3.157 7.465 3.109 C0.243 2.881 -4.001 3.12 -9.938 7.25 C-10.928 7.25 -11.917 7.25 -12.938 7.25 C-8.947 2.021 -6.679 -0.033 0 0 Z " fill="#DADADA" transform="translate(146.9375,73.75)"/>
<path d="M0 0 C0.33 0 0.66 0 1 0 C1.883 4.518 2.106 8.775 2.062 13.375 C2.053 14.62 2.044 15.865 2.035 17.148 C2.024 18.089 2.012 19.03 2 20 C1.34 19.01 0.68 18.02 0 17 C-0.66 17.99 -1.32 18.98 -2 20 C-2.027 18.021 -2.046 16.042 -2.062 14.062 C-2.074 12.96 -2.086 11.858 -2.098 10.723 C-2 8 -2 8 -1 7 C-0.632 4.672 -0.298 2.338 0 0 Z " fill="#D9D9DB" transform="translate(133,203)"/>
<path d="M0 0 C0.33 0 0.66 0 1 0 C2.188 6.315 2.083 10.153 -1 16 C-1.731 17.478 -2.46 18.957 -3.188 20.438 C-3.786 21.613 -4.384 22.789 -5 24 C-5.99 23.34 -6.98 22.68 -8 22 C-7.59 21.25 -7.18 20.5 -6.758 19.727 C-3.32 13.197 -0.941 7.334 0 0 Z " fill="#CACACA" transform="translate(178,80)"/>
<path d="M0 0 C0.33 0 0.66 0 1 0 C1.357 3.835 1.298 5.553 -0.875 8.812 C-3.447 11.46 -4.265 11.937 -7.938 12.25 C-11 12 -11 12 -12.875 10.812 C-14.348 8.44 -14.222 6.741 -14 4 C-13.34 4 -12.68 4 -12 4 C-11.34 5.65 -10.68 7.3 -10 9 C-5.701 8.522 -3.706 7.383 -1 4 C-0.25 1.75 -0.25 1.75 0 0 Z " fill="#D4D4D4" transform="translate(152,83)"/>
<path d="M0 0 C0.33 0 0.66 0 1 0 C1 2.31 1 4.62 1 7 C2.32 7 3.64 7 5 7 C5 8.65 5 10.3 5 12 C3.68 12 2.36 12 1 12 C1 16.62 1 21.24 1 26 C0.67 26 0.34 26 0 26 C-0.061 25.024 -0.121 24.048 -0.184 23.043 C-0.267 21.771 -0.351 20.498 -0.438 19.188 C-0.519 17.923 -0.6 16.658 -0.684 15.355 C-1 12 -1 12 -2 9 C-1.34 9 -0.68 9 0 9 C0 6.03 0 3.06 0 0 Z " fill="#B6B5B7" transform="translate(119,247)"/>
<path d="M0 0 C0 4.29 0 8.58 0 13 C-0.66 13.33 -0.66 13.33 -4 15 C-4 10.38 -4 5.76 -4 1 C-2 0 -2 0 0 0 Z " fill="#DEDEE0" transform="translate(168,245)"/>
<path d="M0 0 C0.33 0 0.66 0 1 0 C1 5.28 1 10.56 1 16 C-0.65 16 -2.3 16 -4 16 C-4.196 11.781 -3.802 8.83 -2 5 C-1.67 5 -1.34 5 -1 5 C-0.67 3.35 -0.34 1.7 0 0 Z " fill="#D1D1D1" transform="translate(178,219)"/>
<path d="M0 0 C0 0.33 0 0.66 0 1 C-8.011 3.655 -14.558 5.747 -23 4 C-23 3.67 -23 3.34 -23 3 C-20.295 2.298 -17.587 1.613 -14.875 0.938 C-14.114 0.738 -13.354 0.539 -12.57 0.334 C-8.033 -0.781 -4.637 -1.178 0 0 Z " fill="#C8C8C8" transform="translate(153,163)"/>
<path d="M0 0 C0 0.66 0 1.32 0 2 C-2.268 3.007 -4.539 4.006 -6.812 5 C-7.134 5.143 -7.134 5.143 -8.76 5.867 C-11.678 7.137 -13.783 8 -17 8 C-16 5 -16 5 -13.926 3.613 C-5.273 -0.694 -5.273 -0.694 0 0 Z " fill="#DBDBDB" transform="translate(139,22)"/>
<path d="M0 0 C1.109 1.75 1.109 1.75 2 4 C1.391 6 1.391 6 0.25 8 C-0.116 8.66 -0.482 9.32 -0.859 10 C-1.236 10.66 -1.612 11.32 -2 12 C-3.559 14.809 -4.305 17.052 -4.625 20.25 C-4.749 21.487 -4.873 22.725 -5 24 C-5.33 24 -5.66 24 -6 24 C-6.915 14.442 -4.885 8.199 0 0 Z " fill="#C3C3C3" transform="translate(115,80)"/>
<path d="M0 0 C0.681 -0.014 1.361 -0.028 2.062 -0.043 C4 0.188 4 0.188 7 2.188 C6.01 3.177 5.02 4.168 4 5.188 C3.01 4.528 2.02 3.868 1 3.188 C-2.831 3.507 -4.767 4.032 -8 6.188 C-10.188 5.812 -10.188 5.812 -12 5.188 C-8.013 1.847 -5.248 0.05 0 0 Z " fill="#1C1C1C" transform="translate(148,75.8125)"/>
<path d="M0 0 C6.252 7.762 6.278 15.668 5.324 25.289 C5.217 26.184 5.11 27.078 5 28 C4.67 28 4.34 28 4 28 C3.879 26.759 3.758 25.517 3.633 24.238 C3.464 22.596 3.295 20.954 3.125 19.312 C3.046 18.496 2.968 17.679 2.887 16.838 C2.434 12.536 1.784 8.983 0 5 C-0.125 2.188 -0.125 2.188 0 0 Z " fill="#B7B7B7" transform="translate(197,56)"/>
<path d="M0 0 C0.33 0 0.66 0 1 0 C1.45 7.497 1.621 13.771 -3 20 C-5.25 22 -5.25 22 -7 23 C-5.889 19.39 -4.559 16.027 -2.938 12.625 C-0.989 8.359 -0.339 4.663 0 0 Z " fill="#DBDBDB" transform="translate(168,79)"/>
<path d="M0 0 C5.61 0 11.22 0 17 0 C16.67 0.99 16.34 1.98 16 3 C13.896 3.027 11.792 3.046 9.688 3.062 C8.516 3.074 7.344 3.086 6.137 3.098 C3 3 3 3 0 2 C0 1.34 0 0.68 0 0 Z " fill="#D7D7D7" transform="translate(154,18)"/>
<path d="M0 0 C-1.414 3.395 -3.024 5.059 -6 7.188 C-6.351 7.442 -6.351 7.442 -8.125 8.73 C-10 10 -10 10 -12 11 C-11.696 7.448 -11.024 6.029 -8.688 3.25 C-5.607 0.671 -3.908 0 0 0 Z " fill="#DCDCDC" transform="translate(112,60)"/>
<path d="M0 0 C0.99 0.33 1.98 0.66 3 1 C0.025 5.692 -3.314 9.847 -7 14 C-7.99 13.34 -8.98 12.68 -10 12 C-9.01 11.67 -8.02 11.34 -7 11 C-6.293 9.687 -5.638 8.347 -5 7 C-3.39 4.625 -1.701 2.311 0 0 Z " fill="#CFCFCF" transform="translate(213,117)"/>
<path d="M0 0 C0.33 0.66 0.66 1.32 1 2 C-0.414 2.508 -1.831 3.006 -3.25 3.5 C-3.644 3.639 -3.644 3.639 -5.641 4.344 C-8 5 -8 5 -12 5 C-12 4.34 -12 3.68 -12 3 C-12.99 2.67 -13.98 2.34 -15 2 C-12.877 1.471 -10.752 0.952 -8.625 0.438 C-7.442 0.147 -6.258 -0.143 -5.039 -0.441 C-2 -1 -2 -1 0 0 Z " fill="#BDBDBD" transform="translate(149,141)"/>
<path d="M0 0 C1 3 1 3 0.379 4.809 C0.039 5.464 -0.302 6.119 -0.652 6.793 C-1.017 7.505 -1.381 8.217 -1.756 8.951 C-2.146 9.689 -2.536 10.427 -2.938 11.188 C-3.131 11.562 -3.131 11.562 -4.107 13.459 C-5.063 15.311 -6.03 17.156 -7 19 C-7.66 18.67 -8.32 18.34 -9 18 C-7.456 13.86 -5.49 10.064 -3.375 6.188 C-3.05 5.59 -2.725 4.993 -2.391 4.377 C-1.596 2.917 -0.798 1.458 0 0 Z " fill="#D6D6D6" transform="translate(223,99)"/>
<path d="M0 0 C0.33 0 0.66 0 1 0 C1.098 0.69 1.196 1.379 1.297 2.09 C2.333 8.603 4.011 14.123 7 20 C6.34 20.66 5.68 21.32 5 22 C0.908 14.359 -1.883 8.786 0 0 Z " fill="#C7C7C7" transform="translate(76,117)"/>
<path d="M0 0 C-4.452 3.895 -9.639 5.874 -15.5 6.188 C-16.325 6.126 -17.15 6.064 -18 6 C-12.867 1.509 -6.778 -0.508 0 0 Z " fill="#D3D3D3" transform="translate(156,149)"/>
<path d="M0 0 C4.669 1.605 9.093 3.975 13 7 C13 7.66 13 8.32 13 9 C9.611 8.311 6.82 7.013 3.75 5.438 C2.858 4.982 1.966 4.527 1.047 4.059 C0.371 3.709 -0.304 3.36 -1 3 C-0.67 2.01 -0.34 1.02 0 0 Z " fill="#D1D1D1" transform="translate(185,32)"/>
<path d="M0 0 C0.99 0 1.98 0 3 0 C3 4.62 3 9.24 3 14 C2.01 14 1.02 14 0 14 C0 9.38 0 4.76 0 0 Z " fill="#121213" transform="translate(161,263)"/>
<path d="M0 0 C0.99 0.33 1.98 0.66 3 1 C3 4.96 3 8.92 3 13 C2.01 13.33 1.02 13.66 0 14 C0 9.38 0 4.76 0 0 Z " fill="#3A3A3B" transform="translate(106,246)"/>
<path d="M0 0 C-4.431 5.785 -4.431 5.785 -7.312 6.875 C-7.591 6.896 -7.591 6.896 -9 7 C-9.33 5.68 -9.66 4.36 -10 3 C-6.682 -0.063 -4.448 -0.303 0 0 Z " fill="#DCDCDC" transform="translate(107,52)"/>
<path d="M0 0 C0.33 0 0.66 0 1 0 C1.249 1.601 1.474 3.206 1.688 4.812 C1.815 5.706 1.943 6.599 2.074 7.52 C2 10 2 10 0.645 11.824 C-1 13 -1 13 -3 13 C-3 10.69 -3 8.38 -3 6 C-2.34 6 -1.68 6 -1 6 C-1.01 5.598 -1.01 5.598 -1.062 3.562 C-1 1 -1 1 0 0 Z " fill="#D1D1D3" transform="translate(151,197)"/>
<path d="M0 0 C2.64 0 5.28 0 8 0 C8.33 1.32 8.66 2.64 9 4 C6 5 6 5 3 4 C3 4.66 3 5.32 3 6 C2.34 6 1.68 6 1 6 C0.67 4.02 0.34 2.04 0 0 Z " fill="#DCDCDD" transform="translate(172,243)"/>
<path d="M0 0 C0.99 0.33 1.98 0.66 3 1 C3 1.66 3 2.32 3 3 C1.031 4.508 1.031 4.508 -1.5 6.125 C-2.335 6.664 -3.171 7.203 -4.031 7.758 C-4.681 8.168 -5.331 8.578 -6 9 C-6.99 8.34 -7.98 7.68 -9 7 C-7.573 5.8 -6.133 4.615 -4.688 3.438 C-3.887 2.776 -3.086 2.115 -2.262 1.434 C-1.515 0.961 -0.769 0.487 0 0 Z " fill="#1A1A1B" transform="translate(140,71)"/>
<path d="M0 0 C1.32 0 2.64 0 4 0 C4 2.64 4 5.28 4 8 C2.35 8 0.7 8 -1 8 C-1.125 2.25 -1.125 2.25 0 0 Z " fill="#DEDEDF" transform="translate(123,227)"/>
<path d="M0 0 C0.33 0 0.66 0 1 0 C0.67 5.61 0.34 11.22 0 17 C-0.99 17 -1.98 17 -3 17 C-3.554 5.478 -3.554 5.478 0 0 Z " fill="#A6A6A6" transform="translate(125,83)"/>
<path d="M0 0 C0.99 0.33 1.98 0.66 3 1 C3 4.63 3 8.26 3 12 C2.01 12 1.02 12 0 12 C0 8.04 0 4.08 0 0 Z " fill="#1A1A1C" transform="translate(161,246)"/>
<path d="M0 0 C0.66 0.33 1.32 0.66 2 1 C1.875 2.812 1.875 2.812 1 5 C-2.062 6.75 -2.062 6.75 -5 8 C-5.688 6.188 -5.688 6.188 -6 4 C-4.158 1.514 -2.995 0.998 0 0 Z " fill="#0F0F10" transform="translate(135,36)"/>
<path d="M0 0 C-0.33 0.66 -0.66 1.32 -1 2 C-4.067 3.022 -6.287 3.166 -9.5 3.188 C-9.98 3.195 -9.98 3.195 -12.406 3.23 C-15 3 -15 3 -18 1 C-16.125 0.83 -14.25 0.664 -12.375 0.5 C-11.331 0.407 -10.287 0.314 -9.211 0.219 C-6.129 0.009 -3.088 -0.037 0 0 Z " fill="#E0E0E0" transform="translate(146,120)"/>
<path d="M0 0 C1.32 0 2.64 0 4 0 C4.25 6.625 4.25 6.625 2 10 C-0.429 6.356 -0.162 4.288 0 0 Z " fill="#DDDDDD" transform="translate(186,267)"/>
<path d="M0 0 C0.66 0 1.32 0 2 0 C2 5.28 2 10.56 2 16 C1.67 16 1.34 16 1 16 C0.634 14.273 0.283 12.543 -0.062 10.812 C-0.161 10.331 -0.161 10.331 -0.66 7.895 C-1.004 4.964 -0.742 2.837 0 0 Z " fill="#0A0A0B" transform="translate(152,192)"/>
<path d="M0 0 C4.578 0.312 8.006 1.813 12 4 C10.328 5.117 10.328 5.117 8 6 C5.422 5.32 5.422 5.32 2.75 4.125 C1.858 3.736 0.966 3.346 0.047 2.945 C-0.629 2.633 -1.304 2.321 -2 2 C-1.34 1.34 -0.68 0.68 0 0 Z " fill="#CACACA" transform="translate(159,60)"/>
<path d="M0 0 C0.66 0.33 1.32 0.66 2 1 C0.75 4.653 0.329 5.781 -3 8 C-5.688 8.125 -5.688 8.125 -8 8 C-5.333 5.333 -2.667 2.667 0 0 Z " fill="#CDCDCD" transform="translate(111,44)"/>
<path d="M0 0 C0.66 0 1.32 0 2 0 C2 1.98 2 3.96 2 6 C2.99 6 3.98 6 5 6 C5 4.02 5 2.04 5 0 C5.33 0 5.66 0 6 0 C6 2.31 6 4.62 6 7 C4.35 7 2.7 7 1 7 C0.67 7.66 0.34 8.32 0 9 C-0.879 2.848 -0.879 2.848 -1 1 C-0.67 0.67 -0.34 0.34 0 0 Z " fill="#505050" transform="translate(191,247)"/>
<path d="M0 0 C0.33 0 0.66 0 1 0 C1.222 2.416 1.428 4.832 1.625 7.25 C1.689 7.932 1.754 8.614 1.82 9.316 C2.116 13.123 2.176 15.778 0 19 C-0.66 18.67 -1.32 18.34 -2 18 C-1.34 12.06 -0.68 6.12 0 0 Z " fill="#B9B9B9" transform="translate(191,76)"/>
<path d="M0 0 C0.66 0.33 1.32 0.66 2 1 C2 1.66 2 2.32 2 3 C-0.97 4.65 -3.94 6.3 -7 8 C-6.67 6.35 -6.34 4.7 -6 3 C-3.062 1.125 -3.062 1.125 0 0 Z " fill="#CCCCCC" transform="translate(139,59)"/>
<path d="M0 0 C4.183 0.224 6.492 0.661 10 3 C9.67 3.66 9.34 4.32 9 5 C7.02 4.67 7.02 4.67 -3 3 C-2.01 2.01 -1.02 1.02 0 0 Z " fill="#B8B8B8" transform="translate(185,19)"/>
<path d="M0 0 C2.667 2.205 3.903 3.304 4.391 6.797 C4.344 7.771 4.298 8.746 4.25 9.75 C4.214 10.735 4.178 11.72 4.141 12.734 C4.094 13.482 4.048 14.23 4 15 C3.01 14.34 2.02 13.68 1 13 C0.488 9.961 0.488 9.961 0.312 6.375 C0.247 5.186 0.181 3.998 0.113 2.773 C0.076 1.858 0.039 0.943 0 0 Z " fill="#A0A0A0" transform="translate(166,74)"/>
<path d="M0 0 C-0.35 3.242 -0.562 4.615 -3.062 6.812 C-3.702 7.204 -4.341 7.596 -5 8 C-5.99 7.01 -6.98 6.02 -8 5 C-2.25 0 -2.25 0 0 0 Z " fill="#D6D6D6" transform="translate(132,64)"/>
<path d="M0 0 C5.61 0 11.22 0 17 0 C17 0.33 17 0.66 17 1 C14.03 1.33 14.03 1.33 -1 3 C-0.67 2.01 -0.34 1.02 0 0 Z " fill="#E9E9E9" transform="translate(153,37)"/>
<path d="M0 0 C0.66 0 1.32 0 2 0 C4.208 5.195 3.934 8.583 3 14 C2.67 14 2.34 14 2 14 C-0.296 4.59 -0.296 4.59 0 0 Z " fill="#B7B7B7" transform="translate(225,53)"/>
<path d="M0 0 C1.65 0.99 3.3 1.98 5 3 C4.67 4.65 4.34 6.3 4 8 C2.68 7.67 1.36 7.34 0 7 C0 4.69 0 2.38 0 0 Z " fill="#DFDFE1" transform="translate(104,226)"/>
<path d="M0 0 C0.33 0.66 0.66 1.32 1 2 C-0.734 5.65 -2.193 7.556 -6 9 C-6.99 8.34 -7.98 7.68 -9 7 C-8.072 6.402 -7.144 5.804 -6.188 5.188 C-3.797 3.547 -1.915 2.128 0 0 Z " fill="#C5C5C5" transform="translate(161,98)"/>
<path d="M0 0 C0.66 0.33 1.32 0.66 2 1 C1.67 1.495 1.67 1.495 0 4 C0.66 4.66 1.32 5.32 2 6 C1.175 6.495 1.175 6.495 -3 9 C-3.75 6.75 -3.75 6.75 -4 4 C-2.062 1.688 -2.062 1.688 0 0 Z " fill="#121212" transform="translate(119,55)"/>
<path d="M0 0 C1.132 0.908 2.255 1.827 3.375 2.75 C4.001 3.26 4.628 3.771 5.273 4.297 C7.083 6.082 8.001 7.679 9 10 C5.176 8.442 2.708 6.084 0 3 C0 2.01 0 1.02 0 0 Z " fill="#DADADA" transform="translate(82,137)"/>
<path d="M0 0 C3.418 4.557 3.28 5.363 2.688 10.75 C2.568 11.92 2.448 13.091 2.324 14.297 C2.217 15.189 2.11 16.081 2 17 C1.67 17 1.34 17 1 17 C0.67 11.39 0.34 5.78 0 0 Z " fill="#AAAAAA" transform="translate(84,101)"/>
<path d="M0 0 C0.33 0 0.66 0 1 0 C2.517 9.41 2.517 9.41 0 14 C-0.66 13.67 -1.32 13.34 -2 13 C-1.34 8.71 -0.68 4.42 0 0 Z " fill="#BBBBBB" transform="translate(178,80)"/>
<path d="M0 0 C3.179 0.069 5.421 0.447 8.125 2.25 C8.125 2.58 8.125 2.91 8.125 3.25 C5.815 3.085 5.815 3.085 -5.875 2.25 C-3.875 0.25 -3.875 0.25 0 0 Z " fill="#E5E5E5" transform="translate(148.875,73.75)"/>
<path d="M0 0 C2.822 3.191 3.729 5.747 4 10 C3.67 10.495 3.67 10.495 2 13 C1.47 11.211 0.952 9.419 0.438 7.625 C0.147 6.627 -0.143 5.63 -0.441 4.602 C-1 2 -1 2 0 0 Z " fill="#BFBFBF" transform="translate(210,53)"/>
<path d="M0 0 C0.289 0.113 0.289 0.113 1.75 0.688 C-0.778 3.486 -2.454 5.145 -6.25 5.688 C-6.25 4.697 -6.25 3.707 -6.25 2.688 C-4.081 0.519 -3.109 -0.432 0 0 Z " fill="#DBDBDB" transform="translate(134.25,42.3125)"/>
<path d="M0 0 C0.33 2.31 0.66 4.62 1 7 C0.01 7.33 -0.98 7.66 -2 8 C-2 6.02 -2 4.04 -2 2 C-3.32 1.67 -4.64 1.34 -6 1 C-3.924 0.447 -2.156 0 0 0 Z " fill="#252526" transform="translate(192,265)"/>
<path d="M0 0 C0.66 0 1.32 0 2 0 C2.33 1.65 2.66 3.3 3 5 C3.66 5 4.32 5 5 5 C4.688 6.938 4.688 6.938 4 9 C3.01 9.33 2.02 9.66 1 10 C-0.158 6.527 -0.069 3.639 0 0 Z " fill="#C9C9C9" transform="translate(186,247)"/>
<path d="M0 0 C0.33 0 0.66 0 1 0 C1 3.3 1 6.6 1 10 C0.34 10 -0.32 10 -1 10 C-1 13.3 -1 16.6 -1 20 C-1.33 20 -1.66 20 -2 20 C-2.027 18.021 -2.046 16.042 -2.062 14.062 C-2.074 12.96 -2.086 11.858 -2.098 10.723 C-2 8 -2 8 -1 7 C-0.632 4.672 -0.298 2.338 0 0 Z " fill="#EBEBEC" transform="translate(133,203)"/>
<path d="M0 0 C3.63 0 7.26 0 11 0 C10.01 0.66 9.02 1.32 8 2 C8.33 2.66 8.66 3.32 9 4 C8.67 4.165 8.67 4.165 7 5 C6.67 5.495 6.67 5.495 5 8 C5 6.02 5 4.04 5 2 C3.35 1.67 1.7 1.34 0 1 C0 0.67 0 0.34 0 0 Z " fill="#E8E8E9" transform="translate(103,183)"/>
<path d="M0 0 C-5.528 4.761 -5.528 4.761 -9 5 C-9.66 4.34 -10.32 3.68 -11 3 C-9.736 2.3 -8.463 1.616 -7.188 0.938 C-6.48 0.555 -5.772 0.172 -5.043 -0.223 C-3 -1 -3 -1 0 0 Z " fill="#CACACA" transform="translate(157,128)"/>
<path d="M0 0 C4.261 6.391 4.261 6.391 3.625 10.312 C3.419 10.869 3.213 11.426 3 12 C-1.062 5.723 -1.062 5.723 -0.75 2.062 C-0.502 1.382 -0.255 0.701 0 0 Z " fill="#D1D1D1" transform="translate(97,110)"/>
<path d="M0 0 C0.66 0.66 1.32 1.32 2 2 C1.967 4.729 1.436 7.297 1 10 C0.01 10.33 -0.98 10.66 -2 11 C-1.125 3.375 -1.125 3.375 0 0 Z " fill="#C3C3C3" transform="translate(76,92)"/>
<path d="M0 0 C2.562 2.125 2.562 2.125 5 5 C4.812 8.312 4.812 8.312 4 11 C3.67 11 3.34 11 3 11 C2.89 10.434 2.781 9.868 2.668 9.285 C2.509 8.552 2.351 7.818 2.188 7.062 C2.037 6.332 1.886 5.601 1.73 4.848 C1.489 4.238 1.248 3.628 1 3 C0.01 2.67 -0.98 2.34 -2 2 C-1.34 1.34 -0.68 0.68 0 0 Z " fill="#C4C4C4" transform="translate(157,76)"/>
<path d="M0 0 C0.557 0.248 1.114 0.495 1.688 0.75 C0.037 2.4 -1.612 4.05 -3.312 5.75 C-4.632 5.09 -5.953 4.43 -7.312 3.75 C-2.882 -0.312 -2.882 -0.312 0 0 Z " fill="#DCDCDC" transform="translate(126.3125,58.25)"/>
<path d="M0 0 C4.274 1.583 6.265 4.506 9 8 C6 8 6 8 4.395 6.758 C3.872 6.219 3.35 5.68 2.812 5.125 C2.283 4.591 1.753 4.058 1.207 3.508 C0 2 0 2 0 0 Z " fill="#D6D6D6" transform="translate(82,151)"/>
<path d="M0 0 C2.648 2.578 4.944 4.916 7 8 C6.01 8.33 5.02 8.66 4 9 C-0.004 4.605 -0.004 4.605 -1 3 C-0.67 2.01 -0.34 1.02 0 0 Z " fill="#C5C5C5" transform="translate(101,120)"/>
<path d="M0 0 C2 3 2 3 1.75 4.875 C0.901 7.281 -0.019 9.645 -1 12 C-1.66 11.67 -2.32 11.34 -3 11 C-2.01 7.37 -1.02 3.74 0 0 Z " fill="#B8B8B8" transform="translate(226,88)"/>
<path d="M0 0 C0.66 0 1.32 0 2 0 C1.34 3.96 0.68 7.92 0 12 C-0.33 12 -0.66 12 -1 12 C-1.223 10.565 -1.428 9.127 -1.625 7.688 C-1.741 6.887 -1.857 6.086 -1.977 5.262 C-2 3 -2 3 0 0 Z " fill="#BDBDBD" transform="translate(133,81)"/>
<path d="M0 0 C0.66 0.33 1.32 0.66 2 1 C1.688 2.875 1.688 2.875 1 5 C0.01 5.66 -0.98 6.32 -2 7 C-2 6.34 -2 5.68 -2 5 C-3.32 5.33 -4.64 5.66 -6 6 C-4 4 -2 2 0 0 Z " fill="#CECECE" transform="translate(114,55)"/>
<path d="M0 0 C-1.049 2.622 -1.649 3.794 -4.125 5.25 C-4.744 5.498 -5.362 5.745 -6 6 C-6.66 5.34 -7.32 4.68 -8 4 C-4.5 0 -4.5 0 0 0 Z " fill="#DCDCDC" transform="translate(108,39)"/>
<path d="M0 0 C0.66 0.66 1.32 1.32 2 2 C1.977 4.164 1.977 4.164 1.625 6.625 C1.514 7.442 1.403 8.26 1.289 9.102 C1.194 9.728 1.098 10.355 1 11 C-1.799 8.201 -1.724 5.869 -2 2 C-1.34 1.34 -0.68 0.68 0 0 Z " fill="#DFDFDF" transform="translate(189,243)"/>
<path d="M0 0 C0.99 1.32 1.98 2.64 3 4 C1.35 5.32 -0.3 6.64 -2 8 C-2.66 7.34 -3.32 6.68 -4 6 C-2.68 4.02 -1.36 2.04 0 0 Z " fill="#D0D0D0" transform="translate(96,56)"/>
<path d="M0 0 C0 0.99 0 1.98 0 3 C-2.64 3 -5.28 3 -8 3 C-8 2.34 -8 1.68 -8 1 C-2.25 -1.125 -2.25 -1.125 0 0 Z " fill="#E5E5E5" transform="translate(180,274)"/>
<path d="M0 0 C0.33 0 0.66 0 1 0 C1 1.65 1 3.3 1 5 C1.99 5 2.98 5 4 5 C4 6.32 4 7.64 4 9 C3.34 9.33 3.34 9.33 0 11 C0 7.37 0 3.74 0 0 Z " fill="#D8D8DA" transform="translate(104,255)"/>
<path d="M0 0 C0.33 0.66 0.66 1.32 1 2 C-0.65 4.31 -2.3 6.62 -4 9 C-4.99 8.67 -5.98 8.34 -7 8 C-5.719 6.293 -4.382 4.626 -3 3 C-2.34 3 -1.68 3 -1 3 C-0.67 2.01 -0.34 1.02 0 0 Z " fill="#DFDFDF" transform="translate(112,71)"/>
<path d="M0 0 C-2.622 2.154 -4.644 3.401 -8 4 C-8.33 3.01 -8.66 2.02 -9 1 C-5.574 -0.618 -3.619 -1.341 0 0 Z " fill="#C3C3C3" transform="translate(153,118)"/>
<path d="M0 0 C0.99 0.33 1.98 0.66 3 1 C1.35 2.98 -0.3 4.96 -2 7 C-2.66 6.01 -3.32 5.02 -4 4 C-2.68 2.68 -1.36 1.36 0 0 Z " fill="#E3E3E3" transform="translate(124,70)"/>
<path d="M0 0 C3.161 1.37 3.993 1.989 6 5 C5.625 7.188 5.625 7.188 5 9 C4.161 7.879 3.329 6.753 2.5 5.625 C2.036 4.999 1.572 4.372 1.094 3.727 C0 2 0 2 0 0 Z " fill="#D1D1D1" transform="translate(191,50)"/>
<path d="M0 0 C2.64 0 5.28 0 8 0 C8 0.66 8 1.32 8 2 C5.36 2.33 2.72 2.66 0 3 C0 2.01 0 1.02 0 0 Z " fill="#D9D9DB" transform="translate(145,29)"/>
<path d="M0 0 C1.062 1.875 1.062 1.875 2 4 C1.67 4.66 1.34 5.32 1 6 C-0.65 6 -2.3 6 -4 6 C-3.67 5.01 -3.34 4.02 -3 3 C-3.33 2.34 -3.66 1.68 -4 1 C-2.68 0.67 -1.36 0.34 0 0 Z " fill="#C7C7C8" transform="translate(165,257)"/>
<path d="M0 0 C1.32 0.33 2.64 0.66 4 1 C2.688 3.5 2.688 3.5 1 6 C0.01 6 -0.98 6 -2 6 C-1.34 4.02 -0.68 2.04 0 0 Z " fill="#D0D0D0" transform="translate(104,80)"/>
<path d="M0 0 C1.258 -0.041 2.516 -0.082 3.812 -0.125 C4.52 -0.148 5.228 -0.171 5.957 -0.195 C8 0 8 0 11 2 C10.01 2.99 9.02 3.98 8 5 C7.608 4.526 7.216 4.051 6.812 3.562 C4.592 1.648 2.866 1.387 0 1 C0 0.67 0 0.34 0 0 Z " fill="#333333" transform="translate(144,76)"/>
<path d="M0 0 C0.66 1.32 1.32 2.64 2 4 C1.67 4.495 1.67 4.495 0 7 C-1.32 6.67 -2.64 6.34 -4 6 C-2.68 4.02 -1.36 2.04 0 0 Z " fill="#CDCDCD" transform="translate(99,68)"/>
<path d="M0 0 C1.32 0 2.64 0 4 0 C4 1.32 4 2.64 4 4 C3.01 3.835 3.01 3.835 -2 3 C-1.34 2.01 -0.68 1.02 0 0 Z " fill="#E1E1E1" transform="translate(119,273)"/>
<path d="M0 0 C0 0.99 0 1.98 0 3 C-1.98 3.99 -3.96 4.98 -6 6 C-6.66 5.34 -7.32 4.68 -8 4 C-2.25 0 -2.25 0 0 0 Z " fill="#CBCBCB" transform="translate(179,148)"/>
<path d="M0 0 C0.99 0 1.98 0 3 0 C1.63 3.161 1.011 3.993 -2 6 C-2.66 5.34 -3.32 4.68 -4 4 C-3.01 3.67 -2.02 3.34 -1 3 C-0.67 2.01 -0.34 1.02 0 0 Z " fill="#C0C0C0" transform="translate(207,125)"/>
<path d="M0 0 C1.648 2.967 2.443 5.656 3 9 C2.67 9.165 2.67 9.165 1 10 C-0.804 7.241 -1.013 6.11 -0.625 2.75 C-0.419 1.843 -0.213 0.935 0 0 Z " fill="#BBBBBB" transform="translate(68,122)"/>
<path d="M0 0 C-1.285 2.867 -2.571 4.976 -5 7 C-5.66 7 -6.32 7 -7 7 C-3.862 0 -3.862 0 0 0 Z " fill="#DDDDDD" transform="translate(195,122)"/>
<path d="M0 0 C-1.285 2.867 -2.571 4.976 -5 7 C-5.66 7 -6.32 7 -7 7 C-3.862 0 -3.862 0 0 0 Z " fill="#D8D8D8" transform="translate(188,114)"/>
<path d="M0 0 C-0.66 0 -1.32 0 -2 0 C-2 0.66 -2 1.32 -2 2 C-3.98 2.99 -5.96 3.98 -8 5 C-6.198 -0.02 -5.344 -1.603 0 0 Z " fill="#D9D9D9" transform="translate(144,69)"/>
<path d="M0 0 C3.255 0.349 4.019 1.021 6.25 3.562 C6.827 4.367 7.405 5.171 8 6 C5 6 5 6 3.613 4.688 C2.409 3.125 1.204 1.562 0 0 Z " fill="#DFDFDF" transform="translate(180,58)"/>
<path d="M0 0 C3.255 0.349 4.019 1.021 6.25 3.562 C6.827 4.367 7.405 5.171 8 6 C5 6 5 6 3.613 4.688 C2.409 3.125 1.204 1.562 0 0 Z " fill="#E0E0E0" transform="translate(210,33)"/>
<path d="M0 0 C0.33 0.66 0.66 1.32 1 2 C0.34 2 -0.32 2 -1 2 C-1 2.66 -1 3.32 -1 4 C-0.01 4.33 0.98 4.66 2 5 C0.35 5.33 -1.3 5.66 -3 6 C-3.33 4.68 -3.66 3.36 -4 2 C-2.68 1.34 -1.36 0.68 0 0 Z " fill="#C8C8C8" transform="translate(192,272)"/>
<path d="M0 0 C1.98 0.66 3.96 1.32 6 2 C6 2.99 6 3.98 6 5 C4.02 5 2.04 5 0 5 C0 3.333 0 1.667 0 0 Z " fill="#E9E9EA" transform="translate(109,209)"/>
<path d="M0 0 C0.66 1.32 1.32 2.64 2 4 C1.34 4.33 1.34 4.33 -2 6 C-2.33 4.68 -2.66 3.36 -3 2 C-2.01 1.34 -1.02 0.68 0 0 Z " fill="#D2D2D2" transform="translate(117,208)"/>
<path d="M0 0 C0.99 0.33 1.98 0.66 3 1 C1.35 2.65 -0.3 4.3 -2 6 C-2.33 5.01 -2.66 4.02 -3 3 C-2.01 2.01 -1.02 1.02 0 0 Z " fill="#CBCBCB" transform="translate(173,115)"/>
<path d="M0 0 C2.31 0.66 4.62 1.32 7 2 C7 2.66 7 3.32 7 4 C5.02 4 3.04 4 1 4 C0.67 2.68 0.34 1.36 0 0 Z " fill="#D7D7D7" transform="translate(129,109)"/>
<path d="M0 0 C0.99 0 1.98 0 3 0 C1.75 3.653 1.329 4.781 -2 7 C-1.125 2.25 -1.125 2.25 0 0 Z " fill="#DCDCDC" transform="translate(91,63)"/>
<path d="M0 0 C0.66 0 1.32 0 2 0 C1.75 1.875 1.75 1.875 1 4 C-1.062 5.25 -1.062 5.25 -3 6 C-2.427 3.133 -2.139 2.139 0 0 Z " fill="#DCDCDD" transform="translate(90,52)"/>
<path d="M0 0 C0.33 0.99 0.66 1.98 1 3 C-0.32 3.99 -1.64 4.98 -3 6 C-3 5.34 -3 4.68 -3 4 C-3.66 3.67 -4.32 3.34 -5 3 C-2.25 0 -2.25 0 0 0 Z " fill="#CCCCCE" transform="translate(95,48)"/>
<path d="M0 0 C0.33 0.66 0.66 1.32 1 2 C0.062 4.125 0.062 4.125 -1 6 C-2.65 5.67 -4.3 5.34 -6 5 C-5.196 4.361 -4.391 3.721 -3.562 3.062 C-1 1 -1 1 0 0 Z " fill="#CBCBCB" transform="translate(111,34)"/>
<path d="M0 0 C2.375 0.312 2.375 0.312 5 1 C5.66 1.99 6.32 2.98 7 4 C6.01 4.33 5.02 4.66 4 5 C1.812 3.688 1.812 3.688 0 2 C0 1.34 0 0.68 0 0 Z " fill="#C9C9C9" transform="translate(205,29)"/>
<path d="M0 0 C0.99 0 1.98 0 3 0 C3 1.98 3 3.96 3 6 C2.01 6 1.02 6 0 6 C0 4.02 0 2.04 0 0 Z " fill="#E6E6E6" transform="translate(135,247)"/>
<path d="M0 0 C0.33 0 0.66 0 1 0 C1 1.65 1 3.3 1 5 C1.66 5 2.32 5 3 5 C3 6.65 3 8.3 3 10 C2.34 10 1.68 10 1 10 C-0.158 6.527 -0.069 3.639 0 0 Z " fill="#C6C6C7" transform="translate(167,198)"/>
<path d="M0 0 C0 0.33 0 0.66 0 1 C-2.64 1.66 -5.28 2.32 -8 3 C-8.33 2.01 -8.66 1.02 -9 0 C-5.522 -1.159 -3.541 -0.708 0 0 Z " fill="#ADADAD" transform="translate(153,163)"/>
<path d="M0 0 C-1.393 3.367 -2.979 4.986 -6 7 C-5.372 3.355 -4.147 0 0 0 Z " fill="#E3E3E3" transform="translate(172,103)"/>
<path d="M0 0 C0.99 0.33 1.98 0.66 3 1 C4.188 4.062 4.188 4.062 5 7 C4.67 7.165 4.67 7.165 3 8 C0 2.25 0 2.25 0 0 Z " fill="#D2D2D2" transform="translate(221,46)"/>
<path d="M0 0 C1.65 1.65 3.3 3.3 5 5 C4.67 5.99 4.34 6.98 4 8 C0 3.375 0 3.375 0 0 Z " fill="#DDDDDD" transform="translate(205,47)"/>
</svg>
