<?xml version="1.0" encoding="UTF-8"?>
<!-- Generator: visioncortex VTracer 0.6.12 -->
<svg version="1.1" xmlns="http://www.w3.org/2000/svg" width="350" height="50">
<path d="M0 0 C2.25 0.812 2.25 0.812 3.25 2.812 C3.666 2.568 3.666 2.568 5.773 1.332 C9.755 -0.408 12.55 -0.556 16.875 -0.5 C18.167 -0.496 19.458 -0.492 20.789 -0.488 C23.937 -0.215 25.667 0.076 28.25 1.812 C30.091 4.267 30.25 5.663 30.25 8.75 C28.895 12.9 26.804 14.373 23.25 16.812 C19.99 17.934 16.928 17.916 13.5 17.875 C12.515 17.866 11.53 17.857 10.516 17.848 C9.768 17.836 9.02 17.824 8.25 17.812 C8.91 19.793 9.57 21.773 10.25 23.812 C15.86 24.142 21.47 24.472 27.25 24.812 C27.25 26.462 27.25 28.112 27.25 29.812 C24.521 29.867 21.792 29.906 19.062 29.938 C18.678 29.946 18.678 29.946 16.732 29.988 C11.687 30.032 7.725 29.798 3.635 26.517 C1.856 24.327 1.901 23.157 1.957 20.363 C1.967 19.516 1.976 18.668 1.986 17.795 C2.011 16.914 2.037 16.033 2.062 15.125 C2.069 14.679 2.069 14.679 2.104 12.42 C2.139 10.217 2.188 8.015 2.25 5.812 C0.768 6.262 -0.711 6.722 -2.188 7.188 C-2.599 7.315 -2.599 7.315 -4.684 7.961 C-6.75 8.812 -6.75 8.812 -7.75 10.812 C-7.9 12.186 -7.998 13.565 -8.066 14.945 C-8.108 15.751 -8.15 16.557 -8.193 17.387 C-8.213 17.808 -8.213 17.808 -8.312 19.938 C-8.334 20.362 -8.334 20.362 -8.443 22.512 C-8.55 24.612 -8.65 26.712 -8.75 28.812 C-11.06 28.812 -13.37 28.812 -15.75 28.812 C-15.75 19.572 -15.75 10.332 -15.75 0.812 C-13.44 0.812 -11.13 0.812 -8.75 0.812 C-8.42 1.473 -8.09 2.133 -7.75 2.812 C-7.389 2.555 -7.389 2.555 -5.562 1.25 C-2.75 -0.188 -2.75 -0.188 0 0 Z M9.41 5.129 C7.678 7.642 8.052 9.847 8.25 12.812 C9.833 12.867 11.416 12.905 13 12.938 C13.882 12.961 14.763 12.984 15.672 13.008 C18.418 12.8 19.986 12.368 22.25 10.812 C23.062 7.75 23.062 7.75 23.25 4.812 C21.518 3.08 19.23 3.6 16.875 3.562 C15.898 3.537 14.921 3.511 13.914 3.484 C11.25 3.812 11.25 3.812 9.41 5.129 Z " fill="#000000" transform="translate(69.75,19.1875)"/>
<path d="M0 0 C3.278 0.032 5.923 0.071 8.495 2.289 C9.89 3.971 11.144 5.694 12.375 7.5 C12.812 8.107 13.249 8.714 13.699 9.34 C14.811 10.885 15.907 12.442 17 14 C17.33 14.33 17.66 14.66 18 15 C18.543 14.169 19.085 13.337 19.645 12.48 C20.36 11.394 21.075 10.307 21.812 9.188 C22.52 8.109 23.228 7.03 23.957 5.918 C26.955 1.636 26.955 1.636 29 0 C31.688 -0.188 31.688 -0.188 34 0 C36.58 5.871 36.226 11.596 36.125 17.875 C36.116 18.945 36.107 20.015 36.098 21.117 C36.074 23.745 36.041 26.372 36 29 C34.344 29.382 32.675 29.714 31 30 C28.919 27.919 29.269 23.814 28.938 20.938 C28.847 20.179 28.756 19.42 28.662 18.639 C28.438 16.76 28.218 14.88 28 13 C27.576 13.65 27.152 14.299 26.715 14.969 C22.027 21.645 22.027 21.645 17.562 23.188 C11.908 21.303 9.291 16.787 6 12 C6.012 13.216 6.023 14.431 6.035 15.684 C6.045 17.268 6.054 18.853 6.062 20.438 C6.071 21.24 6.079 22.042 6.088 22.869 C6.097 24.913 6.052 26.957 6 29 C5 30 5 30 2.5 30.125 C0 30 0 30 -1 29 C-1.1 26.939 -1.131 24.875 -1.133 22.812 C-1.134 21.557 -1.135 20.301 -1.137 19.008 C-1.135 18.351 -1.133 17.694 -1.13 17.017 C-1.125 15.008 -1.13 13 -1.137 10.992 C-1.135 9.737 -1.134 8.481 -1.133 7.188 C-1.132 6.607 -1.132 6.607 -1.129 3.668 C-1 1 -1 1 0 0 Z " fill="#000000" transform="translate(151,19)"/>
<path d="M0 0 C2.31 0 4.62 0 7 0 C7.33 6.93 7.66 13.86 8 21 C9.32 20.34 10.64 19.68 12 19 C16.303 18.407 19.957 18.534 23.938 20.312 C26 22 26 22 28 25 C28.227 27.452 28.227 27.452 28.195 30.324 C28.189 31.352 28.182 32.38 28.176 33.439 C28.159 34.511 28.142 35.583 28.125 36.688 C28.116 37.771 28.107 38.854 28.098 39.971 C28.074 42.647 28.041 45.324 28 48 C25.69 48 23.38 48 21 48 C20.835 44.205 20.835 44.205 20 25 C13 25 13 25 10.113 25.863 C6.647 29.368 7.217 33.449 7.188 38.188 C7.162 39.128 7.137 40.068 7.111 41.037 C7.052 43.358 7.016 45.678 7 48 C4.69 48 2.38 48 0 48 C0 32.16 0 16.32 0 0 Z " fill="#000000" transform="translate(249,1)"/>
<path d="M0 0 C4.808 -0.069 4.808 -0.069 6.902 0.086 C7.902 1.086 7.902 1.086 7.902 6.086 C0.312 6.416 -7.278 6.746 -15.098 7.086 C-14.098 9.086 -14.098 9.086 -11.936 9.816 C-11.003 10.038 -10.071 10.26 -9.109 10.488 C-8.093 10.739 -7.077 10.99 -6.029 11.248 C-3.879 11.762 -1.727 12.275 0.424 12.787 C1.444 13.039 2.464 13.291 3.516 13.551 C4.452 13.774 5.388 13.997 6.353 14.226 C9.722 15.362 12.221 16.723 13.84 19.961 C13.938 23.305 13.105 24.56 10.902 27.086 C0.824 32.644 -12.179 30.072 -23.098 29.086 C-23.098 27.436 -23.098 25.786 -23.098 24.086 C-13.858 23.756 -4.618 23.426 4.902 23.086 C4.902 22.426 4.902 21.766 4.902 21.086 C3.707 20.844 2.512 20.601 1.281 20.352 C-19.082 16.102 -19.082 16.102 -23.098 12.086 C-23.535 8.773 -23.535 8.773 -23.098 5.086 C-19.401 0.954 -15.763 0.772 -10.348 0.336 C-6.898 0.182 -3.451 0.096 0 0 Z " fill="#000000" transform="translate(24.09765625,18.9140625)"/>
<path d="M0 0 C2.688 -0.082 5.374 -0.141 8.062 -0.188 C8.815 -0.213 9.567 -0.238 10.342 -0.264 C15.648 -0.333 19.382 0.288 24 3 C26.667 7.059 26.367 11.845 26.375 16.562 C26.399 17.317 26.424 18.072 26.449 18.85 C26.468 22.435 26.335 24.55 24.164 27.465 C20.063 30.374 15.966 30.247 11.125 30.312 C10.417 30.342 9.71 30.371 8.98 30.4 C5.315 30.445 3.187 30.113 0.031 28.195 C-2 26 -2 26 -2.625 22.562 C-1.838 18.079 -0.593 16.734 3 14 C8.175 11.473 13.372 11.8 19 12 C18.34 10.02 17.68 8.04 17 6 C11.39 5.67 5.78 5.34 0 5 C0 3.35 0 1.7 0 0 Z M5.875 19.5 C5.256 20.325 4.637 21.15 4 22 C4.66 23.32 5.32 24.64 6 26 C7.792 26.027 9.583 26.046 11.375 26.062 C11.874 26.068 11.874 26.068 14.398 26.098 C17 26 17 26 19 25 C19 22.36 19 19.72 19 17 C9.142 16.139 9.142 16.139 5.875 19.5 Z " fill="#000000" transform="translate(191,19)"/>
<path d="M0 0 C0.65 -0.003 0.65 -0.003 3.941 -0.016 C7.116 0.226 8.858 0.459 11.438 2.25 C13.057 5.489 13.153 8.761 12.438 12.25 C9.885 15.658 6.601 17.526 2.438 18.25 C0.522 18.317 -1.396 18.335 -3.312 18.312 C-4.297 18.303 -5.282 18.294 -6.297 18.285 C-7.045 18.274 -7.792 18.262 -8.562 18.25 C-7.903 20.23 -7.243 22.21 -6.562 24.25 C-0.953 24.58 4.657 24.91 10.438 25.25 C10.108 26.9 9.778 28.55 9.438 30.25 C6.729 30.331 4.022 30.391 1.312 30.438 C0.552 30.463 -0.209 30.488 -0.992 30.514 C-5.925 30.577 -9.315 30.049 -13.562 27.25 C-16.451 21.211 -16.335 13.808 -15.562 7.25 C-14.214 4.151 -13.27 2.665 -10.348 0.953 C-6.829 0.065 -3.628 -0.014 0 0 Z M-8.562 6.25 C-8.75 9.875 -8.75 9.875 -8.562 13.25 C-6.98 13.304 -5.396 13.343 -3.812 13.375 C-2.931 13.398 -2.049 13.421 -1.141 13.445 C1.594 13.238 3.163 12.763 5.438 11.25 C6.312 8.75 6.312 8.75 6.438 6.25 C4.438 4.25 4.438 4.25 2.16 3.984 C1.282 3.99 0.404 3.995 -0.5 4 C-1.375 3.995 -2.251 3.99 -3.152 3.984 C-5.562 4.25 -5.562 4.25 -8.562 6.25 Z " fill="#000000" transform="translate(116.5625,18.75)"/>
<path d="M0 0 C0.764 -0.029 1.528 -0.058 2.314 -0.088 C6.063 -0.13 7.953 -0.127 11.062 2.117 C13.289 5.376 13.171 7.458 12.562 11.312 C9.572 15.517 6.591 17.046 1.699 18.043 C-1.712 18.473 -5.003 18.435 -8.438 18.312 C-7.777 20.293 -7.118 22.273 -6.438 24.312 C-0.827 24.642 4.783 24.972 10.562 25.312 C10.562 26.633 10.562 27.953 10.562 29.312 C7.146 29.429 3.73 29.5 0.312 29.562 C-0.656 29.596 -1.624 29.63 -2.621 29.664 C-9.794 29.763 -9.794 29.763 -13.047 27.484 C-15.726 23.3 -15.685 19.248 -15.75 14.438 C-15.779 13.73 -15.808 13.022 -15.838 12.293 C-15.882 8.615 -15.563 6.515 -13.605 3.367 C-9.637 -0.394 -5.175 0.065 0 0 Z M-8.438 6.312 C-8.562 9.938 -8.562 9.938 -8.438 13.312 C1.468 13.895 1.468 13.895 5.562 10.312 C6.438 8.25 6.438 8.25 6.562 6.312 C6.233 5.652 5.902 4.992 5.562 4.312 C3.604 4.259 1.646 4.22 -0.312 4.188 C-1.403 4.164 -2.494 4.141 -3.617 4.117 C-6.438 4.312 -6.438 4.312 -8.438 6.312 Z " fill="#000000" transform="translate(336.4375,18.6875)"/>
<path d="M0 0 C1.98 0 3.96 0 6 0 C6.33 0.66 6.66 1.32 7 2 C7.568 1.676 8.137 1.353 8.723 1.02 C12.425 -0.638 16.018 -0.469 20 0 C23.635 1.624 24.774 2.661 27 6 C27.227 8.452 27.227 8.452 27.195 11.324 C27.189 12.352 27.182 13.38 27.176 14.439 C27.159 15.511 27.142 16.583 27.125 17.688 C27.116 18.771 27.107 19.854 27.098 20.971 C27.074 23.647 27.041 26.324 27 29 C25 29.043 23 29.041 21 29 C19.386 27.386 19.797 25.574 19.719 23.344 C19.681 22.404 19.644 21.464 19.605 20.496 C19.57 19.497 19.57 19.497 19.395 14.504 C19.357 13.564 19.32 12.624 19.281 11.656 C19.251 10.788 19.221 9.92 19.189 9.025 C19 7 19 7 18 6 C14.802 5.709 12.402 5.867 9.348 6.879 C6.578 9.381 6.594 10.074 6.293 13.668 C6.233 15.507 6.199 17.347 6.188 19.188 C6.162 20.128 6.137 21.068 6.111 22.037 C6.052 24.358 6.016 26.678 6 29 C4.02 29 2.04 29 0 29 C0 19.43 0 9.86 0 0 Z " fill="#000000" transform="translate(291,20)"/>
<path d="M0 0 C-0.33 1.32 -0.66 2.64 -1 4 C-2.971 4.575 -4.858 4.989 -6.906 5.148 C-10.374 5.42 -12.538 5.699 -15.5 7.625 C-17.639 11.012 -17.621 13.068 -17 17 C-14.938 19.938 -14.938 19.938 -12 22 C-6.911 22.727 -4.163 21.891 0 19 C0.99 18.67 1.98 18.34 3 18 C3.75 20.25 3.75 20.25 4 23 C2.156 25.29 0.626 26.687 -2 28 C-7.862 28.494 -13.201 28.807 -18.625 26.375 C-22.551 22.449 -24.15 19.012 -24.438 13.5 C-24.255 8.982 -23.089 6.406 -20 3 C-13.853 -1.672 -7.37 -2.457 0 0 Z " fill="#000000" transform="translate(243,20)"/>
<path d="M0 0 C2.31 0 4.62 0 7 0 C7 1.65 7 3.3 7 5 C7.99 5 8.98 5 10 5 C10 6.65 10 8.3 10 10 C9.01 10 8.02 10 7 10 C7.33 16.27 7.66 22.54 8 29 C9.32 29.33 10.64 29.66 12 30 C12 31.32 12 32.64 12 34 C7.629 35.017 4.995 35.169 1 33 C-0.226 30.547 -0.114 28.949 -0.098 26.211 C-0.096 25.74 -0.096 25.74 -0.088 23.359 C-0.08 22.375 -0.071 21.39 -0.062 20.375 C-0.058 19.382 -0.053 18.39 -0.049 17.367 C-0.037 14.911 -0.021 12.456 0 10 C-1.65 10 -3.3 10 -5 10 C-5 8.68 -5 7.36 -5 6 C-3.35 6 -1.7 6 0 6 C0 4.02 0 2.04 0 0 Z " fill="#000000" transform="translate(135,14)"/>
<path d="M0 0 C1.98 0 3.96 0 6 0 C6 1.65 6 3.3 6 5 C7.32 5.33 8.64 5.66 10 6 C10 7.32 10 8.64 10 10 C8.68 10 7.36 10 6 10 C6.33 16.6 6.66 23.2 7 30 C8.65 30 10.3 30 12 30 C12 31.32 12 32.64 12 34 C7.598 35.024 5.049 35.083 1 33 C0 32 0 32 -0.114 29.867 C-0.108 28.951 -0.103 28.034 -0.098 27.09 C-0.094 26.1 -0.091 25.111 -0.088 24.092 C-0.08 23.051 -0.071 22.01 -0.062 20.938 C-0.058 19.893 -0.053 18.848 -0.049 17.771 C-0.037 15.181 -0.021 12.59 0 10 C-1.98 10 -3.96 10 -6 10 C-6 8.68 -6 7.36 -6 6 C-4.35 5.67 -2.7 5.34 -1 5 C-0.67 3.35 -0.34 1.7 0 0 Z " fill="#000000" transform="translate(40,14)"/>
<path d="M0 0 C2.31 0 4.62 0 7 0 C7 9.9 7 19.8 7 30 C5.02 30 3.04 30 1 30 C0.012 23.463 -0.119 17.104 -0.062 10.5 C-0.058 9.487 -0.053 8.474 -0.049 7.43 C-0.037 4.953 -0.021 2.477 0 0 Z " fill="#000000" transform="translate(280,19)"/>
</svg>
