<?xml version="1.0" encoding="UTF-8"?>
<!-- Generator: visioncortex VTracer 0.6.12 -->
<svg version="1.1" xmlns="http://www.w3.org/2000/svg" width="254" height="48">
<path d="M0 0 C1.24 -0.003 2.48 -0.005 3.758 -0.008 C12.823 0.091 12.823 0.091 15.197 1.85 C17.006 4.384 17.251 6.412 17.375 9.5 C15.245 14.065 15.245 14.065 12.375 15.5 C10.636 15.653 8.893 15.749 7.148 15.816 C6.22 15.855 5.291 15.893 4.333 15.932 C3.742 15.953 3.742 15.953 0.75 16.062 C-1.127 16.135 -1.127 16.135 -10.625 16.5 C-6.335 16.665 -6.335 16.665 15.375 17.5 C15.375 19.81 15.375 22.12 15.375 24.5 C10.979 24.587 6.584 24.64 2.188 24.688 C1.565 24.7 1.565 24.7 -1.588 24.764 C-2.79 24.773 -3.992 24.783 -5.23 24.793 C-5.783 24.801 -5.783 24.801 -8.579 24.841 C-12.974 24.349 -15.543 22.582 -18.625 19.5 C-18.996 16.418 -18.996 16.418 -19.062 12.688 C-19.102 11.464 -19.142 10.241 -19.184 8.98 C-18.625 5.5 -18.625 5.5 -16.949 2.582 C-11.594 -0.772 -6.178 -0.142 0 0 Z M-10.625 6.5 C-10.955 7.16 -11.285 7.82 -11.625 8.5 C-4.695 8.5 2.235 8.5 9.375 8.5 C9.375 7.84 9.375 7.18 9.375 6.5 C2.775 6.5 -3.825 6.5 -10.625 6.5 Z " fill="#FFFFFF" transform="translate(165.625,15.5)"/>
<path d="M0 0 C1.98 0 3.96 0 6 0 C6.116 3.729 6.187 7.457 6.25 11.188 C6.267 11.715 6.267 11.715 6.352 14.385 C6.45 22.218 6.45 22.218 4.172 26.176 C-0.463 30.069 -6.062 29.257 -11.812 29.312 C-12.798 29.342 -13.783 29.371 -14.799 29.4 C-20.857 29.453 -24.413 29.087 -29 25 C-30.348 22.303 -30.169 20.134 -30.188 17.125 C-30.202 16.076 -30.216 15.026 -30.23 13.945 C-30 11.006 -29.635 9.423 -28 7 C-24.554 4.702 -23.289 4.764 -19.238 4.805 C-18.679 4.808 -18.679 4.808 -15.85 4.824 C-15.266 4.833 -15.266 4.833 -12.312 4.875 C-11.723 4.88 -11.723 4.88 -8.74 4.902 C-5.827 4.926 -2.913 4.959 0 5 C0 3.35 0 1.7 0 0 Z M-23 12 C-23.027 13.479 -23.046 14.958 -23.062 16.438 C-23.074 17.261 -23.086 18.085 -23.098 18.934 C-23 21 -23 21 -22 22 C-20.523 22.099 -19.042 22.131 -17.562 22.133 C-17.115 22.133 -17.115 22.133 -14.852 22.137 C-14.381 22.135 -14.381 22.135 -12 22.125 C-11.059 22.129 -10.118 22.133 -9.148 22.137 C-8.254 22.135 -7.359 22.134 -6.438 22.133 C-6.024 22.132 -6.024 22.132 -3.934 22.129 C-2 22 -2 22 -1 21 C-0.928 19.314 -0.916 17.625 -0.938 15.938 C-0.947 15.018 -0.956 14.099 -0.965 13.152 C-0.976 12.442 -0.988 11.732 -1 11 C-4.292 10.971 -7.583 10.953 -10.875 10.938 C-11.344 10.933 -11.344 10.933 -13.715 10.912 C-14.611 10.909 -15.507 10.906 -16.43 10.902 C-17.257 10.897 -18.085 10.892 -18.937 10.886 C-21 11 -21 11 -23 12 Z " fill="#FFFFFF" transform="translate(138,11)"/>
<path d="M0 0 C1.385 13.129 1.385 13.129 -2.004 17.707 C-4.5 19.812 -4.5 19.812 -7.031 21.582 C-7.681 22.05 -8.331 22.518 -9 23 C-9 23.66 -9 24.32 -9 25 C-7.505 25.884 -6.004 26.757 -4.5 27.625 C-1.989 29.46 -0.275 30.779 0.426 33.893 C0.807 38.618 0.458 43.292 0 48 C-4.094 46.304 -7.196 43.435 -10.5 40.562 C-11.635 39.584 -12.77 38.606 -13.906 37.629 C-14.172 37.396 -14.172 37.396 -15.519 36.217 C-17 35 -17 35 -19.352 33.629 C-22.007 31.005 -21.853 27.912 -21.875 24.375 C-21.883 19.903 -21.647 16.943 -19.074 13.191 C-16.501 10.882 -13.862 8.937 -11 7 C-9.328 5.652 -7.661 4.299 -6 2.938 C-2.27 0 -2.27 0 0 0 Z " fill="#FFFFFF" transform="translate(254,0)"/>
<path d="M0 0 C2.522 -0.341 2.522 -0.341 5.664 -0.293 C6.786 -0.283 7.907 -0.274 9.062 -0.264 C10.238 -0.239 11.414 -0.213 12.625 -0.188 C13.217 -0.181 13.217 -0.181 16.211 -0.146 C19.141 -0.111 22.07 -0.062 25 0 C25 1.98 25 3.96 25 6 C18.07 6 11.14 6 4 6 C4.33 6.66 4.66 7.32 5 8 C6.265 8.049 7.529 8.098 8.832 8.148 C10.492 8.223 12.152 8.299 13.812 8.375 C14.229 8.39 14.229 8.39 16.338 8.469 C17.14 8.507 17.943 8.546 18.77 8.586 C19.139 8.602 19.139 8.602 21.007 8.681 C23 9 23 9 26 11 C26.398 13.059 26.398 13.059 26.375 15.438 C26.383 16.22 26.39 17.002 26.398 17.809 C25.909 20.501 25.149 21.35 23 23 C20 24 18.026 24.116 14.895 24.098 C13.912 24.094 12.929 24.091 11.916 24.088 C10.892 24.08 9.868 24.071 8.812 24.062 C7.777 24.058 6.741 24.053 5.674 24.049 C3.116 24.037 0.558 24.021 -2 24 C-2 22.02 -2 20.04 -2 18 C1.465 17.835 1.465 17.835 19 17 C19.33 16.34 19.66 15.68 20 15 C18.819 15.023 17.638 15.046 16.422 15.07 C14.865 15.089 13.307 15.107 11.75 15.125 C10.973 15.142 10.195 15.159 9.395 15.176 C2.037 15.239 2.037 15.239 -1 13 C-2.564 9.873 -2.4 6.42 -2 3 C-1.34 2.01 -0.68 1.02 0 0 Z " fill="#FFFFFF" transform="translate(2,16)"/>
<path d="M0 0 C1.265 0.023 2.53 0.045 3.834 0.068 C6.953 0.127 10.07 0.209 13.188 0.312 C13.188 2.293 13.188 4.273 13.188 6.312 C12.466 6.338 11.744 6.363 11 6.388 C7.75 6.504 4.5 6.627 1.25 6.75 C0.114 6.789 -1.023 6.829 -2.193 6.869 C-3.273 6.911 -4.353 6.953 -5.465 6.996 C-6.465 7.033 -7.465 7.069 -8.496 7.107 C-10.812 7.312 -10.812 7.312 -11.812 8.312 C-11.938 11.812 -11.938 11.812 -11.812 15.312 C-10.098 17.027 -7.808 16.543 -5.465 16.629 C-4.925 16.65 -4.925 16.65 -2.193 16.756 C-1.057 16.795 0.079 16.834 1.25 16.875 C2.39 16.918 3.53 16.961 4.705 17.006 C7.532 17.112 10.36 17.214 13.188 17.312 C13.188 19.623 13.188 21.933 13.188 24.312 C9.125 24.4 5.063 24.453 1 24.5 C-0.15 24.525 -1.301 24.55 -2.486 24.576 C-3.598 24.586 -4.71 24.596 -5.855 24.605 C-6.366 24.613 -6.366 24.613 -8.95 24.653 C-13.221 24.145 -15.816 22.309 -18.812 19.312 C-19.184 16.23 -19.184 16.23 -19.25 12.5 C-19.29 11.277 -19.33 10.053 -19.371 8.793 C-18.812 5.312 -18.812 5.312 -17.148 2.383 C-11.744 -0.972 -6.213 -0.209 0 0 Z " fill="#FFFFFF" transform="translate(204.8125,15.6875)"/>
<path d="M0 0 C2.31 0 4.62 0 7 0 C7.33 5.28 7.66 10.56 8 16 C14.6 16 21.2 16 28 16 C29.481 13.038 29.353 10.165 29.562 6.875 C29.646 5.594 29.73 4.312 29.816 2.992 C29.847 2.498 29.847 2.498 30 0 C31.98 0 33.96 0 36 0 C36.108 2.897 36.187 5.79 36.25 8.688 C36.267 9.096 36.267 9.096 36.352 11.162 C36.418 15.261 36.341 17.437 34.172 21.02 C29.652 25.141 23.968 24.256 18.188 24.312 C17.202 24.342 16.217 24.371 15.201 24.4 C9.143 24.453 5.587 24.087 1 20 C-0.148 17.703 -0.116 16.417 -0.098 13.867 C-0.094 13.062 -0.091 12.256 -0.088 11.426 C-0.08 10.584 -0.071 9.742 -0.062 8.875 C-0.058 8.026 -0.053 7.176 -0.049 6.301 C-0.037 4.2 -0.019 2.1 0 0 Z " fill="#FFFFFF" transform="translate(31,16)"/>
<path d="M0 0 C1.128 -0.011 2.256 -0.022 3.418 -0.033 C11.556 0.039 11.556 0.039 15.719 2.348 C19.191 6.665 18.624 11.484 18.562 16.812 C18.558 17.558 18.553 18.303 18.549 19.07 C18.537 20.901 18.519 22.732 18.5 24.562 C16.19 24.562 13.88 24.562 11.5 24.562 C11.439 23.419 11.379 22.276 11.316 21.098 C11.232 19.607 11.147 18.116 11.062 16.625 C11.023 15.87 10.984 15.116 10.943 14.338 C10.613 8.676 10.613 8.676 9.5 7.562 C8.097 7.464 6.688 7.432 5.281 7.43 C4.432 7.428 3.582 7.427 2.707 7.426 C1.814 7.43 0.92 7.434 0 7.438 C-0.447 7.436 -0.447 7.436 -2.707 7.426 C-3.132 7.426 -3.132 7.426 -5.281 7.43 C-6.066 7.431 -6.85 7.432 -7.658 7.433 C-9.5 7.562 -9.5 7.562 -10.5 8.562 C-10.737 11.255 -10.922 13.927 -11.062 16.625 C-11.106 17.384 -11.149 18.142 -11.193 18.924 C-11.3 20.803 -11.4 22.683 -11.5 24.562 C-13.48 24.562 -15.46 24.562 -17.5 24.562 C-17.635 21.499 -17.734 18.441 -17.812 15.375 C-17.854 14.511 -17.896 13.646 -17.939 12.756 C-18.019 8.605 -17.833 6.152 -15.762 2.484 C-10.668 -0.517 -5.8 -0.123 0 0 Z " fill="#FFFFFF" transform="translate(87.5,15.4375)"/>
<path d="M0 0 C5 2 5 2 8 4 C8.342 6.506 8.492 8.761 8.504 11.273 C8.514 11.994 8.524 12.714 8.534 13.456 C8.549 14.981 8.556 16.505 8.556 18.03 C8.562 20.36 8.617 22.686 8.674 25.016 C8.683 26.497 8.689 27.979 8.691 29.461 C8.702 29.808 8.702 29.808 8.757 31.567 C8.729 33.548 8.729 33.548 8 37 C3.276 41 3.276 41 0 41 C0 27.47 0 13.94 0 0 Z " fill="#FFFFFF" transform="translate(224,6)"/>
</svg>
