<?xml version="1.0" encoding="UTF-8"?>
<svg xmlns="http://www.w3.org/2000/svg" xmlns:xlink="http://www.w3.org/1999/xlink" width="210mm" height="297mm" viewBox="0 0 2100 2970" preserveAspectRatio="xMidYMid meet"><g id="fondo"><rect width="2100" height="2970" fill="#0A0A0A"/></g><g id="header"><svg x="120" y="90" width="200" height="154.3" id="Capa_1" data-name="Capa 1" xmlns="http://www.w3.org/2000/svg" viewBox="0 0 1060 817.61">
  <defs>
    <style>
      .cls-1, .cls-2 {
        fill: #000;
      }

      .cls-3 {
        fill: none;
        stroke: #000;
        stroke-miterlimit: 10;
        stroke-width: .6165px;
      }

      .cls-3, .cls-2 {
        font-family: Helvetica-Bold, Helvetica;
        font-size: 53.4255px;
        font-weight: 700;
        isolation: isolate;
      }
    </style>
  </defs>
  <g id="Capa_2" data-name="Capa 2">
    <g id="Layer_1" data-name="Layer 1">
      <path id="Gota" fill="#ffffff" d="M942.9872,428.0881c-12.0906,10.5536-44.5076,38.1705-71.9355,61.7681-188.5593,162.0849-300.3913,231.7189-402.8204,250.6891-23.5894,4.2165-76.1519,2.8768-103.5634-3.0658-120.0842-25.4799-216.168-110.295-253.9768-223.664-14.0139-41.8034-16.3153-57.1489-16.3153-106.2511,0-47.7624,2.4658-64.834,14.5811-101.6647,34.143-104.1552,113.558-184.5318,214.8364-217.7132,38.9349-12.4687,56.9105-17.1866,100.9989-17.1866,34.9157,0,41.6884,2.4165,57.7982,6.4439,30.6909,7.6686,55.0694,16.8825,91.1193,34.7184,83.6891,41.0308,159.0437,95.5249,307.8955,222.6777,30.1156,25.7018,61.3819,52.3652,69.6258,59.2695,8.055,6.7152,14.5811,13.044,14.3838,13.8167-.3781.6-10.5453,9.8057-22.6278,20.162Z"/>
      <path class="cls-1" d="M395.0795,304.5929c4.1012,6.408,6.9463,13.5375,8.3837,21.0086,1.5288,7.6714,1.2767,16.4222-.7562,26.2525-2.6028,11.8632-8.1097,23.5236-16.5208,34.9814-8.4111,11.4578-20.014,19.5592-34.8088,24.3045,10.5043,4.6247,17.2524,11.2002,20.2442,19.7264,2.9918,8.5262,2.6329,21.5428-1.0767,39.0499l-3.559,16.7674c-2.3672,11.4084-3.5507,19.1428-3.5507,23.2031,0,6.444,2.1452,11.1892,6.4357,14.2359l-1.1918,6.2631h-57.4448c-.4493-5.5343-.674-9.9947-.674-13.3811.1356-7.2269.9279-14.4265,2.3672-21.5099l4.5782-23.2113c3.1562-15.9235,2.5069-26.5374-1.948-31.8416-4.4549-5.3042-14.3646-7.959-29.7293-7.9645h-53.8612l-20.6716,97.9085h-50.9597l53.0228-249.6699h122.4678c17.3921.3343,30.3786,2.4795,38.9595,6.4357,8.3078,3.7306,15.3565,9.7888,20.2935,17.4414ZM254.9978,324.0727l-14.2276,67.0778h59.0887c11.7426,0,20.8332-1.3562,27.2717-4.0686,11.4084-4.7398,18.6359-14.1098,21.6826-28.1101,3.1672-15.1345.2877-25.299-8.6385-30.4937-5.0795-2.937-13.266-4.4055-24.5593-4.4055h-60.6174Z"/>
      <path class="cls-1" d="M607.6639,286.1323c16.2578,5.759,28.1703,16.3181,35.7376,31.6772,6.1223,12.5402,9.2804,26.3198,9.2303,40.2746.1109,13.879-1.2223,27.7319-3.9782,41.3349-7.1234,33.1951-19.7729,61.3133-37.9486,84.3548-24.6196,31.0525-55.7845,46.5788-93.4947,46.5788h-107.5579l53.0146-249.6699h107.558c15.3756.2411,27.8553,2.0576,37.439,5.4494ZM503.9937,324.0727l-34.5211,162.9479h48.1077c24.6141,0,44.3761-12.1372,59.2859-36.4116,8.1317-13.3262,14.1153-29.1923,17.951-47.5981,5.4247-25.4141,5.5946-44.9213.5096-58.5215-5.085-13.6002-19.4935-20.4058-43.2254-20.4168h-48.1077Z"/>
      <path class="cls-1" d="M690.2762,504.2976l2.4658,4.4795c6.4933,11.729,8.9426,18.3948,8.8275,24.0168-.173,1.8634-.6103,3.6927-1.2987,5.433-2.5736,5.9863-8.1306,10.1572-14.5975,10.9564-1.9183.2954-3.877.1918-5.7535-.3041-1.8432-.2815-3.6135-.9209-5.2111-1.8822-5.0601-2.8598-8.4524-7.962-9.1316-13.7345-.2936-1.8365-.2266-3.7125.1973-5.5234.1597-1.0378.4873-2.0428.9699-2.9754.7706-1.5815,1.7222-3.0682,2.8357-4.4302,3.0822-3.9699,6.7892-7.3481,15.1317-13.8167l3.8959-3.0247c.2671-.2381.5625-.4424.8795-.6082,0,0,.3371.6658.7891,1.4137Z"/>
      <path class="cls-1" d="M685.6159,456.2804c-1.2607,6.5342,3.0143,12.8533,9.5485,14.1141,6.5343,1.2608,12.8534-3.0142,14.1141-9.5485.0345-.1787.0649-.3581.0913-.5381l8.5891-50.6721-23.762-4.0275-8.581,50.6721Z"/>
      <path class="cls-1" d="M704.4545,500.9112l-27.5594-4.6603,2.2028-13.0112c-2.6544-1.9405-4.9752-4.3002-6.8713-6.9864-4.7869-6.6947-6.6959-15.0264-5.3015-23.1374l19.825-117.1417,61.1353,10.3728-19.8004,117.117c-1.9373,11.5292-10.2032,20.9841-21.3702,24.4442l-2.2603,13.003ZM686.372,489.5028l11.3016,1.9069,1.7343-10.2741,2.7535-.5754c9.1501-1.9216,16.1908-9.2493,17.7455-18.4688l18.4441-109.0292-44.8774-7.5864-18.4195,109.021c-1.5611,9.2177,2.6776,18.4518,10.6851,23.2771l2.4,1.4466-1.7671,10.2823Z"/>
      <path class="cls-1" d="M764.1843,357.4267l-96.4783-16.3236,4.3645-25.7922,17.6715,2.9918,5.0713-29.9512c2.8507-16.8798,18.8455-28.2526,35.7253-25.4018,16.8798,2.8507,28.2525,18.8455,25.4018,35.7253h0l-5.0631,29.9512,17.6715,2.9918-4.3645,25.8086ZM677.2075,334.3551l80.2205,13.5783,1.6439-9.5508-17.6715-2.9918,6.4111-38.0718c2.0972-12.3948-6.2507-24.1429-18.6455-26.2402s-24.1429,6.2507-26.2402,18.6455h0l-6.444,38.0719-17.6715-2.9836-1.6028,9.5426Z"/>
      <path class="cls-1" d="M714.589,309.7547l-8.1207-1.3726,2.9672-17.5564c.7077-4.2321,3.0744-8.0071,6.5755-10.4878h0c3.4947-2.4954,7.8422-3.4897,12.0742-2.7617l-1.3726,8.1289c-2.0709-.3601-4.1998.1255-5.9097,1.348h0c-1.7198,1.212-2.883,3.0619-3.2302,5.1371l-2.9836,17.5647Z"/>
      <text class="cls-2" transform="translate(603.998 532.374)"><tspan x="0" y="0">®</tspan></text>
      <text class="cls-3" transform="translate(603.998 532.374)"><tspan x="0" y="0">®</tspan></text>
    </g>
  </g>
</svg><text x="346" y="176" font-family="Arial, Helvetica, sans-serif" font-size="58" font-weight="700" fill="#F2F2F2" text-anchor="start">Reduciendo Dano</text><text x="348" y="232" font-family="Arial, Helvetica, sans-serif" font-size="30" font-weight="400" fill="#A79FA8" text-anchor="start">ONG  -  Chile  -  desde 2018  -  reduciendodano.cl</text><rect x="1560" y="120" width="420" height="74" rx="37" fill="#B100B8" stroke="#FFD21F" stroke-width="3"/><text x="1770" y="168" font-family="Arial, Helvetica, sans-serif" font-size="27" font-weight="700" fill="#FFFFFF" text-anchor="middle" letter-spacing="0.06em">PACKS DE SERVICIO</text><rect x="120" y="300" width="1860" height="6" fill="#C800C8"/></g><g id="titulo"><text x="120" y="420" font-family="Arial, Helvetica, sans-serif" font-size="62" font-weight="700" fill="#FFFFFF" text-anchor="start">Tres packs de intervencion en terreno</text><text x="120" y="486" font-family="Arial, Helvetica, sans-serif" font-size="32" font-weight="400" fill="#A79FA8" text-anchor="start"><tspan x="120.0" dy="0">Fiestas, festivales y eventos masivos - documento general sin</tspan><tspan x="120.0" dy="46.0">lugar ni fecha: solo valores (CLP por dia) y proporciones.</tspan></text></g><g id="packs"><g id="pack_1_informativo"><rect x="120" y="620" width="590" height="1000" rx="30" fill="#161318"/><rect x="120" y="620" width="590" height="1000" rx="30" fill="none" stroke="#C800C8" stroke-width="10" opacity="0.16"/><rect x="120" y="620" width="590" height="1000" rx="30" fill="none" stroke="#C800C8" stroke-width="3" opacity="0.55"/><circle cx="186" cy="716" r="40" fill="none" stroke="#C800C8" stroke-width="4"/><text x="186" y="732" font-family="Arial, Helvetica, sans-serif" font-size="46" font-weight="700" fill="#FFD21F" text-anchor="middle">1</text><text x="248" y="710" font-family="Arial, Helvetica, sans-serif" font-size="24" font-weight="700" fill="#A79FA8" text-anchor="start" letter-spacing="0.14em">PACK</text><text x="248" y="750" font-family="Arial, Helvetica, sans-serif" font-size="34" font-weight="700" fill="#F2F2F2" text-anchor="start">Informativo</text><text x="415" y="858" font-family="Arial, Helvetica, sans-serif" font-size="74" font-weight="700" fill="#FFD21F" text-anchor="middle">$250.000</text><text x="415" y="900" font-family="Arial, Helvetica, sans-serif" font-size="26" font-weight="400" fill="#A79FA8" text-anchor="middle">por dia de evento</text><rect x="160" y="926" width="510" height="58" rx="14" fill="none" stroke="#3A2F3D" stroke-width="2"/><text x="415" y="964" font-family="Arial, Helvetica, sans-serif" font-size="32" font-weight="700" fill="#F2F2F2" text-anchor="middle">6 voluntarios/as</text><text x="160" y="1036" font-family="Arial, Helvetica, sans-serif" font-size="22" font-weight="700" fill="#C800C8" text-anchor="start" letter-spacing="0.14em">INCLUYE</text><circle cx="172" cy="1071" r="5" fill="#FFD21F"/><text x="192" y="1080" font-family="Arial, Helvetica, sans-serif" font-size="25" font-weight="400" fill="#F2F2F2" text-anchor="start">Stand informativo atendido</text><circle cx="172" cy="1121" r="5" fill="#FFD21F"/><text x="192" y="1130" font-family="Arial, Helvetica, sans-serif" font-size="25" font-weight="400" fill="#F2F2F2" text-anchor="start"><tspan x="192.0" dy="0">Material educativo + insumos</tspan><tspan x="192.0" dy="34.0">preventivos</tspan></text><circle cx="172" cy="1205" r="5" fill="#FFD21F"/><text x="192" y="1214" font-family="Arial, Helvetica, sans-serif" font-size="25" font-weight="400" fill="#F2F2F2" text-anchor="start"><tspan x="192.0" dy="0">Protectores auditivos, abanicos,</tspan><tspan x="192.0" dy="34.0">suplementos</tspan></text><circle cx="172" cy="1289" r="5" fill="#FFD21F"/><text x="192" y="1298" font-family="Arial, Helvetica, sans-serif" font-size="25" font-weight="400" fill="#F2F2F2" text-anchor="start">Tests de un solo uso (opcional)</text><rect x="160" y="1522" width="510" height="2" fill="#3A2F3D"/><text x="160" y="1566" font-family="Arial, Helvetica, sans-serif" font-size="24" font-weight="400" fill="#A79FA8" text-anchor="start"><tspan x="160.0" dy="0">1 stand 3x3 m (9 m2)</tspan><tspan x="160.0" dy="36.0">~$41.700 / voluntario</tspan></text></g><g id="pack_2_informativo"><rect x="754" y="620" width="590" height="1000" rx="30" fill="#161318"/><rect x="754" y="620" width="590" height="1000" rx="30" fill="none" stroke="#C800C8" stroke-width="10" opacity="0.16"/><rect x="754" y="620" width="590" height="1000" rx="30" fill="none" stroke="#C800C8" stroke-width="3" opacity="0.55"/><circle cx="820" cy="716" r="40" fill="none" stroke="#C800C8" stroke-width="4"/><text x="820" y="732" font-family="Arial, Helvetica, sans-serif" font-size="46" font-weight="700" fill="#FFD21F" text-anchor="middle">2</text><text x="882" y="710" font-family="Arial, Helvetica, sans-serif" font-size="24" font-weight="700" fill="#A79FA8" text-anchor="start" letter-spacing="0.14em">PACK</text><text x="882" y="750" font-family="Arial, Helvetica, sans-serif" font-size="34" font-weight="700" fill="#F2F2F2" text-anchor="start"><tspan x="882.0" dy="0">Informativo</tspan><tspan x="882.0" dy="38.0">+ Testeo</tspan></text><text x="1049" y="892" font-family="Arial, Helvetica, sans-serif" font-size="74" font-weight="700" fill="#FFD21F" text-anchor="middle">$300.000</text><text x="1049" y="934" font-family="Arial, Helvetica, sans-serif" font-size="26" font-weight="400" fill="#A79FA8" text-anchor="middle">por dia de evento</text><rect x="794" y="960" width="510" height="58" rx="14" fill="none" stroke="#3A2F3D" stroke-width="2"/><text x="1049" y="998" font-family="Arial, Helvetica, sans-serif" font-size="32" font-weight="700" fill="#F2F2F2" text-anchor="middle">6 voluntarios/as</text><text x="794" y="1070" font-family="Arial, Helvetica, sans-serif" font-size="22" font-weight="700" fill="#C800C8" text-anchor="start" letter-spacing="0.14em">INCLUYE</text><circle cx="806" cy="1105" r="5" fill="#FFD21F"/><text x="826" y="1114" font-family="Arial, Helvetica, sans-serif" font-size="25" font-weight="400" fill="#F2F2F2" text-anchor="start">Todo lo del pack Informativo</text><circle cx="806" cy="1155" r="5" fill="#FFD21F"/><text x="826" y="1164" font-family="Arial, Helvetica, sans-serif" font-size="25" font-weight="400" fill="#F2F2F2" text-anchor="start">Modulo de testeo de sustancias</text><circle cx="806" cy="1205" r="5" fill="#FFD21F"/><text x="826" y="1214" font-family="Arial, Helvetica, sans-serif" font-size="25" font-weight="400" fill="#F2F2F2" text-anchor="start">Analisis colorimetrico gratuito</text><circle cx="806" cy="1255" r="5" fill="#FFD21F"/><text x="826" y="1264" font-family="Arial, Helvetica, sans-serif" font-size="25" font-weight="400" fill="#F2F2F2" text-anchor="start">Reactivos incluidos</text><rect x="794" y="1522" width="510" height="2" fill="#3A2F3D"/><text x="794" y="1566" font-family="Arial, Helvetica, sans-serif" font-size="24" font-weight="400" fill="#A79FA8" text-anchor="start"><tspan x="794.0" dy="0">2 stands 3x3 m (18 m2)</tspan><tspan x="794.0" dy="36.0">~$50.000 / voluntario</tspan></text></g><g id="pack_3_servicio"><rect x="1388" y="620" width="590" height="1000" rx="30" fill="#1E1A21"/><rect x="1388" y="620" width="590" height="1000" rx="30" fill="none" stroke="#C800C8" stroke-width="10" opacity="0.16"/><rect x="1388" y="620" width="590" height="1000" rx="30" fill="none" stroke="#C800C8" stroke-width="3" opacity="0.55"/><circle cx="1454" cy="716" r="40" fill="none" stroke="#C800C8" stroke-width="4"/><text x="1454" y="732" font-family="Arial, Helvetica, sans-serif" font-size="46" font-weight="700" fill="#FFD21F" text-anchor="middle">3</text><text x="1516" y="710" font-family="Arial, Helvetica, sans-serif" font-size="24" font-weight="700" fill="#A79FA8" text-anchor="start" letter-spacing="0.14em">PACK</text><text x="1516" y="750" font-family="Arial, Helvetica, sans-serif" font-size="34" font-weight="700" fill="#F2F2F2" text-anchor="start">Servicio Completo</text><text x="1516" y="792" font-family="Arial, Helvetica, sans-serif" font-size="26" font-weight="700" fill="#C800C8" text-anchor="start">evento masivo</text><text x="1683" y="892" font-family="Arial, Helvetica, sans-serif" font-size="74" font-weight="700" fill="#FFD21F" text-anchor="middle">$500.000</text><text x="1683" y="934" font-family="Arial, Helvetica, sans-serif" font-size="26" font-weight="400" fill="#A79FA8" text-anchor="middle">por dia de evento</text><rect x="1428" y="960" width="510" height="58" rx="14" fill="none" stroke="#3A2F3D" stroke-width="2"/><text x="1683" y="998" font-family="Arial, Helvetica, sans-serif" font-size="32" font-weight="700" fill="#F2F2F2" text-anchor="middle">15 voluntarios/as</text><text x="1428" y="1070" font-family="Arial, Helvetica, sans-serif" font-size="22" font-weight="700" fill="#C800C8" text-anchor="start" letter-spacing="0.14em">INCLUYE</text><circle cx="1440" cy="1105" r="5" fill="#FFD21F"/><text x="1460" y="1114" font-family="Arial, Helvetica, sans-serif" font-size="25" font-weight="400" fill="#F2F2F2" text-anchor="start">Informativo + testeo</text><circle cx="1440" cy="1155" r="5" fill="#FFD21F"/><text x="1460" y="1164" font-family="Arial, Helvetica, sans-serif" font-size="25" font-weight="400" fill="#F2F2F2" text-anchor="start"><tspan x="1460.0" dy="0">Intervencion y contencion</tspan><tspan x="1460.0" dy="34.0">psicologica</tspan></text><circle cx="1440" cy="1239" r="5" fill="#FFD21F"/><text x="1460" y="1248" font-family="Arial, Helvetica, sans-serif" font-size="25" font-weight="400" fill="#F2F2F2" text-anchor="start">Zona de descanso baja estimulacion</text><circle cx="1440" cy="1289" r="5" fill="#FFD21F"/><text x="1460" y="1298" font-family="Arial, Helvetica, sans-serif" font-size="25" font-weight="400" fill="#F2F2F2" text-anchor="start">Coordinacion operativa en terreno</text><rect x="1428" y="1522" width="510" height="2" fill="#3A2F3D"/><text x="1428" y="1566" font-family="Arial, Helvetica, sans-serif" font-size="24" font-weight="400" fill="#A79FA8" text-anchor="start"><tspan x="1428.0" dy="0">2 stands + zona ~3x3 m (~27 m2)</tspan><tspan x="1428.0" dy="36.0">~$33.300 / voluntario</tspan></text></g></g><g id="proporciones"><text x="120" y="1716" font-family="Arial, Helvetica, sans-serif" font-size="44" font-weight="700" fill="#FFD21F" text-anchor="start">Proporciones del servicio completo</text><text x="120" y="1760" font-family="Arial, Helvetica, sans-serif" font-size="28" font-weight="400" fill="#A79FA8" text-anchor="start">Como se reparte el $500.000 del pack 3 (evento masivo).</text><g id="barra_desglose"><rect x="120.0" y="1806" width="1116.0" height="96" fill="#C800C8"/><text x="678.0" y="1866.0" font-family="Arial, Helvetica, sans-serif" font-size="34" font-weight="700" fill="#FFFFFF" text-anchor="middle">60%</text><rect x="1236.0" y="1806" width="260.4" height="96" fill="#B100B8"/><text x="1366.2" y="1866.0" font-family="Arial, Helvetica, sans-serif" font-size="34" font-weight="700" fill="#FFFFFF" text-anchor="middle">14%</text><rect x="1496.4" y="1806" width="186.0" height="96" fill="#8B4DFF"/><text x="1589.4" y="1866.0" font-family="Arial, Helvetica, sans-serif" font-size="34" font-weight="700" fill="#FFFFFF" text-anchor="middle">10%</text><rect x="1682.4" y="1806" width="167.4" height="96" fill="#E43BC4"/><text x="1766.1000000000001" y="1866.0" font-family="Arial, Helvetica, sans-serif" font-size="34" font-weight="700" fill="#FFFFFF" text-anchor="middle">9%</text><rect x="1849.8" y="1806" width="130.2" height="96" fill="#6E2F8F"/><text x="1914.9" y="1866.0" font-family="Arial, Helvetica, sans-serif" font-size="34" font-weight="700" fill="#FFFFFF" text-anchor="middle">7%</text><rect x="120" y="1806" width="1860" height="96" rx="4" fill="none" stroke="#C800C8" stroke-width="3" opacity="0.55"/></g><g id="leyenda_desglose"><rect x="120" y="1950" width="34" height="34" rx="7" fill="#C800C8"/><text x="176" y="1980" font-family="Arial, Helvetica, sans-serif" font-size="30" font-weight="400" fill="#F2F2F2" text-anchor="start">Equipo en terreno</text><text x="1620" y="1980" font-family="Arial, Helvetica, sans-serif" font-size="30" font-weight="700" fill="#A79FA8" text-anchor="end">60%</text><text x="1980" y="1980" font-family="Arial, Helvetica, sans-serif" font-size="30" font-weight="700" fill="#F2F2F2" text-anchor="end">$300.000</text><rect x="120" y="2012" width="34" height="34" rx="7" fill="#B100B8"/><text x="176" y="2042" font-family="Arial, Helvetica, sans-serif" font-size="30" font-weight="400" fill="#F2F2F2" text-anchor="start">Modulo de testeo</text><text x="1620" y="2042" font-family="Arial, Helvetica, sans-serif" font-size="30" font-weight="700" fill="#A79FA8" text-anchor="end">14%</text><text x="1980" y="2042" font-family="Arial, Helvetica, sans-serif" font-size="30" font-weight="700" fill="#F2F2F2" text-anchor="end">$70.000</text><rect x="120" y="2074" width="34" height="34" rx="7" fill="#8B4DFF"/><text x="176" y="2104" font-family="Arial, Helvetica, sans-serif" font-size="30" font-weight="400" fill="#F2F2F2" text-anchor="start">Stand informativo</text><text x="1620" y="2104" font-family="Arial, Helvetica, sans-serif" font-size="30" font-weight="700" fill="#A79FA8" text-anchor="end">10%</text><text x="1980" y="2104" font-family="Arial, Helvetica, sans-serif" font-size="30" font-weight="700" fill="#F2F2F2" text-anchor="end">$50.000</text><rect x="120" y="2136" width="34" height="34" rx="7" fill="#E43BC4"/><text x="176" y="2166" font-family="Arial, Helvetica, sans-serif" font-size="30" font-weight="400" fill="#F2F2F2" text-anchor="start">Intervencion y contencion</text><text x="1620" y="2166" font-family="Arial, Helvetica, sans-serif" font-size="30" font-weight="700" fill="#A79FA8" text-anchor="end">9%</text><text x="1980" y="2166" font-family="Arial, Helvetica, sans-serif" font-size="30" font-weight="700" fill="#F2F2F2" text-anchor="end">$45.000</text><rect x="120" y="2198" width="34" height="34" rx="7" fill="#6E2F8F"/><text x="176" y="2228" font-family="Arial, Helvetica, sans-serif" font-size="30" font-weight="400" fill="#F2F2F2" text-anchor="start">Coordinacion operativa</text><text x="1620" y="2228" font-family="Arial, Helvetica, sans-serif" font-size="30" font-weight="700" fill="#A79FA8" text-anchor="end">7%</text><text x="1980" y="2228" font-family="Arial, Helvetica, sans-serif" font-size="30" font-weight="700" fill="#F2F2F2" text-anchor="end">$35.000</text><rect x="120" y="2284" width="1860" height="2" fill="#3A2F3D"/><text x="176" y="2338" font-family="Arial, Helvetica, sans-serif" font-size="32" font-weight="700" fill="#FFD21F" text-anchor="start">Total servicio completo</text><text x="1980" y="2338" font-family="Arial, Helvetica, sans-serif" font-size="32" font-weight="700" fill="#FFD21F" text-anchor="end">$500.000</text></g></g><g id="ratios"><rect x="120" y="2440" width="1860" height="210" rx="24" fill="#161318"/><rect x="120" y="2440" width="1860" height="210" rx="24" fill="none" stroke="#C800C8" stroke-width="10" opacity="0.16"/><rect x="120" y="2440" width="1860" height="210" rx="24" fill="none" stroke="#C800C8" stroke-width="3" opacity="0.55"/><text x="160" y="2500" font-family="Arial, Helvetica, sans-serif" font-size="30" font-weight="700" fill="#C800C8" text-anchor="start">Valor por voluntario / dia  (economia de escala)</text><text x="160" y="2568" font-family="Arial, Helvetica, sans-serif" font-size="26" font-weight="400" fill="#A79FA8" text-anchor="start">Pack 1</text><text x="160" y="2616" font-family="Arial, Helvetica, sans-serif" font-size="40" font-weight="700" fill="#F2F2F2" text-anchor="start">~$41.700</text><text x="660" y="2568" font-family="Arial, Helvetica, sans-serif" font-size="26" font-weight="400" fill="#A79FA8" text-anchor="start">Pack 2</text><text x="660" y="2616" font-family="Arial, Helvetica, sans-serif" font-size="40" font-weight="700" fill="#F2F2F2" text-anchor="start">~$50.000</text><text x="1160" y="2568" font-family="Arial, Helvetica, sans-serif" font-size="26" font-weight="400" fill="#A79FA8" text-anchor="start">Pack 3</text><text x="1160" y="2616" font-family="Arial, Helvetica, sans-serif" font-size="40" font-weight="700" fill="#F2F2F2" text-anchor="start">~$33.300</text><text x="1980" y="2568" font-family="Arial, Helvetica, sans-serif" font-size="26" font-weight="400" fill="#A79FA8" text-anchor="end">Add-ons</text><text x="1980" y="2606" font-family="Arial, Helvetica, sans-serif" font-size="26" font-weight="700" fill="#F2F2F2" text-anchor="end"><tspan x="1980.0" dy="0">+$50.000 testeo</tspan><tspan x="1980.0" dy="34.0">+$200.000 completo</tspan></text></g><g id="footer"><rect x="120" y="2760" width="1860" height="6" fill="#C800C8"/><text x="120" y="2850" font-family="Arial, Helvetica, sans-serif" font-size="40" font-weight="700" fill="#FFD21F" text-anchor="start">Si vas a hacerlo, reduce danos.</text><text x="1980" y="2838" font-family="Arial, Helvetica, sans-serif" font-size="28" font-weight="400" fill="#A79FA8" text-anchor="end">reduciendodano.cl  -  @reduciendodano.cl</text><text x="1980" y="2874" font-family="Arial, Helvetica, sans-serif" font-size="24" font-weight="400" fill="#A79FA8" text-anchor="end">Valores CLP por dia. Aforo, duracion y traslados ajustan el valor final.</text></g></svg>