<svg xmlns="http://www.w3.org/2000/svg" viewBox="0 0 160 160"><path d="M 86.25 17.19 L 59.38 27.19 L 49.06 35.00 L 46.88 41.56 L 40.94 43.12 L 37.81 53.75 L 38.44 66.25 L 43.75 65.31 L 48.44 68.75 L 48.44 71.25 L 43.12 73.44 L 39.69 77.50 L 48.75 72.81 L 51.25 87.19 L 50.94 83.75 L 53.44 80.62 L 51.56 77.50 L 57.19 75.62 L 55.94 71.25 L 52.19 70.62 L 55.62 70.31 L 55.31 67.50 L 49.38 67.81 L 46.56 58.12 L 40.94 56.25 L 43.75 54.06 L 45.00 55.94 L 48.75 55.31 L 47.81 56.88 L 53.75 61.56 L 60.31 56.25 L 56.56 52.50 L 55.62 44.69 L 63.75 44.69 L 73.12 49.06 L 76.56 52.50 L 77.19 56.25 L 71.56 63.75 L 78.12 64.69 L 90.31 59.38 L 93.44 50.00 L 104.38 37.81 L 110.00 34.69 L 114.38 34.69 L 119.06 41.88 L 117.81 54.38 L 110.31 57.50 L 113.44 58.12 L 114.38 62.19 L 105.62 62.19 L 104.06 64.38 L 106.88 66.56 L 95.00 71.56 L 88.12 72.19 L 82.81 76.25 L 86.25 74.69 L 90.62 75.94 L 93.75 72.19 L 95.94 72.50 L 94.38 75.31 L 82.19 79.38 L 92.81 78.75 L 91.56 82.50 L 80.94 93.75 L 85.62 98.44 L 63.12 109.69 L 60.62 109.06 L 56.56 106.25 L 56.56 95.62 L 59.06 92.50 L 52.19 90.00 L 52.81 113.12 L 55.94 118.75 L 52.19 122.50 L 59.06 121.88 L 51.25 129.69 L 64.69 121.25 L 64.38 119.06 L 59.06 118.12 L 60.62 116.56 L 66.25 116.56 L 70.00 113.44 L 82.50 111.56 L 82.50 108.44 L 77.19 108.12 L 98.12 90.94 L 103.12 87.81 L 103.12 90.31 L 106.88 87.81 L 106.56 83.75 L 117.81 74.38 L 117.19 70.00 L 120.31 65.00 L 119.06 56.88 L 122.50 57.19 L 123.44 55.00 L 120.31 50.62 L 120.94 42.50 L 117.19 31.88 L 108.75 21.56 L 103.12 18.44 L 86.88 17.19 Z M 75.94 34.38 L 81.88 35.31 L 65.62 43.44 L 57.19 38.75 L 65.62 35.31 L 75.62 34.69 Z M 114.69 63.75 L 114.69 73.12 L 105.31 75.62 L 110.94 71.25 L 109.06 68.12 L 111.25 67.81 L 111.88 69.69 L 114.69 64.38 Z" fill="currentColor" fill-rule="evenodd"/></svg>