<svg xmlns="http://www.w3.org/2000/svg" viewBox="0 0 160 160"><path d="M 0.00 -0.31 L -0.31 134.38 L 11.25 125.31 L 11.56 130.62 L 9.69 133.12 L 10.94 140.62 L 9.06 142.50 L 9.06 145.00 L 10.94 145.62 L 9.06 146.25 L 8.44 151.25 L 11.56 151.88 L 12.19 143.12 L 13.75 142.19 L 14.69 146.25 L 22.19 151.88 L 21.25 154.69 L 19.38 151.56 Z M 13.75 -0.31 L 18.44 10.00 L 15.00 7.81 L 14.38 10.94 L 10.94 0.00 Z M 155.00 -0.31 L 156.56 11.88 L 155.31 30.62 L 152.19 54.38 L 149.06 66.25 L 146.56 68.75 L 147.19 76.25 L 145.31 81.25 L 140.31 85.62 L 135.31 101.88 L 125.31 121.88 L 119.06 128.75 L 119.06 135.00 L 121.25 137.19 Z M 22.19 5.00 L 24.06 5.00 L 22.50 18.44 L 22.19 5.62 Z M 44.69 17.50 L 49.69 25.62 L 69.69 90.62 L 73.12 96.56 L 71.56 90.62 L 76.25 89.06 L 76.25 87.19 Z M 74.38 36.56 L 72.19 37.50 L 73.44 40.00 L 70.31 41.25 L 72.19 42.50 L 68.12 44.06 L 68.44 46.25 L 65.94 47.50 L 71.25 45.94 L 74.69 47.50 L 66.56 50.62 L 66.56 53.12 L 70.94 57.50 L 67.81 58.12 L 72.19 58.75 L 67.19 60.00 L 67.50 62.19 L 70.31 61.25 L 68.75 64.06 L 74.06 66.25 L 71.25 67.19 Z M 96.25 65.94 L 95.00 68.44 L 88.12 67.81 L 85.94 70.00 L 89.06 75.00 L 84.69 75.00 L 87.81 77.50 L 86.25 81.56 L 84.38 79.69 L 80.31 80.62 L 80.31 83.12 L 83.44 85.62 L 80.94 86.25 L 81.88 90.31 Z M 115.00 73.44 L 114.06 75.62 L 119.69 83.12 L 121.56 91.88 L 124.38 95.31 L 128.44 76.88 L 126.25 74.06 L 115.62 73.44 Z M 72.81 81.88 L 74.69 87.50 L 69.69 87.50 L 72.81 86.25 L 72.81 82.50 Z M 78.12 87.81 L 83.44 93.12 L 75.62 89.69 L 75.94 93.12 L 79.69 94.38 L 77.50 94.69 L 78.44 97.50 L 76.25 95.94 L 74.69 99.38 L 84.06 111.88 L 82.81 113.12 L 84.38 112.19 L 87.19 115.62 L 85.94 117.50 L 88.12 116.56 L 90.94 120.62 L 89.69 123.12 L 91.25 121.56 L 96.25 128.44 Z M 16.56 104.38 L 19.38 104.06 L 19.38 105.94 L 20.62 104.69 L 21.88 107.19 L 23.75 105.94 L 24.38 107.81 L 25.62 106.56 L 26.88 108.44 L 28.75 107.19 L 34.38 109.06 L 39.38 109.06 L 39.38 105.31 Z M 38.75 104.06 L 37.50 107.81 L 35.62 105.31 L 32.50 107.19 L 31.88 105.31 L 26.25 105.94 L 26.56 104.38 Z M 26.88 112.81 L 25.94 114.38 L 28.75 116.56 L 30.00 115.31 L 30.31 118.75 L 23.12 115.31 L 22.19 121.88 L 18.75 124.06 Z M 46.56 119.38 L 46.56 135.62 L 48.44 136.25 L 48.44 131.25 L 50.00 130.31 L 51.25 138.44 L 52.81 135.00 L 52.81 119.38 L 48.75 124.06 L 49.06 118.75 Z M 58.12 122.19 L 56.88 129.69 L 54.69 128.75 L 55.94 124.38 L 53.44 124.38 L 52.81 141.25 L 55.31 141.25 L 55.00 136.56 L 57.50 138.44 L 59.69 136.25 L 57.81 133.75 L 58.44 122.50 Z M 157.19 122.50 L 159.38 159.69 L 159.69 121.88 Z M 15.31 124.38 L 20.00 124.69 L 24.69 128.12 L 23.75 130.31 L 22.50 128.44 L 20.31 129.38 L 20.62 134.06 L 17.81 133.12 L 17.81 135.00 L 19.38 134.06 L 20.31 137.50 L 22.19 137.50 L 21.56 139.38 L 19.06 138.12 L 19.38 135.94 L 15.94 136.88 L 17.19 140.00 L 18.12 138.44 L 22.19 143.12 L 21.88 145.31 L 18.75 142.81 Z M 124.06 129.38 L 126.25 133.44 L 126.56 130.00 L 128.12 129.69 L 130.94 135.00 L 130.31 138.12 L 128.44 138.12 L 130.00 146.56 L 131.56 134.38 L 134.06 131.25 L 135.00 156.56 L 136.88 155.31 L 144.38 157.19 L 147.19 154.38 L 146.56 147.50 L 148.44 145.00 L 147.81 137.50 L 149.69 131.25 L 149.69 159.38 L 152.50 159.69 L 154.06 156.25 L 152.81 154.38 L 155.31 153.75 L 154.06 146.88 L 157.19 128.75 Z M 43.75 138.44 L 41.88 146.56 L 44.06 145.00 L 44.38 138.44 Z M 35.00 139.06 L 32.81 152.50 L 37.50 154.69 L 37.81 153.12 L 34.06 151.25 L 34.06 148.75 L 39.38 150.94 L 40.31 149.38 L 34.69 146.25 L 34.69 143.75 L 36.56 144.38 L 35.31 139.38 Z M 17.50 140.94 L 17.19 143.12 L 22.81 148.12 L 21.88 150.31 L 15.31 143.75 L 15.94 141.25 Z M 22.81 143.75 L 24.38 145.94 L 25.62 144.69 L 26.25 147.19 L 27.50 144.69 L 28.44 146.25 L 27.50 149.06 L 23.12 146.56 L 22.81 144.38 Z M 15.62 147.81 L 19.06 151.88 L 18.75 154.06 L 16.88 152.81 L 15.94 154.38 L 15.62 159.69 L 21.56 159.38 L 18.12 154.69 L 25.62 157.81 L 26.25 159.69 L 29.38 159.69 L 30.31 154.38 L 28.44 153.75 L 29.06 158.12 L 27.50 158.44 L 27.19 151.25 L 26.25 152.81 L 23.75 151.56 L 22.81 148.75 L 25.62 148.44 L 31.25 152.81 L 32.81 147.50 Z M 126.25 153.44 L 126.56 158.75 L 132.19 159.38 L 126.56 153.75 Z" fill="currentColor" fill-rule="evenodd"/></svg>