<svg xmlns="http://www.w3.org/2000/svg" viewBox="0 0 160 160"><path d="M 0.00 -0.31 L -0.31 5.62 L 4.06 6.25 L 0.00 7.19 L 0.00 9.69 L 13.75 8.44 L 13.12 6.56 L 7.81 5.62 L 11.88 4.06 Z M 22.50 -0.31 L 15.00 6.56 L 19.38 4.69 L 23.12 -0.31 Z M 33.12 -0.31 L 30.94 3.12 L 33.12 0.94 L 35.94 1.25 L 35.62 -0.31 L 33.44 0.00 Z M 98.75 -0.31 L 98.44 1.88 L 100.31 1.88 L 97.81 4.38 L 97.50 13.44 Z M 122.50 -0.31 L 122.81 6.25 L 125.94 4.38 L 125.94 6.88 L 122.81 8.12 L 124.69 8.12 L 123.44 9.38 L 125.31 11.25 L 122.81 20.00 L 123.75 21.56 L 125.31 19.38 L 126.56 26.25 L 125.94 31.88 L 123.75 30.31 Z M 134.38 -0.31 L 135.94 12.50 L 140.62 12.81 L 142.50 15.94 Z M 142.50 -0.31 L 143.75 4.06 L 144.06 1.88 L 146.25 2.81 L 146.88 0.94 L 147.50 2.81 L 151.56 2.50 L 150.94 7.50 L 152.81 10.00 L 150.94 10.62 L 152.81 11.25 L 150.94 14.38 L 152.50 16.56 Z M 53.75 0.31 L 53.12 2.19 L 54.38 0.31 Z M 158.12 2.19 L 154.69 4.38 L 156.56 6.25 L 154.69 6.88 L 155.94 11.88 L 158.44 12.50 L 155.94 14.38 L 159.38 17.81 L 159.69 1.88 Z M 76.56 3.12 L 76.88 4.69 L 73.44 4.38 L 76.56 3.75 Z M 71.56 4.38 L 73.44 5.62 L 71.25 5.31 Z M 84.06 6.88 L 87.81 11.25 L 86.25 12.81 L 84.69 10.00 L 85.94 20.62 L 87.50 22.19 L 89.69 19.38 L 88.12 10.94 Z M 40.00 7.19 L 37.81 8.75 L 42.50 9.06 L 40.31 7.50 Z M 143.12 9.06 L 143.75 12.81 L 141.56 9.38 Z M 104.38 10.94 L 103.44 13.75 L 105.00 15.31 Z M 131.56 11.25 L 132.81 15.00 L 136.25 17.19 L 134.06 10.62 Z M 95.62 11.56 L 97.81 14.38 L 98.44 25.00 L 95.62 27.19 L 91.25 23.44 L 89.69 25.62 L 90.94 28.12 L 88.44 28.12 L 87.81 33.12 L 88.44 38.12 L 90.31 38.12 L 97.81 51.25 L 100.00 51.56 Z M 3.75 12.19 L 0.31 15.00 L 4.06 18.75 L 2.81 21.88 L 9.06 20.62 L 7.19 19.38 L 9.06 13.75 L 4.06 12.50 Z M 46.88 12.81 L 43.44 13.75 L 47.50 16.56 L 49.06 15.62 L 46.25 14.69 Z M 81.56 13.12 L 83.75 15.94 L 84.06 12.50 Z M 150.00 12.81 L 147.81 13.75 L 150.31 15.62 L 149.38 16.56 L 145.94 13.75 L 147.19 13.12 Z M 21.88 13.44 L 17.81 16.25 L 21.56 21.25 L 20.00 23.44 L 26.25 23.44 L 25.94 19.38 L 28.44 16.25 L 27.50 14.06 L 22.50 13.44 Z M 56.88 13.44 L 59.69 15.00 L 56.88 16.56 Z M 139.38 14.06 L 139.06 18.75 L 143.44 25.62 L 146.56 26.25 L 140.94 19.38 L 142.19 17.50 L 139.69 14.38 Z M 142.19 15.62 L 145.62 18.44 L 145.62 15.94 L 148.12 16.56 L 150.00 20.94 L 151.56 18.75 L 149.38 19.69 Z M 56.25 15.94 L 59.69 18.12 L 58.12 25.31 Z M 123.44 16.88 L 125.62 17.19 L 125.62 19.06 Z M 133.75 16.56 L 135.62 28.44 L 138.12 28.44 L 138.75 25.31 L 140.94 25.62 L 140.00 21.56 Z M 149.69 16.88 L 155.31 22.50 L 151.88 25.31 Z M 156.88 17.81 L 158.12 20.31 L 156.25 20.31 L 155.94 18.12 Z M 125.94 19.38 L 129.69 20.00 L 126.25 20.31 Z M 78.44 20.00 L 80.31 20.00 L 80.31 22.50 L 78.12 22.19 L 77.81 25.00 L 80.00 23.44 L 80.94 28.12 L 80.00 29.06 L 76.88 24.69 L 74.06 27.50 L 74.38 32.19 Z M 72.81 20.62 L 78.75 21.56 L 78.44 20.00 Z M 28.12 20.94 L 28.75 24.06 L 28.75 20.94 Z M 122.50 21.56 L 121.56 23.75 L 124.69 24.38 L 123.12 24.69 Z M 118.12 22.19 L 117.19 26.88 L 114.06 29.38 L 114.06 35.00 L 111.25 33.44 Z M 145.62 22.19 L 148.75 27.81 L 151.88 27.19 L 155.31 30.00 L 153.75 31.56 L 156.56 31.25 L 157.81 33.12 L 155.62 33.44 Z M 119.06 23.75 L 120.31 25.00 L 118.75 26.56 L 118.75 24.06 Z M 81.56 24.38 L 83.44 26.25 L 82.50 28.44 L 81.88 24.69 Z M 57.50 24.69 L 59.69 26.25 L 57.50 26.56 L 59.06 28.12 L 57.19 28.75 L 59.06 30.00 L 57.81 33.12 L 59.69 35.62 L 57.81 36.88 L 60.31 36.88 L 58.44 39.38 L 60.31 39.38 L 59.06 40.62 L 61.56 50.62 L 62.50 48.44 L 63.12 50.94 L 65.00 50.31 L 67.81 54.38 L 67.81 58.12 L 71.56 59.38 L 69.69 60.62 L 72.19 65.62 L 69.69 67.50 L 70.62 78.44 Z M 69.69 26.88 L 71.56 26.88 L 70.94 28.75 L 69.38 27.19 Z M 126.56 26.88 L 128.44 28.75 L 126.56 27.50 Z M 117.19 27.50 L 119.06 28.12 L 118.12 29.69 L 117.19 28.12 Z M 1.25 28.44 L 1.56 31.25 L 4.69 31.88 L 2.50 33.44 L 5.62 33.44 L 5.31 31.25 L 8.12 30.94 L 7.81 33.12 L 10.00 34.06 L 10.62 32.19 L 18.75 30.94 L 9.38 30.31 L 10.62 28.44 L 1.88 28.44 Z M 75.31 30.62 L 82.19 40.00 L 76.88 34.06 L 75.31 34.38 L 77.81 37.50 L 75.62 37.19 Z M 107.81 31.88 L 108.12 34.06 L 110.94 33.75 L 114.06 42.50 L 115.31 41.88 L 117.81 51.25 L 123.75 54.69 L 125.31 53.75 L 124.06 50.62 L 126.25 51.56 Z M 70.94 32.50 L 73.12 34.69 L 76.88 33.44 L 75.94 31.88 Z M 123.44 32.50 L 127.81 33.12 L 125.00 35.31 Z M 154.38 32.19 L 157.19 34.38 L 156.88 37.19 Z M 90.31 33.12 L 92.19 33.75 L 98.44 46.88 L 93.75 39.69 Z M 101.56 33.12 L 107.50 38.44 L 106.56 32.50 Z M 20.62 35.94 L 19.69 38.12 L 21.88 39.06 L 22.81 36.25 L 21.25 35.94 Z M 119.69 36.25 L 122.81 38.75 L 121.25 40.94 L 119.69 36.88 Z M 74.38 36.56 L 80.31 49.38 L 82.19 47.50 L 82.50 52.19 L 84.06 48.12 L 82.50 42.19 L 88.12 49.06 L 87.19 46.25 L 89.69 46.25 L 86.56 40.00 L 87.81 39.38 L 85.94 39.38 L 87.19 37.50 L 84.69 36.25 Z M 156.25 36.56 L 157.81 40.00 L 155.94 41.25 L 159.38 49.06 L 158.75 37.19 Z M 134.38 39.69 L 134.69 41.88 L 136.88 42.19 Z M 32.50 40.31 L 28.12 47.19 L 27.81 44.38 L 25.00 43.44 L 19.06 46.88 L 20.00 49.06 L 23.75 47.19 L 25.31 50.62 L 15.00 62.19 L 8.12 66.56 Z M 68.44 41.25 L 69.69 44.38 L 68.44 45.00 L 68.12 41.56 Z M 64.06 44.38 L 67.81 46.88 L 64.38 47.19 L 64.06 45.00 Z M 77.50 45.94 L 77.81 48.12 L 74.38 49.06 L 74.69 46.25 Z M 100.94 47.50 L 103.75 47.19 L 104.06 50.62 L 105.62 49.69 L 109.38 54.69 Z M 75.94 48.75 L 78.75 49.06 L 80.00 52.19 L 79.38 49.06 Z M 143.75 49.06 L 143.44 51.25 L 146.25 53.44 L 149.06 51.25 L 145.62 50.94 L 146.25 49.06 L 145.00 50.31 Z M 86.25 50.94 L 84.69 52.50 L 84.69 56.88 L 86.56 57.50 L 85.31 59.38 L 88.12 62.81 L 87.81 58.75 L 89.38 58.44 Z M 102.50 51.56 L 100.31 53.75 L 103.12 56.56 Z M 33.44 53.75 L 16.88 72.81 L 31.56 60.00 L 35.31 53.12 Z M 21.56 58.12 L 21.56 60.62 L 18.12 62.19 Z M 24.69 58.12 L 26.56 58.75 L 23.12 62.81 Z M 159.38 57.81 L 158.44 63.75 L 159.69 64.38 L 159.69 58.12 Z M 105.62 58.44 L 108.12 60.31 L 109.06 58.12 Z M 141.88 60.31 L 142.81 65.00 L 143.12 61.56 Z M 8.75 62.19 L 5.94 64.38 L 4.69 67.50 L 7.19 67.50 L 4.69 70.00 L 9.69 73.12 L 0.94 73.12 L 13.75 74.69 L 15.31 73.12 L 12.50 72.81 Z M 149.38 63.44 L 151.25 70.31 L 150.94 63.12 Z M 20.31 65.00 L 18.12 69.06 L 23.44 64.38 Z M 35.00 69.06 L 30.94 73.75 L 35.31 69.38 Z M 149.38 72.19 L 149.69 80.00 L 151.25 79.06 L 151.88 82.19 L 154.69 76.88 L 154.06 71.88 Z M 117.50 74.69 L 118.75 77.19 L 121.25 77.19 Z M 102.50 81.56 L 103.75 85.31 L 103.12 81.56 Z M 118.12 82.19 L 118.12 84.69 L 118.75 82.19 Z M 153.75 92.81 L 155.94 95.62 L 155.31 98.12 L 156.56 95.00 L 154.38 93.44 Z M 95.62 93.44 L 95.62 95.94 L 97.81 94.38 L 96.25 93.44 Z M 111.25 95.31 L 111.88 98.44 L 115.31 98.75 L 113.12 98.44 Z M 98.75 96.56 L 100.62 102.19 L 102.19 100.62 L 100.31 97.50 L 101.56 96.88 L 99.38 96.56 Z M 4.38 100.31 L 5.62 102.81 L 7.81 102.50 L 6.25 101.56 Z M 0.00 100.94 L 1.25 105.31 L 5.94 103.75 L 0.62 100.94 Z M 7.50 100.94 L 11.25 105.31 L 11.56 101.88 L 8.12 100.94 Z M 120.62 102.19 L 119.06 105.62 L 120.94 105.00 L 120.94 102.50 Z M 12.50 102.81 L 13.12 105.31 L 15.31 103.12 L 12.81 103.12 Z M 155.00 102.81 L 155.31 111.25 L 157.19 109.38 L 155.62 104.06 Z M 45.00 104.69 L 43.44 105.62 L 45.31 108.12 L 42.19 110.62 L 41.56 118.12 L 45.94 125.00 L 50.62 127.81 L 50.62 124.69 L 50.00 126.56 Z M 87.50 105.31 L 85.94 108.12 L 87.81 105.62 Z M 72.50 105.94 L 71.56 107.50 L 73.75 109.06 L 72.81 106.25 Z M 100.62 106.56 L 100.62 109.06 L 102.19 108.75 L 101.25 106.56 Z M 120.00 106.56 L 116.56 110.00 L 117.50 110.94 L 120.62 106.56 Z M 4.38 107.81 L 1.56 109.38 L 3.75 112.19 L 6.56 110.00 L 5.00 109.69 Z M 99.38 109.06 L 99.38 112.19 L 101.56 110.62 L 99.38 110.31 Z M 108.75 109.69 L 108.44 111.25 L 111.25 112.19 L 114.06 111.88 L 112.50 110.31 Z M 97.50 110.94 L 94.69 113.12 L 96.88 114.69 L 98.12 110.94 Z M 78.75 111.56 L 83.75 115.94 L 91.88 117.19 L 94.06 116.25 L 93.44 114.38 L 90.62 113.44 L 88.12 115.31 L 88.12 113.44 L 84.69 112.50 L 85.94 111.25 Z M 57.50 112.19 L 58.12 114.69 L 59.69 111.88 Z M 1.88 112.81 L -0.31 116.88 L 2.19 116.25 L 0.62 115.31 Z M 112.50 113.44 L 108.44 119.38 L 108.44 122.50 L 114.06 116.88 L 112.81 113.75 Z M 10.62 115.94 L 8.12 120.94 L -0.31 120.62 L 1.56 122.50 L -0.31 127.50 L 2.81 128.75 L 4.38 134.06 L 7.19 133.75 L 5.62 135.31 L 8.75 135.94 L 10.00 134.06 L 11.88 135.31 L 16.25 132.19 L 19.69 132.50 L 19.06 128.12 L 15.94 128.12 L 20.31 121.25 L 21.56 116.88 L 19.38 117.19 Z M 17.50 117.19 L 16.88 121.56 L 11.88 122.19 Z M 60.00 117.19 L 57.19 118.75 L 58.75 119.69 L 60.31 117.50 Z M 69.38 117.19 L 67.81 118.12 L 70.62 119.06 L 69.69 117.50 Z M 88.75 119.06 L 89.06 123.75 L 91.56 125.62 L 89.69 127.50 L 90.62 129.06 L 94.69 125.62 L 93.75 123.44 L 92.50 124.69 L 90.94 123.12 L 89.38 119.06 Z M 156.25 119.06 L 156.88 125.94 L 159.06 123.75 L 156.88 119.06 Z M 25.00 119.69 L 22.19 120.62 L 24.38 122.81 L 25.31 120.00 Z M 10.62 120.94 L 9.06 122.50 L 10.00 126.56 L 12.19 125.00 L 10.62 127.81 L 15.62 122.19 L 17.81 123.75 L 14.06 125.00 L 13.12 131.56 L 7.50 133.44 Z M 103.75 121.56 L 98.12 123.44 L 98.12 125.94 L 95.31 125.00 L 97.50 127.19 L 103.75 125.31 L 104.69 124.38 L 103.12 124.06 Z M 65.00 122.81 L 64.69 126.25 L 62.19 126.88 L 64.06 127.50 L 60.31 128.75 L 68.75 127.81 L 67.50 125.31 L 66.25 126.56 Z M 19.38 124.69 L 18.75 127.19 L 21.25 127.19 L 22.50 124.69 Z M 86.25 128.44 L 86.88 130.94 L 88.44 130.00 L 86.88 128.44 Z M 156.88 128.44 L 156.88 134.69 L 159.69 130.62 L 157.50 128.44 Z M 81.88 129.06 L 80.62 132.19 L 85.94 131.25 L 85.00 129.06 L 82.50 129.06 Z M 76.88 129.69 L 76.56 131.88 L 79.69 132.50 L 77.19 130.00 Z M 104.38 131.56 L 105.00 138.44 L 106.56 138.12 L 105.00 131.56 Z M 153.75 135.31 L 153.12 138.44 L 154.38 135.31 Z M 101.88 137.19 L 102.50 140.94 L 103.12 137.81 Z M 105.00 139.06 L 105.62 143.44 L 105.62 139.06 Z M 91.88 139.69 L 90.31 140.62 L 92.50 144.06 Z M 142.50 142.81 L 141.88 145.94 L 143.12 142.81 Z M 105.62 145.94 L 104.69 149.38 L 105.94 146.25 Z M 101.88 147.19 L 99.69 150.00 L 105.00 153.44 L 102.19 147.50 Z M 31.25 154.06 L 29.06 155.00 L 30.00 155.94 L 33.12 155.94 L 34.06 155.00 L 31.88 154.06 Z" fill="currentColor" fill-rule="evenodd"/></svg>