<svg viewBox="0 0 2970 2100" xmlns="http://www.w3.org/2000/svg" preserveAspectRatio="xMidYMid meet">
<rect width="2970" height="2100" fill="#fafafa"/>
<rect x="50" y="50" width="2870" height="1800" fill="none" stroke="#555" stroke-width="5" stroke-dasharray="30 20" rx="20"/>
<g><rect x="1250" y="100" width="500" height="120" rx="16" fill="#6366f1" fill-opacity="0.48" stroke="#6366f1" stroke-width="8"/><text x="1500.0" y="160.0" text-anchor="middle" dominant-baseline="middle" font-size="42" font-family="Arial, sans-serif" font-weight="900" fill="#111">ENTRADA</text></g>
<g><rect x="300" y="500" width="600" height="250" rx="16" fill="#10b981" fill-opacity="0.48" stroke="#10b981" stroke-width="8"/><text x="600.0" y="625.0" text-anchor="middle" dominant-baseline="middle" font-size="42" font-family="Arial, sans-serif" font-weight="900" fill="#111">MESA 1</text></g>
<g><rect x="1300" y="900" width="600" height="250" rx="16" fill="#10b981" fill-opacity="0.48" stroke="#10b981" stroke-width="8"/><text x="1600.0" y="1025.0" text-anchor="middle" dominant-baseline="middle" font-size="42" font-family="Arial, sans-serif" font-weight="900" fill="#111">MESA 2</text></g>
<g><rect x="1850" y="1500" width="600" height="250" rx="16" fill="#10b981" fill-opacity="0.48" stroke="#10b981" stroke-width="8"/><text x="2150.0" y="1625.0" text-anchor="middle" dominant-baseline="middle" font-size="42" font-family="Arial, sans-serif" font-weight="900" fill="#111">MESA 3</text></g>
<g><rect x="300" y="900" width="400" height="300" rx="16" fill="#8b5cf6" fill-opacity="0.48" stroke="#8b5cf6" stroke-width="8"/><text x="500.0" y="1050.0" text-anchor="middle" dominant-baseline="middle" font-size="42" font-family="Arial, sans-serif" font-weight="900" fill="#111">STAND</text></g>
<g><rect x="800" y="900" width="400" height="300" rx="16" fill="#8b5cf6" fill-opacity="0.48" stroke="#8b5cf6" stroke-width="8"/><text x="1000.0" y="1050.0" text-anchor="middle" dominant-baseline="middle" font-size="42" font-family="Arial, sans-serif" font-weight="900" fill="#111">STAND 2</text></g>
<g><rect x="300" y="1350" width="700" height="350" rx="16" fill="#059669" fill-opacity="0.48" stroke="#059669" stroke-width="8"/><text x="650.0" y="1525.0" text-anchor="middle" dominant-baseline="middle" font-size="42" font-family="Arial, sans-serif" font-weight="900" fill="#111">ZONA DESCANSO</text></g>
<g><circle cx="1100.0" cy="650.0" r="68.23529411764706" fill="#2d5a4a" fill-opacity="0.12" stroke="#2d5a4a" stroke-width="8.23529411764706"/><path d="M 1076.4705882352941 605.2941176470588 H 1123.5294117647059 M 1100.0 605.2941176470588 V 652.3529411764706 L 1137.6470588235295 704.1176470588235 H 1062.3529411764705 L 1100.0 652.3529411764706" fill="none" stroke="#2d5a4a" stroke-width="8.23529411764706"/><text x="1100.0" y="784" text-anchor="middle" font-size="28" font-family="Arial, sans-serif" font-weight="700" fill="#2d5a4a">TESTEO</text></g>
<g><circle cx="2000.0" cy="650.0" r="68.23529411764706" fill="#7c3aed" fill-opacity="0.12" stroke="#7c3aed" stroke-width="8.23529411764706"/><path d="M 2000.0 697.0588235294117 C 1957.6470588235295 659.4117647058823 1957.6470588235295 628.8235294117648 1978.8235294117646 617.0588235294117 C 1992.9411764705883 610.0 2000.0 621.7647058823529 2000.0 631.1764705882352 C 2000.0 621.7647058823529 2011.764705882353 610.0 2025.8823529411766 617.0588235294117 C 2047.0588235294117 628.8235294117648 2042.3529411764705 661.7647058823529 2000.0 697.0588235294117 Z" fill="#7c3aed"/><text x="2000.0" y="784" text-anchor="middle" font-size="28" font-family="Arial, sans-serif" font-weight="700" fill="#7c3aed">CONTENCIÓN</text></g>
<g><circle cx="1500.0" cy="1330.0" r="68.23529411764706" fill="#2d5a4a" fill-opacity="0.12" stroke="#2d5a4a" stroke-width="8.23529411764706"/><path d="M 1476.4705882352941 1285.2941176470588 H 1523.5294117647059 M 1500.0 1285.2941176470588 V 1332.3529411764705 L 1537.6470588235295 1384.1176470588234 H 1462.3529411764705 L 1500.0 1332.3529411764705" fill="none" stroke="#2d5a4a" stroke-width="8.23529411764706"/><text x="1500.0" y="1464" text-anchor="middle" font-size="28" font-family="Arial, sans-serif" font-weight="700" fill="#2d5a4a">TESTEO 2</text></g>
<g><circle cx="1750.0" cy="1330.0" r="68.23529411764706" fill="#7c3aed" fill-opacity="0.12" stroke="#7c3aed" stroke-width="8.23529411764706"/><path d="M 1750.0 1377.0588235294117 C 1707.6470588235295 1339.4117647058824 1707.6470588235295 1308.8235294117646 1728.8235294117646 1297.0588235294117 C 1742.9411764705883 1290.0 1750.0 1301.764705882353 1750.0 1311.1764705882354 C 1750.0 1301.764705882353 1761.764705882353 1290.0 1775.8823529411766 1297.0588235294117 C 1797.0588235294117 1308.8235294117646 1792.3529411764705 1341.764705882353 1750.0 1377.0588235294117 Z" fill="#7c3aed"/><text x="1750.0" y="1464" text-anchor="middle" font-size="28" font-family="Arial, sans-serif" font-weight="700" fill="#7c3aed">CONTENCIÓN 2</text></g>
<g><path d="M 1157.0 1607.0 L 1215.0 1519.0 L 1273.0 1607.0 Z M 1215.0 1519.0 V 1607.0" fill="none" stroke="#2d5a4a" stroke-width="7.0" stroke-linejoin="round"/><text x="1215.0" y="1684" text-anchor="middle" font-size="28" font-family="Arial, sans-serif" font-weight="700" fill="#2d5a4a">TOLDO 3X3</text></g>
<g><circle cx="865.0" cy="335.0" r="42.35294117647059" fill="none" stroke="#8b5cf6" stroke-width="6.1764705882352935"/><text x="865.0" y="344.70588235294116" text-anchor="middle" font-size="31.764705882352942" font-family="Arial" font-weight="900" fill="#8b5cf6">SE</text><text x="865.0" y="444" text-anchor="middle" font-size="28" font-family="Arial, sans-serif" font-weight="700" fill="#8b5cf6">BAJA ESTIM.</text></g>
<g><circle cx="230.0" cy="340.0" r="45.17647058823529" fill="none" stroke="#4b5563" stroke-width="6.588235294117647"/><text x="230.0" y="350.3529411764706" text-anchor="middle" font-size="33.88235294117647" font-family="Arial" font-weight="900" fill="#4b5563">RA</text><text x="230.0" y="454" text-anchor="middle" font-size="28" font-family="Arial, sans-serif" font-weight="700" fill="#4b5563">RACK</text></g>
<g><circle cx="460.0" cy="340.0" r="45.17647058823529" fill="none" stroke="#71717a" stroke-width="6.588235294117647"/><text x="460.0" y="350.3529411764706" text-anchor="middle" font-size="33.88235294117647" font-family="Arial" font-weight="900" fill="#71717a">TR</text><text x="460.0" y="454" text-anchor="middle" font-size="28" font-family="Arial, sans-serif" font-weight="700" fill="#71717a">BASUREROS</text></g>
<g><path d="M 2507.529411764706 881.0588235294117 L 2473.6470588235293 937.5294117647059 H 2501.8823529411766 L 2492.470588235294 978.9411764705883 L 2530.1176470588234 920.5882352941177 H 2501.8823529411766 Z" fill="#f59e0b"/><text x="2500.0" y="1044" text-anchor="middle" font-size="28" font-family="Arial, sans-serif" font-weight="700" fill="#f59e0b">ELECTRICIDAD</text></g>
<g><circle cx="2770.0" cy="930.0" r="45.17647058823529" fill="none" stroke="#fde047" stroke-width="6.588235294117647"/><text x="2770.0" y="940.3529411764706" text-anchor="middle" font-size="33.88235294117647" font-family="Arial" font-weight="900" fill="#fde047">LI</text><text x="2770.0" y="1044" text-anchor="middle" font-size="28" font-family="Arial, sans-serif" font-weight="700" fill="#fde047">ILUMINACIÓN</text></g>
<g><path d="M 2500.0 1137.2941176470588 C 2533.8823529411766 1180.5882352941176 2543.294117647059 1201.2941176470588 2528.235294117647 1225.764705882353 C 2513.176470588235 1250.235294117647 2479.294117647059 1250.235294117647 2469.8823529411766 1223.8823529411766 C 2460.470588235294 1197.5294117647059 2479.294117647059 1176.8235294117646 2500.0 1137.2941176470588 Z" fill="none" stroke="#2563eb" stroke-width="6.588235294117647"/><text x="2500.0" y="1304" text-anchor="middle" font-size="28" font-family="Arial, sans-serif" font-weight="700" fill="#2563eb">AGUA</text></g>
<g><circle cx="2770.0" cy="1190.0" r="45.17647058823529" fill="none" stroke="#0ea5e9" stroke-width="6.588235294117647"/><text x="2770.0" y="1200.3529411764705" text-anchor="middle" font-size="33.88235294117647" font-family="Arial" font-weight="900" fill="#0ea5e9">CO</text><text x="2770.0" y="1304" text-anchor="middle" font-size="28" font-family="Arial, sans-serif" font-weight="700" fill="#0ea5e9">PRODUCCIÓN</text></g>
<g><path d="M 2500.0 1395.4117647058824 L 2541.4117647058824 1412.3529411764705 V 1446.235294117647 C 2541.4117647058824 1472.5882352941176 2524.470588235294 1493.2941176470588 2500.0 1506.4705882352941 C 2475.529411764706 1493.2941176470588 2458.5882352941176 1472.5882352941176 2458.5882352941176 1446.235294117647 V 1412.3529411764705 Z" fill="none" stroke="#f97316" stroke-width="6.588235294117647"/><path d="M 2483.0588235294117 1450.0 L 2496.235294117647 1463.1764705882354 L 2520.705882352941 1433.0588235294117" fill="none" stroke="#f97316" stroke-width="6.588235294117647" stroke-linecap="round"/><text x="2500.0" y="1564" text-anchor="middle" font-size="28" font-family="Arial, sans-serif" font-weight="700" fill="#f97316">SEGURIDAD</text></g>
<g><path d="M 2770.0 1429.2941176470588 V 1474.4705882352941 M 2747.4117647058824 1451.8823529411766 H 2792.5882352941176" stroke="#dc2626" stroke-width="6.588235294117647" stroke-linecap="round"/><path d="M 2770.0 1502.7058823529412 C 2726.705882352941 1465.0588235294117 2721.0588235294117 1436.8235294117646 2739.8823529411766 1418.0 C 2753.0588235294117 1404.8235294117646 2768.1176470588234 1414.235294117647 2770.0 1425.5294117647059 C 2771.8823529411766 1414.235294117647 2788.823529411765 1404.8235294117646 2802.0 1418.0 C 2820.823529411765 1436.8235294117646 2813.294117647059 1466.9411764705883 2770.0 1502.7058823529412 Z" fill="none" stroke="#dc2626" stroke-width="6.588235294117647"/><text x="2770.0" y="1564" text-anchor="middle" font-size="28" font-family="Arial, sans-serif" font-weight="700" fill="#dc2626">EQUIPO MÉDICO</text></g>
<g><circle cx="2635.0" cy="1710.0" r="45.17647058823529" fill="none" stroke="#a16207" stroke-width="6.588235294117647"/><text x="2635.0" y="1720.3529411764705" text-anchor="middle" font-size="33.88235294117647" font-family="Arial" font-weight="900" fill="#a16207">FO</text><text x="2635.0" y="1824" text-anchor="middle" font-size="28" font-family="Arial, sans-serif" font-weight="700" fill="#a16207">ALIMENTACIÓN</text></g>
<g><rect x="2060" y="120" width="760" height="596" rx="30" fill="#f4f4f5" fill-opacity="0.96" stroke="#222" stroke-width="5"/><text x="2440" y="190" text-anchor="middle" font-size="36" font-family="Arial, sans-serif" font-weight="900" fill="#333">LEYENDA TÉCNICA</text>
<g><circle cx="2124" cy="244" r="18.56" fill="#2d5a4a" fill-opacity="0.12" stroke="#2d5a4a" stroke-width="5"/><path d="M 2117.6 231.84 H 2130.4 M 2124.0 231.84 V 244.64 L 2134.24 258.72 H 2113.76 L 2124.0 244.64" fill="none" stroke="#2d5a4a" stroke-width="5"/><text x="2162" y="258" font-size="22" font-family="Arial, sans-serif" font-weight="800" fill="#333">TESTEO</text></g>
<g><circle cx="2484" cy="244" r="18.56" fill="#7c3aed" fill-opacity="0.12" stroke="#7c3aed" stroke-width="5"/><path d="M 2484.0 256.8 C 2472.48 246.56 2472.48 238.24 2478.24 235.04 C 2482.08 233.12 2484.0 236.32 2484.0 238.88 C 2484.0 236.32 2487.2 233.12 2491.04 235.04 C 2496.8 238.24 2495.52 247.2 2484.0 256.8 Z" fill="#7c3aed"/><text x="2522" y="258" font-size="22" font-family="Arial, sans-serif" font-weight="800" fill="#333">CONTENCIÓN</text></g>
<g><path d="M 2105.44 325.44 L 2124.0 297.28 L 2142.56 325.44 Z M 2124.0 297.28 V 325.44" fill="none" stroke="#2d5a4a" stroke-width="5" stroke-linejoin="round"/><text x="2162" y="326" font-size="22" font-family="Arial, sans-serif" font-weight="800" fill="#333">TOLDO 3X3</text></g>
<g><circle cx="2484" cy="312" r="15.36" fill="none" stroke="#8b5cf6" stroke-width="5"/><text x="2484" y="315.52" text-anchor="middle" font-size="11.52" font-family="Arial" font-weight="900" fill="#8b5cf6">SE</text><text x="2522" y="326" font-size="22" font-family="Arial, sans-serif" font-weight="800" fill="#333">BAJA ESTIM.</text></g>
<g><circle cx="2124" cy="380" r="15.36" fill="none" stroke="#4b5563" stroke-width="5"/><text x="2124" y="383.52" text-anchor="middle" font-size="11.52" font-family="Arial" font-weight="900" fill="#4b5563">RA</text><text x="2162" y="394" font-size="22" font-family="Arial, sans-serif" font-weight="800" fill="#333">RACK</text></g>
<g><circle cx="2484" cy="380" r="15.36" fill="none" stroke="#71717a" stroke-width="5"/><text x="2484" y="383.52" text-anchor="middle" font-size="11.52" font-family="Arial" font-weight="900" fill="#71717a">TR</text><text x="2522" y="394" font-size="22" font-family="Arial, sans-serif" font-weight="800" fill="#333">BASUREROS</text></g>
<g><path d="M 2126.56 431.36 L 2115.04 450.56 H 2124.64 L 2121.44 464.64 L 2134.24 444.8 H 2124.64 Z" fill="#f59e0b"/><text x="2162" y="462" font-size="22" font-family="Arial, sans-serif" font-weight="800" fill="#333">ELECTRICIDAD</text></g>
<g><circle cx="2484" cy="448" r="15.36" fill="none" stroke="#fde047" stroke-width="5"/><text x="2484" y="451.52" text-anchor="middle" font-size="11.52" font-family="Arial" font-weight="900" fill="#fde047">LI</text><text x="2522" y="462" font-size="22" font-family="Arial, sans-serif" font-weight="800" fill="#333">ILUMINACIÓN</text></g>
<g><path d="M 2124.0 498.08 C 2135.52 512.8 2138.72 519.84 2133.6 528.16 C 2128.48 536.48 2116.96 536.48 2113.76 527.52 C 2110.56 518.56 2116.96 511.52 2124.0 498.08 Z" fill="none" stroke="#2563eb" stroke-width="5"/><text x="2162" y="530" font-size="22" font-family="Arial, sans-serif" font-weight="800" fill="#333">AGUA</text></g>
<g><circle cx="2484" cy="516" r="15.36" fill="none" stroke="#0ea5e9" stroke-width="5"/><text x="2484" y="519.52" text-anchor="middle" font-size="11.52" font-family="Arial" font-weight="900" fill="#0ea5e9">CO</text><text x="2522" y="530" font-size="22" font-family="Arial, sans-serif" font-weight="800" fill="#333">PRODUCCIÓN</text></g>
<g><path d="M 2124.0 565.44 L 2138.08 571.2 V 582.72 C 2138.08 591.68 2132.32 598.72 2124.0 603.2 C 2115.68 598.72 2109.92 591.68 2109.92 582.72 V 571.2 Z" fill="none" stroke="#f97316" stroke-width="5"/><path d="M 2118.24 584.0 L 2122.72 588.48 L 2131.04 578.24" fill="none" stroke="#f97316" stroke-width="5" stroke-linecap="round"/><text x="2162" y="598" font-size="22" font-family="Arial, sans-serif" font-weight="800" fill="#333">SEGURIDAD</text></g>
<g><path d="M 2484.0 576.96 V 592.32 M 2476.32 584.64 H 2491.68" stroke="#dc2626" stroke-width="5" stroke-linecap="round"/><path d="M 2484.0 601.92 C 2469.28 589.12 2467.36 579.52 2473.76 573.12 C 2478.24 568.64 2483.36 571.84 2484.0 575.68 C 2484.64 571.84 2490.4 568.64 2494.88 573.12 C 2501.28 579.52 2498.72 589.76 2484.0 601.92 Z" fill="none" stroke="#dc2626" stroke-width="5"/><text x="2522" y="598" font-size="22" font-family="Arial, sans-serif" font-weight="800" fill="#333">EQUIPO MÉDICO</text></g>
<g><circle cx="2124" cy="652" r="15.36" fill="none" stroke="#a16207" stroke-width="5"/><text x="2124" y="655.52" text-anchor="middle" font-size="11.52" font-family="Arial" font-weight="900" fill="#a16207">FO</text><text x="2162" y="666" font-size="22" font-family="Arial, sans-serif" font-weight="800" fill="#333">ALIMENTACIÓN</text></g>
</g>
<text x="100" y="2010" font-size="34" font-family="Arial, sans-serif" font-weight="900" fill="#222">SERVICIO COMPLETO RD · EVENTO MASIVO (GENÉRICO) · LUGAR Y FECHA POR DEFINIR</text>
</svg>
