<svg xmlns="http://www.w3.org/2000/svg" width="2800px" height="2000px" viewBox="0 0 2800 2000">
<metadata>Etiquetas RD · ejemplo base / 02_etiqueta_base_blanca / vectorizado</metadata>
<g id="fondo_editable"><rect x="0" y="0" width="2800" height="2000" fill="#FFFFFF"/></g>
<g id="elementos_globales">
<circle cx="180" cy="160" r="360" fill="#EF7B2D" opacity="0.12"/>
<circle cx="2650" cy="1880" r="460" fill="#315EE8" opacity="0.1"/>
<rect x="80" y="80" width="2640" height="1840" rx="70" fill="none" stroke="#D9CEC0" stroke-width="5"/>
<rect x="120" y="120" width="88" height="88" rx="26" fill="#173F2F"/>
<path d="M 154.074 159.957 Q 156.555 159.957 157.631 159.038 Q 158.707 158.113 158.707 156.000 Q 158.707 153.907 157.631 153.007 Q 156.555 152.102 154.074 152.102 L 150.753 152.102 L 150.753 159.957 L 154.074 159.957 Z M 150.753 165.411 L 150.753 177.000 L 142.859 177.000 L 142.859 146.379 L 154.914 146.379 Q 160.965 146.379 163.780 148.414 Q 166.602 150.442 166.602 154.832 Q 166.602 157.864 165.132 159.813 Q 163.668 161.762 160.715 162.687 Q 162.336 163.055 163.616 164.361 Q 164.902 165.660 166.215 168.305 L 170.500 177.000 L 162.093 177.000 L 158.359 169.394 Q 157.231 167.097 156.069 166.257 Q 154.914 165.411 152.985 165.411 L 150.753 165.411 Z M 183.093 152.351 L 183.093 171.035 L 185.922 171.035 Q 190.758 171.035 193.311 168.633 Q 195.871 166.231 195.871 161.657 Q 195.871 157.109 193.324 154.733 Q 190.785 152.351 185.922 152.351 L 183.093 152.351 Z M 175.199 146.379 L 183.520 146.379 Q 190.496 146.379 193.908 147.377 Q 197.321 148.368 199.762 150.750 Q 201.915 152.824 202.958 155.534 Q 204.008 158.238 204.008 161.657 Q 204.008 165.128 202.958 167.845 Q 201.915 170.562 199.762 172.629 Q 197.301 175.012 193.856 176.009 Q 190.411 177.000 183.520 177.000 L 175.199 177.000 L 175.199 146.379 Z" fill="#FFFFFF"/>
<path d="M 250.074 166.957 Q 252.555 166.957 253.631 166.038 Q 254.707 165.113 254.707 163.000 Q 254.707 160.907 253.631 160.007 Q 252.555 159.102 250.074 159.102 L 246.753 159.102 L 246.753 166.957 L 250.074 166.957 Z M 246.753 172.411 L 246.753 184.000 L 238.859 184.000 L 238.859 153.379 L 250.914 153.379 Q 256.965 153.379 259.780 155.414 Q 262.602 157.442 262.602 161.832 Q 262.602 164.864 261.132 166.813 Q 259.668 168.762 256.715 169.687 Q 258.336 170.055 259.616 171.361 Q 260.902 172.660 262.215 175.305 L 266.500 184.000 L 258.093 184.000 L 254.359 176.394 Q 253.231 174.097 252.069 173.257 Q 250.914 172.411 248.985 172.411 L 246.753 172.411 Z M 293.793 172.457 L 293.793 174.543 L 276.632 174.543 Q 276.895 177.129 278.496 178.422 Q 280.097 179.715 282.965 179.715 Q 285.282 179.715 287.710 179.026 Q 290.145 178.337 292.711 176.945 L 292.711 182.602 Q 290.105 183.587 287.500 184.092 Q 284.895 184.597 282.289 184.597 Q 276.055 184.597 272.597 181.428 Q 269.145 178.258 269.145 172.535 Q 269.145 166.918 272.538 163.702 Q 275.930 160.480 281.882 160.480 Q 287.297 160.480 290.545 163.742 Q 293.793 166.997 293.793 172.457 Z M 286.247 170.015 Q 286.247 167.922 285.026 166.642 Q 283.805 165.356 281.837 165.356 Q 279.704 165.356 278.372 166.557 Q 277.039 167.758 276.711 170.015 L 286.247 170.015 Z M 314.984 164.391 L 314.984 152.087 L 322.367 152.087 L 322.367 184.000 L 314.984 184.000 L 314.984 180.679 Q 313.468 182.707 311.637 183.652 Q 309.812 184.597 307.417 184.597 Q 303.171 184.597 300.441 181.224 Q 297.718 177.844 297.718 172.535 Q 297.718 167.226 300.441 163.853 Q 303.171 160.480 307.417 160.480 Q 309.793 160.480 311.630 161.432 Q 313.468 162.383 314.984 164.391 Z M 310.141 179.262 Q 312.503 179.262 313.743 177.542 Q 314.984 175.817 314.984 172.535 Q 314.984 169.254 313.743 167.535 Q 312.503 165.809 310.141 165.809 Q 307.804 165.809 306.564 167.535 Q 305.324 169.254 305.324 172.535 Q 305.324 175.817 306.564 177.542 Q 307.804 179.262 310.141 179.262 Z M 329.172 175.055 L 329.172 161.031 L 336.555 161.031 L 336.555 163.328 Q 336.555 165.192 336.535 168.014 Q 336.515 170.836 336.515 171.774 Q 336.515 174.543 336.660 175.764 Q 336.804 176.985 337.152 177.542 Q 337.598 178.258 338.327 178.652 Q 339.055 179.039 340.000 179.039 Q 342.297 179.039 343.609 177.273 Q 344.922 175.508 344.922 172.371 L 344.922 161.031 L 352.265 161.031 L 352.265 184.000 L 344.922 184.000 L 344.922 180.679 Q 343.262 182.688 341.404 183.646 Q 339.547 184.597 337.316 184.597 Q 333.332 184.597 331.252 182.156 Q 329.172 179.715 329.172 175.055 Z M 377.879 161.747 L 377.879 167.738 Q 376.382 166.714 374.873 166.222 Q 373.364 165.730 371.743 165.730 Q 368.672 165.730 366.959 167.522 Q 365.246 169.313 365.246 172.535 Q 365.246 175.757 366.959 177.556 Q 368.672 179.347 371.743 179.347 Q 373.469 179.347 375.017 178.835 Q 376.566 178.317 377.879 177.313 L 377.879 183.324 Q 376.153 183.961 374.381 184.276 Q 372.609 184.597 370.824 184.597 Q 364.609 184.597 361.098 181.408 Q 357.594 178.218 357.594 172.535 Q 357.594 166.852 361.098 163.669 Q 364.609 160.480 370.824 160.480 Q 372.629 160.480 374.381 160.795 Q 376.133 161.110 377.879 161.747 Z M 384.218 161.031 L 391.555 161.031 L 391.555 184.000 L 384.218 184.000 L 384.218 161.031 Z M 384.218 152.087 L 391.555 152.087 L 391.555 158.078 L 384.218 158.078 L 384.218 152.087 Z M 421.539 172.457 L 421.539 174.543 L 404.378 174.543 Q 404.641 177.129 406.242 178.422 Q 407.843 179.715 410.711 179.715 Q 413.028 179.715 415.456 179.026 Q 417.890 178.337 420.456 176.945 L 420.456 182.602 Q 417.851 183.587 415.246 184.092 Q 412.640 184.597 410.035 184.597 Q 403.801 184.597 400.342 181.428 Q 396.890 178.258 396.890 172.535 Q 396.890 166.918 400.283 163.702 Q 403.676 160.480 409.628 160.480 Q 415.042 160.480 418.291 163.742 Q 421.539 166.997 421.539 172.457 Z M 413.992 170.015 Q 413.992 167.922 412.772 166.642 Q 411.551 165.356 409.582 165.356 Q 407.449 165.356 406.117 166.557 Q 404.785 167.758 404.457 170.015 L 413.992 170.015 Z M 450.191 170.015 L 450.191 184.000 L 442.808 184.000 L 442.808 181.723 L 442.808 173.297 Q 442.808 170.324 442.677 169.195 Q 442.546 168.066 442.217 167.535 Q 441.784 166.813 441.043 166.412 Q 440.308 166.012 439.363 166.012 Q 437.066 166.012 435.753 167.791 Q 434.441 169.562 434.441 172.699 L 434.441 184.000 L 427.104 184.000 L 427.104 161.031 L 434.441 161.031 L 434.441 164.391 Q 436.101 162.383 437.965 161.432 Q 439.835 160.480 442.093 160.480 Q 446.070 160.480 448.130 162.921 Q 450.191 165.356 450.191 170.015 Z M 472.628 164.391 L 472.628 152.087 L 480.011 152.087 L 480.011 184.000 L 472.628 184.000 L 472.628 180.679 Q 471.112 182.707 469.281 183.652 Q 467.457 184.597 465.062 184.597 Q 460.816 184.597 458.086 181.224 Q 455.362 177.844 455.362 172.535 Q 455.362 167.226 458.086 163.853 Q 460.816 160.480 465.062 160.480 Q 467.437 160.480 469.275 161.432 Q 471.112 162.383 472.628 164.391 Z M 467.785 179.262 Q 470.147 179.262 471.388 177.542 Q 472.628 175.817 472.628 172.535 Q 472.628 169.254 471.388 167.535 Q 470.147 165.809 467.785 165.809 Q 465.449 165.809 464.208 167.535 Q 462.968 169.254 462.968 172.535 Q 462.968 175.817 464.208 177.542 Q 465.449 179.262 467.785 179.262 Z M 497.992 165.730 Q 495.551 165.730 494.271 167.482 Q 492.992 169.234 492.992 172.535 Q 492.992 175.836 494.271 177.595 Q 495.551 179.347 497.992 179.347 Q 500.394 179.347 501.661 177.595 Q 502.934 175.836 502.934 172.535 Q 502.934 169.234 501.661 167.482 Q 500.394 165.730 497.992 165.730 Z M 497.992 160.480 Q 503.918 160.480 507.252 163.683 Q 510.586 166.878 510.586 172.535 Q 510.586 178.199 507.252 181.401 Q 503.918 184.597 497.992 184.597 Q 492.047 184.597 488.693 181.401 Q 485.340 178.199 485.340 172.535 Q 485.340 166.878 488.693 163.683 Q 492.047 160.480 497.992 160.480 Z M 538.765 159.351 L 538.765 178.035 L 541.593 178.035 Q 546.430 178.035 548.983 175.633 Q 551.542 173.231 551.542 168.657 Q 551.542 164.109 548.996 161.733 Q 546.456 159.351 541.593 159.351 L 538.765 159.351 Z M 530.870 153.379 L 539.192 153.379 Q 546.168 153.379 549.580 154.377 Q 552.993 155.368 555.434 157.750 Q 557.586 159.824 558.630 162.534 Q 559.680 165.238 559.680 168.657 Q 559.680 172.128 558.630 174.845 Q 557.586 177.562 555.434 179.629 Q 552.973 182.012 549.527 183.009 Q 546.082 184.000 539.192 184.000 L 530.870 184.000 L 530.870 153.379 Z M 575.699 173.664 Q 573.402 173.664 572.240 174.445 Q 571.085 175.219 571.085 176.742 Q 571.085 178.133 572.017 178.927 Q 572.956 179.715 574.616 179.715 Q 576.683 179.715 578.101 178.232 Q 579.518 176.742 579.518 174.504 L 579.518 173.664 L 575.699 173.664 Z M 586.921 170.895 L 586.921 184.000 L 579.518 184.000 L 579.518 180.594 Q 578.042 182.688 576.191 183.646 Q 574.347 184.597 571.702 184.597 Q 568.132 184.597 565.908 182.517 Q 563.683 180.430 563.683 177.109 Q 563.683 173.067 566.459 171.183 Q 569.241 169.293 575.187 169.293 L 579.518 169.293 L 579.518 168.722 Q 579.518 166.977 578.140 166.170 Q 576.768 165.356 573.855 165.356 Q 571.499 165.356 569.464 165.828 Q 567.437 166.301 565.691 167.246 L 565.691 161.648 Q 568.053 161.071 570.429 160.775 Q 572.811 160.480 575.187 160.480 Q 581.402 160.480 584.158 162.928 Q 586.921 165.376 586.921 170.895 Z M 616.839 170.015 L 616.839 184.000 L 609.456 184.000 L 609.456 181.723 L 609.456 173.297 Q 609.456 170.324 609.325 169.195 Q 609.194 168.066 608.866 167.535 Q 608.433 166.813 607.691 166.412 Q 606.956 166.012 606.011 166.012 Q 603.714 166.012 602.402 167.791 Q 601.089 169.562 601.089 172.699 L 601.089 184.000 L 593.752 184.000 L 593.752 161.031 L 601.089 161.031 L 601.089 164.391 Q 602.749 162.383 604.613 161.432 Q 606.483 160.480 608.741 160.480 Q 612.718 160.480 614.778 162.921 Q 616.839 165.356 616.839 170.015 Z M 605.722 156.024 L 604.593 155.269 Q 604.515 155.230 604.390 155.145 Q 603.425 154.508 602.913 154.508 Q 602.178 154.508 601.785 155.145 Q 601.398 155.781 601.398 156.989 L 601.398 157.153 L 598.549 157.153 Q 598.549 154.364 599.599 152.848 Q 600.656 151.332 602.566 151.332 Q 603.307 151.332 604.055 151.608 Q 604.803 151.883 605.643 152.500 L 606.890 153.379 Q 607.343 153.688 607.724 153.852 Q 608.104 154.016 608.413 154.016 Q 609.148 154.016 609.555 153.360 Q 609.968 152.703 609.968 151.535 L 609.968 151.371 L 612.823 151.371 Q 612.823 154.160 611.766 155.683 Q 610.710 157.199 608.800 157.199 Q 608.065 157.199 607.376 156.956 Q 606.687 156.707 605.722 156.024 Z M 634.577 165.730 Q 632.136 165.730 630.857 167.482 Q 629.577 169.234 629.577 172.535 Q 629.577 175.836 630.857 177.595 Q 632.136 179.347 634.577 179.347 Q 636.979 179.347 638.246 177.595 Q 639.519 175.836 639.519 172.535 Q 639.519 169.234 638.246 167.482 Q 636.979 165.730 634.577 165.730 Z M 634.577 160.480 Q 640.503 160.480 643.837 163.683 Q 647.171 166.878 647.171 172.535 Q 647.171 178.199 643.837 181.401 Q 640.503 184.597 634.577 184.597 Q 628.632 184.597 625.278 181.401 Q 621.925 178.199 621.925 172.535 Q 621.925 166.878 625.278 163.683 Q 628.632 160.480 634.577 160.480 Z" fill="#161513"/>
<line x1="120" y1="1745" x2="2680" y2="1745" stroke="#D9CEC0" stroke-width="5"/>
<path d="M 135.792 1836.146 Q 138.391 1836.146 139.518 1835.183 Q 140.646 1834.214 140.646 1832.000 Q 140.646 1829.807 139.518 1828.865 Q 138.391 1827.916 135.792 1827.916 L 132.313 1827.916 L 132.313 1836.146 L 135.792 1836.146 Z M 132.313 1841.859 L 132.313 1854.000 L 124.043 1854.000 L 124.043 1821.921 L 136.672 1821.921 Q 143.011 1821.921 145.960 1824.053 Q 148.916 1826.177 148.916 1830.776 Q 148.916 1833.953 147.376 1835.994 Q 145.843 1838.036 142.749 1839.006 Q 144.447 1839.391 145.788 1840.759 Q 147.136 1842.120 148.511 1844.891 L 153.000 1854.000 L 144.193 1854.000 L 140.281 1846.032 Q 139.099 1843.626 137.882 1842.746 Q 136.672 1841.859 134.651 1841.859 L 132.313 1841.859 Z M 157.923 1821.921 L 180.239 1821.921 L 180.239 1828.178 L 166.193 1828.178 L 166.193 1834.145 L 179.407 1834.145 L 179.407 1840.401 L 166.193 1840.401 L 166.193 1847.751 L 180.713 1847.751 L 180.713 1854.000 L 157.923 1854.000 L 157.923 1821.921 Z M 196.251 1828.178 L 196.251 1847.751 L 199.214 1847.751 Q 204.281 1847.751 206.955 1845.234 Q 209.636 1842.718 209.636 1837.926 Q 209.636 1833.162 206.969 1830.673 Q 204.308 1828.178 199.214 1828.178 L 196.251 1828.178 Z M 187.980 1821.921 L 196.697 1821.921 Q 204.006 1821.921 207.581 1822.966 Q 211.156 1824.004 213.713 1826.500 Q 215.968 1828.672 217.061 1831.512 Q 218.161 1834.344 218.161 1837.926 Q 218.161 1841.563 217.061 1844.409 Q 215.968 1847.256 213.713 1849.421 Q 211.135 1851.917 207.526 1852.962 Q 203.916 1854.000 196.697 1854.000 L 187.980 1854.000 L 187.980 1821.921 Z M 224.507 1821.921 L 232.778 1821.921 L 232.778 1841.151 Q 232.778 1845.124 234.077 1846.836 Q 235.376 1848.541 238.319 1848.541 Q 241.282 1848.541 242.581 1846.836 Q 243.881 1845.124 243.881 1841.151 L 243.881 1821.921 L 252.151 1821.921 L 252.151 1841.151 Q 252.151 1847.964 248.734 1851.298 Q 245.324 1854.626 238.319 1854.626 Q 231.334 1854.626 227.917 1851.298 Q 224.507 1847.964 224.507 1841.151 L 224.507 1821.921 Z M 285.674 1852.240 Q 283.391 1853.422 280.923 1854.021 Q 278.455 1854.626 275.767 1854.626 Q 267.751 1854.626 263.069 1850.143 Q 258.387 1845.661 258.387 1837.995 Q 258.387 1830.302 263.069 1825.826 Q 267.751 1821.344 275.767 1821.344 Q 278.455 1821.344 280.923 1821.949 Q 283.391 1822.547 285.674 1823.729 L 285.674 1830.364 Q 283.371 1828.796 281.136 1828.068 Q 278.902 1827.339 276.434 1827.339 Q 272.006 1827.339 269.469 1830.178 Q 266.939 1833.011 266.939 1837.995 Q 266.939 1842.959 269.469 1845.798 Q 272.006 1848.631 276.434 1848.631 Q 278.902 1848.631 281.136 1847.902 Q 283.371 1847.166 285.674 1845.599 L 285.674 1852.240 Z M 292.528 1821.921 L 300.799 1821.921 L 300.799 1854.000 L 292.528 1854.000 L 292.528 1821.921 Z M 308.898 1821.921 L 331.214 1821.921 L 331.214 1828.178 L 317.168 1828.178 L 317.168 1834.145 L 330.382 1834.145 L 330.382 1840.401 L 317.168 1840.401 L 317.168 1847.751 L 331.688 1847.751 L 331.688 1854.000 L 308.898 1854.000 L 308.898 1821.921 Z M 338.955 1821.921 L 348.188 1821.921 L 359.855 1843.921 L 359.855 1821.921 L 367.699 1821.921 L 367.699 1854.000 L 358.459 1854.000 L 346.793 1832.000 L 346.793 1854.000 L 338.955 1854.000 L 338.955 1821.921 Z M 384.048 1828.178 L 384.048 1847.751 L 387.011 1847.751 Q 392.078 1847.751 394.752 1845.234 Q 397.434 1842.718 397.434 1837.926 Q 397.434 1833.162 394.766 1830.673 Q 392.106 1828.178 387.011 1828.178 L 384.048 1828.178 Z M 375.778 1821.921 L 384.495 1821.921 Q 391.803 1821.921 395.378 1822.966 Q 398.953 1824.004 401.511 1826.500 Q 403.766 1828.672 404.859 1831.512 Q 405.959 1834.344 405.959 1837.926 Q 405.959 1841.563 404.859 1844.409 Q 403.766 1847.256 401.511 1849.421 Q 398.933 1851.917 395.323 1852.962 Q 391.714 1854.000 384.495 1854.000 L 375.778 1854.000 L 375.778 1821.921 Z M 426.955 1827.339 Q 423.174 1827.339 421.091 1830.130 Q 419.007 1832.921 419.007 1837.995 Q 419.007 1843.041 421.091 1845.839 Q 423.174 1848.631 426.955 1848.631 Q 430.757 1848.631 432.840 1845.839 Q 434.923 1843.041 434.923 1837.995 Q 434.923 1832.921 432.840 1830.130 Q 430.757 1827.339 426.955 1827.339 Z M 426.955 1821.344 Q 434.689 1821.344 439.069 1825.771 Q 443.455 1830.192 443.455 1837.995 Q 443.455 1845.771 439.069 1850.198 Q 434.689 1854.626 426.955 1854.626 Q 419.241 1854.626 414.848 1850.198 Q 410.455 1845.771 410.455 1837.995 Q 410.455 1830.192 414.848 1825.771 Q 419.241 1821.344 426.955 1821.344 Z M 457.982 1828.178 L 457.982 1847.751 L 460.945 1847.751 Q 466.012 1847.751 468.686 1845.234 Q 471.368 1842.718 471.368 1837.926 Q 471.368 1833.162 468.700 1830.673 Q 466.039 1828.178 460.945 1828.178 L 457.982 1828.178 Z M 449.711 1821.921 L 458.429 1821.921 Q 465.737 1821.921 469.312 1822.966 Q 472.887 1824.004 475.444 1826.500 Q 477.699 1828.672 478.793 1831.512 Q 479.892 1834.344 479.892 1837.926 Q 479.892 1841.563 478.793 1844.409 Q 477.699 1847.256 475.444 1849.421 Q 472.866 1851.917 469.257 1852.962 Q 465.647 1854.000 458.429 1854.000 L 449.711 1854.000 L 449.711 1821.921 Z M 505.701 1848.156 L 492.769 1848.156 L 490.728 1854.000 L 482.409 1854.000 L 494.289 1821.921 L 504.154 1821.921 L 516.034 1854.000 L 507.723 1854.000 L 505.701 1848.156 Z M 494.832 1842.203 L 503.618 1842.203 L 499.232 1829.443 L 494.832 1842.203 Z M 520.290 1821.921 L 529.523 1821.921 L 541.190 1843.921 L 541.190 1821.921 L 549.034 1821.921 L 549.034 1854.000 L 539.794 1854.000 L 528.128 1832.000 L 528.128 1854.000 L 520.290 1854.000 L 520.290 1821.921 Z M 571.763 1827.339 Q 567.982 1827.339 565.899 1830.130 Q 563.816 1832.921 563.816 1837.995 Q 563.816 1843.041 565.899 1845.839 Q 567.982 1848.631 571.763 1848.631 Q 575.565 1848.631 577.648 1845.839 Q 579.731 1843.041 579.731 1837.995 Q 579.731 1832.921 577.648 1830.130 Q 575.565 1827.339 571.763 1827.339 Z M 571.763 1821.344 Q 579.497 1821.344 583.877 1825.771 Q 588.263 1830.192 588.263 1837.995 Q 588.263 1845.771 583.877 1850.198 Q 579.497 1854.626 571.763 1854.626 Q 564.049 1854.626 559.656 1850.198 Q 555.263 1845.771 555.263 1837.995 Q 555.263 1830.192 559.656 1825.771 Q 564.049 1821.344 571.763 1821.344 Z M 593.997 1845.688 L 601.731 1845.688 L 601.731 1854.000 L 593.997 1854.000 L 593.997 1845.688 Z M 635.701 1852.240 Q 633.418 1853.422 630.950 1854.021 Q 628.482 1854.626 625.794 1854.626 Q 617.777 1854.626 613.096 1850.143 Q 608.414 1845.661 608.414 1837.995 Q 608.414 1830.302 613.096 1825.826 Q 617.777 1821.344 625.794 1821.344 Q 628.482 1821.344 630.950 1821.949 Q 633.418 1822.547 635.701 1823.729 L 635.701 1830.364 Q 633.398 1828.796 631.163 1828.068 Q 628.929 1827.339 626.461 1827.339 Q 622.033 1827.339 619.496 1830.178 Q 616.966 1833.011 616.966 1837.995 Q 616.966 1842.959 619.496 1845.798 Q 622.033 1848.631 626.461 1848.631 Q 628.929 1848.631 631.163 1847.902 Q 633.398 1847.166 635.701 1845.599 L 635.701 1852.240 Z M 642.555 1821.921 L 650.826 1821.921 L 650.826 1847.751 L 665.346 1847.751 L 665.346 1854.000 L 642.555 1854.000 L 642.555 1821.921 Z" fill="#173F2F"/>
</g>
<g id="elementos_documento">
<rect x="120" y="300" width="2560" height="1250" rx="60" fill="#FFF8ED" stroke="#D9CEC0" stroke-width="4"/>
<path d="M 201.760 454.680 L 228.620 454.680 L 262.560 518.680 L 262.560 454.680 L 285.380 454.680 L 285.380 548.000 L 258.500 548.000 L 224.560 484.000 L 224.560 548.000 L 201.760 548.000 L 201.760 454.680 Z M 351.500 470.440 Q 340.500 470.440 334.440 478.560 Q 328.380 486.680 328.380 501.440 Q 328.380 516.120 334.440 524.260 Q 340.500 532.380 351.500 532.380 Q 362.560 532.380 368.620 524.260 Q 374.680 516.120 374.680 501.440 Q 374.680 486.680 368.620 478.560 Q 362.560 470.440 351.500 470.440 Z M 351.500 453.000 Q 374.000 453.000 386.740 465.880 Q 399.500 478.740 399.500 501.440 Q 399.500 524.060 386.740 536.940 Q 374.000 549.820 351.500 549.820 Q 329.060 549.820 316.280 536.940 Q 303.500 524.060 303.500 501.440 Q 303.500 478.740 316.280 465.880 Q 329.060 453.000 351.500 453.000 Z M 417.700 454.680 L 448.320 454.680 L 469.560 504.620 L 490.940 454.680 L 521.500 454.680 L 521.500 548.000 L 498.760 548.000 L 498.760 479.740 L 477.260 530.060 L 462.000 530.060 L 440.500 479.740 L 440.500 548.000 L 417.700 548.000 L 417.700 454.680 Z M 582.440 490.820 Q 588.140 490.820 591.060 488.320 Q 594.000 485.820 594.000 480.940 Q 594.000 476.120 591.060 473.600 Q 588.140 471.060 582.440 471.060 L 569.140 471.060 L 569.140 490.820 L 582.440 490.820 Z M 583.260 531.620 Q 590.500 531.620 594.160 528.560 Q 597.820 525.500 597.820 519.320 Q 597.820 513.240 594.200 510.220 Q 590.580 507.180 583.260 507.180 L 569.140 507.180 L 569.140 531.620 L 583.260 531.620 Z M 605.640 498.060 Q 613.380 500.320 617.620 506.380 Q 621.880 512.440 621.880 521.240 Q 621.880 534.740 612.760 541.380 Q 603.640 548.000 585.000 548.000 L 545.080 548.000 L 545.080 454.680 L 581.200 454.680 Q 600.640 454.680 609.360 460.560 Q 618.080 466.440 618.080 479.380 Q 618.080 486.180 614.880 490.960 Q 611.700 495.740 605.640 498.060 Z M 676.820 496.060 Q 684.380 496.060 687.660 493.260 Q 690.940 490.440 690.940 484.000 Q 690.940 477.620 687.660 474.880 Q 684.380 472.120 676.820 472.120 L 666.700 472.120 L 666.700 496.060 L 676.820 496.060 Z M 666.700 512.680 L 666.700 548.000 L 642.640 548.000 L 642.640 454.680 L 679.380 454.680 Q 697.820 454.680 706.400 460.880 Q 715.000 467.060 715.000 480.440 Q 715.000 489.680 710.520 495.620 Q 706.060 501.560 697.060 504.380 Q 702.000 505.500 705.900 509.480 Q 709.820 513.440 713.820 521.500 L 726.880 548.000 L 701.260 548.000 L 689.880 524.820 Q 686.440 517.820 682.900 515.260 Q 679.380 512.680 673.500 512.680 L 666.700 512.680 Z M 741.200 454.680 L 806.120 454.680 L 806.120 472.880 L 765.260 472.880 L 765.260 490.240 L 803.700 490.240 L 803.700 508.440 L 765.260 508.440 L 765.260 529.820 L 807.500 529.820 L 807.500 548.000 L 741.200 548.000 L 741.200 454.680 Z M 873.200 454.680 L 913.120 454.680 Q 930.940 454.680 940.460 462.600 Q 950.000 470.500 950.000 485.120 Q 950.000 499.820 940.460 507.720 Q 930.940 515.620 913.120 515.620 L 897.260 515.620 L 897.260 548.000 L 873.200 548.000 L 873.200 454.680 Z M 897.260 472.120 L 897.260 498.180 L 910.560 498.180 Q 917.560 498.180 921.380 494.780 Q 925.200 491.380 925.200 485.120 Q 925.200 478.880 921.380 475.500 Q 917.560 472.120 910.560 472.120 L 897.260 472.120 Z M 1001.200 496.060 Q 1008.760 496.060 1012.040 493.260 Q 1015.320 490.440 1015.320 484.000 Q 1015.320 477.620 1012.040 474.880 Q 1008.760 472.120 1001.200 472.120 L 991.080 472.120 L 991.080 496.060 L 1001.200 496.060 Z M 991.080 512.680 L 991.080 548.000 L 967.020 548.000 L 967.020 454.680 L 1003.760 454.680 Q 1022.200 454.680 1030.780 460.880 Q 1039.380 467.060 1039.380 480.440 Q 1039.380 489.680 1034.900 495.620 Q 1030.440 501.560 1021.440 504.380 Q 1026.380 505.500 1030.280 509.480 Q 1034.200 513.440 1038.200 521.500 L 1051.260 548.000 L 1025.640 548.000 L 1014.260 524.820 Q 1010.820 517.820 1007.280 515.260 Q 1003.760 512.680 997.880 512.680 L 991.080 512.680 Z M 1108.200 470.440 Q 1097.200 470.440 1091.140 478.560 Q 1085.080 486.680 1085.080 501.440 Q 1085.080 516.120 1091.140 524.260 Q 1097.200 532.380 1108.200 532.380 Q 1119.260 532.380 1125.320 524.260 Q 1131.380 516.120 1131.380 501.440 Q 1131.380 486.680 1125.320 478.560 Q 1119.260 470.440 1108.200 470.440 Z M 1108.200 453.000 Q 1130.700 453.000 1143.440 465.880 Q 1156.200 478.740 1156.200 501.440 Q 1156.200 524.060 1143.440 536.940 Q 1130.700 549.820 1108.200 549.820 Q 1085.760 549.820 1072.980 536.940 Q 1060.200 524.060 1060.200 501.440 Q 1060.200 478.740 1072.980 465.880 Q 1085.760 453.000 1108.200 453.000 Z M 1198.460 472.880 L 1198.460 529.820 L 1207.080 529.820 Q 1221.820 529.820 1229.600 522.500 Q 1237.400 515.180 1237.400 501.240 Q 1237.400 487.380 1229.640 480.140 Q 1221.900 472.880 1207.080 472.880 L 1198.460 472.880 Z M 1174.400 454.680 L 1199.760 454.680 Q 1221.020 454.680 1231.420 457.720 Q 1241.820 460.740 1249.260 468.000 Q 1255.820 474.320 1259.000 482.580 Q 1262.200 490.820 1262.200 501.240 Q 1262.200 511.820 1259.000 520.100 Q 1255.820 528.380 1249.260 534.680 Q 1241.760 541.940 1231.260 544.980 Q 1220.760 548.000 1199.760 548.000 L 1174.400 548.000 L 1174.400 454.680 Z M 1280.660 454.680 L 1304.720 454.680 L 1304.720 510.620 Q 1304.720 522.180 1308.500 527.160 Q 1312.280 532.120 1320.840 532.120 Q 1329.460 532.120 1333.240 527.160 Q 1337.020 522.180 1337.020 510.620 L 1337.020 454.680 L 1361.080 454.680 L 1361.080 510.620 Q 1361.080 530.440 1351.140 540.140 Q 1341.220 549.820 1320.840 549.820 Q 1300.520 549.820 1290.580 540.140 Q 1280.660 530.440 1280.660 510.620 L 1280.660 454.680 Z M 1458.600 542.880 Q 1451.960 546.320 1444.780 548.060 Q 1437.600 549.820 1429.780 549.820 Q 1406.460 549.820 1392.840 536.780 Q 1379.220 523.740 1379.220 501.440 Q 1379.220 479.060 1392.840 466.040 Q 1406.460 453.000 1429.780 453.000 Q 1437.600 453.000 1444.780 454.760 Q 1451.960 456.500 1458.600 459.940 L 1458.600 479.240 Q 1451.900 474.680 1445.400 472.560 Q 1438.900 470.440 1431.720 470.440 Q 1418.840 470.440 1411.460 478.700 Q 1404.100 486.940 1404.100 501.440 Q 1404.100 515.880 1411.460 524.140 Q 1418.840 532.380 1431.720 532.380 Q 1438.900 532.380 1445.400 530.260 Q 1451.900 528.120 1458.600 523.560 L 1458.600 542.880 Z M 1467.400 454.680 L 1553.400 454.680 L 1553.400 472.880 L 1522.460 472.880 L 1522.460 548.000 L 1498.400 548.000 L 1498.400 472.880 L 1467.400 472.880 L 1467.400 454.680 Z M 1608.480 470.440 Q 1597.480 470.440 1591.420 478.560 Q 1585.360 486.680 1585.360 501.440 Q 1585.360 516.120 1591.420 524.260 Q 1597.480 532.380 1608.480 532.380 Q 1619.540 532.380 1625.600 524.260 Q 1631.660 516.120 1631.660 501.440 Q 1631.660 486.680 1625.600 478.560 Q 1619.540 470.440 1608.480 470.440 Z M 1608.480 453.000 Q 1630.980 453.000 1643.720 465.880 Q 1656.480 478.740 1656.480 501.440 Q 1656.480 524.060 1643.720 536.940 Q 1630.980 549.820 1608.480 549.820 Q 1586.040 549.820 1573.260 536.940 Q 1560.480 524.060 1560.480 501.440 Q 1560.480 478.740 1573.260 465.880 Q 1586.040 453.000 1608.480 453.000 Z" fill="#161513"/>
<path d="M 210.229 668.306 L 210.229 697.783 L 216.429 697.783 Q 224.278 697.783 227.917 694.232 Q 231.558 690.674 231.558 683.004 Q 231.558 675.391 227.917 671.848 Q 224.278 668.306 216.429 668.306 L 210.229 668.306 Z M 205.102 664.089 L 215.641 664.089 Q 226.658 664.089 231.809 668.671 Q 236.969 673.254 236.969 683.004 Q 236.969 692.811 231.785 697.409 Q 226.609 702.000 215.641 702.000 L 205.102 702.000 L 205.102 664.089 Z M 269.266 686.611 L 269.266 688.894 L 247.783 688.894 Q 248.092 693.721 250.692 696.247 Q 253.292 698.774 257.939 698.774 Q 260.629 698.774 263.156 698.116 Q 265.683 697.458 268.177 696.134 L 268.177 700.554 Q 265.658 701.618 263.017 702.179 Q 260.377 702.739 257.663 702.739 Q 250.854 702.739 246.881 698.783 Q 242.908 694.817 242.908 688.058 Q 242.908 681.078 246.678 676.983 Q 250.448 672.880 256.851 672.880 Q 262.587 672.880 265.926 676.577 Q 269.266 680.266 269.266 686.611 Z M 264.594 685.238 Q 264.545 681.411 262.449 679.128 Q 260.353 676.837 256.899 676.837 Q 252.991 676.837 250.643 679.047 Q 248.295 681.257 247.938 685.271 L 264.594 685.238 Z M 295.062 674.399 L 295.062 678.819 Q 293.088 677.804 290.951 677.300 Q 288.822 676.788 286.531 676.788 Q 283.054 676.788 281.315 677.852 Q 279.576 678.917 279.576 681.054 Q 279.576 682.679 280.819 683.605 Q 282.062 684.531 285.824 685.368 L 287.425 685.726 Q 292.398 686.790 294.494 688.732 Q 296.590 690.674 296.590 694.151 Q 296.590 698.116 293.454 700.432 Q 290.317 702.739 284.833 702.739 Q 282.550 702.739 280.072 702.293 Q 277.594 701.846 274.856 700.960 L 274.856 696.134 Q 277.447 697.482 279.958 698.157 Q 282.469 698.823 284.939 698.823 Q 288.238 698.823 290.009 697.694 Q 291.788 696.564 291.788 694.509 Q 291.788 692.607 290.504 691.592 Q 289.229 690.576 284.882 689.634 L 283.257 689.252 Q 278.918 688.342 276.984 686.449 Q 275.059 684.556 275.059 681.257 Q 275.059 677.243 277.903 675.066 Q 280.746 672.880 285.979 672.880 Q 288.562 672.880 290.846 673.262 Q 293.137 673.636 295.062 674.399 Z M 324.491 674.651 L 324.491 679.023 Q 322.509 677.926 320.518 677.381 Q 318.528 676.837 316.496 676.837 Q 311.946 676.837 309.428 679.721 Q 306.917 682.597 306.917 687.806 Q 306.917 693.014 309.428 695.898 Q 311.946 698.774 316.496 698.774 Q 318.528 698.774 320.518 698.230 Q 322.509 697.686 324.491 696.589 L 324.491 700.911 Q 322.533 701.821 320.437 702.276 Q 318.349 702.739 315.984 702.739 Q 309.558 702.739 305.771 698.701 Q 301.993 694.663 301.993 687.806 Q 301.993 680.851 305.812 676.869 Q 309.639 672.880 316.293 672.880 Q 318.446 672.880 320.502 673.327 Q 322.558 673.766 324.491 674.651 Z M 349.094 677.926 Q 348.306 677.471 347.379 677.259 Q 346.453 677.040 345.340 677.040 Q 341.375 677.040 339.254 679.616 Q 337.134 682.191 337.134 687.018 L 337.134 702.000 L 332.438 702.000 L 332.438 673.562 L 337.134 673.562 L 337.134 677.982 Q 338.613 675.391 340.969 674.139 Q 343.333 672.880 346.713 672.880 Q 347.192 672.880 347.778 672.945 Q 348.363 673.002 349.069 673.132 L 349.094 677.926 Z M 353.993 673.562 L 358.665 673.562 L 358.665 702.000 L 353.993 702.000 L 353.993 673.562 Z M 353.993 662.488 L 358.665 662.488 L 358.665 668.411 L 353.993 668.411 L 353.993 662.488 Z M 372.957 697.734 L 372.957 712.814 L 368.261 712.814 L 368.261 673.562 L 372.957 673.562 L 372.957 677.877 Q 374.436 675.342 376.678 674.115 Q 378.929 672.880 382.049 672.880 Q 387.233 672.880 390.466 676.991 Q 393.708 681.102 393.708 687.806 Q 393.708 694.509 390.466 698.628 Q 387.233 702.739 382.049 702.739 Q 378.929 702.739 376.678 701.504 Q 374.436 700.269 372.957 697.734 Z M 388.858 687.806 Q 388.858 682.654 386.737 679.721 Q 384.616 676.788 380.911 676.788 Q 377.198 676.788 375.077 679.721 Q 372.957 682.654 372.957 687.806 Q 372.957 692.957 375.077 695.890 Q 377.198 698.823 380.911 698.823 Q 384.616 698.823 386.737 695.890 Q 388.858 692.957 388.858 687.806 Z M 421.918 674.651 L 421.918 679.023 Q 419.936 677.926 417.945 677.381 Q 415.954 676.837 413.923 676.837 Q 409.373 676.837 406.854 679.721 Q 404.344 682.597 404.344 687.806 Q 404.344 693.014 406.854 695.898 Q 409.373 698.774 413.923 698.774 Q 415.954 698.774 417.945 698.230 Q 419.936 697.686 421.918 696.589 L 421.918 700.911 Q 419.960 701.821 417.864 702.276 Q 415.776 702.739 413.411 702.739 Q 406.984 702.739 403.198 698.701 Q 399.420 694.663 399.420 687.806 Q 399.420 680.851 403.239 676.869 Q 407.066 672.880 413.720 672.880 Q 415.873 672.880 417.929 673.327 Q 419.984 673.766 421.918 674.651 Z M 430.043 673.562 L 434.715 673.562 L 434.715 702.000 L 430.043 702.000 L 430.043 673.562 Z M 430.043 662.488 L 434.715 662.488 L 434.715 668.411 L 430.043 668.411 L 430.043 662.488 Z M 455.507 676.837 Q 451.753 676.837 449.567 679.770 Q 447.382 682.703 447.382 687.806 Q 447.382 692.908 449.551 695.841 Q 451.729 698.774 455.507 698.774 Q 459.244 698.774 461.422 695.833 Q 463.608 692.884 463.608 687.806 Q 463.608 682.752 461.422 679.794 Q 459.244 676.837 455.507 676.837 Z M 455.507 672.880 Q 461.601 672.880 465.078 676.845 Q 468.564 680.802 468.564 687.806 Q 468.564 694.785 465.078 698.766 Q 461.601 702.739 455.507 702.739 Q 449.389 702.739 445.919 698.766 Q 442.458 694.785 442.458 687.806 Q 442.458 680.802 445.919 676.845 Q 449.389 672.880 455.507 672.880 Z M 459.033 660.408 L 464.087 660.408 L 455.816 669.955 L 451.924 669.955 L 459.033 660.408 Z M 499.951 684.832 L 499.951 702.000 L 495.279 702.000 L 495.279 684.986 Q 495.279 680.948 493.702 678.949 Q 492.126 676.942 488.982 676.942 Q 485.196 676.942 483.010 679.356 Q 480.824 681.761 480.824 685.929 L 480.824 702.000 L 476.128 702.000 L 476.128 673.562 L 480.824 673.562 L 480.824 677.982 Q 482.506 675.415 484.773 674.148 Q 487.048 672.880 490.022 672.880 Q 494.921 672.880 497.432 675.911 Q 499.951 678.941 499.951 684.832 Z M 546.206 687.806 Q 546.206 682.654 544.086 679.721 Q 541.965 676.788 538.260 676.788 Q 534.547 676.788 532.426 679.721 Q 530.306 682.654 530.306 687.806 Q 530.306 692.957 532.426 695.890 Q 534.547 698.823 538.260 698.823 Q 541.965 698.823 544.086 695.890 Q 546.206 692.957 546.206 687.806 Z M 530.306 677.877 Q 531.784 675.342 534.027 674.115 Q 536.278 672.880 539.398 672.880 Q 544.581 672.880 547.815 676.991 Q 551.057 681.102 551.057 687.806 Q 551.057 694.509 547.815 698.628 Q 544.581 702.739 539.398 702.739 Q 536.278 702.739 534.027 701.504 Q 531.784 700.269 530.306 697.734 L 530.306 702.000 L 525.609 702.000 L 525.609 662.488 L 530.306 662.488 L 530.306 677.877 Z M 575.278 677.926 Q 574.489 677.471 573.563 677.259 Q 572.637 677.040 571.524 677.040 Q 567.559 677.040 565.438 679.616 Q 563.317 682.191 563.317 687.018 L 563.317 702.000 L 558.621 702.000 L 558.621 673.562 L 563.317 673.562 L 563.317 677.982 Q 564.796 675.391 567.153 674.139 Q 569.517 672.880 572.897 672.880 Q 573.376 672.880 573.961 672.945 Q 574.546 673.002 575.253 673.132 L 575.278 677.926 Z M 603.358 686.611 L 603.358 688.894 L 581.875 688.894 Q 582.184 693.721 584.784 696.247 Q 587.384 698.774 592.031 698.774 Q 594.721 698.774 597.247 698.116 Q 599.774 697.458 602.269 696.134 L 602.269 700.554 Q 599.750 701.618 597.109 702.179 Q 594.469 702.739 591.755 702.739 Q 584.946 702.739 580.973 698.783 Q 577.000 694.817 577.000 688.058 Q 577.000 681.078 580.770 676.983 Q 584.540 672.880 590.942 672.880 Q 596.679 672.880 600.018 676.577 Q 603.358 680.266 603.358 686.611 Z M 598.686 685.238 Q 598.637 681.411 596.541 679.128 Q 594.444 676.837 590.991 676.837 Q 587.083 676.837 584.735 679.047 Q 582.387 681.257 582.029 685.271 L 598.686 685.238 Z M 607.680 673.562 L 612.628 673.562 L 621.517 697.426 L 630.406 673.562 L 635.354 673.562 L 624.686 702.000 L 618.340 702.000 L 607.680 673.562 Z M 666.131 686.611 L 666.131 688.894 L 644.649 688.894 Q 644.957 693.721 647.558 696.247 Q 650.158 698.774 654.805 698.774 Q 657.494 698.774 660.021 698.116 Q 662.548 697.458 665.043 696.134 L 665.043 700.554 Q 662.524 701.618 659.883 702.179 Q 657.243 702.739 654.529 702.739 Q 647.720 702.739 643.747 698.783 Q 639.774 694.817 639.774 688.058 Q 639.774 681.078 643.544 676.983 Q 647.314 672.880 653.716 672.880 Q 659.453 672.880 662.792 676.577 Q 666.131 680.266 666.131 686.611 Z M 661.459 685.238 Q 661.411 681.411 659.314 679.128 Q 657.218 676.837 653.765 676.837 Q 649.857 676.837 647.509 679.047 Q 645.161 681.257 644.803 685.271 L 661.459 685.238 Z M 709.039 677.877 L 709.039 662.488 L 713.711 662.488 L 713.711 702.000 L 709.039 702.000 L 709.039 697.734 Q 707.569 700.269 705.318 701.504 Q 703.076 702.739 699.923 702.739 Q 694.772 702.739 691.530 698.628 Q 688.296 694.509 688.296 687.806 Q 688.296 681.102 691.530 676.991 Q 694.772 672.880 699.923 672.880 Q 703.076 672.880 705.318 674.115 Q 707.569 675.342 709.039 677.877 Z M 693.122 687.806 Q 693.122 692.957 695.243 695.890 Q 697.364 698.823 701.069 698.823 Q 704.774 698.823 706.903 695.890 Q 709.039 692.957 709.039 687.806 Q 709.039 682.654 706.903 679.721 Q 704.774 676.788 701.069 676.788 Q 697.364 676.788 695.243 679.721 Q 693.122 682.654 693.122 687.806 Z M 747.666 686.611 L 747.666 688.894 L 726.183 688.894 Q 726.492 693.721 729.092 696.247 Q 731.692 698.774 736.339 698.774 Q 739.029 698.774 741.556 698.116 Q 744.082 697.458 746.577 696.134 L 746.577 700.554 Q 744.058 701.618 741.418 702.179 Q 738.777 702.739 736.063 702.739 Q 729.254 702.739 725.281 698.783 Q 721.308 694.817 721.308 688.058 Q 721.308 681.078 725.078 676.983 Q 728.848 672.880 735.251 672.880 Q 740.987 672.880 744.326 676.577 Q 747.666 680.266 747.666 686.611 Z M 742.994 685.238 Q 742.945 681.411 740.849 679.128 Q 738.753 676.837 735.299 676.837 Q 731.391 676.837 729.043 679.047 Q 726.695 681.257 726.337 685.271 L 742.994 685.238 Z M 755.336 662.488 L 760.008 662.488 L 760.008 702.000 L 755.336 702.000 L 755.336 662.488 Z M 790.826 697.734 L 790.826 712.814 L 786.129 712.814 L 786.129 673.562 L 790.826 673.562 L 790.826 677.877 Q 792.304 675.342 794.547 674.115 Q 796.798 672.880 799.918 672.880 Q 805.101 672.880 808.335 676.991 Q 811.577 681.102 811.577 687.806 Q 811.577 694.509 808.335 698.628 Q 805.101 702.739 799.918 702.739 Q 796.798 702.739 794.547 701.504 Q 792.304 700.269 790.826 697.734 Z M 806.726 687.806 Q 806.726 682.654 804.606 679.721 Q 802.485 676.788 798.780 676.788 Q 795.067 676.788 792.946 679.721 Q 790.826 682.654 790.826 687.806 Q 790.826 692.957 792.946 695.890 Q 795.067 698.823 798.780 698.823 Q 802.485 698.823 804.606 695.890 Q 806.726 692.957 806.726 687.806 Z M 835.798 677.926 Q 835.009 677.471 834.083 677.259 Q 833.157 677.040 832.044 677.040 Q 828.079 677.040 825.958 679.616 Q 823.837 682.191 823.837 687.018 L 823.837 702.000 L 819.141 702.000 L 819.141 673.562 L 823.837 673.562 L 823.837 677.982 Q 825.316 675.391 827.673 674.139 Q 830.037 672.880 833.417 672.880 Q 833.896 672.880 834.481 672.945 Q 835.066 673.002 835.773 673.132 L 835.798 677.926 Z M 850.569 676.837 Q 846.815 676.837 844.629 679.770 Q 842.444 682.703 842.444 687.806 Q 842.444 692.908 844.613 695.841 Q 846.791 698.774 850.569 698.774 Q 854.306 698.774 856.484 695.833 Q 858.669 692.884 858.669 687.806 Q 858.669 682.752 856.484 679.794 Q 854.306 676.837 850.569 676.837 Z M 850.569 672.880 Q 856.663 672.880 860.140 676.845 Q 863.626 680.802 863.626 687.806 Q 863.626 694.785 860.140 698.766 Q 856.663 702.739 850.569 702.739 Q 844.451 702.739 840.981 698.766 Q 837.520 694.785 837.520 687.806 Q 837.520 680.802 840.981 676.845 Q 844.451 672.880 850.569 672.880 Z M 890.081 677.877 L 890.081 662.488 L 894.753 662.488 L 894.753 702.000 L 890.081 702.000 L 890.081 697.734 Q 888.610 700.269 886.359 701.504 Q 884.117 702.739 880.964 702.739 Q 875.813 702.739 872.571 698.628 Q 869.337 694.509 869.337 687.806 Q 869.337 681.102 872.571 676.991 Q 875.813 672.880 880.964 672.880 Q 884.117 672.880 886.359 674.115 Q 888.610 675.342 890.081 677.877 Z M 874.164 687.806 Q 874.164 692.957 876.284 695.890 Q 878.405 698.823 882.110 698.823 Q 885.815 698.823 887.944 695.890 Q 890.081 692.957 890.081 687.806 Q 890.081 682.654 887.944 679.721 Q 885.815 676.788 882.110 676.788 Q 878.405 676.788 876.284 679.721 Q 874.164 682.654 874.164 687.806 Z M 903.901 690.779 L 903.901 673.562 L 908.573 673.562 L 908.573 690.601 Q 908.573 694.639 910.141 696.662 Q 911.717 698.677 914.870 698.677 Q 918.648 698.677 920.842 696.264 Q 923.044 693.851 923.044 689.683 L 923.044 673.562 L 927.716 673.562 L 927.716 702.000 L 923.044 702.000 L 923.044 697.629 Q 921.346 700.221 919.095 701.480 Q 916.853 702.739 913.879 702.739 Q 908.979 702.739 906.436 699.692 Q 903.901 696.646 903.901 690.779 Z M 915.658 672.880 L 915.658 672.880 Z M 957.803 674.651 L 957.803 679.023 Q 955.820 677.926 953.829 677.381 Q 951.839 676.837 949.808 676.837 Q 945.258 676.837 942.739 679.721 Q 940.228 682.597 940.228 687.806 Q 940.228 693.014 942.739 695.898 Q 945.258 698.774 949.808 698.774 Q 951.839 698.774 953.829 698.230 Q 955.820 697.686 957.803 696.589 L 957.803 700.911 Q 955.844 701.821 953.748 702.276 Q 951.660 702.739 949.296 702.739 Q 942.869 702.739 939.082 698.701 Q 935.304 694.663 935.304 687.806 Q 935.304 680.851 939.123 676.869 Q 942.950 672.880 949.604 672.880 Q 951.758 672.880 953.813 673.327 Q 955.869 673.766 957.803 674.651 Z M 970.551 665.486 L 970.551 673.562 L 980.171 673.562 L 980.171 677.194 L 970.551 677.194 L 970.551 692.632 Q 970.551 696.109 971.501 697.101 Q 972.452 698.092 975.377 698.092 L 980.171 698.092 L 980.171 702.000 L 975.377 702.000 Q 969.966 702.000 967.910 699.985 Q 965.854 697.962 965.854 692.632 L 965.854 677.194 L 962.426 677.194 L 962.426 673.562 L 965.854 673.562 L 965.854 665.486 L 970.551 665.486 Z M 997.331 676.837 Q 993.577 676.837 991.391 679.770 Q 989.206 682.703 989.206 687.806 Q 989.206 692.908 991.375 695.841 Q 993.553 698.774 997.331 698.774 Q 1001.068 698.774 1003.246 695.833 Q 1005.431 692.884 1005.431 687.806 Q 1005.431 682.752 1003.246 679.794 Q 1001.068 676.837 997.331 676.837 Z M 997.331 672.880 Q 1003.424 672.880 1006.902 676.845 Q 1010.388 680.802 1010.388 687.806 Q 1010.388 694.785 1006.902 698.766 Q 1003.424 702.739 997.331 702.739 Q 991.212 702.739 987.743 698.766 Q 984.282 694.785 984.282 687.806 Q 984.282 680.802 987.743 676.845 Q 991.212 672.880 997.331 672.880 Z M 1017.879 695.549 L 1023.241 695.549 L 1023.241 702.000 L 1017.879 702.000 L 1017.879 695.549 Z M 1078.865 667.014 L 1078.865 672.417 Q 1076.273 670.004 1073.340 668.817 Q 1070.407 667.623 1067.108 667.623 Q 1060.608 667.623 1057.155 671.596 Q 1053.702 675.569 1053.702 683.085 Q 1053.702 690.576 1057.155 694.549 Q 1060.608 698.523 1067.108 698.523 Q 1070.407 698.523 1073.340 697.328 Q 1076.273 696.134 1078.865 693.721 L 1078.865 699.083 Q 1076.176 700.911 1073.161 701.829 Q 1070.155 702.739 1066.807 702.739 Q 1058.195 702.739 1053.239 697.474 Q 1048.291 692.201 1048.291 683.085 Q 1048.291 673.944 1053.239 668.679 Q 1058.195 663.406 1066.807 663.406 Q 1070.204 663.406 1073.210 664.308 Q 1076.224 665.210 1078.865 667.014 Z M 1099.511 687.708 Q 1093.848 687.708 1091.662 689.000 Q 1089.476 690.292 1089.476 693.420 Q 1089.476 695.906 1091.118 697.369 Q 1092.759 698.823 1095.570 698.823 Q 1099.462 698.823 1101.810 696.069 Q 1104.158 693.314 1104.158 688.748 L 1104.158 687.708 L 1099.511 687.708 Z M 1108.830 685.774 L 1108.830 702.000 L 1104.158 702.000 L 1104.158 697.686 Q 1102.557 700.269 1100.169 701.504 Q 1097.780 702.739 1094.327 702.739 Q 1089.964 702.739 1087.380 700.286 Q 1084.804 697.832 1084.804 693.721 Q 1084.804 688.927 1088.014 686.489 Q 1091.231 684.052 1097.601 684.052 L 1104.158 684.052 L 1104.158 683.589 Q 1104.158 680.363 1102.037 678.600 Q 1099.917 676.837 1096.082 676.837 Q 1093.644 676.837 1091.329 677.422 Q 1089.021 678.007 1086.892 679.177 L 1086.892 674.854 Q 1089.452 673.863 1091.865 673.376 Q 1094.278 672.880 1096.561 672.880 Q 1102.736 672.880 1105.783 676.081 Q 1108.830 679.274 1108.830 685.774 Z M 1140.591 679.023 Q 1142.346 675.870 1144.783 674.375 Q 1147.221 672.880 1150.519 672.880 Q 1154.964 672.880 1157.377 675.992 Q 1159.790 679.096 1159.790 684.832 L 1159.790 702.000 L 1155.094 702.000 L 1155.094 684.986 Q 1155.094 680.899 1153.639 678.925 Q 1152.193 676.942 1149.227 676.942 Q 1145.596 676.942 1143.483 679.356 Q 1141.379 681.761 1141.379 685.929 L 1141.379 702.000 L 1136.682 702.000 L 1136.682 684.986 Q 1136.682 680.875 1135.236 678.909 Q 1133.790 676.942 1130.767 676.942 Q 1127.184 676.942 1125.072 679.364 Q 1122.968 681.785 1122.968 685.929 L 1122.968 702.000 L 1118.271 702.000 L 1118.271 673.562 L 1122.968 673.562 L 1122.968 677.982 Q 1124.568 675.366 1126.803 674.123 Q 1129.037 672.880 1132.108 672.880 Q 1135.212 672.880 1137.381 674.456 Q 1139.551 676.024 1140.591 679.023 Z M 1189.519 687.806 Q 1189.519 682.654 1187.399 679.721 Q 1185.278 676.788 1181.573 676.788 Q 1177.860 676.788 1175.739 679.721 Q 1173.619 682.654 1173.619 687.806 Q 1173.619 692.957 1175.739 695.890 Q 1177.860 698.823 1181.573 698.823 Q 1185.278 698.823 1187.399 695.890 Q 1189.519 692.957 1189.519 687.806 Z M 1173.619 677.877 Q 1175.098 675.342 1177.340 674.115 Q 1179.591 672.880 1182.711 672.880 Q 1187.894 672.880 1191.128 676.991 Q 1194.370 681.102 1194.370 687.806 Q 1194.370 694.509 1191.128 698.628 Q 1187.894 702.739 1182.711 702.739 Q 1179.591 702.739 1177.340 701.504 Q 1175.098 700.269 1173.619 697.734 L 1173.619 702.000 L 1168.923 702.000 L 1168.923 662.488 L 1173.619 662.488 L 1173.619 677.877 Z M 1202.113 673.562 L 1206.785 673.562 L 1206.785 702.000 L 1202.113 702.000 L 1202.113 673.562 Z M 1202.113 662.488 L 1206.785 662.488 L 1206.785 668.411 L 1202.113 668.411 L 1202.113 662.488 Z M 1229.486 687.708 Q 1223.823 687.708 1221.638 689.000 Q 1219.452 690.292 1219.452 693.420 Q 1219.452 695.906 1221.093 697.369 Q 1222.734 698.823 1225.546 698.823 Q 1229.438 698.823 1231.786 696.069 Q 1234.134 693.314 1234.134 688.748 L 1234.134 687.708 L 1229.486 687.708 Z M 1238.806 685.774 L 1238.806 702.000 L 1234.134 702.000 L 1234.134 697.686 Q 1232.533 700.269 1230.144 701.504 Q 1227.756 702.739 1224.303 702.739 Q 1219.939 702.739 1217.356 700.286 Q 1214.780 697.832 1214.780 693.721 Q 1214.780 688.927 1217.989 686.489 Q 1221.207 684.052 1227.577 684.052 L 1234.134 684.052 L 1234.134 683.589 Q 1234.134 680.363 1232.013 678.600 Q 1229.892 676.837 1226.058 676.837 Q 1223.620 676.837 1221.304 677.422 Q 1218.997 678.007 1216.868 679.177 L 1216.868 674.854 Q 1219.428 673.863 1221.841 673.376 Q 1224.254 672.880 1226.537 672.880 Q 1232.712 672.880 1235.759 676.081 Q 1238.806 679.274 1238.806 685.774 Z M 1289.278 686.611 L 1289.278 688.894 L 1267.796 688.894 Q 1268.104 693.721 1270.704 696.247 Q 1273.304 698.774 1277.952 698.774 Q 1280.641 698.774 1283.168 698.116 Q 1285.695 697.458 1288.189 696.134 L 1288.189 700.554 Q 1285.671 701.618 1283.030 702.179 Q 1280.389 702.739 1277.676 702.739 Q 1270.867 702.739 1266.894 698.783 Q 1262.921 694.817 1262.921 688.058 Q 1262.921 681.078 1266.691 676.983 Q 1270.461 672.880 1276.863 672.880 Q 1282.599 672.880 1285.939 676.577 Q 1289.278 680.266 1289.278 686.611 Z M 1284.606 685.238 Q 1284.558 681.411 1282.461 679.128 Q 1280.365 676.837 1276.912 676.837 Q 1273.004 676.837 1270.656 679.047 Q 1268.308 681.257 1267.950 685.271 L 1284.606 685.238 Z M 1315.075 674.399 L 1315.075 678.819 Q 1313.101 677.804 1310.964 677.300 Q 1308.835 676.788 1306.544 676.788 Q 1303.066 676.788 1301.328 677.852 Q 1299.589 678.917 1299.589 681.054 Q 1299.589 682.679 1300.832 683.605 Q 1302.075 684.531 1305.837 685.368 L 1307.438 685.726 Q 1312.410 686.790 1314.506 688.732 Q 1316.602 690.674 1316.602 694.151 Q 1316.602 698.116 1313.466 700.432 Q 1310.330 702.739 1304.846 702.739 Q 1302.562 702.739 1300.084 702.293 Q 1297.606 701.846 1294.868 700.960 L 1294.868 696.134 Q 1297.460 697.482 1299.971 698.157 Q 1302.481 698.823 1304.951 698.823 Q 1308.250 698.823 1310.021 697.694 Q 1311.801 696.564 1311.801 694.509 Q 1311.801 692.607 1310.517 691.592 Q 1309.241 690.576 1304.894 689.634 L 1303.269 689.252 Q 1298.931 688.342 1296.997 686.449 Q 1295.071 684.556 1295.071 681.257 Q 1295.071 677.243 1297.915 675.066 Q 1300.759 672.880 1305.991 672.880 Q 1308.575 672.880 1310.858 673.262 Q 1313.149 673.636 1315.075 674.399 Z M 1328.660 665.486 L 1328.660 673.562 L 1338.280 673.562 L 1338.280 677.194 L 1328.660 677.194 L 1328.660 692.632 Q 1328.660 696.109 1329.611 697.101 Q 1330.561 698.092 1333.486 698.092 L 1338.280 698.092 L 1338.280 702.000 L 1333.486 702.000 Q 1328.075 702.000 1326.019 699.985 Q 1323.964 697.962 1323.964 692.632 L 1323.964 677.194 L 1320.535 677.194 L 1320.535 673.562 L 1323.964 673.562 L 1323.964 665.486 L 1328.660 665.486 Z M 1368.749 686.611 L 1368.749 688.894 L 1347.266 688.894 Q 1347.575 693.721 1350.175 696.247 Q 1352.775 698.774 1357.423 698.774 Q 1360.112 698.774 1362.639 698.116 Q 1365.166 697.458 1367.660 696.134 L 1367.660 700.554 Q 1365.141 701.618 1362.501 702.179 Q 1359.860 702.739 1357.146 702.739 Q 1350.338 702.739 1346.364 698.783 Q 1342.391 694.817 1342.391 688.058 Q 1342.391 681.078 1346.161 676.983 Q 1349.931 672.880 1356.334 672.880 Q 1362.070 672.880 1365.409 676.577 Q 1368.749 680.266 1368.749 686.611 Z M 1364.077 685.238 Q 1364.028 681.411 1361.932 679.128 Q 1359.836 676.837 1356.382 676.837 Q 1352.474 676.837 1350.126 679.047 Q 1347.778 681.257 1347.421 685.271 L 1364.077 685.238 Z M 1397.568 665.486 L 1397.568 673.562 L 1407.188 673.562 L 1407.188 677.194 L 1397.568 677.194 L 1397.568 692.632 Q 1397.568 696.109 1398.519 697.101 Q 1399.469 698.092 1402.394 698.092 L 1407.188 698.092 L 1407.188 702.000 L 1402.394 702.000 Q 1396.983 702.000 1394.928 699.985 Q 1392.872 697.962 1392.872 692.632 L 1392.872 677.194 L 1389.443 677.194 L 1389.443 673.562 L 1392.872 673.562 L 1392.872 665.486 L 1397.568 665.486 Z M 1437.657 686.611 L 1437.657 688.894 L 1416.174 688.894 Q 1416.483 693.721 1419.083 696.247 Q 1421.683 698.774 1426.331 698.774 Q 1429.020 698.774 1431.547 698.116 Q 1434.074 697.458 1436.568 696.134 L 1436.568 700.554 Q 1434.049 701.618 1431.409 702.179 Q 1428.768 702.739 1426.054 702.739 Q 1419.246 702.739 1415.273 698.783 Q 1411.299 694.817 1411.299 688.058 Q 1411.299 681.078 1415.069 676.983 Q 1418.839 672.880 1425.242 672.880 Q 1430.978 672.880 1434.318 676.577 Q 1437.657 680.266 1437.657 686.611 Z M 1432.985 685.238 Q 1432.936 681.411 1430.840 679.128 Q 1428.744 676.837 1425.291 676.837 Q 1421.382 676.837 1419.034 679.047 Q 1416.686 681.257 1416.329 685.271 L 1432.985 685.238 Z M 1468.061 673.562 L 1457.774 687.399 L 1468.589 702.000 L 1463.080 702.000 L 1454.801 690.828 L 1446.529 702.000 L 1441.013 702.000 L 1452.062 687.123 L 1441.955 673.562 L 1447.464 673.562 L 1455.004 683.694 L 1462.544 673.562 L 1468.061 673.562 Z M 1479.818 665.486 L 1479.818 673.562 L 1489.438 673.562 L 1489.438 677.194 L 1479.818 677.194 L 1479.818 692.632 Q 1479.818 696.109 1480.768 697.101 Q 1481.719 698.092 1484.644 698.092 L 1489.438 698.092 L 1489.438 702.000 L 1484.644 702.000 Q 1479.233 702.000 1477.177 699.985 Q 1475.121 697.962 1475.121 692.632 L 1475.121 677.194 L 1471.693 677.194 L 1471.693 673.562 L 1475.121 673.562 L 1475.121 665.486 L 1479.818 665.486 Z M 1506.598 676.837 Q 1502.844 676.837 1500.658 679.770 Q 1498.473 682.703 1498.473 687.806 Q 1498.473 692.908 1500.642 695.841 Q 1502.819 698.774 1506.598 698.774 Q 1510.335 698.774 1512.513 695.833 Q 1514.698 692.884 1514.698 687.806 Q 1514.698 682.752 1512.513 679.794 Q 1510.335 676.837 1506.598 676.837 Z M 1506.598 672.880 Q 1512.691 672.880 1516.169 676.845 Q 1519.654 680.802 1519.654 687.806 Q 1519.654 694.785 1516.169 698.766 Q 1512.691 702.739 1506.598 702.739 Q 1500.479 702.739 1497.010 698.766 Q 1493.549 694.785 1493.549 687.806 Q 1493.549 680.802 1497.010 676.845 Q 1500.479 672.880 1506.598 672.880 Z M 1562.636 677.877 L 1562.636 662.488 L 1567.308 662.488 L 1567.308 702.000 L 1562.636 702.000 L 1562.636 697.734 Q 1561.165 700.269 1558.914 701.504 Q 1556.672 702.739 1553.519 702.739 Q 1548.368 702.739 1545.126 698.628 Q 1541.893 694.509 1541.893 687.806 Q 1541.893 681.102 1545.126 676.991 Q 1548.368 672.880 1553.519 672.880 Q 1556.672 672.880 1558.914 674.115 Q 1561.165 675.342 1562.636 677.877 Z M 1546.719 687.806 Q 1546.719 692.957 1548.839 695.890 Q 1550.960 698.823 1554.665 698.823 Q 1558.370 698.823 1560.499 695.890 Q 1562.636 692.957 1562.636 687.806 Q 1562.636 682.654 1560.499 679.721 Q 1558.370 676.788 1554.665 676.788 Q 1550.960 676.788 1548.839 679.721 Q 1546.719 682.654 1546.719 687.806 Z M 1601.262 686.611 L 1601.262 688.894 L 1579.779 688.894 Q 1580.088 693.721 1582.688 696.247 Q 1585.288 698.774 1589.936 698.774 Q 1592.625 698.774 1595.152 698.116 Q 1597.679 697.458 1600.173 696.134 L 1600.173 700.554 Q 1597.654 701.618 1595.014 702.179 Q 1592.373 702.739 1589.659 702.739 Q 1582.851 702.739 1578.878 698.783 Q 1574.904 694.817 1574.904 688.058 Q 1574.904 681.078 1578.674 676.983 Q 1582.444 672.880 1588.847 672.880 Q 1594.583 672.880 1597.923 676.577 Q 1601.262 680.266 1601.262 686.611 Z M 1596.590 685.238 Q 1596.541 681.411 1594.445 679.128 Q 1592.349 676.837 1588.896 676.837 Q 1584.987 676.837 1582.639 679.047 Q 1580.291 681.257 1579.934 685.271 L 1596.590 685.238 Z M 1627.059 674.399 L 1627.059 678.819 Q 1625.084 677.804 1622.947 677.300 Q 1620.819 676.788 1618.528 676.788 Q 1615.050 676.788 1613.311 677.852 Q 1611.572 678.917 1611.572 681.054 Q 1611.572 682.679 1612.816 683.605 Q 1614.059 684.531 1617.821 685.368 L 1619.421 685.726 Q 1624.394 686.790 1626.490 688.732 Q 1628.586 690.674 1628.586 694.151 Q 1628.586 698.116 1625.450 700.432 Q 1622.314 702.739 1616.829 702.739 Q 1614.546 702.739 1612.068 702.293 Q 1609.590 701.846 1606.852 700.960 L 1606.852 696.134 Q 1609.444 697.482 1611.954 698.157 Q 1614.465 698.823 1616.935 698.823 Q 1620.234 698.823 1622.005 697.694 Q 1623.784 696.564 1623.784 694.509 Q 1623.784 692.607 1622.501 691.592 Q 1621.225 690.576 1616.878 689.634 L 1615.253 689.252 Q 1610.914 688.342 1608.981 686.449 Q 1607.055 684.556 1607.055 681.257 Q 1607.055 677.243 1609.899 675.066 Q 1612.743 672.880 1617.975 672.880 Q 1620.559 672.880 1622.842 673.262 Q 1625.133 673.636 1627.059 674.399 Z M 1654.733 677.877 L 1654.733 662.488 L 1659.404 662.488 L 1659.404 702.000 L 1654.733 702.000 L 1654.733 697.734 Q 1653.262 700.269 1651.011 701.504 Q 1648.769 702.739 1645.616 702.739 Q 1640.465 702.739 1637.223 698.628 Q 1633.989 694.509 1633.989 687.806 Q 1633.989 681.102 1637.223 676.991 Q 1640.465 672.880 1645.616 672.880 Q 1648.769 672.880 1651.011 674.115 Q 1653.262 675.342 1654.733 677.877 Z M 1638.816 687.806 Q 1638.816 692.957 1640.936 695.890 Q 1643.057 698.823 1646.762 698.823 Q 1650.467 698.823 1652.596 695.890 Q 1654.733 692.957 1654.733 687.806 Q 1654.733 682.654 1652.596 679.721 Q 1650.467 676.788 1646.762 676.788 Q 1643.057 676.788 1640.936 679.721 Q 1638.816 682.654 1638.816 687.806 Z M 1693.359 686.611 L 1693.359 688.894 L 1671.876 688.894 Q 1672.185 693.721 1674.785 696.247 Q 1677.385 698.774 1682.033 698.774 Q 1684.722 698.774 1687.249 698.116 Q 1689.776 697.458 1692.270 696.134 L 1692.270 700.554 Q 1689.751 701.618 1687.111 702.179 Q 1684.470 702.739 1681.756 702.739 Q 1674.947 702.739 1670.974 698.783 Q 1667.001 694.817 1667.001 688.058 Q 1667.001 681.078 1670.771 676.983 Q 1674.541 672.880 1680.944 672.880 Q 1686.680 672.880 1690.019 676.577 Q 1693.359 680.266 1693.359 686.611 Z M 1688.687 685.238 Q 1688.638 681.411 1686.542 679.128 Q 1684.446 676.837 1680.993 676.837 Q 1677.084 676.837 1674.736 679.047 Q 1672.388 681.257 1672.031 685.271 L 1688.687 685.238 Z M 1741.881 686.611 L 1741.881 688.894 L 1720.399 688.894 Q 1720.707 693.721 1723.308 696.247 Q 1725.908 698.774 1730.555 698.774 Q 1733.244 698.774 1735.771 698.116 Q 1738.298 697.458 1740.793 696.134 L 1740.793 700.554 Q 1738.274 701.618 1735.633 702.179 Q 1732.993 702.739 1730.279 702.739 Q 1723.470 702.739 1719.497 698.783 Q 1715.524 694.817 1715.524 688.058 Q 1715.524 681.078 1719.294 676.983 Q 1723.064 672.880 1729.466 672.880 Q 1735.203 672.880 1738.542 676.577 Q 1741.881 680.266 1741.881 686.611 Z M 1737.209 685.238 Q 1737.161 681.411 1735.064 679.128 Q 1732.968 676.837 1729.515 676.837 Q 1725.607 676.837 1723.259 679.047 Q 1720.911 681.257 1720.553 685.271 L 1737.209 685.238 Z M 1749.551 662.488 L 1754.223 662.488 L 1754.223 702.000 L 1749.551 702.000 L 1749.551 662.488 Z" fill="#675F55"/>
<path d="M 205.102 734.089 L 210.229 734.089 L 210.229 769.359 Q 210.229 776.217 207.629 779.312 Q 205.029 782.408 199.261 782.408 L 197.311 782.408 L 197.311 778.094 L 198.911 778.094 Q 202.308 778.094 203.705 776.184 Q 205.102 774.283 205.102 769.359 L 205.102 734.089 Z M 243.168 735.332 L 243.168 740.337 Q 240.251 738.939 237.659 738.257 Q 235.067 737.566 232.654 737.566 Q 228.470 737.566 226.195 739.191 Q 223.920 740.816 223.920 743.814 Q 223.920 746.333 225.431 747.617 Q 226.942 748.893 231.159 749.681 L 234.255 750.314 Q 239.991 751.411 242.721 754.166 Q 245.451 756.920 245.451 761.535 Q 245.451 767.052 241.754 769.896 Q 238.066 772.739 230.932 772.739 Q 228.243 772.739 225.204 772.130 Q 222.173 771.521 218.923 770.326 L 218.923 765.045 Q 222.043 766.792 225.041 767.686 Q 228.039 768.571 230.932 768.571 Q 235.319 768.571 237.708 766.849 Q 240.097 765.118 240.097 761.917 Q 240.097 759.130 238.382 757.554 Q 236.668 755.977 232.760 755.189 L 229.632 754.580 Q 223.896 753.442 221.328 751.005 Q 218.769 748.567 218.769 744.221 Q 218.769 739.191 222.311 736.299 Q 225.854 733.406 232.069 733.406 Q 234.743 733.406 237.505 733.894 Q 240.276 734.373 243.168 735.332 Z M 268.843 737.566 Q 263.253 737.566 259.962 741.734 Q 256.680 745.894 256.680 753.085 Q 256.680 760.243 259.962 764.411 Q 263.253 768.571 268.843 768.571 Q 274.425 768.571 277.691 764.411 Q 280.957 760.243 280.957 753.085 Q 280.957 745.894 277.691 741.734 Q 274.425 737.566 268.843 737.566 Z M 268.843 733.406 Q 276.814 733.406 281.583 738.753 Q 286.361 744.099 286.361 753.085 Q 286.361 762.047 281.583 767.393 Q 276.814 772.739 268.843 772.739 Q 260.848 772.739 256.054 767.409 Q 251.269 762.071 251.269 753.085 Q 251.269 744.099 256.054 738.753 Q 260.848 733.406 268.843 733.406 Z M 294.388 734.089 L 301.294 734.089 L 318.105 765.801 L 318.105 734.089 L 323.077 734.089 L 323.077 772.000 L 316.171 772.000 L 299.369 740.288 L 299.369 772.000 L 294.388 772.000 L 294.388 734.089 Z M 361.444 774.641 Q 359.469 779.719 357.584 781.263 Q 355.707 782.814 352.563 782.814 L 348.826 782.814 L 348.826 778.906 L 351.572 778.906 Q 353.498 778.906 354.562 777.988 Q 355.634 777.078 356.926 773.674 L 357.763 771.545 L 346.266 743.562 L 351.214 743.562 L 360.103 765.801 L 368.992 743.562 L 373.940 743.562 L 361.444 774.641 Z M 413.395 747.926 Q 412.607 747.471 411.681 747.259 Q 410.754 747.040 409.641 747.040 Q 405.676 747.040 403.556 749.616 Q 401.435 752.191 401.435 757.018 L 401.435 772.000 L 396.739 772.000 L 396.739 743.562 L 401.435 743.562 L 401.435 747.982 Q 402.914 745.391 405.270 744.139 Q 407.634 742.880 411.014 742.880 Q 411.494 742.880 412.079 742.945 Q 412.664 743.002 413.371 743.132 L 413.395 747.926 Z M 441.475 756.611 L 441.475 758.894 L 419.993 758.894 Q 420.301 763.721 422.901 766.247 Q 425.501 768.774 430.149 768.774 Q 432.838 768.774 435.365 768.116 Q 437.892 767.458 440.386 766.134 L 440.386 770.554 Q 437.868 771.618 435.227 772.179 Q 432.586 772.739 429.873 772.739 Q 423.064 772.739 419.091 768.783 Q 415.118 764.817 415.118 758.058 Q 415.118 751.078 418.888 746.983 Q 422.658 742.880 429.060 742.880 Q 434.796 742.880 438.136 746.577 Q 441.475 750.266 441.475 756.611 Z M 436.803 755.238 Q 436.754 751.411 434.658 749.128 Q 432.562 746.837 429.109 746.837 Q 425.201 746.837 422.853 749.047 Q 420.504 751.257 420.147 755.271 L 436.803 755.238 Z M 467.857 757.448 Q 467.857 752.370 465.761 749.583 Q 463.673 746.788 459.886 746.788 Q 456.132 746.788 454.036 749.583 Q 451.940 752.370 451.940 757.448 Q 451.940 762.502 454.036 765.297 Q 456.132 768.092 459.886 768.092 Q 463.673 768.092 465.761 765.297 Q 467.857 762.502 467.857 757.448 Z M 472.529 768.474 Q 472.529 775.729 469.303 779.272 Q 466.086 782.814 459.431 782.814 Q 456.969 782.814 454.784 782.449 Q 452.598 782.083 450.543 781.319 L 450.543 776.778 Q 452.598 777.891 454.605 778.419 Q 456.612 778.955 458.692 778.955 Q 463.291 778.955 465.574 776.558 Q 467.857 774.161 467.857 769.311 L 467.857 766.995 Q 466.411 769.514 464.152 770.757 Q 461.893 772.000 458.741 772.000 Q 453.516 772.000 450.315 768.019 Q 447.114 764.029 447.114 757.448 Q 447.114 750.851 450.315 746.869 Q 453.516 742.880 458.741 742.880 Q 461.893 742.880 464.152 744.123 Q 466.411 745.366 467.857 747.877 L 467.857 743.562 L 472.529 743.562 L 472.529 768.474 Z M 506.483 756.611 L 506.483 758.894 L 485.001 758.894 Q 485.309 763.721 487.909 766.247 Q 490.509 768.774 495.157 768.774 Q 497.846 768.774 500.373 768.116 Q 502.900 767.458 505.394 766.134 L 505.394 770.554 Q 502.876 771.618 500.235 772.179 Q 497.594 772.739 494.881 772.739 Q 488.072 772.739 484.099 768.783 Q 480.126 764.817 480.126 758.058 Q 480.126 751.078 483.896 746.983 Q 487.666 742.880 494.068 742.880 Q 499.804 742.880 503.144 746.577 Q 506.483 750.266 506.483 756.611 Z M 501.811 755.238 Q 501.762 751.411 499.666 749.128 Q 497.570 746.837 494.117 746.837 Q 490.209 746.837 487.861 749.047 Q 485.512 751.257 485.155 755.271 L 501.811 755.238 Z M 537.797 754.832 L 537.797 772.000 L 533.125 772.000 L 533.125 754.986 Q 533.125 750.948 531.549 748.949 Q 529.973 746.942 526.828 746.942 Q 523.042 746.942 520.856 749.356 Q 518.671 751.761 518.671 755.929 L 518.671 772.000 L 513.974 772.000 L 513.974 743.562 L 518.671 743.562 L 518.671 747.982 Q 520.352 745.415 522.619 744.148 Q 524.894 742.880 527.868 742.880 Q 532.767 742.880 535.278 745.911 Q 537.797 748.941 537.797 754.832 Z M 571.434 756.611 L 571.434 758.894 L 549.952 758.894 Q 550.261 763.721 552.861 766.247 Q 555.461 768.774 560.108 768.774 Q 562.798 768.774 565.324 768.116 Q 567.851 767.458 570.346 766.134 L 570.346 770.554 Q 567.827 771.618 565.186 772.179 Q 562.546 772.739 559.832 772.739 Q 553.023 772.739 549.050 768.783 Q 545.077 764.817 545.077 758.058 Q 545.077 751.078 548.847 746.983 Q 552.617 742.880 559.019 742.880 Q 564.756 742.880 568.095 746.577 Q 571.434 750.266 571.434 756.611 Z M 566.763 755.238 Q 566.714 751.411 564.618 749.128 Q 562.521 746.837 559.068 746.837 Q 555.160 746.837 552.812 749.047 Q 550.464 751.257 550.106 755.271 L 566.763 755.238 Z M 595.582 747.926 Q 594.794 747.471 593.868 747.259 Q 592.941 747.040 591.828 747.040 Q 587.863 747.040 585.743 749.616 Q 583.622 752.191 583.622 757.018 L 583.622 772.000 L 578.926 772.000 L 578.926 743.562 L 583.622 743.562 L 583.622 747.982 Q 585.101 745.391 587.457 744.139 Q 589.821 742.880 593.201 742.880 Q 593.681 742.880 594.266 742.945 Q 594.851 743.002 595.558 743.132 L 595.582 747.926 Z M 613.408 757.708 Q 607.745 757.708 605.559 759.000 Q 603.374 760.292 603.374 763.420 Q 603.374 765.906 605.015 767.369 Q 606.656 768.823 609.467 768.823 Q 613.359 768.823 615.707 766.069 Q 618.056 763.314 618.056 758.748 L 618.056 757.708 L 613.408 757.708 Z M 622.727 755.774 L 622.727 772.000 L 618.056 772.000 L 618.056 767.686 Q 616.455 770.269 614.066 771.504 Q 611.678 772.739 608.224 772.739 Q 603.861 772.739 601.278 770.286 Q 598.702 767.832 598.702 763.721 Q 598.702 758.927 601.911 756.489 Q 605.129 754.052 611.499 754.052 L 618.056 754.052 L 618.056 753.589 Q 618.056 750.363 615.935 748.600 Q 613.814 746.837 609.979 746.837 Q 607.542 746.837 605.226 747.422 Q 602.919 748.007 600.790 749.177 L 600.790 744.854 Q 603.349 743.863 605.763 743.376 Q 608.176 742.880 610.459 742.880 Q 616.634 742.880 619.681 746.081 Q 622.727 749.274 622.727 755.774 Z M 648.874 732.488 L 653.546 732.488 L 653.546 772.000 L 648.874 772.000 L 648.874 732.488 Z M 674.338 746.837 Q 670.584 746.837 668.398 749.770 Q 666.213 752.703 666.213 757.806 Q 666.213 762.908 668.382 765.841 Q 670.559 768.774 674.338 768.774 Q 678.075 768.774 680.253 765.833 Q 682.438 762.884 682.438 757.806 Q 682.438 752.752 680.253 749.794 Q 678.075 746.837 674.338 746.837 Z M 674.338 742.880 Q 680.431 742.880 683.909 746.845 Q 687.394 750.802 687.394 757.806 Q 687.394 764.785 683.909 768.766 Q 680.431 772.739 674.338 772.739 Q 668.219 772.739 664.750 768.766 Q 661.289 764.785 661.289 757.806 Q 661.289 750.802 664.750 746.845 Q 668.219 742.880 674.338 742.880 Z M 713.264 744.399 L 713.264 748.819 Q 711.290 747.804 709.153 747.300 Q 707.024 746.788 704.733 746.788 Q 701.256 746.788 699.517 747.852 Q 697.778 748.917 697.778 751.054 Q 697.778 752.679 699.021 753.605 Q 700.264 754.531 704.026 755.368 L 705.627 755.726 Q 710.599 756.790 712.696 758.732 Q 714.792 760.674 714.792 764.151 Q 714.792 768.116 711.656 770.432 Q 708.519 772.739 703.035 772.739 Q 700.752 772.739 698.274 772.293 Q 695.796 771.846 693.058 770.960 L 693.058 766.134 Q 695.649 767.482 698.160 768.157 Q 700.671 768.823 703.141 768.823 Q 706.439 768.823 708.211 767.694 Q 709.990 766.564 709.990 764.509 Q 709.990 762.607 708.706 761.592 Q 707.431 760.576 703.084 759.634 L 701.459 759.252 Q 697.120 758.342 695.186 756.449 Q 693.261 754.556 693.261 751.257 Q 693.261 747.243 696.104 745.066 Q 698.948 742.880 704.181 742.880 Q 706.764 742.880 709.048 743.262 Q 711.339 743.636 713.264 744.399 Z M 751.679 757.708 Q 746.016 757.708 743.831 759.000 Q 741.645 760.292 741.645 763.420 Q 741.645 765.906 743.286 767.369 Q 744.928 768.823 747.739 768.823 Q 751.631 768.823 753.979 766.069 Q 756.327 763.314 756.327 758.748 L 756.327 757.708 L 751.679 757.708 Z M 760.999 755.774 L 760.999 772.000 L 756.327 772.000 L 756.327 767.686 Q 754.726 770.269 752.337 771.504 Q 749.949 772.739 746.496 772.739 Q 742.133 772.739 739.549 770.286 Q 736.973 767.832 736.973 763.721 Q 736.973 758.927 740.183 756.489 Q 743.400 754.052 749.770 754.052 L 756.327 754.052 L 756.327 753.589 Q 756.327 750.363 754.206 748.600 Q 752.086 746.837 748.251 746.837 Q 745.813 746.837 743.498 747.422 Q 741.190 748.007 739.061 749.177 L 739.061 744.854 Q 741.621 743.863 744.034 743.376 Q 746.447 742.880 748.730 742.880 Q 754.905 742.880 757.952 746.081 Q 760.999 749.274 760.999 755.774 Z M 787.096 747.926 Q 786.308 747.471 785.382 747.259 Q 784.456 747.040 783.342 747.040 Q 779.378 747.040 777.257 749.616 Q 775.136 752.191 775.136 757.018 L 775.136 772.000 L 770.440 772.000 L 770.440 743.562 L 775.136 743.562 L 775.136 747.982 Q 776.615 745.391 778.971 744.139 Q 781.336 742.880 784.716 742.880 Q 785.195 742.880 785.780 742.945 Q 786.365 743.002 787.072 743.132 L 787.096 747.926 Z M 811.317 744.651 L 811.317 749.023 Q 809.334 747.926 807.344 747.381 Q 805.353 746.837 803.322 746.837 Q 798.772 746.837 796.253 749.721 Q 793.743 752.597 793.743 757.806 Q 793.743 763.014 796.253 765.898 Q 798.772 768.774 803.322 768.774 Q 805.353 768.774 807.344 768.230 Q 809.334 767.686 811.317 766.589 L 811.317 770.911 Q 809.359 771.821 807.263 772.276 Q 805.174 772.739 802.810 772.739 Q 796.383 772.739 792.597 768.701 Q 788.819 764.663 788.819 757.806 Q 788.819 750.851 792.638 746.869 Q 796.464 742.880 803.119 742.880 Q 805.272 742.880 807.327 743.327 Q 809.383 743.766 811.317 744.651 Z M 843.086 754.832 L 843.086 772.000 L 838.414 772.000 L 838.414 754.986 Q 838.414 750.948 836.837 748.949 Q 835.261 746.942 832.117 746.942 Q 828.331 746.942 826.145 749.356 Q 823.959 751.761 823.959 755.929 L 823.959 772.000 L 819.263 772.000 L 819.263 732.488 L 823.959 732.488 L 823.959 747.982 Q 825.641 745.415 827.908 744.148 Q 830.183 742.880 833.157 742.880 Q 838.056 742.880 840.567 745.911 Q 843.086 748.941 843.086 754.832 Z M 852.397 743.562 L 857.069 743.562 L 857.069 772.000 L 852.397 772.000 L 852.397 743.562 Z M 852.397 732.488 L 857.069 732.488 L 857.069 738.411 L 852.397 738.411 L 852.397 732.488 Z M 863.496 743.562 L 868.444 743.562 L 877.332 767.426 L 886.221 743.562 L 891.169 743.562 L 880.501 772.000 L 874.156 772.000 L 863.496 743.562 Z M 908.638 746.837 Q 904.884 746.837 902.699 749.770 Q 900.513 752.703 900.513 757.806 Q 900.513 762.908 902.683 765.841 Q 904.860 768.774 908.638 768.774 Q 912.376 768.774 914.553 765.833 Q 916.739 762.884 916.739 757.806 Q 916.739 752.752 914.553 749.794 Q 912.376 746.837 908.638 746.837 Z M 908.638 742.880 Q 914.732 742.880 918.209 746.845 Q 921.695 750.802 921.695 757.806 Q 921.695 764.785 918.209 768.766 Q 914.732 772.739 908.638 772.739 Q 902.520 772.739 899.051 768.766 Q 895.589 764.785 895.589 757.806 Q 895.589 750.802 899.051 746.845 Q 902.520 742.880 908.638 742.880 Z M 947.565 744.399 L 947.565 748.819 Q 945.591 747.804 943.454 747.300 Q 941.325 746.788 939.034 746.788 Q 935.556 746.788 933.817 747.852 Q 932.079 748.917 932.079 751.054 Q 932.079 752.679 933.322 753.605 Q 934.565 754.531 938.327 755.368 L 939.928 755.726 Q 944.900 756.790 946.996 758.732 Q 949.092 760.674 949.092 764.151 Q 949.092 768.116 945.956 770.432 Q 942.820 772.739 937.336 772.739 Q 935.053 772.739 932.574 772.293 Q 930.096 771.846 927.358 770.960 L 927.358 766.134 Q 929.950 767.482 932.461 768.157 Q 934.971 768.823 937.441 768.823 Q 940.740 768.823 942.511 767.694 Q 944.291 766.564 944.291 764.509 Q 944.291 762.607 943.007 761.592 Q 941.731 760.576 937.384 759.634 L 935.759 759.252 Q 931.421 758.342 929.487 756.449 Q 927.561 754.556 927.561 751.257 Q 927.561 747.243 930.405 745.066 Q 933.249 742.880 938.481 742.880 Q 941.065 742.880 943.348 743.262 Q 945.639 743.636 947.565 744.399 Z M 957.185 765.549 L 962.548 765.549 L 962.548 772.000 L 957.185 772.000 L 957.185 765.549 Z" fill="#675F55"/>
<path d="M 205.762 905.119 Q 205.762 903.669 206.281 902.400 Q 206.800 901.131 207.794 900.156 Q 208.831 899.163 210.100 898.644 Q 211.369 898.125 212.794 898.125 Q 214.219 898.125 215.494 898.656 Q 216.775 899.181 217.756 900.156 Q 218.769 901.169 219.287 902.431 Q 219.806 903.694 219.806 905.119 Q 219.806 906.562 219.275 907.844 Q 218.750 909.119 217.756 910.119 Q 216.756 911.112 215.475 911.644 Q 214.200 912.169 212.756 912.169 Q 211.331 912.169 210.056 911.644 Q 208.787 911.112 207.794 910.119 Q 206.819 909.119 206.287 907.844 Q 205.762 906.562 205.762 905.119 Z" fill="#161513"/>
<path d="M 249.925 890.837 L 253.869 890.837 L 253.869 920.000 L 249.925 920.000 L 249.925 890.837 Z M 279.756 906.794 L 279.756 920.000 L 276.163 920.000 L 276.163 906.913 Q 276.163 903.806 274.950 902.269 Q 273.738 900.725 271.319 900.725 Q 268.406 900.725 266.725 902.581 Q 265.044 904.431 265.044 907.638 L 265.044 920.000 L 261.431 920.000 L 261.431 898.125 L 265.044 898.125 L 265.044 901.525 Q 266.337 899.550 268.081 898.575 Q 269.831 897.600 272.119 897.600 Q 275.887 897.600 277.819 899.931 Q 279.756 902.263 279.756 906.794 Z M 301.312 908.806 Q 301.312 904.900 299.700 902.756 Q 298.094 900.606 295.181 900.606 Q 292.294 900.606 290.681 902.756 Q 289.069 904.900 289.069 908.806 Q 289.069 912.694 290.681 914.844 Q 292.294 916.994 295.181 916.994 Q 298.094 916.994 299.700 914.844 Q 301.312 912.694 301.312 908.806 Z M 304.906 917.288 Q 304.906 922.869 302.425 925.594 Q 299.950 928.319 294.831 928.319 Q 292.938 928.319 291.256 928.038 Q 289.575 927.756 287.994 927.169 L 287.994 923.675 Q 289.575 924.531 291.119 924.938 Q 292.663 925.350 294.262 925.350 Q 297.800 925.350 299.556 923.506 Q 301.312 921.663 301.312 917.931 L 301.312 916.150 Q 300.200 918.087 298.462 919.044 Q 296.725 920.000 294.300 920.000 Q 290.281 920.000 287.819 916.938 Q 285.356 913.869 285.356 908.806 Q 285.356 903.731 287.819 900.669 Q 290.281 897.600 294.300 897.600 Q 296.725 897.600 298.462 898.556 Q 300.200 899.513 301.312 901.444 L 301.312 898.125 L 304.906 898.125 L 304.906 917.288 Z M 324.988 901.481 Q 324.381 901.131 323.669 900.969 Q 322.956 900.800 322.100 900.800 Q 319.050 900.800 317.419 902.781 Q 315.788 904.763 315.788 908.475 L 315.788 920.000 L 312.175 920.000 L 312.175 898.125 L 315.788 898.125 L 315.788 901.525 Q 316.925 899.531 318.738 898.569 Q 320.556 897.600 323.156 897.600 Q 323.525 897.600 323.975 897.650 Q 324.425 897.694 324.969 897.794 L 324.988 901.481 Z M 346.587 908.163 L 346.587 909.919 L 330.062 909.919 Q 330.300 913.631 332.300 915.575 Q 334.300 917.519 337.875 917.519 Q 339.944 917.519 341.887 917.013 Q 343.831 916.506 345.750 915.487 L 345.750 918.888 Q 343.812 919.706 341.781 920.138 Q 339.750 920.569 337.663 920.569 Q 332.425 920.569 329.369 917.525 Q 326.312 914.475 326.312 909.275 Q 326.312 903.906 329.212 900.756 Q 332.113 897.600 337.038 897.600 Q 341.450 897.600 344.019 900.444 Q 346.587 903.281 346.587 908.163 Z M 342.994 907.106 Q 342.956 904.163 341.344 902.406 Q 339.731 900.644 337.075 900.644 Q 334.069 900.644 332.262 902.344 Q 330.456 904.044 330.181 907.131 L 342.994 907.106 Z M 366.881 901.444 L 366.881 889.606 L 370.475 889.606 L 370.475 920.000 L 366.881 920.000 L 366.881 916.719 Q 365.750 918.669 364.019 919.619 Q 362.294 920.569 359.869 920.569 Q 355.906 920.569 353.413 917.406 Q 350.925 914.237 350.925 909.081 Q 350.925 903.925 353.413 900.763 Q 355.906 897.600 359.869 897.600 Q 362.294 897.600 364.019 898.550 Q 365.750 899.494 366.881 901.444 Z M 354.637 909.081 Q 354.637 913.044 356.269 915.300 Q 357.900 917.556 360.750 917.556 Q 363.600 917.556 365.238 915.300 Q 366.881 913.044 366.881 909.081 Q 366.881 905.119 365.238 902.862 Q 363.600 900.606 360.750 900.606 Q 357.900 900.606 356.269 902.862 Q 354.637 905.119 354.637 909.081 Z M 377.881 898.125 L 381.475 898.125 L 381.475 920.000 L 377.881 920.000 L 377.881 898.125 Z M 377.881 889.606 L 381.475 889.606 L 381.475 894.163 L 377.881 894.163 L 377.881 889.606 Z M 407.706 908.163 L 407.706 909.919 L 391.181 909.919 Q 391.419 913.631 393.419 915.575 Q 395.419 917.519 398.994 917.519 Q 401.062 917.519 403.006 917.013 Q 404.950 916.506 406.869 915.487 L 406.869 918.888 Q 404.931 919.706 402.900 920.138 Q 400.869 920.569 398.781 920.569 Q 393.544 920.569 390.488 917.525 Q 387.431 914.475 387.431 909.275 Q 387.431 903.906 390.331 900.756 Q 393.231 897.600 398.156 897.600 Q 402.569 897.600 405.138 900.444 Q 407.706 903.281 407.706 908.163 Z M 404.113 907.106 Q 404.075 904.163 402.462 902.406 Q 400.850 900.644 398.194 900.644 Q 395.188 900.644 393.381 902.344 Q 391.575 904.044 391.300 907.131 L 404.113 907.106 Z M 431.794 906.794 L 431.794 920.000 L 428.200 920.000 L 428.200 906.913 Q 428.200 903.806 426.988 902.269 Q 425.775 900.725 423.356 900.725 Q 420.444 900.725 418.763 902.581 Q 417.081 904.431 417.081 907.638 L 417.081 920.000 L 413.469 920.000 L 413.469 898.125 L 417.081 898.125 L 417.081 901.525 Q 418.375 899.550 420.119 898.575 Q 421.869 897.600 424.156 897.600 Q 427.925 897.600 429.856 899.931 Q 431.794 902.263 431.794 906.794 Z M 442.513 891.913 L 442.513 898.125 L 449.913 898.125 L 449.913 900.919 L 442.513 900.919 L 442.513 912.794 Q 442.513 915.469 443.244 916.231 Q 443.975 916.994 446.225 916.994 L 449.913 916.994 L 449.913 920.000 L 446.225 920.000 Q 442.062 920.000 440.481 918.450 Q 438.900 916.894 438.900 912.794 L 438.900 900.919 L 436.263 900.919 L 436.263 898.125 L 438.900 898.125 L 438.900 891.913 L 442.513 891.913 Z M 473.350 908.163 L 473.350 909.919 L 456.825 909.919 Q 457.062 913.631 459.062 915.575 Q 461.062 917.519 464.638 917.519 Q 466.706 917.519 468.650 917.013 Q 470.594 916.506 472.513 915.487 L 472.513 918.888 Q 470.575 919.706 468.544 920.138 Q 466.513 920.569 464.425 920.569 Q 459.188 920.569 456.131 917.525 Q 453.075 914.475 453.075 909.275 Q 453.075 903.906 455.975 900.756 Q 458.875 897.600 463.800 897.600 Q 468.212 897.600 470.781 900.444 Q 473.350 903.281 473.350 908.163 Z M 469.756 907.106 Q 469.719 904.163 468.106 902.406 Q 466.494 900.644 463.837 900.644 Q 460.831 900.644 459.025 902.344 Q 457.219 904.044 456.944 907.131 L 469.756 907.106 Z M 500.438 900.644 Q 497.550 900.644 495.869 902.900 Q 494.188 905.156 494.188 909.081 Q 494.188 913.006 495.856 915.263 Q 497.531 917.519 500.438 917.519 Q 503.312 917.519 504.988 915.256 Q 506.669 912.987 506.669 909.081 Q 506.669 905.194 504.988 902.919 Q 503.312 900.644 500.438 900.644 Z M 500.438 897.600 Q 505.125 897.600 507.800 900.650 Q 510.481 903.694 510.481 909.081 Q 510.481 914.450 507.800 917.513 Q 505.125 920.569 500.438 920.569 Q 495.731 920.569 493.062 917.513 Q 490.400 914.450 490.400 909.081 Q 490.400 903.694 493.062 900.650 Q 495.731 897.600 500.438 897.600 Z M 539.094 909.006 Q 534.737 909.006 533.056 910.000 Q 531.375 910.994 531.375 913.400 Q 531.375 915.312 532.638 916.438 Q 533.900 917.556 536.062 917.556 Q 539.056 917.556 540.862 915.438 Q 542.669 913.319 542.669 909.806 L 542.669 909.006 L 539.094 909.006 Z M 546.263 907.519 L 546.263 920.000 L 542.669 920.000 L 542.669 916.681 Q 541.438 918.669 539.600 919.619 Q 537.763 920.569 535.106 920.569 Q 531.750 920.569 529.763 918.681 Q 527.781 916.794 527.781 913.631 Q 527.781 909.944 530.250 908.069 Q 532.725 906.194 537.625 906.194 L 542.669 906.194 L 542.669 905.837 Q 542.669 903.356 541.038 902.000 Q 539.406 900.644 536.456 900.644 Q 534.581 900.644 532.800 901.094 Q 531.025 901.544 529.388 902.444 L 529.388 899.119 Q 531.356 898.356 533.213 897.981 Q 535.069 897.600 536.825 897.600 Q 541.575 897.600 543.919 900.062 Q 546.263 902.519 546.263 907.519 Z M 569.406 898.962 L 569.406 902.325 Q 567.881 901.481 566.350 901.062 Q 564.819 900.644 563.256 900.644 Q 559.756 900.644 557.819 902.862 Q 555.888 905.075 555.888 909.081 Q 555.888 913.087 557.819 915.306 Q 559.756 917.519 563.256 917.519 Q 564.819 917.519 566.350 917.100 Q 567.881 916.681 569.406 915.837 L 569.406 919.163 Q 567.900 919.862 566.288 920.212 Q 564.681 920.569 562.862 920.569 Q 557.919 920.569 555.006 917.462 Q 552.100 914.356 552.100 909.081 Q 552.100 903.731 555.038 900.669 Q 557.981 897.600 563.100 897.600 Q 564.756 897.600 566.338 897.944 Q 567.919 898.281 569.406 898.962 Z M 579.213 891.913 L 579.213 898.125 L 586.612 898.125 L 586.612 900.919 L 579.213 900.919 L 579.213 912.794 Q 579.213 915.469 579.944 916.231 Q 580.675 916.994 582.925 916.994 L 586.612 916.994 L 586.612 920.000 L 582.925 920.000 Q 578.763 920.000 577.181 918.450 Q 575.600 916.894 575.600 912.794 L 575.600 900.919 L 572.963 900.919 L 572.963 898.125 L 575.600 898.125 L 575.600 891.913 L 579.213 891.913 Z M 591.338 898.125 L 594.931 898.125 L 594.931 920.000 L 591.338 920.000 L 591.338 898.125 Z M 591.338 889.606 L 594.931 889.606 L 594.931 894.163 L 591.338 894.163 L 591.338 889.606 Z M 599.875 898.125 L 603.681 898.125 L 610.519 916.481 L 617.356 898.125 L 621.163 898.125 L 612.956 920.000 L 608.075 920.000 L 599.875 898.125 Z M 634.600 900.644 Q 631.713 900.644 630.031 902.900 Q 628.350 905.156 628.350 909.081 Q 628.350 913.006 630.019 915.263 Q 631.694 917.519 634.600 917.519 Q 637.475 917.519 639.150 915.256 Q 640.831 912.987 640.831 909.081 Q 640.831 905.194 639.150 902.919 Q 637.475 900.644 634.600 900.644 Z M 634.600 897.600 Q 639.288 897.600 641.963 900.650 Q 644.644 903.694 644.644 909.081 Q 644.644 914.450 641.963 917.513 Q 639.288 920.569 634.600 920.569 Q 629.894 920.569 627.225 917.513 Q 624.562 914.450 624.562 909.081 Q 624.562 903.694 627.225 900.650 Q 629.894 897.600 634.600 897.600 Z M 664.506 916.681 L 670.950 916.681 L 670.950 894.431 L 663.938 895.837 L 663.938 892.244 L 670.913 890.837 L 674.856 890.837 L 674.856 916.681 L 681.300 916.681 L 681.300 920.000 L 664.506 920.000 L 664.506 916.681 Z M 689.269 915.038 L 693.394 915.038 L 693.394 920.000 L 689.269 920.000 L 689.269 915.038 Z" fill="#161513"/>
<path d="M 205.762 977.119 Q 205.762 975.669 206.281 974.400 Q 206.800 973.131 207.794 972.156 Q 208.831 971.163 210.100 970.644 Q 211.369 970.125 212.794 970.125 Q 214.219 970.125 215.494 970.656 Q 216.775 971.181 217.756 972.156 Q 218.769 973.169 219.287 974.431 Q 219.806 975.694 219.806 977.119 Q 219.806 978.562 219.275 979.844 Q 218.750 981.119 217.756 982.119 Q 216.756 983.112 215.475 983.644 Q 214.200 984.169 212.756 984.169 Q 211.331 984.169 210.056 983.644 Q 208.787 983.112 207.794 982.119 Q 206.819 981.119 206.287 979.844 Q 205.762 978.562 205.762 977.119 Z" fill="#161513"/>
<path d="M 249.925 962.837 L 253.869 962.837 L 253.869 992.000 L 249.925 992.000 L 249.925 962.837 Z M 279.756 978.794 L 279.756 992.000 L 276.163 992.000 L 276.163 978.913 Q 276.163 975.806 274.950 974.269 Q 273.738 972.725 271.319 972.725 Q 268.406 972.725 266.725 974.581 Q 265.044 976.431 265.044 979.638 L 265.044 992.000 L 261.431 992.000 L 261.431 970.125 L 265.044 970.125 L 265.044 973.525 Q 266.337 971.550 268.081 970.575 Q 269.831 969.600 272.119 969.600 Q 275.887 969.600 277.819 971.931 Q 279.756 974.263 279.756 978.794 Z M 301.312 980.806 Q 301.312 976.900 299.700 974.756 Q 298.094 972.606 295.181 972.606 Q 292.294 972.606 290.681 974.756 Q 289.069 976.900 289.069 980.806 Q 289.069 984.694 290.681 986.844 Q 292.294 988.994 295.181 988.994 Q 298.094 988.994 299.700 986.844 Q 301.312 984.694 301.312 980.806 Z M 304.906 989.288 Q 304.906 994.869 302.425 997.594 Q 299.950 1000.319 294.831 1000.319 Q 292.938 1000.319 291.256 1000.038 Q 289.575 999.756 287.994 999.169 L 287.994 995.675 Q 289.575 996.531 291.119 996.938 Q 292.663 997.350 294.262 997.350 Q 297.800 997.350 299.556 995.506 Q 301.312 993.663 301.312 989.931 L 301.312 988.150 Q 300.200 990.087 298.462 991.044 Q 296.725 992.000 294.300 992.000 Q 290.281 992.000 287.819 988.938 Q 285.356 985.869 285.356 980.806 Q 285.356 975.731 287.819 972.669 Q 290.281 969.600 294.300 969.600 Q 296.725 969.600 298.462 970.556 Q 300.200 971.513 301.312 973.444 L 301.312 970.125 L 304.906 970.125 L 304.906 989.288 Z M 324.988 973.481 Q 324.381 973.131 323.669 972.969 Q 322.956 972.800 322.100 972.800 Q 319.050 972.800 317.419 974.781 Q 315.788 976.763 315.788 980.475 L 315.788 992.000 L 312.175 992.000 L 312.175 970.125 L 315.788 970.125 L 315.788 973.525 Q 316.925 971.531 318.738 970.569 Q 320.556 969.600 323.156 969.600 Q 323.525 969.600 323.975 969.650 Q 324.425 969.694 324.969 969.794 L 324.988 973.481 Z M 346.587 980.163 L 346.587 981.919 L 330.062 981.919 Q 330.300 985.631 332.300 987.575 Q 334.300 989.519 337.875 989.519 Q 339.944 989.519 341.887 989.013 Q 343.831 988.506 345.750 987.487 L 345.750 990.888 Q 343.812 991.706 341.781 992.138 Q 339.750 992.569 337.663 992.569 Q 332.425 992.569 329.369 989.525 Q 326.312 986.475 326.312 981.275 Q 326.312 975.906 329.212 972.756 Q 332.113 969.600 337.038 969.600 Q 341.450 969.600 344.019 972.444 Q 346.587 975.281 346.587 980.163 Z M 342.994 979.106 Q 342.956 976.163 341.344 974.406 Q 339.731 972.644 337.075 972.644 Q 334.069 972.644 332.262 974.344 Q 330.456 976.044 330.181 979.131 L 342.994 979.106 Z M 366.881 973.444 L 366.881 961.606 L 370.475 961.606 L 370.475 992.000 L 366.881 992.000 L 366.881 988.719 Q 365.750 990.669 364.019 991.619 Q 362.294 992.569 359.869 992.569 Q 355.906 992.569 353.413 989.406 Q 350.925 986.237 350.925 981.081 Q 350.925 975.925 353.413 972.763 Q 355.906 969.600 359.869 969.600 Q 362.294 969.600 364.019 970.550 Q 365.750 971.494 366.881 973.444 Z M 354.637 981.081 Q 354.637 985.044 356.269 987.300 Q 357.900 989.556 360.750 989.556 Q 363.600 989.556 365.238 987.300 Q 366.881 985.044 366.881 981.081 Q 366.881 977.119 365.238 974.862 Q 363.600 972.606 360.750 972.606 Q 357.900 972.606 356.269 974.862 Q 354.637 977.119 354.637 981.081 Z M 377.881 970.125 L 381.475 970.125 L 381.475 992.000 L 377.881 992.000 L 377.881 970.125 Z M 377.881 961.606 L 381.475 961.606 L 381.475 966.163 L 377.881 966.163 L 377.881 961.606 Z M 407.706 980.163 L 407.706 981.919 L 391.181 981.919 Q 391.419 985.631 393.419 987.575 Q 395.419 989.519 398.994 989.519 Q 401.062 989.519 403.006 989.013 Q 404.950 988.506 406.869 987.487 L 406.869 990.888 Q 404.931 991.706 402.900 992.138 Q 400.869 992.569 398.781 992.569 Q 393.544 992.569 390.488 989.525 Q 387.431 986.475 387.431 981.275 Q 387.431 975.906 390.331 972.756 Q 393.231 969.600 398.156 969.600 Q 402.569 969.600 405.138 972.444 Q 407.706 975.281 407.706 980.163 Z M 404.113 979.106 Q 404.075 976.163 402.462 974.406 Q 400.850 972.644 398.194 972.644 Q 395.188 972.644 393.381 974.344 Q 391.575 976.044 391.300 979.131 L 404.113 979.106 Z M 431.794 978.794 L 431.794 992.000 L 428.200 992.000 L 428.200 978.913 Q 428.200 975.806 426.988 974.269 Q 425.775 972.725 423.356 972.725 Q 420.444 972.725 418.763 974.581 Q 417.081 976.431 417.081 979.638 L 417.081 992.000 L 413.469 992.000 L 413.469 970.125 L 417.081 970.125 L 417.081 973.525 Q 418.375 971.550 420.119 970.575 Q 421.869 969.600 424.156 969.600 Q 427.925 969.600 429.856 971.931 Q 431.794 974.263 431.794 978.794 Z M 442.513 963.913 L 442.513 970.125 L 449.913 970.125 L 449.913 972.919 L 442.513 972.919 L 442.513 984.794 Q 442.513 987.469 443.244 988.231 Q 443.975 988.994 446.225 988.994 L 449.913 988.994 L 449.913 992.000 L 446.225 992.000 Q 442.062 992.000 440.481 990.450 Q 438.900 988.894 438.900 984.794 L 438.900 972.919 L 436.263 972.919 L 436.263 970.125 L 438.900 970.125 L 438.900 963.913 L 442.513 963.913 Z M 473.350 980.163 L 473.350 981.919 L 456.825 981.919 Q 457.062 985.631 459.062 987.575 Q 461.062 989.519 464.638 989.519 Q 466.706 989.519 468.650 989.013 Q 470.594 988.506 472.513 987.487 L 472.513 990.888 Q 470.575 991.706 468.544 992.138 Q 466.513 992.569 464.425 992.569 Q 459.188 992.569 456.131 989.525 Q 453.075 986.475 453.075 981.275 Q 453.075 975.906 455.975 972.756 Q 458.875 969.600 463.800 969.600 Q 468.212 969.600 470.781 972.444 Q 473.350 975.281 473.350 980.163 Z M 469.756 979.106 Q 469.719 976.163 468.106 974.406 Q 466.494 972.644 463.837 972.644 Q 460.831 972.644 459.025 974.344 Q 457.219 976.044 456.944 979.131 L 469.756 979.106 Z M 500.438 972.644 Q 497.550 972.644 495.869 974.900 Q 494.188 977.156 494.188 981.081 Q 494.188 985.006 495.856 987.263 Q 497.531 989.519 500.438 989.519 Q 503.312 989.519 504.988 987.256 Q 506.669 984.987 506.669 981.081 Q 506.669 977.194 504.988 974.919 Q 503.312 972.644 500.438 972.644 Z M 500.438 969.600 Q 505.125 969.600 507.800 972.650 Q 510.481 975.694 510.481 981.081 Q 510.481 986.450 507.800 989.513 Q 505.125 992.569 500.438 992.569 Q 495.731 992.569 493.062 989.513 Q 490.400 986.450 490.400 981.081 Q 490.400 975.694 493.062 972.650 Q 495.731 969.600 500.438 969.600 Z M 539.094 981.006 Q 534.737 981.006 533.056 982.000 Q 531.375 982.994 531.375 985.400 Q 531.375 987.312 532.638 988.438 Q 533.900 989.556 536.062 989.556 Q 539.056 989.556 540.862 987.438 Q 542.669 985.319 542.669 981.806 L 542.669 981.006 L 539.094 981.006 Z M 546.263 979.519 L 546.263 992.000 L 542.669 992.000 L 542.669 988.681 Q 541.438 990.669 539.600 991.619 Q 537.763 992.569 535.106 992.569 Q 531.750 992.569 529.763 990.681 Q 527.781 988.794 527.781 985.631 Q 527.781 981.944 530.250 980.069 Q 532.725 978.194 537.625 978.194 L 542.669 978.194 L 542.669 977.837 Q 542.669 975.356 541.038 974.000 Q 539.406 972.644 536.456 972.644 Q 534.581 972.644 532.800 973.094 Q 531.025 973.544 529.388 974.444 L 529.388 971.119 Q 531.356 970.356 533.213 969.981 Q 535.069 969.600 536.825 969.600 Q 541.575 969.600 543.919 972.062 Q 546.263 974.519 546.263 979.519 Z M 569.406 970.962 L 569.406 974.325 Q 567.881 973.481 566.350 973.062 Q 564.819 972.644 563.256 972.644 Q 559.756 972.644 557.819 974.862 Q 555.888 977.075 555.888 981.081 Q 555.888 985.087 557.819 987.306 Q 559.756 989.519 563.256 989.519 Q 564.819 989.519 566.350 989.100 Q 567.881 988.681 569.406 987.837 L 569.406 991.163 Q 567.900 991.862 566.288 992.212 Q 564.681 992.569 562.862 992.569 Q 557.919 992.569 555.006 989.462 Q 552.100 986.356 552.100 981.081 Q 552.100 975.731 555.038 972.669 Q 557.981 969.600 563.100 969.600 Q 564.756 969.600 566.338 969.944 Q 567.919 970.281 569.406 970.962 Z M 579.213 963.913 L 579.213 970.125 L 586.612 970.125 L 586.612 972.919 L 579.213 972.919 L 579.213 984.794 Q 579.213 987.469 579.944 988.231 Q 580.675 988.994 582.925 988.994 L 586.612 988.994 L 586.612 992.000 L 582.925 992.000 Q 578.763 992.000 577.181 990.450 Q 575.600 988.894 575.600 984.794 L 575.600 972.919 L 572.963 972.919 L 572.963 970.125 L 575.600 970.125 L 575.600 963.913 L 579.213 963.913 Z M 591.338 970.125 L 594.931 970.125 L 594.931 992.000 L 591.338 992.000 L 591.338 970.125 Z M 591.338 961.606 L 594.931 961.606 L 594.931 966.163 L 591.338 966.163 L 591.338 961.606 Z M 599.875 970.125 L 603.681 970.125 L 610.519 988.481 L 617.356 970.125 L 621.163 970.125 L 612.956 992.000 L 608.075 992.000 L 599.875 970.125 Z M 634.600 972.644 Q 631.713 972.644 630.031 974.900 Q 628.350 977.156 628.350 981.081 Q 628.350 985.006 630.019 987.263 Q 631.694 989.519 634.600 989.519 Q 637.475 989.519 639.150 987.256 Q 640.831 984.987 640.831 981.081 Q 640.831 977.194 639.150 974.919 Q 637.475 972.644 634.600 972.644 Z M 634.600 969.600 Q 639.288 969.600 641.963 972.650 Q 644.644 975.694 644.644 981.081 Q 644.644 986.450 641.963 989.513 Q 639.288 992.569 634.600 992.569 Q 629.894 992.569 627.225 989.513 Q 624.562 986.450 624.562 981.081 Q 624.562 975.694 627.225 972.650 Q 629.894 969.600 634.600 969.600 Z M 667.219 988.681 L 680.987 988.681 L 680.987 992.000 L 662.475 992.000 L 662.475 988.681 Q 664.719 986.356 668.594 982.444 Q 672.475 978.525 673.469 977.388 Q 675.362 975.263 676.112 973.788 Q 676.869 972.312 676.869 970.888 Q 676.869 968.562 675.237 967.100 Q 673.606 965.631 670.987 965.631 Q 669.131 965.631 667.069 966.275 Q 665.013 966.919 662.669 968.231 L 662.669 964.244 Q 665.050 963.288 667.119 962.800 Q 669.194 962.312 670.913 962.312 Q 675.444 962.312 678.138 964.581 Q 680.831 966.844 680.831 970.631 Q 680.831 972.431 680.156 974.044 Q 679.487 975.650 677.706 977.837 Q 677.219 978.406 674.600 981.112 Q 671.987 983.819 667.219 988.681 Z M 689.269 987.038 L 693.394 987.038 L 693.394 992.000 L 689.269 992.000 L 689.269 987.038 Z" fill="#161513"/>
<path d="M 205.762 1049.119 Q 205.762 1047.669 206.281 1046.400 Q 206.800 1045.131 207.794 1044.156 Q 208.831 1043.162 210.100 1042.644 Q 211.369 1042.125 212.794 1042.125 Q 214.219 1042.125 215.494 1042.656 Q 216.775 1043.181 217.756 1044.156 Q 218.769 1045.169 219.287 1046.431 Q 219.806 1047.694 219.806 1049.119 Q 219.806 1050.562 219.275 1051.844 Q 218.750 1053.119 217.756 1054.119 Q 216.756 1055.112 215.475 1055.644 Q 214.200 1056.169 212.756 1056.169 Q 211.331 1056.169 210.056 1055.644 Q 208.787 1055.112 207.794 1054.119 Q 206.819 1053.119 206.287 1051.844 Q 205.762 1050.562 205.762 1049.119 Z" fill="#161513"/>
<path d="M 249.925 1034.838 L 253.869 1034.838 L 253.869 1064.000 L 249.925 1064.000 L 249.925 1034.838 Z M 279.756 1050.794 L 279.756 1064.000 L 276.163 1064.000 L 276.163 1050.912 Q 276.163 1047.806 274.950 1046.269 Q 273.738 1044.725 271.319 1044.725 Q 268.406 1044.725 266.725 1046.581 Q 265.044 1048.431 265.044 1051.638 L 265.044 1064.000 L 261.431 1064.000 L 261.431 1042.125 L 265.044 1042.125 L 265.044 1045.525 Q 266.337 1043.550 268.081 1042.575 Q 269.831 1041.600 272.119 1041.600 Q 275.887 1041.600 277.819 1043.931 Q 279.756 1046.263 279.756 1050.794 Z M 301.312 1052.806 Q 301.312 1048.900 299.700 1046.756 Q 298.094 1044.606 295.181 1044.606 Q 292.294 1044.606 290.681 1046.756 Q 289.069 1048.900 289.069 1052.806 Q 289.069 1056.694 290.681 1058.844 Q 292.294 1060.994 295.181 1060.994 Q 298.094 1060.994 299.700 1058.844 Q 301.312 1056.694 301.312 1052.806 Z M 304.906 1061.287 Q 304.906 1066.869 302.425 1069.594 Q 299.950 1072.319 294.831 1072.319 Q 292.938 1072.319 291.256 1072.037 Q 289.575 1071.756 287.994 1071.169 L 287.994 1067.675 Q 289.575 1068.531 291.119 1068.938 Q 292.663 1069.350 294.262 1069.350 Q 297.800 1069.350 299.556 1067.506 Q 301.312 1065.662 301.312 1061.931 L 301.312 1060.150 Q 300.200 1062.088 298.462 1063.044 Q 296.725 1064.000 294.300 1064.000 Q 290.281 1064.000 287.819 1060.938 Q 285.356 1057.869 285.356 1052.806 Q 285.356 1047.731 287.819 1044.669 Q 290.281 1041.600 294.300 1041.600 Q 296.725 1041.600 298.462 1042.556 Q 300.200 1043.513 301.312 1045.444 L 301.312 1042.125 L 304.906 1042.125 L 304.906 1061.287 Z M 324.988 1045.481 Q 324.381 1045.131 323.669 1044.969 Q 322.956 1044.800 322.100 1044.800 Q 319.050 1044.800 317.419 1046.781 Q 315.788 1048.763 315.788 1052.475 L 315.788 1064.000 L 312.175 1064.000 L 312.175 1042.125 L 315.788 1042.125 L 315.788 1045.525 Q 316.925 1043.531 318.738 1042.569 Q 320.556 1041.600 323.156 1041.600 Q 323.525 1041.600 323.975 1041.650 Q 324.425 1041.694 324.969 1041.794 L 324.988 1045.481 Z M 346.587 1052.162 L 346.587 1053.919 L 330.062 1053.919 Q 330.300 1057.631 332.300 1059.575 Q 334.300 1061.519 337.875 1061.519 Q 339.944 1061.519 341.887 1061.013 Q 343.831 1060.506 345.750 1059.487 L 345.750 1062.888 Q 343.812 1063.706 341.781 1064.138 Q 339.750 1064.569 337.663 1064.569 Q 332.425 1064.569 329.369 1061.525 Q 326.312 1058.475 326.312 1053.275 Q 326.312 1047.906 329.212 1044.756 Q 332.113 1041.600 337.038 1041.600 Q 341.450 1041.600 344.019 1044.444 Q 346.587 1047.281 346.587 1052.162 Z M 342.994 1051.106 Q 342.956 1048.162 341.344 1046.406 Q 339.731 1044.644 337.075 1044.644 Q 334.069 1044.644 332.262 1046.344 Q 330.456 1048.044 330.181 1051.131 L 342.994 1051.106 Z M 366.881 1045.444 L 366.881 1033.606 L 370.475 1033.606 L 370.475 1064.000 L 366.881 1064.000 L 366.881 1060.719 Q 365.750 1062.669 364.019 1063.619 Q 362.294 1064.569 359.869 1064.569 Q 355.906 1064.569 353.413 1061.406 Q 350.925 1058.237 350.925 1053.081 Q 350.925 1047.925 353.413 1044.763 Q 355.906 1041.600 359.869 1041.600 Q 362.294 1041.600 364.019 1042.550 Q 365.750 1043.494 366.881 1045.444 Z M 354.637 1053.081 Q 354.637 1057.044 356.269 1059.300 Q 357.900 1061.556 360.750 1061.556 Q 363.600 1061.556 365.238 1059.300 Q 366.881 1057.044 366.881 1053.081 Q 366.881 1049.119 365.238 1046.862 Q 363.600 1044.606 360.750 1044.606 Q 357.900 1044.606 356.269 1046.862 Q 354.637 1049.119 354.637 1053.081 Z M 377.881 1042.125 L 381.475 1042.125 L 381.475 1064.000 L 377.881 1064.000 L 377.881 1042.125 Z M 377.881 1033.606 L 381.475 1033.606 L 381.475 1038.162 L 377.881 1038.162 L 377.881 1033.606 Z M 407.706 1052.162 L 407.706 1053.919 L 391.181 1053.919 Q 391.419 1057.631 393.419 1059.575 Q 395.419 1061.519 398.994 1061.519 Q 401.062 1061.519 403.006 1061.013 Q 404.950 1060.506 406.869 1059.487 L 406.869 1062.888 Q 404.931 1063.706 402.900 1064.138 Q 400.869 1064.569 398.781 1064.569 Q 393.544 1064.569 390.488 1061.525 Q 387.431 1058.475 387.431 1053.275 Q 387.431 1047.906 390.331 1044.756 Q 393.231 1041.600 398.156 1041.600 Q 402.569 1041.600 405.138 1044.444 Q 407.706 1047.281 407.706 1052.162 Z M 404.113 1051.106 Q 404.075 1048.162 402.462 1046.406 Q 400.850 1044.644 398.194 1044.644 Q 395.188 1044.644 393.381 1046.344 Q 391.575 1048.044 391.300 1051.131 L 404.113 1051.106 Z M 431.794 1050.794 L 431.794 1064.000 L 428.200 1064.000 L 428.200 1050.912 Q 428.200 1047.806 426.988 1046.269 Q 425.775 1044.725 423.356 1044.725 Q 420.444 1044.725 418.763 1046.581 Q 417.081 1048.431 417.081 1051.638 L 417.081 1064.000 L 413.469 1064.000 L 413.469 1042.125 L 417.081 1042.125 L 417.081 1045.525 Q 418.375 1043.550 420.119 1042.575 Q 421.869 1041.600 424.156 1041.600 Q 427.925 1041.600 429.856 1043.931 Q 431.794 1046.263 431.794 1050.794 Z M 442.513 1035.912 L 442.513 1042.125 L 449.913 1042.125 L 449.913 1044.919 L 442.513 1044.919 L 442.513 1056.794 Q 442.513 1059.469 443.244 1060.231 Q 443.975 1060.994 446.225 1060.994 L 449.913 1060.994 L 449.913 1064.000 L 446.225 1064.000 Q 442.062 1064.000 440.481 1062.450 Q 438.900 1060.894 438.900 1056.794 L 438.900 1044.919 L 436.263 1044.919 L 436.263 1042.125 L 438.900 1042.125 L 438.900 1035.912 L 442.513 1035.912 Z M 473.350 1052.162 L 473.350 1053.919 L 456.825 1053.919 Q 457.062 1057.631 459.062 1059.575 Q 461.062 1061.519 464.638 1061.519 Q 466.706 1061.519 468.650 1061.013 Q 470.594 1060.506 472.513 1059.487 L 472.513 1062.888 Q 470.575 1063.706 468.544 1064.138 Q 466.513 1064.569 464.425 1064.569 Q 459.188 1064.569 456.131 1061.525 Q 453.075 1058.475 453.075 1053.275 Q 453.075 1047.906 455.975 1044.756 Q 458.875 1041.600 463.800 1041.600 Q 468.212 1041.600 470.781 1044.444 Q 473.350 1047.281 473.350 1052.162 Z M 469.756 1051.106 Q 469.719 1048.162 468.106 1046.406 Q 466.494 1044.644 463.837 1044.644 Q 460.831 1044.644 459.025 1046.344 Q 457.219 1048.044 456.944 1051.131 L 469.756 1051.106 Z M 500.438 1044.644 Q 497.550 1044.644 495.869 1046.900 Q 494.188 1049.156 494.188 1053.081 Q 494.188 1057.006 495.856 1059.263 Q 497.531 1061.519 500.438 1061.519 Q 503.312 1061.519 504.988 1059.256 Q 506.669 1056.987 506.669 1053.081 Q 506.669 1049.194 504.988 1046.919 Q 503.312 1044.644 500.438 1044.644 Z M 500.438 1041.600 Q 505.125 1041.600 507.800 1044.650 Q 510.481 1047.694 510.481 1053.081 Q 510.481 1058.450 507.800 1061.513 Q 505.125 1064.569 500.438 1064.569 Q 495.731 1064.569 493.062 1061.513 Q 490.400 1058.450 490.400 1053.081 Q 490.400 1047.694 493.062 1044.650 Q 495.731 1041.600 500.438 1041.600 Z M 539.094 1053.006 Q 534.737 1053.006 533.056 1054.000 Q 531.375 1054.994 531.375 1057.400 Q 531.375 1059.312 532.638 1060.438 Q 533.900 1061.556 536.062 1061.556 Q 539.056 1061.556 540.862 1059.438 Q 542.669 1057.319 542.669 1053.806 L 542.669 1053.006 L 539.094 1053.006 Z M 546.263 1051.519 L 546.263 1064.000 L 542.669 1064.000 L 542.669 1060.681 Q 541.438 1062.669 539.600 1063.619 Q 537.763 1064.569 535.106 1064.569 Q 531.750 1064.569 529.763 1062.681 Q 527.781 1060.794 527.781 1057.631 Q 527.781 1053.944 530.250 1052.069 Q 532.725 1050.194 537.625 1050.194 L 542.669 1050.194 L 542.669 1049.838 Q 542.669 1047.356 541.038 1046.000 Q 539.406 1044.644 536.456 1044.644 Q 534.581 1044.644 532.800 1045.094 Q 531.025 1045.544 529.388 1046.444 L 529.388 1043.119 Q 531.356 1042.356 533.213 1041.981 Q 535.069 1041.600 536.825 1041.600 Q 541.575 1041.600 543.919 1044.062 Q 546.263 1046.519 546.263 1051.519 Z M 569.406 1042.963 L 569.406 1046.325 Q 567.881 1045.481 566.350 1045.062 Q 564.819 1044.644 563.256 1044.644 Q 559.756 1044.644 557.819 1046.862 Q 555.888 1049.075 555.888 1053.081 Q 555.888 1057.088 557.819 1059.306 Q 559.756 1061.519 563.256 1061.519 Q 564.819 1061.519 566.350 1061.100 Q 567.881 1060.681 569.406 1059.838 L 569.406 1063.162 Q 567.900 1063.862 566.288 1064.213 Q 564.681 1064.569 562.862 1064.569 Q 557.919 1064.569 555.006 1061.463 Q 552.100 1058.356 552.100 1053.081 Q 552.100 1047.731 555.038 1044.669 Q 557.981 1041.600 563.100 1041.600 Q 564.756 1041.600 566.338 1041.944 Q 567.919 1042.281 569.406 1042.963 Z M 579.213 1035.912 L 579.213 1042.125 L 586.612 1042.125 L 586.612 1044.919 L 579.213 1044.919 L 579.213 1056.794 Q 579.213 1059.469 579.944 1060.231 Q 580.675 1060.994 582.925 1060.994 L 586.612 1060.994 L 586.612 1064.000 L 582.925 1064.000 Q 578.763 1064.000 577.181 1062.450 Q 575.600 1060.894 575.600 1056.794 L 575.600 1044.919 L 572.963 1044.919 L 572.963 1042.125 L 575.600 1042.125 L 575.600 1035.912 L 579.213 1035.912 Z M 591.338 1042.125 L 594.931 1042.125 L 594.931 1064.000 L 591.338 1064.000 L 591.338 1042.125 Z M 591.338 1033.606 L 594.931 1033.606 L 594.931 1038.162 L 591.338 1038.162 L 591.338 1033.606 Z M 599.875 1042.125 L 603.681 1042.125 L 610.519 1060.481 L 617.356 1042.125 L 621.163 1042.125 L 612.956 1064.000 L 608.075 1064.000 L 599.875 1042.125 Z M 634.600 1044.644 Q 631.713 1044.644 630.031 1046.900 Q 628.350 1049.156 628.350 1053.081 Q 628.350 1057.006 630.019 1059.263 Q 631.694 1061.519 634.600 1061.519 Q 637.475 1061.519 639.150 1059.256 Q 640.831 1056.987 640.831 1053.081 Q 640.831 1049.194 639.150 1046.919 Q 637.475 1044.644 634.600 1044.644 Z M 634.600 1041.600 Q 639.288 1041.600 641.963 1044.650 Q 644.644 1047.694 644.644 1053.081 Q 644.644 1058.450 641.963 1061.513 Q 639.288 1064.569 634.600 1064.569 Q 629.894 1064.569 627.225 1061.513 Q 624.562 1058.450 624.562 1053.081 Q 624.562 1047.694 627.225 1044.650 Q 629.894 1041.600 634.600 1041.600 Z M 675.775 1048.275 Q 678.606 1048.881 680.194 1050.800 Q 681.788 1052.713 681.788 1055.525 Q 681.788 1059.838 678.819 1062.206 Q 675.850 1064.569 670.381 1064.569 Q 668.550 1064.569 666.606 1064.206 Q 664.663 1063.844 662.594 1063.119 L 662.594 1059.312 Q 664.231 1060.269 666.181 1060.756 Q 668.138 1061.244 670.269 1061.244 Q 673.975 1061.244 675.919 1059.781 Q 677.862 1058.319 677.862 1055.525 Q 677.862 1052.944 676.056 1051.494 Q 674.250 1050.037 671.031 1050.037 L 667.631 1050.037 L 667.631 1046.794 L 671.188 1046.794 Q 674.094 1046.794 675.638 1045.631 Q 677.181 1044.469 677.181 1042.281 Q 677.181 1040.037 675.588 1038.838 Q 674.000 1037.631 671.031 1037.631 Q 669.406 1037.631 667.550 1037.987 Q 665.694 1038.338 663.469 1039.075 L 663.469 1035.562 Q 665.719 1034.938 667.681 1034.625 Q 669.644 1034.312 671.381 1034.312 Q 675.875 1034.312 678.487 1036.356 Q 681.106 1038.394 681.106 1041.869 Q 681.106 1044.294 679.719 1045.963 Q 678.331 1047.631 675.775 1048.275 Z M 689.269 1059.037 L 693.394 1059.037 L 693.394 1064.000 L 689.269 1064.000 L 689.269 1059.037 Z" fill="#161513"/>
<rect x="2000" y="610" width="420" height="420" rx="36" fill="#FFFFFF" stroke="#D9CEC0" stroke-width="4"/>
<path d="M 2202.484 851.312 L 2201.016 851.312 Q 2183.000 851.312 2172.984 841.359 Q 2162.984 831.391 2162.984 813.625 Q 2162.984 795.891 2172.969 785.844 Q 2182.953 775.781 2200.484 775.781 Q 2218.203 775.781 2228.094 785.750 Q 2237.984 795.703 2237.984 813.625 Q 2237.984 825.922 2232.734 834.812 Q 2227.484 843.703 2217.625 848.188 L 2232.312 864.594 L 2214.391 864.594 L 2202.484 851.312 Z M 2200.484 789.406 Q 2191.891 789.406 2187.156 795.750 Q 2182.422 802.094 2182.422 813.625 Q 2182.422 825.344 2187.047 831.578 Q 2191.688 837.797 2200.484 837.797 Q 2209.125 837.797 2213.859 831.453 Q 2218.594 825.094 2218.594 813.625 Q 2218.594 802.094 2213.859 795.750 Q 2209.125 789.406 2200.484 789.406 Z M 2278.906 809.422 Q 2284.812 809.422 2287.375 807.234 Q 2289.938 805.031 2289.938 800.000 Q 2289.938 795.016 2287.375 792.875 Q 2284.812 790.719 2278.906 790.719 L 2271.000 790.719 L 2271.000 809.422 L 2278.906 809.422 Z M 2271.000 822.406 L 2271.000 850.000 L 2252.203 850.000 L 2252.203 777.094 L 2280.906 777.094 Q 2295.312 777.094 2302.016 781.938 Q 2308.734 786.766 2308.734 797.219 Q 2308.734 804.438 2305.234 809.078 Q 2301.750 813.719 2294.719 815.922 Q 2298.578 816.797 2301.625 819.906 Q 2304.688 823.000 2307.812 829.297 L 2318.016 850.000 L 2298.000 850.000 L 2289.109 831.891 Q 2286.422 826.422 2283.656 824.422 Q 2280.906 822.406 2276.312 822.406 L 2271.000 822.406 Z" fill="#675F55"/>
</g>
</svg>